<svg width="379" height="283" viewBox="0 0 379 283" fill="none" xmlns="http://www.w3.org/2000/svg">
<g clip-path="url(#clip0_3295_86148)">
<g clip-path="url(#clip1_3295_86148)">
<g opacity="0.68">
<g style="mix-blend-mode:multiply">
<line x1="250.193" y1="-1.57861" x2="250.193" y2="263.096" stroke="#ECEEED" stroke-width="0.790073"/>
</g>
<g style="mix-blend-mode:multiply">
<line x1="269.155" y1="-1.57861" x2="269.155" y2="263.096" stroke="#ECEEED" stroke-width="0.790073"/>
</g>
<g style="mix-blend-mode:multiply">
<line x1="288.117" y1="-1.57861" x2="288.117" y2="263.096" stroke="#ECEEED" stroke-width="0.790073"/>
</g>
<g style="mix-blend-mode:multiply">
<line x1="307.079" y1="-1.57861" x2="307.079" y2="263.096" stroke="#ECEEED" stroke-width="0.790073"/>
</g>
<g style="mix-blend-mode:multiply">
<line x1="326.041" y1="-1.57861" x2="326.041" y2="263.096" stroke="#ECEEED" stroke-width="0.790073"/>
</g>
<g style="mix-blend-mode:multiply">
<line x1="345.002" y1="-1.57861" x2="345.002" y2="263.096" stroke="#ECEEED" stroke-width="0.790073"/>
</g>
<g style="mix-blend-mode:multiply">
<line x1="363.964" y1="-1.57861" x2="363.964" y2="263.096" stroke="#ECEEED" stroke-width="0.790073"/>
</g>
</g>
<g opacity="0.68">
<g style="mix-blend-mode:multiply">
<line x1="465.49" y1="10.668" x2="200.815" y2="10.668" stroke="#ECEEED" stroke-width="0.790073"/>
</g>
<g style="mix-blend-mode:multiply">
<line x1="465.49" y1="29.6299" x2="200.815" y2="29.6299" stroke="#ECEEED" stroke-width="0.790073"/>
</g>
<g style="mix-blend-mode:multiply">
<line x1="465.49" y1="48.5913" x2="200.815" y2="48.5913" stroke="#ECEEED" stroke-width="0.790073"/>
</g>
<g style="mix-blend-mode:multiply">
<line x1="465.49" y1="67.5532" x2="200.815" y2="67.5532" stroke="#ECEEED" stroke-width="0.790073"/>
</g>
<g style="mix-blend-mode:multiply">
<line x1="465.49" y1="86.5152" x2="200.815" y2="86.5151" stroke="#ECEEED" stroke-width="0.790073"/>
</g>
<g style="mix-blend-mode:multiply">
<line x1="465.49" y1="105.477" x2="200.815" y2="105.477" stroke="#ECEEED" stroke-width="0.790073"/>
</g>
<g style="mix-blend-mode:multiply">
<line x1="465.49" y1="124.438" x2="200.815" y2="124.438" stroke="#ECEEED" stroke-width="0.790073"/>
</g>
<g style="mix-blend-mode:multiply">
<line x1="465.49" y1="143.4" x2="200.815" y2="143.4" stroke="#ECEEED" stroke-width="0.790073"/>
</g>
<g style="mix-blend-mode:multiply">
<line x1="465.49" y1="162.362" x2="200.815" y2="162.362" stroke="#ECEEED" stroke-width="0.790073"/>
</g>
<g style="mix-blend-mode:multiply">
<line x1="465.49" y1="181.324" x2="200.815" y2="181.324" stroke="#ECEEED" stroke-width="0.790073"/>
</g>
<g style="mix-blend-mode:multiply">
<line x1="465.49" y1="200.286" x2="200.815" y2="200.286" stroke="#ECEEED" stroke-width="0.790073"/>
</g>
<g style="mix-blend-mode:multiply">
<line x1="465.49" y1="219.248" x2="200.815" y2="219.248" stroke="#ECEEED" stroke-width="0.790073"/>
</g>
<g style="mix-blend-mode:multiply">
<line x1="465.49" y1="238.209" x2="200.815" y2="238.209" stroke="#ECEEED" stroke-width="0.790073"/>
</g>
</g>
</g>
<g clip-path="url(#clip2_3295_86148)">
<g opacity="0.68">
<g style="mix-blend-mode:multiply">
<line x1="43.1973" y1="-1.57861" x2="43.1973" y2="263.096" stroke="#ECEEED" stroke-width="0.790073"/>
</g>
<g style="mix-blend-mode:multiply">
<line x1="62.1592" y1="-1.57861" x2="62.1592" y2="263.096" stroke="#ECEEED" stroke-width="0.790073"/>
</g>
<g style="mix-blend-mode:multiply">
<line x1="81.1211" y1="-1.57861" x2="81.1211" y2="263.096" stroke="#ECEEED" stroke-width="0.790073"/>
</g>
<g style="mix-blend-mode:multiply">
<line x1="100.083" y1="-1.57861" x2="100.083" y2="263.096" stroke="#ECEEED" stroke-width="0.790073"/>
</g>
<g style="mix-blend-mode:multiply">
<line x1="119.044" y1="-1.57861" x2="119.044" y2="263.096" stroke="#ECEEED" stroke-width="0.790073"/>
</g>
<g style="mix-blend-mode:multiply">
<line x1="138.006" y1="-1.57861" x2="138.006" y2="263.096" stroke="#ECEEED" stroke-width="0.790073"/>
</g>
<g style="mix-blend-mode:multiply">
<line x1="156.968" y1="-1.57861" x2="156.968" y2="263.096" stroke="#ECEEED" stroke-width="0.790073"/>
</g>
<g style="mix-blend-mode:multiply">
<line x1="175.93" y1="-1.57861" x2="175.93" y2="263.096" stroke="#ECEEED" stroke-width="0.790073"/>
</g>
<g style="mix-blend-mode:multiply">
<line x1="194.892" y1="-1.57861" x2="194.892" y2="263.096" stroke="#ECEEED" stroke-width="0.790073"/>
</g>
<g style="mix-blend-mode:multiply">
<line x1="213.854" y1="-1.57861" x2="213.854" y2="263.096" stroke="#ECEEED" stroke-width="0.790073"/>
</g>
<g style="mix-blend-mode:multiply">
<line x1="232.815" y1="-1.57861" x2="232.815" y2="263.096" stroke="#ECEEED" stroke-width="0.790073"/>
</g>
</g>
<g opacity="0.68">
<g style="mix-blend-mode:multiply">
<line x1="258.494" y1="10.668" x2="-6.18082" y2="10.668" stroke="#ECEEED" stroke-width="0.790073"/>
</g>
<g style="mix-blend-mode:multiply">
<line x1="258.494" y1="29.6299" x2="-6.18082" y2="29.6299" stroke="#ECEEED" stroke-width="0.790073"/>
</g>
<g style="mix-blend-mode:multiply">
<line x1="258.494" y1="48.5918" x2="-6.18082" y2="48.5918" stroke="#ECEEED" stroke-width="0.790073"/>
</g>
<g style="mix-blend-mode:multiply">
<line x1="258.494" y1="67.5532" x2="-6.18082" y2="67.5532" stroke="#ECEEED" stroke-width="0.790073"/>
</g>
<g style="mix-blend-mode:multiply">
<line x1="258.494" y1="86.5152" x2="-6.18082" y2="86.5151" stroke="#ECEEED" stroke-width="0.790073"/>
</g>
<g style="mix-blend-mode:multiply">
<line x1="258.494" y1="105.477" x2="-6.18082" y2="105.477" stroke="#ECEEED" stroke-width="0.790073"/>
</g>
<g style="mix-blend-mode:multiply">
<line x1="258.494" y1="124.438" x2="-6.18082" y2="124.438" stroke="#ECEEED" stroke-width="0.790073"/>
</g>
<g style="mix-blend-mode:multiply">
<line x1="258.494" y1="143.4" x2="-6.18082" y2="143.4" stroke="#ECEEED" stroke-width="0.790073"/>
</g>
<g style="mix-blend-mode:multiply">
<line x1="258.494" y1="162.362" x2="-6.18082" y2="162.362" stroke="#ECEEED" stroke-width="0.790073"/>
</g>
<g style="mix-blend-mode:multiply">
<line x1="258.494" y1="181.324" x2="-6.18082" y2="181.324" stroke="#ECEEED" stroke-width="0.790073"/>
</g>
<g style="mix-blend-mode:multiply">
<line x1="258.494" y1="200.286" x2="-6.18082" y2="200.286" stroke="#ECEEED" stroke-width="0.790073"/>
</g>
<g style="mix-blend-mode:multiply">
<line x1="258.494" y1="219.248" x2="-6.18082" y2="219.248" stroke="#ECEEED" stroke-width="0.790073"/>
</g>
<g style="mix-blend-mode:multiply">
<line x1="258.494" y1="238.209" x2="-6.18082" y2="238.209" stroke="#ECEEED" stroke-width="0.790073"/>
</g>
</g>
</g>
</g>
<rect width="63.4923" height="283" fill="url(#paint0_linear_3295_86148)"/>
<rect y="14.0005" width="43.9562" height="258" fill="url(#paint1_linear_3295_86148)"/>
<rect x="12.6982" y="283" width="31" height="366.302" transform="rotate(-90 12.6982 283)" fill="url(#paint2_linear_3295_86148)"/>
<path d="M124.023 101.624V67.2669C124.023 64.4594 124.023 63.0556 124.565 61.9833L135.434 44.9824C136.65 44.9824 139.988 64.9517 140.56 65.0902C141.067 65.213 141.552 65.4156 141.997 65.6904C142.498 66.0004 142.928 66.4339 143.788 67.3009L180.163 87.7738L177.449 67.2669C177.449 64.4594 175.782 66.975 176.324 65.9026L188.686 45.9333L218.164 46.8843L218.304 65.3349C231.183 64.1612 243.839 64.1223 243.839 73.9854C243.839 88.2492 232.428 103.147 224.821 106.908C219.285 109.645 213.645 109.645 207.469 109.645H207.462H206.096C204.881 109.645 204.273 109.645 203.701 109.506C203.194 109.384 202.709 109.181 202.264 108.906C201.763 108.596 201.333 108.163 200.474 107.296L190.318 97.5347L189.367 96.6207C186.045 99.9666 176.943 108.942 174.736 109.099C173.673 109.645 172.281 109.645 169.498 109.645H131.975C129.192 109.645 127.8 109.645 126.737 109.099C125.802 108.618 125.042 107.851 124.565 106.908C124.023 105.835 124.023 104.432 124.023 101.624Z" fill="#181A1A"/>
<path d="M129.734 105.601L135.168 100.847C135.341 100.695 135.563 100.611 135.794 100.611H178.309C179.214 100.611 179.608 101.757 178.893 102.313L172.78 107.067C172.613 107.197 172.407 107.268 172.196 107.268H130.36C129.482 107.268 129.073 106.179 129.734 105.601Z" fill="#181A1A"/>
<path d="M143.387 98.2336C140.603 98.2336 139.212 98.2336 138.149 97.6872C137.214 97.2066 136.453 96.4398 135.977 95.4965C135.435 94.4242 135.435 93.0204 135.435 90.2129V52.0519C135.435 49.2444 135.435 47.8407 135.977 46.7684C136.453 45.8251 137.214 45.0582 138.149 44.5776C139.212 44.0312 140.603 44.0312 143.387 44.0312H155.282C156.498 44.0312 157.106 44.0312 157.678 44.1698C158.185 44.2926 158.669 44.4951 159.114 44.77C159.616 45.08 160.045 45.5135 160.905 46.3805L188.861 74.5788V52.0519C188.861 49.2444 188.861 47.8407 189.403 46.7684C189.879 45.8251 190.639 45.0582 191.574 44.5776C192.638 44.0312 194.029 44.0312 196.813 44.0312H216.972C231.81 44.0312 243.84 56.1649 243.84 71.1324C243.84 86.1 231.81 98.2336 216.972 98.2336H215.606C214.39 98.2336 213.783 98.2336 213.211 98.0951C212.704 97.9723 212.219 97.7698 211.774 97.4949C211.273 97.1849 210.843 96.7514 209.983 95.8844L188.861 74.5788V90.2129C188.861 93.0204 188.861 94.4242 188.319 95.4965C187.843 96.4398 187.082 97.2066 186.147 97.6872C185.084 98.2336 183.693 98.2336 180.909 98.2336H143.387Z" fill="white"/>
<path d="M188.861 74.5788L160.905 46.3805C160.045 45.5135 159.616 45.08 159.114 44.77C158.669 44.4951 158.185 44.2926 157.678 44.1698C157.106 44.0312 156.498 44.0312 155.282 44.0312H143.387C140.603 44.0312 139.212 44.0312 138.149 44.5776C137.214 45.0582 136.453 45.8251 135.977 46.7684C135.435 47.8407 135.435 49.2444 135.435 52.0519V90.2129C135.435 93.0204 135.435 94.4242 135.977 95.4965C136.453 96.4398 137.214 97.2066 138.149 97.6872C139.212 98.2336 140.603 98.2336 143.387 98.2336H180.909C183.693 98.2336 185.084 98.2336 186.147 97.6872C187.082 97.2066 187.843 96.4398 188.319 95.4965C188.861 94.4242 188.861 93.0204 188.861 90.2129V74.5788ZM188.861 74.5788L209.983 95.8844C210.843 96.7514 211.273 97.1849 211.774 97.4949C212.219 97.7698 212.704 97.9723 213.211 98.0951C213.783 98.2336 214.39 98.2336 215.606 98.2336H216.972C231.81 98.2336 243.84 86.1 243.84 71.1324C243.84 56.1649 231.81 44.0312 216.972 44.0312H196.813C194.029 44.0312 192.638 44.0312 191.574 44.5776C190.639 45.0582 189.879 45.8251 189.403 46.7684C188.861 47.8407 188.861 49.2444 188.861 52.0519V74.5788Z" stroke="#181A1A" stroke-width="2.85276"/>
<path d="M208.762 104.666L212.656 99.9306C212.87 99.6696 213.21 99.5439 213.545 99.5905C219.976 100.486 225.253 98.8037 228.578 97.2118C229.505 96.7679 230.484 97.7783 229.8 98.5457C226.513 102.234 219.987 107.255 209.356 106.167C208.624 106.092 208.294 105.235 208.762 104.666Z" fill="#181A1A"/>
<path d="M135.321 193.503L174.326 179.312C175.089 179.035 175.928 178.891 176.777 178.891C177.627 178.891 178.465 179.035 179.228 179.312L218.237 193.503C220.084 194.174 221.247 195.539 221.247 197.034V208.336C221.247 209.828 220.084 211.196 218.237 211.867L179.235 226.056C178.472 226.333 177.634 226.477 176.784 226.477C175.935 226.477 175.096 226.333 174.333 226.056L135.321 211.867C134.424 211.547 133.666 211.046 133.134 210.422C132.602 209.798 132.317 209.075 132.311 208.336V197.034C132.311 195.539 133.474 194.174 135.321 193.503Z" fill="#2B5C4F"/>
<path d="M137.083 198.296L177.349 211.75L216.114 198.296M177.349 222.46V211.758" stroke="white" stroke-width="0.807916" stroke-linecap="round" stroke-linejoin="round"/>
<path d="M135.458 172.439L174.464 158.74C175.227 158.473 176.065 158.334 176.915 158.334C177.764 158.334 178.603 158.473 179.366 158.74L218.375 172.439C220.221 173.087 221.385 174.404 221.385 175.847V186.757C221.385 188.198 220.221 189.518 218.375 190.166L179.373 203.862C178.61 204.129 177.772 204.268 176.922 204.268C176.072 204.268 175.234 204.129 174.471 203.862L135.458 190.166C134.562 189.857 133.804 189.373 133.272 188.771C132.74 188.168 132.454 187.47 132.449 186.757V175.847C132.449 174.404 133.612 173.087 135.458 172.439Z" fill="white" stroke="#616161" stroke-width="0.807916" stroke-linecap="round" stroke-linejoin="round"/>
<path d="M137.22 177.068L177.486 190.055L216.252 177.068M177.486 200.393V190.063Z" fill="white"/>
<path d="M137.22 177.068L177.486 190.055L216.252 177.068M177.486 200.393V190.063" stroke="#D4DCDC" stroke-width="0.807916" stroke-linecap="round" stroke-linejoin="round"/>
<path d="M176.045 168.611C176.308 168.52 176.629 168.507 176.913 168.575L192.278 172.27C193.021 172.449 193.117 173.048 192.444 173.3L178.252 178.616C177.977 178.718 177.633 178.734 177.333 178.656L161.763 174.636C161.024 174.446 160.958 173.842 161.649 173.602L176.045 168.611Z" fill="#D4DCDC"/>
<path d="M223.18 120.602L189.759 173.035" stroke="#616161" stroke-width="0.807916" stroke-linecap="round" stroke-dasharray="4.04 4.04"/>
<path d="M177.837 130.233L177.837 178.39" stroke="#616161" stroke-width="0.807916" stroke-linecap="round" stroke-dasharray="4.04 4.04"/>
<path d="M132.784 122.4L169.415 173.033" stroke="#616161" stroke-width="0.807916" stroke-linecap="round" stroke-dasharray="4.04 4.04"/>
<ellipse cx="253.878" cy="41.8225" rx="3.02412" ry="3.09593" fill="#FFADDF"/>
<path d="M123.056 39.4719C124.251 39.4719 125.22 38.471 125.22 37.2359C125.22 36.0013 124.251 35 123.056 35C121.862 35 120.893 36.0015 120.893 37.2359C120.893 38.471 121.862 39.4719 123.056 39.4719Z" fill="white" stroke="#74777C" stroke-width="0.74531" stroke-linecap="round" stroke-linejoin="round"/>
<path d="M107.914 51.3968C108.71 51.3968 109.356 50.7295 109.356 49.9061C109.356 49.083 108.71 48.4155 107.914 48.4155C107.117 48.4155 106.472 49.0832 106.472 49.9061C106.472 50.7295 107.117 51.3968 107.914 51.3968Z" fill="white" stroke="#74777C" stroke-width="0.74531" stroke-linecap="round" stroke-linejoin="round"/>
<defs>
<linearGradient id="paint0_linear_3295_86148" x1="21.5471" y1="60.1564" x2="91.1904" y2="60.1564" gradientUnits="userSpaceOnUse">
<stop stop-color="white"/>
<stop offset="1" stop-color="white" stop-opacity="0"/>
</linearGradient>
<linearGradient id="paint1_linear_3295_86148" x1="14.9172" y1="68.8427" x2="63.1318" y2="68.8427" gradientUnits="userSpaceOnUse">
<stop stop-color="white"/>
<stop offset="1" stop-color="white" stop-opacity="0"/>
</linearGradient>
<linearGradient id="paint2_linear_3295_86148" x1="23.2186" y1="360.864" x2="57.2218" y2="360.864" gradientUnits="userSpaceOnUse">
<stop stop-color="white"/>
<stop offset="1" stop-color="white" stop-opacity="0"/>
</linearGradient>
<clipPath id="clip0_3295_86148">
<rect width="350.673" height="263" fill="white" transform="translate(26.3735)"/>
</clipPath>
<clipPath id="clip1_3295_86148">
<rect width="220.43" height="264.674" fill="white" transform="translate(233.998 -1.58008)"/>
</clipPath>
<clipPath id="clip2_3295_86148">
<rect width="229.121" height="264.674" fill="white" transform="translate(4.87695 -1.58008)"/>
</clipPath>
</defs>
</svg>
