<svg width="155" height="192" viewBox="0 0 155 192" fill="none" xmlns="http://www.w3.org/2000/svg">
<path d="M18.5156 67.2897V32.9324C18.5156 30.1249 18.5156 28.7211 19.0573 27.6488L29.9267 10.6479C31.1422 10.6479 34.4806 30.6172 35.0526 30.7557C35.5597 30.8785 36.0444 31.081 36.4891 31.3559C36.9907 31.6659 37.4204 32.0994 38.28 32.9664L74.655 53.4392L71.9415 32.9324C71.9415 30.1249 70.2745 32.6404 70.8162 31.5681L83.1781 11.5988L112.657 12.5497L112.797 31.0003C125.675 29.8267 138.331 29.7877 138.331 39.6509C138.331 53.9147 126.92 68.8121 119.313 72.5733C113.777 75.3104 108.137 75.3104 101.961 75.3104H101.954H100.588C99.3729 75.3104 98.7651 75.3104 98.1931 75.1719C97.686 75.0491 97.2013 74.8465 96.7566 74.5717C96.2551 74.2617 95.8253 73.8282 94.9657 72.9612L84.8104 63.2002L83.8594 62.2861C80.5374 65.6321 71.4348 74.6076 69.2279 74.764C68.1648 75.3104 66.7731 75.3104 63.9897 75.3104H26.4674C23.684 75.3104 22.2923 75.3104 21.2292 74.764C20.2941 74.2834 19.5338 73.5165 19.0573 72.5733C18.5156 71.5009 18.5156 70.0972 18.5156 67.2897Z" fill="#181A1A"/>
<path d="M24.225 71.2667L29.6588 66.5121C29.8321 66.3604 30.0546 66.2768 30.285 66.2768H72.8003C73.7057 66.2768 74.0988 67.4224 73.3841 67.9783L67.271 72.7329C67.1041 72.8627 66.8987 72.9332 66.6872 72.9332H24.8511C23.9731 72.9332 23.5642 71.8449 24.225 71.2667Z" fill="#181A1A"/>
<path d="M37.8775 63.899C35.0942 63.899 33.7025 63.899 32.6394 63.3526C31.7042 62.872 30.9439 62.1051 30.4675 61.1619C29.9258 60.0895 29.9258 58.6858 29.9258 55.8783V17.7173C29.9258 14.9098 29.9258 13.506 30.4675 12.4337C30.9439 11.4905 31.7042 10.7236 32.6394 10.243C33.7025 9.69659 35.0942 9.69659 37.8775 9.69659H49.7729C50.9885 9.69659 51.5963 9.69659 52.1682 9.8351C52.6753 9.9579 53.1601 10.1604 53.6048 10.4353C54.1063 10.7453 54.5361 11.1788 55.3956 12.0458L83.3516 40.2442V17.7173C83.3516 14.9098 83.3516 13.506 83.8933 12.4337C84.3698 11.4905 85.1301 10.7236 86.0652 10.243C87.1283 9.69659 88.52 9.69659 91.3034 9.69659L111.462 9.69659C126.301 9.69659 138.331 21.8302 138.331 36.7978C138.331 51.7654 126.301 63.899 111.462 63.899H110.097C108.881 63.899 108.273 63.899 107.701 63.7605C107.194 63.6377 106.71 63.4351 106.265 63.1603C105.763 62.8503 105.334 62.4168 104.474 61.5498L83.3516 40.2442V55.8783C83.3516 58.6858 83.3516 60.0895 82.8099 61.1619C82.3335 62.1051 81.5732 62.872 80.638 63.3526C79.5749 63.899 78.1832 63.899 75.3999 63.899H37.8775Z" fill="white"/>
<path d="M83.3516 40.2442L55.3956 12.0458C54.5361 11.1788 54.1063 10.7453 53.6048 10.4353C53.1601 10.1604 52.6753 9.9579 52.1682 9.8351C51.5963 9.69659 50.9885 9.69659 49.7729 9.69659H37.8775C35.0942 9.69659 33.7025 9.69659 32.6394 10.243C31.7042 10.7236 30.9439 11.4905 30.4675 12.4337C29.9258 13.506 29.9258 14.9098 29.9258 17.7173V55.8783C29.9258 58.6858 29.9258 60.0895 30.4675 61.1619C30.9439 62.1051 31.7042 62.872 32.6394 63.3526C33.7025 63.899 35.0942 63.899 37.8775 63.899H75.3999C78.1832 63.899 79.5749 63.899 80.638 63.3526C81.5732 62.872 82.3335 62.1051 82.8099 61.1619C83.3516 60.0895 83.3516 58.6858 83.3516 55.8783V40.2442ZM83.3516 40.2442L104.474 61.5498C105.334 62.4168 105.763 62.8503 106.265 63.1603C106.71 63.4351 107.194 63.6377 107.701 63.7605C108.273 63.899 108.881 63.899 110.097 63.899H111.462C126.301 63.899 138.331 51.7654 138.331 36.7978C138.331 21.8302 126.301 9.69659 111.462 9.69659L91.3034 9.69659C88.52 9.69659 87.1283 9.69659 86.0652 10.243C85.1301 10.7236 84.3698 11.4905 83.8933 12.4337C83.3516 13.506 83.3516 14.9098 83.3516 17.7173V40.2442Z" stroke="#181A1A" stroke-width="2.85276"/>
<path d="M103.253 70.3317L107.147 65.5958C107.361 65.3348 107.702 65.2092 108.036 65.2558C114.467 66.1509 119.744 64.4689 123.069 62.877C123.996 62.4332 124.975 63.4435 124.291 64.2109C121.004 67.8993 114.478 72.92 103.847 71.8319C103.115 71.757 102.785 70.9002 103.253 70.3317Z" fill="#181A1A"/>
<path d="M25.0812 158.955L65.0127 144.764C65.7941 144.487 66.6524 144.343 67.5221 144.343C68.3918 144.343 69.2501 144.487 70.0315 144.764L109.967 158.955C111.857 159.626 113.048 160.991 113.048 162.486V173.789C113.048 175.281 111.857 176.649 109.967 177.319L70.0388 191.508C69.2574 191.785 68.3991 191.929 67.5294 191.929C66.6596 191.929 65.8014 191.785 65.02 191.508L25.0812 177.319C24.163 176.999 23.3873 176.499 22.8425 175.874C22.2978 175.25 22.0058 174.527 22 173.789V162.486C22 160.991 23.191 159.626 25.0812 158.955Z" fill="#2B5C4F"/>
<path d="M26.8828 163.748L68.1051 177.203L107.791 163.748M68.1051 187.912V177.211" stroke="white" stroke-width="0.807916" stroke-linecap="round" stroke-linejoin="round"/>
<path d="M25.2218 137.892L65.1533 124.194C65.9347 123.926 66.793 123.787 67.6627 123.787C68.5325 123.787 69.3907 123.926 70.1721 124.194L110.107 137.892C111.997 138.54 113.188 139.858 113.188 141.301V152.211C113.188 153.651 111.997 154.971 110.107 155.619L70.1794 169.315C69.398 169.582 68.5397 169.721 67.67 169.721C66.8003 169.721 65.942 169.582 65.1606 169.315L25.2218 155.619C24.3036 155.31 23.5279 154.826 22.9832 154.224C22.4384 153.621 22.1465 152.924 22.1406 152.211V141.301C22.1406 139.858 23.3316 138.54 25.2218 137.892Z" fill="white" stroke="#616161" stroke-width="0.807916" stroke-linecap="round" stroke-linejoin="round"/>
<path d="M27.0234 142.521L68.2457 155.509L107.932 142.521M68.2457 165.846V155.516Z" fill="white"/>
<path d="M27.0234 142.521L68.2457 155.509L107.932 142.521M68.2457 165.846V155.516" stroke="#D4DCDC" stroke-width="0.807916" stroke-linecap="round" stroke-linejoin="round"/>
<path d="M71.78 134.274C72.0444 134.185 72.3668 134.172 72.6523 134.239L88.4217 137.943C89.1693 138.119 89.2665 138.707 88.5888 138.955L74.0238 144.284C73.7474 144.385 73.4011 144.4 73.0994 144.324L57.1199 140.294C56.3766 140.106 56.3094 139.513 57.0049 139.277L71.78 134.274Z" fill="#D4DCDC"/>
<path d="M120.027 86.2671L85.8125 138.7" stroke="#616161" stroke-width="0.807916" stroke-linecap="round" stroke-dasharray="4.04 4.04"/>
<path d="M73.6055 95.8987L73.6055 144.055" stroke="#616161" stroke-width="0.807916" stroke-linecap="round" stroke-dasharray="4.04 4.04"/>
<path d="M27.4844 88.0655L64.9844 138.699" stroke="#616161" stroke-width="0.807916" stroke-linecap="round" stroke-dasharray="4.04 4.04"/>
<circle cx="151.451" cy="7.48802" r="3.09593" fill="#FFADDF"/>
<path d="M17.5232 5.13739C18.7463 5.13739 19.7378 4.13654 19.7378 2.90146C19.7378 1.6668 18.7463 0.665527 17.5232 0.665527C16.3001 0.665527 15.3086 1.66701 15.3086 2.90146C15.3086 4.13654 16.3001 5.13739 17.5232 5.13739Z" fill="white" stroke="#74777C" stroke-width="0.74531" stroke-linecap="round" stroke-linejoin="round"/>
<path d="M2.02328 17.0624C2.83868 17.0624 3.49968 16.3951 3.49968 15.5717C3.49968 14.7486 2.83868 14.0811 2.02328 14.0811C1.20788 14.0811 0.546875 14.7488 0.546875 15.5717C0.546875 16.3951 1.20788 17.0624 2.02328 17.0624Z" fill="white" stroke="#74777C" stroke-width="0.74531" stroke-linecap="round" stroke-linejoin="round"/>
</svg>
