<svg width="896" height="117" viewBox="0 0 896 117" fill="none" xmlns="http://www.w3.org/2000/svg">
<g clip-path="url(#clip0_3421_23751)">
<path d="M47.4379 105.983C22.2211 105.983 3 85.1745 3 59.2524C3 33.5066 22.2211 12.6984 47.4379 12.6984C58.371 12.6984 67.8934 16.4016 75.2997 22.5735V14.6381H98.9294V104.043H75.2997V96.1076C67.8934 102.28 58.371 105.983 47.4379 105.983ZM27.335 59.2524C27.335 72.1253 37.7391 82.5294 50.612 82.5294C63.4849 82.5294 73.889 72.1253 73.889 59.2524C73.889 46.5558 63.4849 36.1517 50.612 36.1517C37.7391 36.1517 27.335 46.5558 27.335 59.2524Z" fill="#DCE0DF"/>
<path d="M109.514 104.043V14.6381H133.144V21.8681C138.787 16.0489 146.369 12.6984 155.539 12.6984C169.999 12.6984 180.579 18.694 186.928 28.2164C194.158 18.5176 204.562 12.6984 217.611 12.6984C244.062 12.6984 257.111 32.8013 257.111 57.8416V104.043H233.482V57.8416C233.482 46.9085 227.31 36.1517 214.437 36.1517C200.859 36.1517 195.039 48.1429 195.039 61.1921V104.043H171.586V57.8416C171.586 46.9085 165.238 36.1517 152.365 36.1517C138.787 36.1517 133.144 48.1429 133.144 61.1921V104.043H109.514Z" fill="#DCE0DF"/>
<path d="M267.608 136.535V14.6381H291.237V22.5735C298.644 16.4016 308.166 12.6984 318.923 12.6984C344.14 12.6984 363.537 33.5066 363.537 59.2524C363.537 85.1745 344.14 105.983 318.923 105.983C308.166 105.983 298.644 102.28 291.237 96.1076V136.535H267.608ZM292.648 59.2524C292.648 72.1253 303.052 82.5294 315.925 82.5294C328.798 82.5294 339.202 72.1253 339.202 59.2524C339.202 46.5558 328.798 36.1517 315.925 36.1517C303.052 36.1517 292.648 46.5558 292.648 59.2524Z" fill="#DCE0DF"/>
<path d="M415.209 105.983C389.463 105.983 367.068 85.1745 367.068 59.2524C367.068 33.5066 388.229 12.6984 413.622 12.6984C439.897 12.6984 463.703 35.799 458.236 68.2458H392.637C395.812 77.7682 403.747 84.1164 415.209 84.1164C425.26 84.1164 431.961 80.2369 436.194 74.7704L455.767 84.1164C447.832 98.2237 433.725 105.983 415.209 105.983ZM393.166 49.3773H434.43C431.785 40.9129 424.908 34.5647 413.622 34.5647C403.571 34.5647 396.341 41.0893 393.166 49.3773Z" fill="#DCE0DF"/>
<path d="M466.005 104.043V14.6381H489.458V26.2766C495.806 17.4596 504.8 12.6984 516.791 12.6984V36.1517C500.215 36.1517 489.458 41.7946 489.458 69.1275V104.043H466.005Z" fill="#DCE0DF"/>
<path d="M554.795 105.983C536.456 105.983 519.351 98.9291 516.882 80.4133L540.864 76.7101C541.393 81.1186 545.802 85.7035 554.795 85.7035C562.025 85.7035 566.434 83.0584 566.434 78.2972C566.434 73.3596 560.438 72.8306 545.802 68.7748C533.282 65.248 520.409 58.3707 520.409 40.5602C520.409 22.9262 536.279 12.6984 552.679 12.6984C569.079 12.6984 583.01 21.5154 586.184 34.9173L563.612 38.9732C563.083 36.6807 559.556 32.9776 553.208 32.9776C547.742 32.9776 543.862 35.9754 543.862 40.0312C543.862 44.9688 548.623 46.2032 560.438 49.3773C572.958 52.9041 590.416 56.7836 590.416 76.3574C590.416 97.1657 572.958 105.983 554.795 105.983Z" fill="#DCE0DF"/>
<path d="M637.463 105.983C612.246 105.983 593.025 85.1745 593.025 59.2524C593.025 33.5066 612.246 12.6984 637.463 12.6984C648.396 12.6984 657.919 16.4016 665.325 22.5735V14.6381H688.955V104.043H665.325V96.1076C657.919 102.28 648.396 105.983 637.463 105.983ZM617.36 59.2524C617.36 72.1253 627.765 82.5294 640.637 82.5294C653.51 82.5294 663.914 72.1253 663.914 59.2524C663.914 46.5558 653.51 36.1517 640.637 36.1517C627.765 36.1517 617.36 46.5558 617.36 59.2524Z" fill="#DCE0DF"/>
<path d="M699.539 104.043V14.6381H723.169V22.2208C729.165 16.2252 737.276 12.6984 747.328 12.6984C775.013 12.6984 788.239 32.8013 788.239 57.8416V104.043H764.785V57.8416C764.785 46.9085 758.084 36.1517 744.154 36.1517C729.341 36.1517 723.169 48.1429 723.169 61.1921V104.043H699.539Z" fill="#DCE0DF"/>
<path d="M839.825 105.983C814.609 105.983 795.211 85.1745 795.211 59.2524C795.211 33.5066 814.609 12.6984 839.825 12.6984C850.582 12.6984 860.105 16.4016 867.511 22.5735V-16.5H891.141V104.043H867.511V96.1076C860.105 102.28 850.582 105.983 839.825 105.983ZM819.546 59.2524C819.546 72.1253 829.95 82.5294 842.823 82.5294C855.696 82.5294 866.1 72.1253 866.1 59.2524C866.1 46.5558 855.696 36.1517 842.823 36.1517C829.95 36.1517 819.546 46.5558 819.546 59.2524Z" fill="#DCE0DF"/>
</g>
<defs>
<clipPath id="clip0_3421_23751">
<rect width="896" height="116" fill="white" transform="translate(0 0.5)"/>
</clipPath>
</defs>
</svg>
