<svg width="656" height="79" viewBox="0 0 656 79" fill="none" xmlns="http://www.w3.org/2000/svg">
<g clip-path="url(#clip0_3124_6455)">
<path d="M32.8228 90.4684C14.1972 90.4684 0 75.099 0 55.9524C0 36.936 14.1972 21.5666 32.8228 21.5666C40.8982 21.5666 47.9317 24.3018 53.4022 28.8605V22.9993H70.8556V89.0357H53.4022V83.1744C47.9317 87.7332 40.8982 90.4684 32.8228 90.4684ZM17.9744 55.9524C17.9744 65.4605 25.6591 73.1452 35.1673 73.1452C44.6755 73.1452 52.3602 65.4605 52.3602 55.9524C52.3602 46.5744 44.6755 38.8897 35.1673 38.8897C25.6591 38.8897 17.9744 46.5744 17.9744 55.9524Z" fill="#DCE0DF"/>
<path d="M78.6736 89.0357V22.9993H96.127V28.3395C100.295 24.0413 105.896 21.5666 112.669 21.5666C123.349 21.5666 131.164 25.995 135.853 33.0285C141.193 25.8648 148.878 21.5666 158.516 21.5666C178.054 21.5666 187.692 36.415 187.692 54.9104V89.0357H170.239V54.9104C170.239 46.8349 165.68 38.8897 156.172 38.8897C146.143 38.8897 141.844 47.7467 141.844 57.3851V89.0357H124.521V54.9104C124.521 46.8349 119.832 38.8897 110.324 38.8897C100.295 38.8897 96.127 47.7467 96.127 57.3851V89.0357H78.6736Z" fill="#DCE0DF"/>
<path d="M195.445 113.035V22.9993H212.898V28.8605C218.369 24.3018 225.402 21.5666 233.348 21.5666C251.973 21.5666 266.301 36.936 266.301 55.9524C266.301 75.099 251.973 90.4684 233.348 90.4684C225.402 90.4684 218.369 87.7332 212.898 83.1744V113.035H195.445ZM213.94 55.9524C213.94 65.4605 221.625 73.1452 231.133 73.1452C240.641 73.1452 248.326 65.4605 248.326 55.9524C248.326 46.5744 240.641 38.8897 231.133 38.8897C221.625 38.8897 213.94 46.5744 213.94 55.9524Z" fill="#DCE0DF"/>
<path d="M304.467 90.4684C285.45 90.4684 268.909 75.099 268.909 55.9524C268.909 36.936 284.538 21.5666 303.294 21.5666C322.701 21.5666 340.285 38.6292 336.247 62.5951H287.795C290.139 69.6285 296 74.3175 304.467 74.3175C311.891 74.3175 316.84 71.452 319.966 67.4143L334.424 74.3175C328.563 84.7374 318.143 90.4684 304.467 90.4684ZM288.185 48.6584H318.664C316.71 42.4064 311.63 37.7175 303.294 37.7175C295.87 37.7175 290.53 42.5367 288.185 48.6584Z" fill="#DCE0DF"/>
<path d="M341.985 89.0357V22.9993H359.309V31.5958C363.998 25.0833 370.64 21.5666 379.497 21.5666V38.8897C367.254 38.8897 359.309 43.0577 359.309 63.2463V89.0357H341.985Z" fill="#DCE0DF"/>
<path d="M407.568 90.4684C394.022 90.4684 381.388 85.2584 379.564 71.5823L397.278 68.847C397.669 72.1033 400.925 75.4897 407.568 75.4897C412.908 75.4897 416.164 73.536 416.164 70.0193C416.164 66.3723 411.736 65.9815 400.925 62.9858C391.678 60.3808 382.169 55.3011 382.169 42.1459C382.169 29.121 393.892 21.5666 406.005 21.5666C418.118 21.5666 428.408 28.079 430.752 37.978L414.08 40.9737C413.69 39.2805 411.085 36.5452 406.396 36.5452C402.358 36.5452 399.493 38.7595 399.493 41.7552C399.493 45.4022 403.009 46.3139 411.736 48.6584C420.984 51.2634 433.878 54.1289 433.878 68.5865C433.878 83.9559 420.984 90.4684 407.568 90.4684Z" fill="#DCE0DF"/>
<path d="M468.628 90.4684C450.003 90.4684 435.806 75.099 435.806 55.9524C435.806 36.936 450.003 21.5666 468.628 21.5666C476.704 21.5666 483.737 24.3018 489.208 28.8605V22.9993H506.661V89.0357H489.208V83.1744C483.737 87.7332 476.704 90.4684 468.628 90.4684ZM453.78 55.9524C453.78 65.4605 461.465 73.1452 470.973 73.1452C480.481 73.1452 488.166 65.4605 488.166 55.9524C488.166 46.5744 480.481 38.8897 470.973 38.8897C461.465 38.8897 453.78 46.5744 453.78 55.9524Z" fill="#DCE0DF"/>
<path d="M514.479 89.0357V22.9993H531.933V28.6C536.361 24.1716 542.352 21.5666 549.777 21.5666C570.226 21.5666 579.995 36.415 579.995 54.9104V89.0357H562.671V54.9104C562.671 46.8349 557.722 38.8897 547.432 38.8897C536.491 38.8897 531.933 47.7467 531.933 57.3851V89.0357H514.479Z" fill="#DCE0DF"/>
<path d="M618.097 90.4684C599.472 90.4684 585.144 75.099 585.144 55.9524C585.144 36.936 599.472 21.5666 618.097 21.5666C626.043 21.5666 633.076 24.3018 638.547 28.8605V0H656V89.0357H638.547V83.1744C633.076 87.7332 626.043 90.4684 618.097 90.4684ZM603.119 55.9524C603.119 65.4605 610.804 73.1452 620.312 73.1452C629.82 73.1452 637.505 65.4605 637.505 55.9524C637.505 46.5744 629.82 38.8897 620.312 38.8897C610.804 38.8897 603.119 46.5744 603.119 55.9524Z" fill="#DCE0DF"/>
</g>
<defs>
<clipPath id="clip0_3124_6455">
<rect width="656" height="79" fill="white"/>
</clipPath>
</defs>
</svg>
