<svg width="889" height="153" viewBox="0 0 889 153" fill="none" xmlns="http://www.w3.org/2000/svg">
<path d="M44.4379 122.483C19.2211 122.483 0 101.674 0 75.7524C0 50.0066 19.2211 29.1984 44.4379 29.1984C55.371 29.1984 64.8934 32.9016 72.2997 39.0735V31.1381H95.9294V120.543H72.2997V112.608C64.8934 118.78 55.371 122.483 44.4379 122.483ZM24.335 75.7524C24.335 88.6253 34.7391 99.0294 47.612 99.0294C60.4849 99.0294 70.889 88.6253 70.889 75.7524C70.889 63.0558 60.4849 52.6517 47.612 52.6517C34.7391 52.6517 24.335 63.0558 24.335 75.7524Z" fill="#DCE0DF"/>
<path d="M106.514 120.543V31.1381H130.144V38.3681C135.787 32.5489 143.369 29.1984 152.539 29.1984C166.999 29.1984 177.579 35.194 183.928 44.7164C191.158 35.0176 201.562 29.1984 214.611 29.1984C241.062 29.1984 254.111 49.3013 254.111 74.3416V120.543H230.482V74.3416C230.482 63.4085 224.31 52.6517 211.437 52.6517C197.859 52.6517 192.039 64.6429 192.039 77.6921V120.543H168.586V74.3416C168.586 63.4085 162.238 52.6517 149.365 52.6517C135.787 52.6517 130.144 64.6429 130.144 77.6921V120.543H106.514Z" fill="#DCE0DF"/>
<path d="M264.608 153.035V31.1381H288.237V39.0735C295.644 32.9016 305.166 29.1984 315.923 29.1984C341.14 29.1984 360.537 50.0066 360.537 75.7524C360.537 101.674 341.14 122.483 315.923 122.483C305.166 122.483 295.644 118.78 288.237 112.608V153.035H264.608ZM289.648 75.7524C289.648 88.6253 300.052 99.0294 312.925 99.0294C325.798 99.0294 336.202 88.6253 336.202 75.7524C336.202 63.0558 325.798 52.6517 312.925 52.6517C300.052 52.6517 289.648 63.0558 289.648 75.7524Z" fill="#DCE0DF"/>
<path d="M412.209 122.483C386.463 122.483 364.068 101.674 364.068 75.7524C364.068 50.0066 385.229 29.1984 410.622 29.1984C436.897 29.1984 460.703 52.299 455.236 84.7458H389.637C392.812 94.2682 400.747 100.616 412.209 100.616C422.26 100.616 428.961 96.7369 433.194 91.2704L452.767 100.616C444.832 114.724 430.725 122.483 412.209 122.483ZM390.166 65.8773H431.43C428.785 57.4129 421.908 51.0647 410.622 51.0647C400.571 51.0647 393.341 57.5893 390.166 65.8773Z" fill="#DCE0DF"/>
<path d="M463.005 120.543V31.1381H486.458V42.7766C492.806 33.9596 501.8 29.1984 513.791 29.1984V52.6517C497.215 52.6517 486.458 58.2946 486.458 85.6275V120.543H463.005Z" fill="#DCE0DF"/>
<path d="M551.795 122.483C533.456 122.483 516.351 115.429 513.882 96.9133L537.864 93.2101C538.393 97.6186 542.802 102.203 551.795 102.203C559.025 102.203 563.434 99.5584 563.434 94.7972C563.434 89.8596 557.438 89.3306 542.802 85.2748C530.282 81.748 517.409 74.8707 517.409 57.0602C517.409 39.4262 533.279 29.1984 549.679 29.1984C566.079 29.1984 580.01 38.0154 583.184 51.4173L560.612 55.4732C560.083 53.1807 556.556 49.4776 550.208 49.4776C544.742 49.4776 540.862 52.4754 540.862 56.5312C540.862 61.4688 545.623 62.7032 557.438 65.8773C569.958 69.4041 587.416 73.2836 587.416 92.8574C587.416 113.666 569.958 122.483 551.795 122.483Z" fill="#DCE0DF"/>
<path d="M634.463 122.483C609.246 122.483 590.025 101.674 590.025 75.7524C590.025 50.0066 609.246 29.1984 634.463 29.1984C645.396 29.1984 654.919 32.9016 662.325 39.0735V31.1381H685.955V120.543H662.325V112.608C654.919 118.78 645.396 122.483 634.463 122.483ZM614.36 75.7524C614.36 88.6253 624.765 99.0294 637.637 99.0294C650.51 99.0294 660.914 88.6253 660.914 75.7524C660.914 63.0558 650.51 52.6517 637.637 52.6517C624.765 52.6517 614.36 63.0558 614.36 75.7524Z" fill="#DCE0DF"/>
<path d="M696.539 120.543V31.1381H720.169V38.7208C726.165 32.7252 734.276 29.1984 744.328 29.1984C772.013 29.1984 785.239 49.3013 785.239 74.3416V120.543H761.785V74.3416C761.785 63.4085 755.084 52.6517 741.154 52.6517C726.341 52.6517 720.169 64.6429 720.169 77.6921V120.543H696.539Z" fill="#DCE0DF"/>
<path d="M836.825 122.483C811.609 122.483 792.211 101.674 792.211 75.7524C792.211 50.0066 811.609 29.1984 836.825 29.1984C847.582 29.1984 857.105 32.9016 864.511 39.0735V0H888.141V120.543H864.511V112.608C857.105 118.78 847.582 122.483 836.825 122.483ZM816.546 75.7524C816.546 88.6253 826.95 99.0294 839.823 99.0294C852.696 99.0294 863.1 88.6253 863.1 75.7524C863.1 63.0558 852.696 52.6517 839.823 52.6517C826.95 52.6517 816.546 63.0558 816.546 75.7524Z" fill="#DCE0DF"/>
</svg>
