<svg width="377" height="120" viewBox="0 0 377 120" fill="none" xmlns="http://www.w3.org/2000/svg">
<path d="M201.551 54.1372L116.203 26.3197C113.579 25.4644 112.267 25.0368 110.981 24.81C109.841 24.609 108.72 24.5248 107.659 24.5605C106.462 24.6008 105.374 24.8482 103.199 25.3431L81.9147 30.1854C76.9343 31.3185 74.4442 31.885 73.2264 33.0773C72.7611 33.5329 72.4225 34.0501 72.2153 34.6129M201.551 54.1372L266.037 75.155C268.661 76.0103 269.973 76.4379 271.259 76.6647C272.399 76.8657 273.52 76.9499 274.581 76.9142C275.778 76.8739 276.866 76.6265 279.041 76.1316L281.484 75.5757C308.036 69.5351 314.359 47.7715 295.608 26.9655C276.857 6.15941 240.132 -5.81027 213.581 0.230389L177.51 8.43673C172.53 9.5698 170.04 10.1363 168.822 11.3286C167.751 12.3774 167.351 13.7529 167.68 15.258M201.551 54.1372L173.33 22.8231C169.813 18.9205 168.054 16.9692 167.68 15.258M201.551 54.1372L221.137 75.8697C224.654 79.7724 226.413 81.7237 226.787 83.4348C226.999 84.4056 226.908 85.3224 226.53 86.1324M167.68 15.258L167.68 42.7288M72.2153 34.6129C71.9455 35.3456 71.8985 36.1554 72.0847 37.0067C72.4588 38.7179 74.2174 40.6692 77.7346 44.5718L125.542 97.6184C129.059 101.521 130.817 103.472 133.13 104.743C135.164 105.86 137.485 106.616 139.761 106.904C142.347 107.23 144.837 106.664 149.818 105.531L216.957 90.2561C221.937 89.1231 224.428 88.5565 225.645 87.3643C226.026 86.9919 226.321 86.5783 226.53 86.1324M72.2153 34.6129L72.9327 73.6005C72.963 75.2472 72.9781 76.0705 73.1724 76.8454C73.3447 77.5325 73.6203 78.1895 73.9898 78.7939C74.4064 79.4755 74.9832 80.0633 76.1367 81.2388L127.511 133.594C129.562 135.684 130.587 136.728 131.807 137.379C132.887 137.955 134.074 138.305 135.293 138.406C136.672 138.522 138.1 138.2 140.956 137.556L221.537 119.395C223.319 118.993 224.21 118.792 224.875 118.311C225.461 117.887 225.921 117.311 226.207 116.646C226.53 115.891 226.53 114.978 226.53 113.151L226.53 90.2561M226.53 86.1324L226.53 90.2561M226.53 90.2561L267.816 104.119C268.948 104.5 269.514 104.69 270.496 104.879C271.086 104.993 272.541 105.142 273.142 105.15C274.142 105.163 274.387 105.134 274.877 105.075C285.038 103.851 301.611 97.1108 307.773 83.4348" stroke="#363636"/>
<circle cx="60.4415" cy="122.22" r="59.4415" fill="#1D1D1D" stroke="#363636"/>
<path d="M428.233 18.7395C429.382 18.6126 430.513 19.1086 431.198 20.0406L465.421 66.5935C466.106 67.5255 466.242 68.7519 465.777 69.8108L442.57 122.701C442.106 123.76 441.111 124.49 439.961 124.617L382.531 130.954C381.381 131.081 380.251 130.585 379.566 129.653L345.343 83.1002C344.658 82.1682 344.522 80.9417 344.986 79.8829L368.194 26.9928C368.658 25.934 369.653 25.2035 370.802 25.0766L428.233 18.7395Z" fill="#1D1D1D"/>
<path d="M423.588 33.3535L405.382 74.8468M405.382 74.8468L363.661 81.2814M405.382 74.8468L431.862 111.207M368.194 26.9928L344.986 79.8829C344.522 80.9417 344.658 82.1682 345.343 83.1002L379.566 129.653C380.251 130.585 381.381 131.081 382.531 130.954L439.961 124.617C441.111 124.49 442.106 123.76 442.57 122.701L465.777 69.8108C466.242 68.7519 466.106 67.5255 465.421 66.5935L431.198 20.0406C430.513 19.1086 429.382 18.6126 428.233 18.7395L370.802 25.0766C369.653 25.2035 368.658 25.934 368.194 26.9928Z" stroke="#363636"/>
</svg>
