<svg width="43" height="23" viewBox="0 0 43 23" fill="none" xmlns="http://www.w3.org/2000/svg">
<path d="M3.15416 22.25C2.0501 22.25 1.49807 22.25 1.07637 22.0333C0.705441 21.8426 0.403864 21.5384 0.214864 21.1643C0 20.7389 0 20.1821 0 19.0685V3.9315C0 2.81787 0 2.26106 0.214864 1.83571C0.403864 1.46156 0.705441 1.15737 1.07637 0.966727C1.49807 0.75 2.0501 0.75 3.15415 0.75H7.87259C8.35476 0.75 8.59585 0.75 8.82273 0.804941C9.02387 0.853651 9.21617 0.933993 9.39255 1.04302C9.59149 1.16598 9.76196 1.33794 10.1029 1.68184L21.192 12.8671V3.9315C21.192 2.81787 21.192 2.26106 21.4068 1.83571C21.5958 1.46156 21.8974 1.15737 22.2683 0.966727C22.69 0.75 23.2421 0.75 24.3461 0.75H32.3424C38.2284 0.75 43 5.56294 43 11.5C43 17.4371 38.2284 22.25 32.3424 22.25H31.8008C31.3186 22.25 31.0775 22.25 30.8506 22.1951C30.6495 22.1463 30.4572 22.066 30.2808 21.957C30.0819 21.834 29.9114 21.6621 29.5704 21.3182L21.192 12.8671V19.0685C21.192 20.1821 21.192 20.7389 20.9771 21.1643C20.7881 21.5384 20.4865 21.8426 20.1156 22.0333C19.6939 22.25 19.1419 22.25 18.0378 22.25H3.15416Z" fill="#616B68"/>
</svg>
