<svg width="41" height="42" viewBox="0 0 41 42" fill="none" xmlns="http://www.w3.org/2000/svg">
<path fill-rule="evenodd" clip-rule="evenodd" d="M25.2161 24.1911C25.098 24.2593 25.0252 24.3854 25.0252 24.5218L25.0252 36.2175C25.0252 36.4284 24.8542 36.5993 24.6433 36.5993L15.0969 36.5993C14.886 36.5993 14.7151 36.4284 14.7151 36.2175L14.7151 24.5218C14.7151 24.3854 14.6423 24.2593 14.5241 24.1911L4.39538 18.3433C4.21274 18.2378 4.15017 18.0043 4.25561 17.8216L9.02882 9.55419C9.13427 9.37155 9.36781 9.30897 9.55045 9.41442L19.6792 15.2623C19.7973 15.3305 19.9429 15.3305 20.0611 15.2623L30.1898 9.41442C30.3724 9.30898 30.606 9.37155 30.7114 9.55419L35.4846 17.8216C35.5901 18.0043 35.5275 18.2378 35.3449 18.3433L25.2161 24.1911Z" fill="url(#paint0_linear_3124_6044)"/>
<path d="M25.5989 18.6236C25.3443 18.4744 25.0239 18.658 25.0239 18.9531L25.0239 30.0855C25.0239 30.2234 25.0983 30.3506 25.2185 30.4183L30.2164 33.2306C30.3994 33.3335 30.6311 33.2695 30.7352 33.0872L35.4496 24.8351C35.5534 24.6534 35.4917 24.422 35.3112 24.3162L25.5989 18.6236Z" fill="url(#paint1_linear_3124_6044)"/>
<path d="M14.6169 17.7112C14.615 18.0057 14.9332 18.1914 15.1887 18.045L24.8153 12.5261C24.935 12.4575 25.0084 12.3296 25.0072 12.1915L24.9572 6.40737C24.9554 6.19709 24.7839 6.02786 24.5737 6.02881L15.0708 6.07207C14.8616 6.07302 14.6921 6.24219 14.6907 6.45142L14.6169 17.7112Z" fill="url(#paint2_linear_3124_6044)"/>
<path d="M19.4018 27.6161C19.6583 27.4703 19.6595 27.101 19.404 26.9535L9.76305 21.3873C9.64359 21.3183 9.49623 21.3192 9.37755 21.3894L4.44307 24.3116C4.26244 24.4186 4.20203 24.6513 4.30781 24.8326L9.09715 33.0414C9.2026 33.2222 9.43385 33.2844 9.61574 33.181L19.4018 27.6161Z" fill="url(#paint3_linear_3124_6044)"/>
<path d="M25.6604 2.67305H14.0137V16.608C14.0137 17.2978 14.7638 17.726 15.3577 17.3752L24.8471 11.7717C25.3511 11.474 25.6604 10.9322 25.6604 10.3468V2.67305Z" stroke="#181A1A" stroke-width="1.27286"/>
<path d="M0.869385 25.6583L6.61439 35.6089L18.6679 28.6498C19.2671 28.3038 19.2606 27.4367 18.6562 27.0999L9.15498 21.8049C8.64641 21.5215 8.02632 21.5262 7.52211 21.8173L0.869385 25.6583Z" stroke="#181A1A" stroke-width="1.27286"/>
<path d="M33.1108 35.6089L38.8558 25.6582L26.8023 18.6991C26.2031 18.3532 25.4554 18.7924 25.4659 19.4843L25.6309 30.36C25.6398 30.9422 25.9539 31.4768 26.4581 31.7679L33.1108 35.6089Z" stroke="#181A1A" stroke-width="1.27286"/>
<defs>
<linearGradient id="paint0_linear_3124_6044" x1="23.6131" y1="40.7955" x2="36.8011" y2="13.5035" gradientUnits="userSpaceOnUse">
<stop stop-color="#FCEC3B"/>
<stop offset="0.425" stop-color="#FFAFDF"/>
<stop offset="0.925" stop-color="#99DBE0"/>
</linearGradient>
<linearGradient id="paint1_linear_3124_6044" x1="1.36177" y1="27.6974" x2="18.3695" y2="2.85689" gradientUnits="userSpaceOnUse">
<stop stop-color="#FCEC3B"/>
<stop offset="0.425" stop-color="#FFAFDF"/>
<stop offset="0.925" stop-color="#99DBE0"/>
</linearGradient>
<linearGradient id="paint2_linear_3124_6044" x1="1.36177" y1="27.6974" x2="18.3695" y2="2.85689" gradientUnits="userSpaceOnUse">
<stop stop-color="#FCEC3B"/>
<stop offset="0.425" stop-color="#FFAFDF"/>
<stop offset="0.925" stop-color="#99DBE0"/>
</linearGradient>
<linearGradient id="paint3_linear_3124_6044" x1="1.36177" y1="27.6974" x2="18.3695" y2="2.85689" gradientUnits="userSpaceOnUse">
<stop stop-color="#FCEC3B"/>
<stop offset="0.425" stop-color="#FFAFDF"/>
<stop offset="0.925" stop-color="#99DBE0"/>
</linearGradient>
</defs>
</svg>
