<svg width="178" height="47" viewBox="0 0 178 47" fill="none" xmlns="http://www.w3.org/2000/svg">
<path fill-rule="evenodd" clip-rule="evenodd" d="M26.0063 2.53684V12.8178C26.0063 13.0548 25.9764 13.2841 25.9206 13.5017V17.2434C25.9205 17.6048 26.4024 17.8457 26.6434 17.6048L29.128 15.1491C29.2317 14.9894 29.3542 14.8374 29.4955 14.6967L36.78 7.44174C37.7727 6.45305 39.3144 6.3915 40.2234 7.30425C40.9778 8.06169 41.0595 9.25205 40.4982 10.2002C40.4028 10.3901 40.2821 10.5712 40.1363 10.7379L29.5347 21.3394C28.0891 22.7851 28.0891 25.0741 29.5347 26.3993L36.4231 33.2876L41.2541 38.0601C42.2468 39.0488 42.2885 40.6439 41.3794 41.5567C40.4973 42.4424 39.0196 42.4107 38.0257 41.5047C38.0016 41.4883 37.9821 41.4726 37.9678 41.4583L25.9205 29.2906C24.5954 27.9654 22.5473 27.9654 21.3426 29.2906L16.4278 34.2054L16.4335 34.2112L9.24461 41.4155C8.26216 42.3823 6.746 42.346 5.88321 41.4693C5.10919 40.6828 5.10762 39.3991 5.82482 38.4452C5.84905 38.4092 5.87521 38.3759 5.9033 38.3456C5.96431 38.2718 6.02984 38.2002 6.09987 38.1312L9.37999 34.9031L17.8489 26.5197C19.2946 25.0741 19.2946 22.7851 17.8489 21.4599L7.29032 10.9013L7.08708 10.6995C7.06875 10.6813 7.0508 10.6629 7.03322 10.6442L6.88595 10.4969C6.817 10.3973 6.7578 10.2982 6.70738 10.2C6.21895 9.32625 6.353 8.19013 7.10585 7.43188C8.0133 6.51791 9.47616 6.49904 10.3733 7.38974L10.3916 7.40799C10.4286 7.43288 10.4647 7.4586 10.5001 7.48512L14.786 11.771L16.9561 13.9256C17.0115 13.9807 17.0635 14.0379 17.112 14.097L20.6198 17.6048C20.8607 17.8457 21.3426 17.6048 21.3426 17.2434V12.9051C21.3417 12.8761 21.3413 12.847 21.3413 12.8178V2.53684C21.3413 1.13578 22.3856 0 23.6738 0C24.962 0 26.0063 1.13578 26.0063 2.53684ZM35.1964 21.4599H44.5932C45.8574 21.4599 46.8823 22.4847 46.8823 23.7489C46.8823 25.013 45.8574 26.0378 44.5932 26.0378H35.1964C33.9323 26.0378 32.9075 25.013 32.9075 23.7489C32.9075 22.4847 33.9323 21.4599 35.1964 21.4599ZM12.0653 26.1583H2.78897C1.5248 26.1583 0.5 25.1335 0.5 23.8693C0.5 22.6052 1.5248 21.5804 2.78897 21.5804H12.0653C13.3295 21.5804 14.3543 22.6052 14.3543 23.8693C14.3543 25.1335 13.3295 26.1583 12.0653 26.1583ZM25.9208 44.711V35.5551C25.9208 34.2909 24.896 33.2661 23.6319 33.2661C22.3677 33.2661 21.3429 34.2909 21.3429 35.5551V44.711C21.3429 45.9751 22.3677 46.9999 23.6319 46.9999C24.896 46.9999 25.9208 45.9751 25.9208 44.711Z" fill="url(#paint0_linear_3106_9190)"/>
<path d="M60.4834 36.845V11.0928H63.6059V36.845H60.4834ZM62.0965 14.1116V11.0928H76.4878V14.1116H62.0965ZM62.0965 25.5186V22.4652H75.3816V25.5186H62.0965Z" fill="white"/>
<path d="M83.4843 36.8457L76.0525 18.7097V18.4102H79.2902L85.6505 34.2648V36.8457H83.4843ZM80.4655 44.2085V43.9089L83.4843 36.8457L84.5905 34.4952L91.1005 18.4102H94.3729V18.7097L83.6687 44.2085H80.4655Z" fill="white"/>
<path d="M95.7286 36.8455V18.4099H98.7474V23.5949L97.8602 23.0419C98.2058 21.9818 98.7474 21.0831 99.4733 20.3226C100.211 19.5621 101.075 18.9745 102.066 18.5597C103.057 18.1449 104.117 17.9375 105.246 17.9375C106.571 17.9375 107.758 18.2256 108.795 18.7786C109.832 19.3432 110.65 20.1728 111.237 21.279C111.825 22.3851 112.125 23.7678 112.125 25.4385V36.8455H109.002V26.2105C109.002 24.8854 108.806 23.8369 108.415 23.0649C108.023 22.2929 107.493 21.7514 106.813 21.4287C106.133 21.1061 105.373 20.9448 104.508 20.9448C103.575 20.9448 102.676 21.1753 101.801 21.6246C100.925 22.074 100.222 22.7538 99.6692 23.6641C99.1161 24.5743 98.8396 25.7035 98.8396 27.0516V36.834H95.717L95.7286 36.8455Z" fill="white"/>
<path d="M121.298 37.329C120.019 37.329 118.89 37.0871 117.899 36.5916C116.908 36.0961 116.125 35.4163 115.56 34.5522C114.996 33.6765 114.719 32.6856 114.719 31.5564C114.719 29.9318 115.307 28.6298 116.471 27.6158C117.634 26.6134 119.247 26.0257 121.31 25.8529L128.408 25.3344V28.1343L121.932 28.6528C120.584 28.7565 119.582 29.0446 118.936 29.517C118.291 30.0009 117.957 30.6692 117.957 31.5218C117.957 32.3284 118.303 33.0082 118.982 33.5497C119.674 34.0913 120.549 34.3563 121.633 34.3563C122.716 34.3563 123.741 34.1028 124.651 33.5843C125.562 33.0658 126.276 32.386 126.806 31.5218C127.336 30.6577 127.601 29.7013 127.601 28.6528V25.6685C127.601 24.2744 127.163 23.1221 126.299 22.2119C125.423 21.3016 124.271 20.8522 122.819 20.8522C121.69 20.8522 120.722 21.1288 119.916 21.6818C119.109 22.2349 118.556 22.9954 118.257 23.9863H117.853L115.134 23.0991C115.676 21.4514 116.62 20.1839 117.969 19.2737C119.317 18.3634 120.953 17.9141 122.865 17.9141C125.366 17.9141 127.302 18.663 128.661 20.1609C130.021 21.6588 130.701 23.7674 130.701 26.4866V36.8682H127.762V31.4988L128.869 32.0864C128.569 33.0888 128.05 33.9991 127.302 34.7941C126.553 35.5892 125.665 36.2114 124.651 36.6723C123.637 37.1216 122.52 37.3521 121.321 37.3521L121.298 37.329Z" fill="white"/>
<path d="M134.077 36.8455V18.4099H137.096V23.5949L136.209 23.0419C136.647 21.6247 137.476 20.4955 138.675 19.6544C139.873 18.8248 141.221 18.3984 142.719 18.3984H144.597V21.3366H142.247C141.244 21.3366 140.369 21.5786 139.62 22.051C138.871 22.5234 138.283 23.1917 137.857 24.0328C137.43 24.8739 137.211 25.8648 137.211 26.994V36.8225H134.089L134.077 36.8455Z" fill="white"/>
<path d="M157.547 11.0928H153.307L143.525 36.5454V36.845H147.903L150.185 30.7382H160.578L162.859 36.845H167.353V36.5454L157.57 11.0928H157.547ZM151.682 26.6939L155.37 16.8078L159.057 26.6939H151.682ZM168.586 36.845V11.0928H172.814V36.845H168.586Z" fill="url(#paint1_linear_3106_9190)"/>
<defs>
<linearGradient id="paint0_linear_3106_9190" x1="51.1783" y1="37.3722" x2="20.5212" y2="-1.16788" gradientUnits="userSpaceOnUse">
<stop stop-color="#FCEC3B"/>
<stop offset="0.425" stop-color="#FFAFDF"/>
<stop offset="0.925" stop-color="#99DBE0"/>
</linearGradient>
<linearGradient id="paint1_linear_3106_9190" x1="150.127" y1="15.2984" x2="176.57" y2="43.8159" gradientUnits="userSpaceOnUse">
<stop stop-color="#7BE0E0"/>
<stop offset="0.47" stop-color="#FFA3F1"/>
<stop offset="0.54" stop-color="#FFB3CF"/>
<stop offset="0.67" stop-color="#FFD293"/>
<stop offset="0.78" stop-color="#FFE967"/>
<stop offset="0.86" stop-color="#FFF64C"/>
<stop offset="0.91" stop-color="#FFFC42"/>
</linearGradient>
</defs>
</svg>
