<svg width="127" height="36" viewBox="0 0 127 36" fill="none" xmlns="http://www.w3.org/2000/svg">
<path d="M104.594 9.63599H115.644C116.211 9.63599 116.67 10.0952 116.67 10.6617V21.8645C116.67 22.431 116.211 22.8902 115.644 22.8902H104.481C103.921 22.8902 103.464 23.3399 103.456 23.9002L103.332 32.0165C103.324 32.5768 102.867 33.0266 102.307 33.0266H94.0481C93.4817 33.0266 93.0225 32.5674 93.0225 32.0009V23.9158C93.0225 23.3494 93.4817 22.8902 94.0481 22.8902H102.291C102.858 22.8902 103.317 22.431 103.317 21.8645V10.6617C103.317 10.0952 102.858 9.63599 102.291 9.63599H97.0361C96.4696 9.63599 96.0104 9.17678 96.0104 8.61032V2.76013C96.0104 2.19367 96.4696 1.73446 97.0361 1.73446H102.543C103.11 1.73446 103.569 2.19367 103.569 2.76014V8.61032C103.569 9.17678 104.028 9.63599 104.594 9.63599Z" fill="url(#paint0_radial_4511_620842)"/>
<path d="M119.243 23.9688H125.758C126.324 23.9688 126.783 24.428 126.783 24.9945V31.6093C126.783 32.1758 126.324 32.635 125.758 32.635H119.243C118.676 32.635 118.217 32.1758 118.217 31.6093V24.9945C118.217 24.428 118.676 23.9688 119.243 23.9688Z" fill="url(#paint1_radial_4511_620842)"/>
<path d="M125.974 9.43086H118.703C118.137 9.43086 117.678 8.97165 117.678 8.40518V1.02567C117.678 0.459209 118.137 0 118.703 0H125.974C126.54 0 127 0.459209 127 1.02567V8.40518C127 8.97165 126.54 9.43086 125.974 9.43086Z" fill="url(#paint2_radial_4511_620842)"/>
<path d="M0.586539 34.6935V9.00317H3.75385V12.6984H4.38731L3.75385 13.4374C3.75385 11.9593 4.23481 10.798 5.19673 9.95336C6.18212 9.08529 7.4725 8.65125 9.06789 8.65125C11.0152 8.65125 12.5637 9.29644 13.7133 10.5868C14.8864 11.8537 15.4729 13.6016 15.4729 15.8305V21.4964C15.4729 22.9745 15.2031 24.2531 14.6635 25.3324C14.1473 26.4116 13.4083 27.2445 12.4464 27.831C11.5079 28.4176 10.3817 28.7108 9.06789 28.7108C7.49597 28.7108 6.21731 28.2768 5.23193 27.4087C4.24654 26.5406 3.75385 25.3793 3.75385 23.9247L4.38731 24.6637H3.68346L3.75385 29.0627V34.6935H0.586539ZM8.01212 25.9658C9.34943 25.9658 10.3935 25.567 11.1442 24.7693C11.9185 23.9716 12.3056 22.822 12.3056 21.3205V16.0416C12.3056 14.5401 11.9185 13.3905 11.1442 12.5928C10.3935 11.7951 9.34943 11.3962 8.01212 11.3962C6.72173 11.3962 5.68943 11.8068 4.91519 12.628C4.14096 13.4491 3.75385 14.587 3.75385 16.0416V21.3205C3.75385 22.7751 4.14096 23.9129 4.91519 24.7341C5.68943 25.5552 6.72173 25.9658 8.01212 25.9658Z" fill="white"/>
<path d="M28.2314 28.3589C27.1052 28.3589 26.1199 28.136 25.2752 27.6902C24.4306 27.2445 23.7737 26.611 23.3045 25.7899C22.8352 24.9687 22.6006 24.0068 22.6006 22.9041V5.55433H16.09V2.66857H25.7679V22.9041C25.7679 23.7018 25.9908 24.3353 26.4366 24.8045C26.8824 25.2502 27.4806 25.4731 28.2314 25.4731H33.7892V28.3589H28.2314Z" fill="white"/>
<path d="M42.189 28.7108C40.1478 28.7108 38.5407 28.1947 37.3677 27.1624C36.1946 26.1066 35.608 24.6872 35.608 22.9041C35.608 21.0976 36.1946 19.6781 37.3677 18.6458C38.5407 17.6135 40.1244 17.0974 42.1186 17.0974H48.1013V15.1618C48.1013 13.9653 47.7377 13.0503 47.0103 12.4168C46.3065 11.7599 45.2977 11.4314 43.9838 11.4314C42.8342 11.4314 41.8723 11.6778 41.098 12.1705C40.3238 12.6397 39.878 13.2849 39.7607 14.106H36.5934C36.8046 12.4403 37.5905 11.1147 38.9513 10.1293C40.3121 9.14394 42.013 8.65125 44.0542 8.65125C46.283 8.65125 48.0427 9.22605 49.333 10.3757C50.6234 11.5253 51.2686 13.0855 51.2686 15.0562V28.3589H48.1717V24.6637H47.6438L48.1717 24.1358C48.1717 25.5435 47.6204 26.6579 46.5177 27.4791C45.4384 28.3002 43.9955 28.7108 42.189 28.7108ZM42.9632 26.2122C44.4648 26.2122 45.6965 25.8368 46.6584 25.086C47.6203 24.3353 48.1013 23.3733 48.1013 22.2003V19.4553H42.189C41.1332 19.4553 40.3003 19.7485 39.6903 20.3351C39.0803 20.9216 38.7753 21.7193 38.7753 22.7281C38.7753 23.8074 39.139 24.6637 39.8663 25.2972C40.6171 25.9072 41.6494 26.2122 42.9632 26.2122Z" fill="white"/>
<path d="M61.5746 28.3589C59.9088 28.3589 58.6067 27.9131 57.6682 27.0216C56.7532 26.1301 56.2957 24.8749 56.2957 23.256V3.54837H59.463V9.00317H67.2053V11.8889H59.463V23.256C59.463 24.7341 60.1669 25.4731 61.5746 25.4731H66.8534V28.3589H61.5746Z" fill="white"/>
<path d="M77.7493 28.6404C76.2008 28.6404 74.8635 28.3472 73.7374 27.7606C72.6112 27.1741 71.7314 26.3295 71.0979 25.2268C70.4879 24.1006 70.1829 22.7751 70.1829 21.2501V16.112C70.1829 14.5635 70.4879 13.238 71.0979 12.1353C71.7314 11.0326 72.6112 10.188 73.7374 9.60144C74.8635 9.0149 76.2008 8.72163 77.7493 8.72163C79.2977 8.72163 80.6351 9.0149 81.7612 9.60144C82.8874 10.188 83.7554 11.0326 84.3654 12.1353C84.9989 13.238 85.3156 14.5518 85.3156 16.0768V21.2501C85.3156 22.7751 84.9989 24.1006 84.3654 25.2268C83.7554 26.3295 82.8874 27.1741 81.7612 27.7606C80.6351 28.3472 79.2977 28.6404 77.7493 28.6404ZM77.7493 25.8251C79.1335 25.8251 80.2128 25.4379 80.987 24.6637C81.7612 23.8895 82.1483 22.7516 82.1483 21.2501V16.112C82.1483 14.6105 81.7612 13.4726 80.987 12.6984C80.2128 11.9241 79.1335 11.537 77.7493 11.537C76.3885 11.537 75.3093 11.9241 74.5116 12.6984C73.7374 13.4726 73.3502 14.6105 73.3502 16.112V21.2501C73.3502 22.7516 73.7374 23.8895 74.5116 24.6637C75.3093 25.4379 76.3885 25.8251 77.7493 25.8251Z" fill="white"/>
<path fill-rule="evenodd" clip-rule="evenodd" d="M0 35.28V8.41663H4.34039V9.98522C4.48333 9.81954 4.6396 9.66202 4.80937 9.51293C5.92368 8.53146 7.36203 8.06471 9.06789 8.06471C11.1569 8.06471 12.8722 8.7634 14.1475 10.1925C15.4449 11.5961 16.0594 13.5005 16.0594 15.8305V21.4964C16.0594 23.0434 15.7773 24.4141 15.1904 25.5901C14.6289 26.7619 13.8167 27.6817 12.7544 28.3301C11.7071 28.9839 10.4696 29.2974 9.06789 29.2974C7.38277 29.2974 5.95698 28.8291 4.84421 27.8488C4.64981 27.6776 4.47257 27.4963 4.31234 27.3053L4.34039 29.058V35.28H0ZM3.68346 24.6637H3.79941C3.81078 24.7525 3.82427 24.8401 3.83989 24.9263C3.85981 25.0364 3.88319 25.1443 3.91003 25.2502C3.99979 25.6044 4.12823 25.9356 4.29536 26.2437C4.53078 26.6777 4.84297 27.0661 5.23193 27.4087C6.21731 28.2768 7.49597 28.7108 9.06789 28.7108C10.3817 28.7108 11.5079 28.4176 12.4464 27.831C13.4083 27.2445 14.1473 26.4116 14.6635 25.3324C15.2031 24.2531 15.4729 22.9745 15.4729 21.4964V15.8305C15.4729 13.6016 14.8864 11.8537 13.7133 10.5868C12.5637 9.29644 11.0152 8.65125 9.06789 8.65125C7.4725 8.65125 6.18212 9.08529 5.19673 9.95336C4.84811 10.2595 4.56266 10.6072 4.34039 10.9965C4.14625 11.3365 4.0003 11.7083 3.90255 12.1118C3.87643 12.2196 3.85376 12.3297 3.83453 12.442C3.82011 12.5262 3.80763 12.6116 3.79708 12.6984H3.75385V9.00317H0.586539V34.6935H3.75385V29.0627L3.68346 24.6637ZM4.33106 13.4374C4.27 13.5502 4.21378 13.6669 4.16241 13.7876C4.14264 13.834 4.12359 13.8811 4.10525 13.9287C3.87098 14.5372 3.75385 15.2415 3.75385 16.0416V21.3205C3.75385 22.1206 3.87098 22.8249 4.10525 23.4334C4.12359 23.481 4.14264 23.528 4.16241 23.5745C4.21378 23.6952 4.27 23.8119 4.33106 23.9247C4.33417 23.9304 4.33728 23.9361 4.34041 23.9418C4.43494 24.1144 4.54089 24.2776 4.65827 24.4315C4.73856 24.5367 4.82421 24.6376 4.91519 24.7341C5.09931 24.9294 5.29801 25.1014 5.51131 25.2502C6.19498 25.7273 7.02859 25.9658 8.01212 25.9658C9.34943 25.9658 10.3935 25.567 11.1442 24.7693C11.9185 23.9716 12.3056 22.822 12.3056 21.3205V16.0416C12.3056 14.5401 11.9185 13.3905 11.1442 12.5928C10.3935 11.7951 9.34943 11.3962 8.01212 11.3962C7.02858 11.3962 6.19498 11.6348 5.51131 12.1118C5.29801 12.2607 5.0993 12.4327 4.91519 12.628C4.82421 12.7245 4.73856 12.8254 4.65827 12.9306C4.54089 13.0845 4.43494 13.2477 4.34041 13.4202C4.33728 13.4259 4.33416 13.4317 4.33106 13.4374ZM10.7202 24.364L10.7233 24.3608C11.3585 23.7064 11.719 22.7242 11.719 21.3205V16.0416C11.719 14.6378 11.3585 13.6557 10.7233 13.0013L10.7202 12.9981L10.7171 12.9948C10.101 12.3402 9.22608 11.9828 8.01212 11.9828C6.85788 11.9828 5.98907 12.344 5.34195 13.0303C4.69742 13.7139 4.34039 14.6918 4.34039 16.0416V21.3205C4.34039 22.6702 4.69742 23.6481 5.34195 24.3317C5.98907 25.0181 6.85788 25.3793 8.01212 25.3793C9.22608 25.3793 10.101 25.0219 10.7171 24.3673L10.7202 24.364ZM15.5035 6.14087V2.08203H26.3545V22.9041C26.3545 23.5845 26.5404 24.0592 26.8567 24.395C27.1714 24.7069 27.6078 24.8866 28.2314 24.8866H34.3758V28.9454H28.2314C27.0269 28.9454 25.9444 28.7066 25.0015 28.209C24.0593 27.7117 23.3203 26.9998 22.7952 26.0809C22.2675 25.1573 22.0141 24.0918 22.0141 22.9041V6.14087H15.5035ZM22.6006 5.55433V22.9041C22.6006 24.0068 22.8352 24.9687 23.3045 25.7899C23.7737 26.611 24.4306 27.2445 25.2752 27.6902C26.1199 28.136 27.1052 28.3589 28.2314 28.3589H33.7892V25.4731H28.2314C27.4806 25.4731 26.8824 25.2502 26.4366 24.8045C25.9908 24.3353 25.7679 23.7018 25.7679 22.9041V2.66857H16.09V5.55433H22.6006ZM36.9777 27.6005L36.9753 27.5983C35.6619 26.4163 35.0215 24.8295 35.0215 22.9041C35.0215 20.9581 35.6602 19.3671 36.9802 18.2055C38.2873 17.0553 40.0223 16.5108 42.1186 16.5108H47.5148V15.1618C47.5148 14.0907 47.1946 13.3551 46.6251 12.8591L46.6175 12.8525L46.6101 12.8456C46.0493 12.3222 45.204 12.018 43.9838 12.018C42.9177 12.018 42.0719 12.246 41.4129 12.6653L41.4075 12.6688L41.402 12.6721C40.7624 13.0597 40.4314 13.5591 40.3414 14.189L40.2694 14.6926H35.9278L36.0115 14.0323C36.2431 12.2055 37.1153 10.7347 38.6073 9.65426C40.088 8.582 41.9166 8.06471 44.0542 8.06471C46.3841 8.06471 48.2972 8.6673 49.7232 9.93772C51.1567 11.2148 51.8552 12.9442 51.8552 15.0562V28.9454H47.5852V27.3047C47.3749 27.5347 47.1366 27.7492 46.8704 27.9477C45.6601 28.8676 44.0802 29.2974 42.189 29.2974C40.0498 29.2974 38.2897 28.755 36.9802 27.6027L36.9777 27.6005ZM46.5177 27.4791C46.9637 27.1469 47.3195 26.7668 47.5852 26.3386C47.7922 26.005 47.9444 25.6422 48.0418 25.2502C48.0581 25.1846 48.0729 25.1182 48.0861 25.0509C48.111 24.9247 48.1304 24.7956 48.1444 24.6637H48.1717V28.3589H51.2686V15.0562C51.2686 13.0855 50.6234 11.5253 49.333 10.3757C48.0427 9.22605 46.283 8.65125 44.0542 8.65125C42.013 8.65125 40.3121 9.14394 38.9513 10.1293C37.7543 10.9961 37.002 12.1262 36.6946 13.5195C36.6526 13.7101 36.6188 13.9056 36.5934 14.106H39.7607C39.878 13.2849 40.3238 12.6397 41.098 12.1705C41.8723 11.6778 42.8342 11.4314 43.9838 11.4314C45.2977 11.4314 46.3065 11.7599 47.0103 12.4168C47.7377 13.0503 48.1013 13.9653 48.1013 15.1618V17.0974H42.1186C40.1244 17.0974 38.5407 17.6135 37.3677 18.6458C36.1946 19.6781 35.608 21.0976 35.608 22.9041C35.608 24.6872 36.1946 26.1066 37.3677 27.1624C38.5407 28.1947 40.1478 28.7108 42.189 28.7108C43.9955 28.7108 45.4384 28.3002 46.5177 27.4791ZM46.4351 25.2502C46.5111 25.1977 46.5855 25.1429 46.6584 25.086C46.9344 24.8706 47.1709 24.6378 47.3677 24.3876C47.5292 24.1822 47.6641 23.9652 47.7723 23.7364C47.7812 23.7175 47.7899 23.6986 47.7985 23.6796C48.0004 23.2308 48.1013 22.7377 48.1013 22.2003V19.4553H42.189C41.1332 19.4553 40.3003 19.7485 39.6903 20.3351C39.0803 20.9216 38.7753 21.7193 38.7753 22.7281C38.7753 23.8074 39.139 24.6637 39.8663 25.2972C40.6171 25.9072 41.6494 26.2122 42.9632 26.2122C44.351 26.2122 45.5083 25.8915 46.4351 25.2502ZM40.244 24.8483C40.8578 25.3434 41.7412 25.6256 42.9632 25.6256C44.3649 25.6256 45.4607 25.2768 46.2975 24.6236C47.1237 23.9788 47.5148 23.1844 47.5148 22.2003V20.0418H42.189C41.2454 20.0418 40.5722 20.3009 40.0969 20.7579C39.6237 21.2128 39.3619 21.8458 39.3619 22.7281C39.3619 23.6563 39.6656 24.3409 40.244 24.8483ZM57.2616 27.4443L57.2589 27.4417C56.2022 26.4121 55.7092 24.9884 55.7092 23.256V2.96184H60.0496V8.41663H67.7919V12.4755H60.0496V23.256C60.0496 23.9116 60.2061 24.2944 60.4156 24.5143C60.6201 24.729 60.9686 24.8866 61.5746 24.8866H67.44V28.9454H61.5746C59.8032 28.9454 58.3403 28.4691 57.2642 27.4468L57.2616 27.4443ZM59.463 11.8889H67.2053V9.00317H59.463V3.54837H56.2957V23.256C56.2957 24.8749 56.7532 26.1301 57.6682 27.0216C58.6067 27.9131 59.9088 28.3589 61.5746 28.3589H66.8534V25.4731H61.5746C60.1669 25.4731 59.463 24.7341 59.463 23.256V11.8889ZM70.5857 25.5126L70.5822 25.5061C69.9176 24.2792 69.5964 22.854 69.5964 21.2501V16.112C69.5964 14.4867 69.9168 13.0587 70.5847 11.8514L70.587 11.8472L70.5893 11.8431C71.2785 10.6434 72.2407 9.71961 73.4664 9.08123C74.6927 8.44256 76.1269 8.13509 77.7493 8.13509C79.3716 8.13509 80.8059 8.44256 82.0322 9.08123C83.2583 9.71984 84.2102 10.6449 84.8764 11.8472C85.5686 13.0541 85.9022 14.4715 85.9022 16.0768V21.2501C85.9022 22.8568 85.5681 24.2844 84.8777 25.5125C84.2115 26.716 83.2591 27.6418 82.0322 28.2808C80.8059 28.9195 79.3716 29.227 77.7493 29.227C76.1269 29.227 74.6927 28.9195 73.4664 28.2808C72.2407 27.6425 71.2785 26.7186 70.5893 25.519L70.5857 25.5126ZM84.3654 12.1353C83.7554 11.0326 82.8874 10.188 81.7612 9.60144C80.6351 9.0149 79.2977 8.72163 77.7493 8.72163C76.2008 8.72163 74.8635 9.0149 73.7374 9.60144C72.6112 10.188 71.7314 11.0326 71.0979 12.1353C70.4879 13.238 70.1829 14.5635 70.1829 16.112V21.2501C70.1829 22.7751 70.4879 24.1006 71.0979 25.2268C71.7314 26.3295 72.6112 27.1741 73.7374 27.7606C74.8635 28.3472 76.2008 28.6404 77.7493 28.6404C79.2977 28.6404 80.6351 28.3472 81.7612 27.7606C82.8874 27.1741 83.7554 26.3295 84.3654 25.2268C84.9989 24.1006 85.3156 22.7751 85.3156 21.2501V16.0768C85.3156 14.5518 84.9989 13.238 84.3654 12.1353ZM77.7493 25.2385C79.0212 25.2385 79.9352 24.886 80.5722 24.249C81.2008 23.6204 81.5618 22.6551 81.5618 21.2501V16.112C81.5618 14.7069 81.2008 13.7416 80.5722 13.1131C79.9352 12.4761 79.0212 12.1235 77.7493 12.1235C76.5068 12.1235 75.5878 12.4729 74.9232 13.1162C74.2966 13.7448 73.9368 14.7093 73.9368 16.112V21.2501C73.9368 22.6528 74.2966 23.6172 74.9232 24.2458C75.5877 24.8891 76.5068 25.2385 77.7493 25.2385ZM74.5116 24.6637C73.7374 23.8895 73.3502 22.7516 73.3502 21.2501V16.112C73.3502 14.6105 73.7374 13.4726 74.5116 12.6984C75.3093 11.9241 76.3885 11.537 77.7493 11.537C79.1335 11.537 80.2128 11.9241 80.987 12.6984C81.7612 13.4726 82.1483 14.6105 82.1483 16.112V21.2501C82.1483 22.7516 81.7612 23.8895 80.987 24.6637C80.2128 25.4379 79.1335 25.8251 77.7493 25.8251C76.3885 25.8251 75.3093 25.4379 74.5116 24.6637Z" fill="white"/>
<defs>
<radialGradient id="paint0_radial_4511_620842" cx="0" cy="0" r="1" gradientUnits="userSpaceOnUse" gradientTransform="translate(98.7817 30.027) rotate(-50.1245) scale(44.0134 39.4278)">
<stop stop-color="#818CF8"/>
<stop offset="0.425" stop-color="#FFAFDF"/>
<stop offset="1" stop-color="#FFEC1B"/>
</radialGradient>
<radialGradient id="paint1_radial_4511_620842" cx="0" cy="0" r="1" gradientUnits="userSpaceOnUse" gradientTransform="translate(98.7817 30.027) rotate(-50.1245) scale(44.0134 39.4278)">
<stop stop-color="#818CF8"/>
<stop offset="0.425" stop-color="#FFAFDF"/>
<stop offset="1" stop-color="#FFEC1B"/>
</radialGradient>
<radialGradient id="paint2_radial_4511_620842" cx="0" cy="0" r="1" gradientUnits="userSpaceOnUse" gradientTransform="translate(98.7817 30.027) rotate(-50.1245) scale(44.0134 39.4278)">
<stop stop-color="#818CF8"/>
<stop offset="0.425" stop-color="#FFAFDF"/>
<stop offset="1" stop-color="#FFEC1B"/>
</radialGradient>
</defs>
</svg>
