<svg width="205" height="55" viewBox="0 0 205 55" fill="none" xmlns="http://www.w3.org/2000/svg">
<path d="M0.62 54.8V11H7.94V17.06C8.54 14.98 9.62 13.36 11.18 12.2C12.74 11 14.68 10.4 17 10.4C19.12 10.4 20.98 10.92 22.58 11.96C24.22 13 25.48 14.48 26.36 16.4C27.28 18.28 27.74 20.48 27.74 23V31.94C27.74 35.74 26.76 38.8 24.8 41.12C22.84 43.44 20.24 44.6 17 44.6C14.68 44.6 12.72 44 11.12 42.8C9.56 41.6 8.48 39.92 7.88 37.76L8.12 45.56V54.8H0.62ZM14.18 38.12C16.1 38.12 17.58 37.6 18.62 36.56C19.7 35.52 20.24 33.92 20.24 31.76V23.24C20.24 21.08 19.7 19.48 18.62 18.44C17.58 17.4 16.1 16.88 14.18 16.88C12.26 16.88 10.76 17.46 9.68 18.62C8.64 19.78 8.12 21.42 8.12 23.54V31.46C8.12 33.58 8.64 35.22 9.68 36.38C10.76 37.54 12.26 38.12 14.18 38.12ZM54.1166 44C50.8366 44 48.1966 43.02 46.1966 41.06C44.2366 39.1 43.2566 36.52 43.2566 33.32V6.98H32.3966V0.199999H50.7566V33.14C50.7566 34.38 51.0966 35.38 51.7766 36.14C52.4966 36.86 53.4566 37.22 54.6566 37.22H64.3166V44H54.1166ZM79.8931 44.6C76.5331 44.6 73.8731 43.66 71.9131 41.78C69.9931 39.86 69.0331 37.36 69.0331 34.28C69.0331 31.08 70.1331 28.54 72.3331 26.66C74.5331 24.74 77.5531 23.78 81.3931 23.78H89.4331V21.44C89.4331 18.12 87.4931 16.46 83.6131 16.46C81.8531 16.46 80.4531 16.8 79.4131 17.48C78.3731 18.16 77.7931 19.12 77.6731 20.36H70.4731C70.6331 17.4 71.8731 15 74.1931 13.16C76.5531 11.32 79.7131 10.4 83.6731 10.4C87.8731 10.4 91.1331 11.38 93.4531 13.34C95.7731 15.3 96.9331 18.06 96.9331 21.62V44H89.6131V37.82C89.3331 39.94 88.3331 41.6 86.6131 42.8C84.8931 44 82.6531 44.6 79.8931 44.6ZM82.2931 38.48C84.4931 38.48 86.2331 37.94 87.5131 36.86C88.7931 35.78 89.4331 34.34 89.4331 32.54V28.64H81.7531C80.1131 28.64 78.8131 29.1 77.8531 30.02C76.8931 30.94 76.4131 32.12 76.4131 33.56C76.4131 35.04 76.9131 36.24 77.9131 37.16C78.9531 38.04 80.4131 38.48 82.2931 38.48ZM121.63 44C118.55 44 116.09 43.12 114.25 41.36C112.45 39.56 111.55 37.14 111.55 34.1V17.78H102.43V11H111.55V1.7H119.11V11H132.25V17.78H119.11V33.92C119.11 34.88 119.37 35.68 119.89 36.32C120.45 36.92 121.21 37.22 122.17 37.22H131.95V44H121.63ZM153.106 44.54C148.866 44.54 145.506 43.36 143.026 41C140.546 38.6 139.306 35.38 139.306 31.34V23.66C139.306 19.58 140.546 16.36 143.026 14C145.506 11.64 148.866 10.46 153.106 10.46C157.346 10.46 160.706 11.64 163.186 14C165.666 16.36 166.906 19.58 166.906 23.66V31.34C166.906 35.38 165.666 38.6 163.186 41C160.706 43.36 157.346 44.54 153.106 44.54ZM153.106 38C155.106 38 156.646 37.46 157.726 36.38C158.846 35.26 159.406 33.66 159.406 31.58V23.42C159.406 21.34 158.846 19.76 157.726 18.68C156.646 17.56 155.106 17 153.106 17C151.106 17 149.546 17.56 148.426 18.68C147.346 19.76 146.806 21.34 146.806 23.42V31.58C146.806 33.66 147.346 35.26 148.426 36.38C149.546 37.46 151.106 38 153.106 38ZM171.083 44L182.843 21.38L171.863 0.199999H181.763L186.323 9.8C186.763 10.68 187.123 11.48 187.403 12.2C187.723 12.92 187.923 13.44 188.003 13.76C188.083 13.44 188.263 12.92 188.543 12.2C188.823 11.48 189.163 10.68 189.563 9.8L194.243 0.199999H203.903L192.923 21.38L204.683 44H194.783L189.503 33.2C189.103 32.32 188.743 31.5 188.423 30.74C188.103 29.98 187.863 29.4 187.703 29C187.583 29.4 187.383 29.98 187.103 30.74C186.823 31.5 186.463 32.32 186.023 33.2L180.743 44H171.083Z" fill="white"/>
</svg>
