<svg width="177" height="170" viewBox="0 0 177 170" fill="none" xmlns="http://www.w3.org/2000/svg">
<g clip-path="url(#clip0_3275_53984)">
<g clip-path="url(#clip1_3275_53984)">
<rect x="-44.8242" y="3.94287" width="247.519" height="166.057" rx="2.50652" fill="white"/>
<g clip-path="url(#clip2_3275_53984)">
<g clip-path="url(#clip3_3275_53984)">
<g opacity="0.68">
<g style="mix-blend-mode:multiply">
<line x1="7.1647" y1="-1.28839" x2="7.16469" y2="195.429" stroke="#ECEEED" stroke-width="0.587216"/>
</g>
<g style="mix-blend-mode:multiply">
<line x1="21.2545" y1="-1.28839" x2="21.2545" y2="195.429" stroke="#ECEEED" stroke-width="0.587216"/>
</g>
<g style="mix-blend-mode:multiply">
<line x1="35.3483" y1="-1.28833" x2="35.3483" y2="195.429" stroke="#ECEEED" stroke-width="0.587216"/>
</g>
<g style="mix-blend-mode:multiply">
<line x1="49.442" y1="-1.28833" x2="49.442" y2="195.429" stroke="#ECEEED" stroke-width="0.587216"/>
</g>
<g style="mix-blend-mode:multiply">
<line x1="63.5358" y1="-1.28833" x2="63.5358" y2="195.429" stroke="#ECEEED" stroke-width="0.587216"/>
</g>
<g style="mix-blend-mode:multiply">
<line x1="77.6295" y1="-1.28833" x2="77.6295" y2="195.429" stroke="#ECEEED" stroke-width="0.587216"/>
</g>
<g style="mix-blend-mode:multiply">
<line x1="91.7233" y1="-1.28839" x2="91.7233" y2="195.429" stroke="#ECEEED" stroke-width="0.587216"/>
</g>
</g>
<g opacity="0.68">
<g style="mix-blend-mode:multiply">
<line x1="153.086" y1="21.9068" x2="-43.6315" y2="21.9068" stroke="#ECEEED" stroke-width="0.587216"/>
</g>
<g style="mix-blend-mode:multiply">
<line x1="153.086" y1="35.9999" x2="-43.6315" y2="35.9999" stroke="#ECEEED" stroke-width="0.587216"/>
</g>
<g style="mix-blend-mode:multiply">
<line x1="153.086" y1="50.093" x2="-43.6315" y2="50.093" stroke="#ECEEED" stroke-width="0.587216"/>
</g>
<g style="mix-blend-mode:multiply">
<line x1="153.086" y1="64.1863" x2="-43.6315" y2="64.1863" stroke="#ECEEED" stroke-width="0.587216"/>
</g>
<g style="mix-blend-mode:multiply">
<line x1="153.086" y1="78.2794" x2="-43.6315" y2="78.2794" stroke="#ECEEED" stroke-width="0.587216"/>
</g>
<g style="mix-blend-mode:multiply">
<line x1="153.086" y1="92.3727" x2="-43.6315" y2="92.3727" stroke="#ECEEED" stroke-width="0.587216"/>
</g>
<g style="mix-blend-mode:multiply">
<line x1="153.086" y1="106.466" x2="-43.6315" y2="106.466" stroke="#ECEEED" stroke-width="0.587216"/>
</g>
<g style="mix-blend-mode:multiply">
<line x1="153.086" y1="120.559" x2="-43.6315" y2="120.559" stroke="#ECEEED" stroke-width="0.587216"/>
</g>
<g style="mix-blend-mode:multiply">
<line x1="153.086" y1="134.652" x2="-43.6315" y2="134.652" stroke="#ECEEED" stroke-width="0.587216"/>
</g>
<g style="mix-blend-mode:multiply">
<line x1="153.086" y1="148.746" x2="-43.6315" y2="148.746" stroke="#ECEEED" stroke-width="0.587216"/>
</g>
</g>
</g>
</g>
<g clip-path="url(#clip4_3275_53984)">
<g clip-path="url(#clip5_3275_53984)">
<g opacity="0.68">
<g style="mix-blend-mode:multiply">
<line x1="145.477" y1="-1.28857" x2="145.477" y2="195.429" stroke="#ECEEED" stroke-width="0.587216"/>
</g>
<g style="mix-blend-mode:multiply">
<line x1="159.571" y1="-1.28857" x2="159.571" y2="195.429" stroke="#ECEEED" stroke-width="0.587216"/>
</g>
<g style="mix-blend-mode:multiply">
<line x1="173.661" y1="-1.28857" x2="173.661" y2="195.429" stroke="#ECEEED" stroke-width="0.587216"/>
</g>
</g>
<g opacity="0.68">
<g style="mix-blend-mode:multiply">
<line x1="305.492" y1="21.9064" x2="108.775" y2="21.9064" stroke="#ECEEED" stroke-width="0.587216"/>
</g>
<g style="mix-blend-mode:multiply">
<line x1="305.492" y1="35.9996" x2="108.775" y2="35.9996" stroke="#ECEEED" stroke-width="0.587216"/>
</g>
<g style="mix-blend-mode:multiply">
<line x1="305.492" y1="50.0928" x2="108.775" y2="50.0928" stroke="#ECEEED" stroke-width="0.587216"/>
</g>
<g style="mix-blend-mode:multiply">
<line x1="305.492" y1="64.186" x2="108.775" y2="64.186" stroke="#ECEEED" stroke-width="0.587216"/>
</g>
<g style="mix-blend-mode:multiply">
<line x1="305.492" y1="78.2792" x2="108.775" y2="78.2792" stroke="#ECEEED" stroke-width="0.587216"/>
</g>
<g style="mix-blend-mode:multiply">
<line x1="305.492" y1="92.3724" x2="108.775" y2="92.3724" stroke="#ECEEED" stroke-width="0.587216"/>
</g>
<g style="mix-blend-mode:multiply">
<line x1="305.492" y1="106.466" x2="108.775" y2="106.466" stroke="#ECEEED" stroke-width="0.587216"/>
</g>
<g style="mix-blend-mode:multiply">
<line x1="305.492" y1="120.559" x2="108.775" y2="120.559" stroke="#ECEEED" stroke-width="0.587216"/>
</g>
<g style="mix-blend-mode:multiply">
<line x1="305.492" y1="134.652" x2="108.775" y2="134.652" stroke="#ECEEED" stroke-width="0.587216"/>
</g>
<g style="mix-blend-mode:multiply">
<line x1="305.492" y1="148.745" x2="108.775" y2="148.745" stroke="#ECEEED" stroke-width="0.587216"/>
</g>
</g>
</g>
<g clip-path="url(#clip6_3275_53984)">
<g opacity="0.68">
<g style="mix-blend-mode:multiply">
<line x1="104.376" y1="-1.28851" x2="104.376" y2="195.429" stroke="#ECEEED" stroke-width="0.587216"/>
</g>
<g style="mix-blend-mode:multiply">
<line x1="118.465" y1="-1.28857" x2="118.465" y2="195.429" stroke="#ECEEED" stroke-width="0.587216"/>
</g>
<g style="mix-blend-mode:multiply">
<line x1="132.559" y1="-1.28857" x2="132.559" y2="195.429" stroke="#ECEEED" stroke-width="0.587216"/>
</g>
</g>
<g opacity="0.68">
<g style="mix-blend-mode:multiply">
<line x1="151.645" y1="21.9064" x2="-45.073" y2="21.9064" stroke="#ECEEED" stroke-width="0.587216"/>
</g>
<g style="mix-blend-mode:multiply">
<line x1="151.645" y1="35.9995" x2="-45.073" y2="35.9995" stroke="#ECEEED" stroke-width="0.587216"/>
</g>
<g style="mix-blend-mode:multiply">
<line x1="151.645" y1="50.0926" x2="-45.073" y2="50.0925" stroke="#ECEEED" stroke-width="0.587216"/>
</g>
<g style="mix-blend-mode:multiply">
<line x1="151.645" y1="64.1859" x2="-45.073" y2="64.1859" stroke="#ECEEED" stroke-width="0.587216"/>
</g>
<g style="mix-blend-mode:multiply">
<line x1="151.645" y1="78.279" x2="-45.073" y2="78.279" stroke="#ECEEED" stroke-width="0.587216"/>
</g>
<g style="mix-blend-mode:multiply">
<line x1="151.645" y1="92.3723" x2="-45.073" y2="92.3723" stroke="#ECEEED" stroke-width="0.587216"/>
</g>
<g style="mix-blend-mode:multiply">
<line x1="151.645" y1="106.465" x2="-45.073" y2="106.465" stroke="#ECEEED" stroke-width="0.587216"/>
</g>
<g style="mix-blend-mode:multiply">
<line x1="151.645" y1="120.559" x2="-45.073" y2="120.559" stroke="#ECEEED" stroke-width="0.587216"/>
</g>
<g style="mix-blend-mode:multiply">
<line x1="151.645" y1="134.652" x2="-45.073" y2="134.652" stroke="#ECEEED" stroke-width="0.587216"/>
</g>
<g style="mix-blend-mode:multiply">
<line x1="151.645" y1="148.745" x2="-45.073" y2="148.745" stroke="#ECEEED" stroke-width="0.587216"/>
</g>
</g>
</g>
</g>
<rect x="-51.1445" y="-1.33337" width="86.4751" height="206.788" fill="url(#paint0_linear_3275_53984)"/>
<rect x="234.652" y="205.092" width="86.4751" height="206.788" transform="rotate(-180 234.652 205.092)" fill="url(#paint1_linear_3275_53984)"/>
<rect x="-104.512" y="218.779" width="73.1209" height="276.973" transform="rotate(-90 -104.512 218.779)" fill="url(#paint2_linear_3275_53984)"/>
<rect x="221.684" y="-27.5483" width="73.3159" height="334.621" transform="rotate(90 221.684 -27.5483)" fill="url(#paint3_linear_3275_53984)"/>
</g>
<path d="M60.0211 45.1992C60.6368 45.1992 61.136 44.7002 61.136 44.0844C61.136 43.4688 60.6368 42.9695 60.0211 42.9695C59.4054 42.9695 58.9062 43.4689 58.9062 44.0844C58.9062 44.7002 59.4054 45.1992 60.0211 45.1992Z" fill="#2B5C4F"/>
<path d="M109.473 31.5023C110.616 31.5023 111.543 30.5756 111.543 29.4319C111.543 28.2886 110.616 27.3615 109.473 27.3615C108.329 27.3615 107.402 28.2888 107.402 29.4319C107.402 30.5756 108.329 31.5023 109.473 31.5023Z" fill="#FF80CC"/>
<path d="M105.611 44.9601C106.469 44.9601 107.164 44.2651 107.164 43.4073C107.164 42.5499 106.469 41.8545 105.611 41.8545C104.754 41.8545 104.059 42.55 104.059 43.4073C104.059 44.2651 104.754 44.9601 105.611 44.9601Z" fill="white" stroke="#74777C" stroke-width="0.574593" stroke-linecap="round" stroke-linejoin="round"/>
<path d="M96.8994 93.7125C62.7162 89.2441 41.5099 105.628 35.1797 114.379L61.2919 119.825C68.8882 109.436 84.8441 108.607 91.8725 109.491L96.8994 93.7125Z" fill="white" stroke="#74777C" stroke-width="0.574593"/>
<path d="M61.1523 119.765C69.9774 109.041 85.3096 108.687 91.8726 109.851V66.1446C75.2278 64.0221 64.0847 71.1716 61.1523 76.3381V119.765Z" fill="white" stroke="#74777C" stroke-width="0.574593"/>
<path d="M61.1523 119.905V76.4777L35.1797 71.0318V114.459L61.1523 119.905Z" fill="white" stroke="#74777C" stroke-width="0.574593"/>
<path d="M97.0416 93.5135V50.2259L91.875 66.0049V109.572L97.0416 93.5135Z" fill="white" stroke="#74777C" stroke-width="0.574593"/>
<path d="M96.8994 50.226C62.7162 45.7576 41.5099 62.1417 35.1797 70.8923L61.2919 76.3381C68.8882 65.9491 84.8441 65.1206 91.8725 66.0049L96.8994 50.226Z" fill="white" stroke="#74777C" stroke-width="0.574593"/>
<ellipse cx="81.98" cy="58.0693" rx="8.54636" ry="2.17051" fill="#D9D9D9"/>
<path d="M87.1367 132.409L102.466 102.564C122 105.277 135.43 117.215 138.144 123.591L87.1367 132.409Z" fill="white" stroke="#74777C" stroke-width="0.574593"/>
<path d="M86.8672 132.408V99.4434L138.145 90.7614V123.726L86.8672 132.408Z" fill="#FCEC3B" stroke="white" stroke-width="0.574593"/>
<path d="M86.8672 99.3082L102.468 69.5994C122.002 72.3126 135.432 84.2503 138.145 90.6262L86.8672 99.3082Z" fill="#FCEC3B" stroke="white" stroke-width="0.574593"/>
<path d="M62.0408 126.531H33.8242C35.3617 136.389 46.0876 158.166 86.459 158.817C126.83 159.468 140.179 136.931 140.586 126.531H114.676C114.223 130.465 108.707 139.066 90.2573 141.996C71.8081 144.926 63.7591 132.907 62.0408 126.531Z" fill="white" stroke="white" stroke-width="0.574593"/>
<path d="M62.0408 109.438H33.8242C35.3617 119.296 46.0876 141.073 86.459 141.724C126.83 142.375 140.179 119.838 140.586 109.438H114.676C114.223 113.372 108.707 121.973 90.2573 124.903C71.8081 127.833 63.7591 115.814 62.0408 109.438Z" fill="#FF80CC" stroke="white" stroke-width="0.574593"/>
<path d="M33.9609 126.531V109.303C35.0914 120.11 47.2281 141.725 86.7313 141.725C126.235 141.725 139.185 120.11 140.723 109.303V126.531C140.723 135.62 127.552 158.817 90.2584 158.817C46.0344 158.817 34.7749 135.62 33.9609 126.531Z" fill="#FF80CC" stroke="white" stroke-width="0.574593"/>
<path d="M81.7858 133.674C86.0364 129.875 93.3785 124.588 104.636 129.289C103.46 119.702 113.861 94.2896 123.085 112.467C123.085 83.9797 112.775 49.6585 109.927 83.9796C105.631 58.7927 94.9891 46.481 81.7734 57.3984" stroke="#74777C" stroke-width="0.574593" stroke-linejoin="round" stroke-dasharray="3.13 3.13"/>
<circle cx="81.9815" cy="31.3447" r="12.3447" fill="#7AD0D7"/>
<path d="M107.4 106.516C108.016 106.516 108.515 106.017 108.515 105.401C108.515 104.785 108.016 104.286 107.4 104.286C106.784 104.286 106.285 104.786 106.285 105.401C106.285 106.017 106.784 106.516 107.4 106.516Z" fill="white" stroke="#74777C" stroke-width="0.574593" stroke-linecap="round" stroke-linejoin="round"/>
<path d="M22.5528 95.6862C23.4104 95.6862 24.1057 94.9911 24.1057 94.1334C24.1057 93.2759 23.4104 92.5806 22.5528 92.5806C21.6952 92.5806 21 93.2761 21 94.1334C21 94.9911 21.6952 95.6862 22.5528 95.6862Z" fill="white" stroke="#74777C" stroke-width="0.574593" stroke-linecap="round" stroke-linejoin="round"/>
</g>
<defs>
<linearGradient id="paint0_linear_3275_53984" x1="-21.7978" y1="42.623" x2="73.0548" y2="42.623" gradientUnits="userSpaceOnUse">
<stop stop-color="white"/>
<stop offset="1" stop-color="white" stop-opacity="0"/>
</linearGradient>
<linearGradient id="paint1_linear_3275_53984" x1="263.999" y1="249.048" x2="358.852" y2="249.048" gradientUnits="userSpaceOnUse">
<stop stop-color="white"/>
<stop offset="1" stop-color="white" stop-opacity="0"/>
</linearGradient>
<linearGradient id="paint2_linear_3275_53984" x1="-79.697" y1="277.654" x2="0.507748" y2="277.654" gradientUnits="userSpaceOnUse">
<stop stop-color="white"/>
<stop offset="1" stop-color="white" stop-opacity="0"/>
</linearGradient>
<linearGradient id="paint3_linear_3275_53984" x1="246.565" y1="43.581" x2="326.983" y2="43.581" gradientUnits="userSpaceOnUse">
<stop stop-color="white"/>
<stop offset="1" stop-color="white" stop-opacity="0"/>
</linearGradient>
<clipPath id="clip0_3275_53984">
<rect width="177" height="170" fill="white"/>
</clipPath>
<clipPath id="clip1_3275_53984">
<rect x="-44.8242" y="3.94287" width="247.519" height="166.057" rx="2.50652" fill="white"/>
</clipPath>
<clipPath id="clip2_3275_53984">
<rect width="159.537" height="137.379" fill="white" transform="translate(-62.3789 21.4888)"/>
</clipPath>
<clipPath id="clip3_3275_53984">
<rect width="163.833" height="196.717" fill="white" transform="translate(-18.9688 -1.28967)"/>
</clipPath>
<clipPath id="clip4_3275_53984">
<rect width="152.644" height="137.379" fill="white" transform="translate(96.9258 21.4888)"/>
</clipPath>
<clipPath id="clip5_3275_53984">
<rect width="163.833" height="196.717" fill="white" transform="translate(133.441 -1.28967)"/>
</clipPath>
<clipPath id="clip6_3275_53984">
<rect width="170.293" height="196.717" fill="white" transform="translate(-36.8516 -1.28967)"/>
</clipPath>
</defs>
</svg>
