<svg width="63" height="66" viewBox="0 0 63 66" fill="none" xmlns="http://www.w3.org/2000/svg">
<path d="M32.168 3.9834L32.168 60.049" stroke="#E8EEEE" stroke-linecap="round" stroke-dasharray="2 2"/>
<path d="M60.1992 32.0162L4.13364 32.0162" stroke="#E8EEEE" stroke-linecap="round" stroke-dasharray="2 2"/>
<path d="M55.666 3.9834L55.666 60.049" stroke="#E8EEEE" stroke-linecap="round"/>
<path d="M9.66602 3.9834L9.66602 60.049" stroke="#E8EEEE" stroke-linecap="round"/>
<path d="M60.666 8.99979L3.66602 8.99978" stroke="#E8EEEE" stroke-linecap="round"/>
<path d="M60.666 54.9998L3.66602 54.9998" stroke="#E8EEEE" stroke-linecap="round"/>
<path d="M24.2161 28.1247C24.0824 28.0476 23.9176 28.0476 23.7839 28.1247L15.9888 32.6253C15.8551 32.7024 15.7728 32.8451 15.7728 32.9995V42.0005C15.7728 42.1549 15.8551 42.2976 15.9888 42.3747L23.7839 46.8753C23.9176 46.9524 24.0824 46.9524 24.2161 46.8753L32.0112 42.3747C32.1449 42.2976 32.2272 42.1549 32.2272 42.0005V32.9995C32.2272 32.8451 32.1449 32.7024 32.0112 32.6253L24.2161 28.1247Z" fill="white" stroke="#74777C" stroke-width="0.5" stroke-linecap="round" stroke-linejoin="round"/>
<path d="M23.9742 45.8125C23.9742 45.3468 23.9742 38.4391 23.9742 38.4391M23.9742 38.4391L16.875 33.9375M23.9742 38.4391L31.7187 33.9375" stroke="#74777C" stroke-width="0.5" stroke-linecap="round" stroke-linejoin="round"/>
<path d="M40.2161 28.1247C40.0824 28.0476 39.9176 28.0476 39.7839 28.1247L31.9888 32.6253C31.8551 32.7024 31.7728 32.8451 31.7728 32.9995V42.0005C31.7728 42.1549 31.8551 42.2976 31.9888 42.3747L39.7839 46.8753C39.9176 46.9524 40.0824 46.9524 40.2161 46.8753L48.0112 42.3747C48.1449 42.2976 48.2272 42.1549 48.2272 42.0005V32.9995C48.2272 32.8451 48.1449 32.7024 48.0112 32.6253L40.2161 28.1247Z" fill="white" stroke="#74777C" stroke-width="0.5" stroke-linecap="round" stroke-linejoin="round"/>
<path d="M39.9742 45.8125C39.9742 45.3468 39.9742 38.4391 39.9742 38.4391M39.9742 38.4391L32.875 33.9375M39.9742 38.4391L47.7187 33.9375" stroke="#74777C" stroke-width="0.5" stroke-linecap="round" stroke-linejoin="round"/>
<path d="M32.2161 14.1247C32.0824 14.0476 31.9176 14.0476 31.7839 14.1247L23.9888 18.6253C23.8551 18.7024 23.7728 18.8451 23.7728 18.9995V28.0005C23.7728 28.1549 23.8551 28.2976 23.9888 28.3747L31.7839 32.8753C31.9176 32.9524 32.0824 32.9524 32.2161 32.8753L40.0112 28.3747C40.1449 28.2976 40.2272 28.1549 40.2272 28.0005V18.9995C40.2272 18.8451 40.1449 18.7024 40.0112 18.6253L32.2161 14.1247Z" fill="#7AD0D7" stroke="white" stroke-width="0.5" stroke-linecap="round" stroke-linejoin="round"/>
<path d="M31.9742 31.8125C31.9742 31.3468 31.9742 24.4391 31.9742 24.4391M31.9742 24.4391L24.875 19.9375M31.9742 24.4391L39.7187 19.9375" stroke="white" stroke-width="0.5" stroke-linecap="round" stroke-linejoin="round"/>
<circle cx="17.5" cy="15" r="2" fill="#FCEC3B"/>
<circle cx="50" cy="19.5" r="1.5" fill="#FFADDF"/>
<path d="M46.3535 15.7071C46.8249 15.7071 47.2071 15.325 47.2071 14.8535C47.2071 14.3822 46.8249 14 46.3535 14C45.8821 14 45.5 14.3823 45.5 14.8535C45.5 15.325 45.8821 15.7071 46.3535 15.7071Z" fill="white" stroke="#74777C" stroke-width="0.341416" stroke-linecap="round" stroke-linejoin="round"/>
</svg>
