<svg width="63" height="63" viewBox="0 0 63 63" fill="none" xmlns="http://www.w3.org/2000/svg">
<path d="M32.168 0.983398L32.168 57.049" stroke="#E8EEEE" stroke-linecap="round" stroke-dasharray="2 2"/>
<path d="M60.1992 29.0162L4.13364 29.0162" stroke="#E8EEEE" stroke-linecap="round" stroke-dasharray="2 2"/>
<path d="M55.666 0.983398L55.666 57.049" stroke="#E8EEEE" stroke-linecap="round"/>
<path d="M9.66602 0.983398L9.66602 57.049" stroke="#E8EEEE" stroke-linecap="round"/>
<path d="M60.666 5.99982L3.66602 5.99981" stroke="#E8EEEE" stroke-linecap="round"/>
<path d="M60.666 51.9998L3.66602 51.9998" stroke="#E8EEEE" stroke-linecap="round"/>
<circle cx="2" cy="2" r="2" transform="matrix(-1 0 0 1 50.5 14)" fill="#7AD0D7"/>
<circle cx="1.5" cy="1.5" r="1.5" transform="matrix(-1 0 0 1 19.5 15)" fill="#2B5C4F"/>
<path d="M23.3535 13.7071C22.8821 13.7071 22.5 13.325 22.5 12.8535C22.5 12.3822 22.8821 12 23.3535 12C23.8249 12 24.207 12.3823 24.207 12.8535C24.207 13.325 23.8249 13.7071 23.3535 13.7071Z" fill="white" stroke="#74777C" stroke-width="0.341416" stroke-linecap="round" stroke-linejoin="round"/>
<path d="M41.3986 25.5832L35.8544 25.1537L34.002 30.5001L35.3843 31.2491L35.3867 31.2498C35.4968 31.194 36.6103 30.654 37.7149 31.2614C38.3263 31.5978 38.629 32.1174 38.7424 32.3422C38.8387 32.5771 39.0867 33.2616 38.8959 34.0923C38.6919 34.9794 38.1186 35.4705 37.9313 35.6175C37.7284 35.7604 37.1714 36.1074 36.3706 36.0997C35.7372 36.0933 35.2575 35.8669 35.0277 35.7404L33.494 40.9617L34.6711 41.828C39.1997 42.0503 43.7899 42.1896 48.3185 42.4119C48.5342 42.4159 49.4312 42.4117 50.1888 41.7305C50.8794 41.1098 51.0141 40.3228 51.0451 40.0932L52.0577 25.9145C51.9512 25.8603 51.002 25.0001 51.002 25.0001C51.002 25.0001 47.4857 25.7119 46.0803 25.6499C46.2567 25.3689 46.4207 24.7269 46.4153 24.1405C46.4052 23.0338 45.7988 21.1994 43.5616 21.1062C42.4615 20.9865 41.782 22.2678 41.2405 23.5257C41.0185 24.0413 41.0349 25.0446 41.3986 25.5832Z" fill="white" stroke="#74777C" stroke-width="0.5" stroke-miterlimit="10" stroke-linecap="round" stroke-linejoin="round"/>
<path d="M45.2459 22.8556C44.7235 21.3201 43.2466 20.967 42.4802 20.8964L42.3828 20.8916L43.7413 26.2946C44.5227 25.8454 45.7683 24.3912 45.2459 22.8556Z" fill="#F7F8F8" stroke="#74777C" stroke-width="0.5"/>
<path d="M34.5964 24.1248L34.1263 30.2201L34.1287 30.2208C34.2388 30.165 35.3523 29.625 36.4569 30.2324C37.0683 30.5689 37.3711 31.0884 37.4844 31.3132C37.5807 31.5481 37.8287 32.2326 37.638 33.0633C37.4339 33.9504 36.8606 34.4416 36.6734 34.5885C36.4704 34.7315 35.9134 35.0784 35.1126 35.0707C34.4792 35.0643 33.9995 34.838 33.7697 34.7115L33.4131 40.799C37.9417 41.0213 42.5319 41.1607 47.0605 41.383C47.2763 41.3869 48.1733 41.3827 48.9308 40.7015C49.6214 40.0808 49.7561 39.2938 49.7871 39.0642L50.7998 24.8855C49.7985 24.8406 47.1773 24.7248 44.8223 24.6209C44.9987 24.3399 45.1627 23.6979 45.1573 23.1115C45.1472 22.0048 44.2219 20.9829 42.729 20.9087C41.6289 20.789 40.524 21.2388 39.9825 22.4967C39.7605 23.0124 39.7769 24.0156 40.1406 24.5542L34.5964 24.1248Z" fill="white" stroke="#74777C" stroke-width="0.5" stroke-miterlimit="10" stroke-linecap="round" stroke-linejoin="round"/>
<path d="M16.9018 26.9354C17.1019 27.2424 17.302 27.5493 17.5031 27.8558C17.4961 28.1566 17.5247 28.8709 18.0135 29.5317C18.6655 30.4127 19.8677 30.8385 21.0815 30.6261C19.6262 30.9053 18.171 31.1846 16.7157 31.4639L16.2188 27.962L16.9013 26.9344L16.9018 26.9354Z" fill="#F7F8F8"/>
<path d="M11.7807 27.8819L12.9157 26.4393L16.9482 27.0488C16.8552 27.2377 16.6274 27.7659 16.7494 28.4567C16.8479 29.0198 17.1302 29.4094 17.2732 29.5821C17.3571 29.6736 18.2265 30.5992 19.5477 30.4887C20.8478 30.3808 21.4665 29.3637 21.5297 29.2554C21.6314 29.0098 21.8269 28.4414 21.7081 27.708C21.6059 27.0742 21.1555 26.4014 21.1555 26.4014L22.0877 24.9241C22.0877 24.9241 25.9438 25.6431 27.2931 25.4417C27.541 27.4175 27.798 29.2354 28.0459 31.2112C28.201 31.0811 28.7083 30.6906 29.4854 30.6722C30.1352 30.6569 30.6204 30.9101 30.812 31.023C31.0041 31.1606 32.6811 31.3817 32.9377 32.1718C33.2839 34.7307 31.6893 35.5575 30.4127 35.8291C29.1361 36.1008 29.8766 36.4056 29.6914 36.4189C28.9052 36.7884 29.0042 35.8308 28.752 35.7825C28.8896 36.856 30.4049 40.0135 30.4049 40.0135C30.4049 40.0135 29.7353 41.2081 29.4885 41.5189L16.7462 43.5605C16.6219 43.5859 15.4027 43.81 14.4208 42.9464C13.6468 42.266 13.5495 41.3761 13.5329 41.1878C12.9482 36.7519 12.365 32.3167 11.7803 27.8809L11.7807 27.8819Z" fill="#FFADDF" stroke="#F7F8F8" stroke-width="0.5" stroke-miterlimit="10" stroke-linecap="round" stroke-linejoin="round"/>
<path d="M18.0073 25.6225C18.2074 25.9294 18.4075 26.2363 18.6085 26.5428C18.6015 26.8436 18.6302 27.5579 19.1189 28.2187C19.7709 29.0997 20.9732 29.5256 22.1869 29.3131C20.7317 29.5923 19.2765 29.8716 17.8212 30.1509L17.3243 26.649L18.0068 25.6215L18.0073 25.6225Z" fill="#F7F8F8"/>
<path d="M12.8388 26.4555L18.0062 25.6225C17.9132 25.8114 17.6854 26.3396 17.8074 27.0304C17.9059 27.5935 18.1883 27.9831 18.3313 28.1558C18.4151 28.2473 19.2845 29.1729 20.6058 29.0624C21.9058 28.9545 22.5245 27.9374 22.5878 27.8291C22.6894 27.5835 22.8849 27.0151 22.7661 26.2817C22.664 25.6479 22.3748 25.1961 22.2136 24.9751C24.2694 24.6684 26.2953 24.3221 28.3512 24.0154C28.5991 25.9912 28.8561 27.809 29.104 29.7848C29.259 29.6548 29.7664 29.2643 30.5435 29.2459C31.1932 29.2305 31.6785 29.4838 31.87 29.5967C32.0621 29.7343 32.626 30.1745 32.8826 30.9645C33.2039 31.9554 32.8231 32.9582 32.7371 33.1206C32.6021 33.3395 32.2558 33.8328 31.5874 34.1466C30.8012 34.5162 30.0622 34.4045 29.8101 34.3562C30.0551 36.2681 30.3016 38.1806 30.5466 40.0926L17.8043 42.1342C17.6799 42.1596 16.4608 42.3837 15.4788 41.5201C14.7049 40.8397 14.6075 39.9498 14.5909 39.7615C14.0062 35.3256 13.423 30.8904 12.8383 26.4545L12.8388 26.4555Z" fill="#FFADDF" stroke="#F7F8F8" stroke-width="0.5" stroke-miterlimit="10" stroke-linecap="round" stroke-linejoin="round"/>
</svg>
