<svg width="64" height="64" viewBox="0 0 64 64" fill="none" xmlns="http://www.w3.org/2000/svg">
<g clip-path="url(#clip0_3180_15142)">
<path d="M32.6641 1.4834L32.6641 57.549" stroke="#E8EEEE" stroke-linecap="round" stroke-dasharray="2 2"/>
<path d="M60.6992 29.5166L4.63364 29.5166" stroke="#E8EEEE" stroke-linecap="round" stroke-dasharray="2 2"/>
<path d="M56.1641 1.4834L56.1641 57.549" stroke="#E8EEEE" stroke-linecap="round"/>
<path d="M10.1641 1.4834L10.1641 57.549" stroke="#E8EEEE" stroke-linecap="round"/>
<path d="M61.1641 6.49982L4.16406 6.49981" stroke="#E8EEEE" stroke-linecap="round"/>
<path d="M61.1641 52.4998L4.16406 52.4998" stroke="#E8EEEE" stroke-linecap="round"/>
<path d="M32.3639 14.7101C32.1387 14.5801 31.8613 14.5801 31.6361 14.7101L18.5075 22.2899C18.2823 22.4199 18.1436 22.6602 18.1436 22.9202V38.0798C18.1436 38.3398 18.2823 38.5801 18.5075 38.7101L31.6361 46.2899C31.8613 46.4199 32.1387 46.4199 32.3639 46.2899L45.4925 38.7101C45.7177 38.5801 45.8564 38.3398 45.8564 38.0798V22.9202C45.8564 22.6602 45.7177 22.4199 45.4925 22.2899L32.3639 14.7101Z" fill="white" stroke="#74777C" stroke-width="0.5" stroke-linecap="round" stroke-linejoin="round"/>
<path d="M31.9565 44.5C31.9565 43.7157 31.9565 32.0817 31.9565 32.0817M31.9565 32.0817L20 24.5M31.9565 32.0817L45 24.5" stroke="#74777C" stroke-width="0.5" stroke-linecap="round" stroke-linejoin="round"/>
<circle cx="32.3726" cy="30.7271" r="9.08791" transform="rotate(8.65833 32.3726 30.7271)" fill="#FCEC3B" stroke="white" stroke-width="0.5"/>
<path d="M32.1396 35.3296V33.9742H32.8658V35.3296H32.1396ZM32.1396 27.8845V26.5H32.8658V27.8845H32.1396ZM32.6334 34.4195C32.188 34.4195 31.7814 34.3356 31.4135 34.1678C31.0456 34 30.739 33.7677 30.4938 33.4708C30.2485 33.1674 30.0839 32.8156 30 32.4155L30.668 32.2509L30.7745 32.2702C30.8455 32.5413 30.9714 32.7866 31.1521 33.006C31.3328 33.219 31.5491 33.3901 31.8008 33.5192C32.059 33.6482 32.3333 33.7128 32.6237 33.7128C32.94 33.7128 33.2175 33.6612 33.4563 33.5579C33.7016 33.4546 33.892 33.3126 34.0275 33.1319C34.1695 32.9447 34.2405 32.7317 34.2405 32.4929C34.2405 32.1702 34.1502 31.9249 33.9695 31.7571C33.7887 31.5828 33.5435 31.4538 33.2337 31.3698L31.9073 31.0019C31.3845 30.8535 30.9875 30.6211 30.7164 30.3049C30.4454 29.9886 30.3098 29.6239 30.3098 29.2108C30.3098 28.8559 30.4002 28.546 30.5809 28.2814C30.7681 28.0103 31.0262 27.7973 31.3554 27.6424C31.6846 27.4875 32.0622 27.4101 32.4882 27.4101C32.9077 27.4101 33.2853 27.4908 33.6209 27.6521C33.963 27.807 34.2438 28.0265 34.4632 28.3105C34.6891 28.5945 34.8376 28.9269 34.9086 29.3077L34.2309 29.4529L34.1244 29.4335C34.0405 29.0334 33.85 28.7139 33.5531 28.475C33.2562 28.2362 32.9013 28.1168 32.4882 28.1168C32.0622 28.1168 31.7201 28.2169 31.4619 28.417C31.2102 28.617 31.0843 28.8849 31.0843 29.2205C31.0843 29.4852 31.1747 29.7046 31.3554 29.8789C31.5361 30.0531 31.7976 30.1887 32.1396 30.2855L33.466 30.6534C33.9565 30.7889 34.3374 31.0116 34.6084 31.3214C34.8795 31.6248 35.0151 32.0024 35.0151 32.4542C35.0151 32.8479 34.915 33.1932 34.7149 33.4901C34.5213 33.7806 34.2438 34.0097 33.8823 34.1775C33.5273 34.3389 33.111 34.4195 32.6334 34.4195Z" fill="#74777C"/>
<circle cx="17.8535" cy="15.3535" r="0.853539" fill="#2B5C4F"/>
<circle cx="50.5" cy="20" r="1.5" fill="#9BDCE1"/>
<path d="M46.8535 16.2071C47.3249 16.2071 47.7071 15.825 47.7071 15.3535C47.7071 14.8822 47.3249 14.5 46.8535 14.5C46.3821 14.5 46 14.8823 46 15.3535C46 15.825 46.3821 16.2071 46.8535 16.2071Z" fill="white" stroke="#74777C" stroke-width="0.341416" stroke-linecap="round" stroke-linejoin="round"/>
</g>
<defs>
<clipPath id="clip0_3180_15142">
<rect width="63" height="63" fill="white" transform="translate(0.5 0.5)"/>
</clipPath>
</defs>
</svg>
