<svg width="63" height="63" viewBox="0 0 63 63" fill="none" xmlns="http://www.w3.org/2000/svg">
<path d="M32.1641 0.983398L32.1641 57.049" stroke="#E8EEEE" stroke-linecap="round" stroke-dasharray="2 2"/>
<path d="M60.1992 29.0166L4.13364 29.0166" stroke="#E8EEEE" stroke-linecap="round" stroke-dasharray="2 2"/>
<path d="M55.6641 0.983398L55.6641 57.049" stroke="#E8EEEE" stroke-linecap="round"/>
<path d="M9.66406 0.983398L9.66406 57.049" stroke="#E8EEEE" stroke-linecap="round"/>
<path d="M60.6641 5.99982L3.66406 5.99981" stroke="#E8EEEE" stroke-linecap="round"/>
<path d="M60.6641 51.9998L3.66406 51.9998" stroke="#E8EEEE" stroke-linecap="round"/>
<path d="M14.786 38.6059L31.4519 34.1325C31.778 34.0452 32.1362 33.9998 32.4992 33.9998C32.8622 33.9998 33.2204 34.0452 33.5466 34.1325L50.214 38.6059C51.0029 38.8173 51.5 39.2477 51.5 39.7189V43.2816C51.5 43.7519 51.0029 44.1831 50.214 44.3946L33.5496 48.8672C33.2235 48.9544 32.8653 48.9998 32.5023 48.9998C32.1393 48.9998 31.7811 48.9544 31.455 48.8672L14.786 44.3946C14.4028 44.2936 14.079 44.1358 13.8516 43.939C13.6243 43.7423 13.5024 43.5145 13.5 43.2816V39.7189C13.5 39.2477 13.9971 38.8173 14.786 38.6059Z" fill="#9BDCE1" stroke="white" stroke-width="0.66129" stroke-linecap="round" stroke-linejoin="round"/>
<path d="M17.2773 40.0906L32.2474 43.8667L46.6597 40.0906M32.2474 46.8724V43.869" stroke="#F7F8F8" stroke-width="0.66129" stroke-linecap="round" stroke-linejoin="round"/>
<path d="M17.8517 33.1389L31.1929 29.589C31.454 29.5197 31.7408 29.4837 32.0313 29.4837C32.3219 29.4837 32.6087 29.5197 32.8697 29.589L46.2122 33.1389C46.8437 33.3066 47.2416 33.6482 47.2416 34.022V36.8493C47.2416 37.2225 46.8437 37.5646 46.2122 37.7324L32.8722 41.2817C32.6111 41.3509 32.3243 41.3869 32.0338 41.3869C31.7432 41.3869 31.4564 41.3509 31.1954 41.2817L17.8517 37.7324C17.5449 37.6524 17.2858 37.5271 17.1038 37.371C16.9217 37.2148 16.8242 37.034 16.8223 36.8493V34.022C16.8223 33.6482 17.2202 33.3066 17.8517 33.1389Z" fill="white" stroke="#616161" stroke-width="0.66129" stroke-linecap="round" stroke-linejoin="round"/>
<path d="M18.8105 34.8899L32.15 38.2002L44.9923 34.8899M32.15 40.835V38.2021" stroke="#616161" stroke-width="0.66129" stroke-linecap="round" stroke-linejoin="round"/>
<circle cx="31.8231" cy="22.0008" r="13.1684" transform="rotate(8.65833 31.8231 22.0008)" fill="#FCEC3B"/>
<path d="M42.1256 22.2751C42.1256 27.8084 37.5623 32.3036 31.9215 32.3036C26.2806 32.3036 21.7174 27.8084 21.7174 22.2751C21.7174 16.7417 26.2806 12.2465 31.9215 12.2465C37.5623 12.2465 42.1256 16.7417 42.1256 22.2751Z" fill="#FCEC3B" stroke="#F7F8F8" stroke-width="0.66129"/>
<path d="M31.2977 28.0901V26.3203H32.2458V28.0901H31.2977ZM31.2977 18.3687V16.5609H32.2458V18.3687H31.2977ZM31.9424 26.9018C31.3609 26.9018 30.83 26.7923 30.3496 26.5731C29.8692 26.354 29.4689 26.0506 29.1486 25.6629C28.8284 25.2668 28.6135 24.8075 28.5039 24.285L29.3762 24.0701L29.5152 24.0954C29.6079 24.4493 29.7723 24.7696 30.0083 25.0561C30.2442 25.3343 30.5266 25.5576 30.8553 25.7261C31.1924 25.8947 31.5506 25.979 31.9298 25.979C32.3428 25.979 32.7052 25.9116 33.017 25.7767C33.3372 25.6419 33.5859 25.4565 33.7629 25.2205C33.9483 24.9761 34.041 24.698 34.041 24.3861C34.041 23.9647 33.923 23.6445 33.687 23.4254C33.451 23.1978 33.1308 23.0293 32.7262 22.9197L30.9943 22.4393C30.3117 22.2455 29.7934 21.9421 29.4394 21.5291C29.0854 21.1161 28.9084 20.64 28.9084 20.1006C28.9084 19.6371 29.0264 19.2325 29.2624 18.887C29.5068 18.533 29.8439 18.2549 30.2737 18.0526C30.7036 17.8504 31.1966 17.7492 31.7528 17.7492C32.3006 17.7492 32.7937 17.8546 33.2319 18.0653C33.6786 18.2675 34.0452 18.5541 34.3317 18.9249C34.6267 19.2957 34.8205 19.7298 34.9132 20.227L34.0283 20.4166L33.8893 20.3913C33.7797 19.8688 33.5311 19.4516 33.1434 19.1398C32.7557 18.828 32.2922 18.6721 31.7528 18.6721C31.1966 18.6721 30.7499 18.8027 30.4128 19.064C30.0841 19.3252 29.9198 19.675 29.9198 20.1132C29.9198 20.4588 30.0378 20.7453 30.2737 20.9729C30.5097 21.2004 30.851 21.3774 31.2977 21.5038L33.0296 21.9842C33.6701 22.1612 34.1674 22.4519 34.5214 22.8565C34.8753 23.2526 35.0523 23.7456 35.0523 24.3356C35.0523 24.8497 34.9217 25.3005 34.6604 25.6882C34.4076 26.0675 34.0452 26.3667 33.5732 26.5858C33.1097 26.7965 32.5661 26.9018 31.9424 26.9018Z" fill="#74777C"/>
<path d="M46.4171 12.5887C45.7565 11.928 45.7564 10.857 46.4171 10.1962C47.0777 9.53566 48.149 9.53555 48.8096 10.1962C49.4703 10.8569 49.4701 11.9283 48.8096 12.5887C48.1488 13.2495 47.0778 13.2494 46.4171 12.5887Z" fill="#2B5C4F"/>
<path d="M13.297 24.3925C12.8565 23.952 12.8564 23.238 13.297 22.7975C13.7373 22.3571 14.4515 22.357 14.892 22.7975C15.3324 23.2379 15.3323 23.9522 14.892 24.3925C14.4514 24.833 13.7374 24.8329 13.297 24.3925Z" fill="white" stroke="#74777C" stroke-width="0.47619" stroke-linecap="round" stroke-linejoin="round"/>
<path d="M49.297 20.3925C48.8565 19.952 48.8564 19.238 49.297 18.7975C49.7373 18.3571 50.4515 18.357 50.892 18.7975C51.3324 19.2379 51.3323 19.9522 50.892 20.3925C50.4514 20.833 49.7374 20.8329 49.297 20.3925Z" fill="white" stroke="#74777C" stroke-width="0.47619" stroke-linecap="round" stroke-linejoin="round"/>
</svg>
