<svg width="64" height="63" viewBox="0 0 64 63" fill="none" xmlns="http://www.w3.org/2000/svg">
<path d="M32.6641 0.983398L32.6641 57.049" stroke="#E8EEEE" stroke-linecap="round" stroke-dasharray="2 2"/>
<path d="M60.6992 29.0166L4.63364 29.0166" stroke="#E8EEEE" stroke-linecap="round" stroke-dasharray="2 2"/>
<path d="M56.1641 0.983398L56.1641 57.049" stroke="#E8EEEE" stroke-linecap="round"/>
<path d="M10.1641 0.983398L10.1641 57.049" stroke="#E8EEEE" stroke-linecap="round"/>
<path d="M61.1641 6L4.16406 6" stroke="#E8EEEE" stroke-linecap="round"/>
<path d="M61.1641 52L4.16406 52" stroke="#E8EEEE" stroke-linecap="round"/>
<path d="M42.0112 48.7495L38.6498 48.3087C38.233 48.254 37.9106 47.9673 37.8106 47.5624L34.9743 36.0762C34.8479 35.5642 35.1041 34.9842 35.5924 34.6771L46.5095 27.8097C46.8215 27.6135 47.1863 27.5567 47.5049 27.6547L50.4809 28.5702C51.4317 28.8627 51.4043 30.2209 50.4373 30.7306L41.9488 35.2045C41.42 35.4832 41.1175 36.0802 41.2313 36.6204L43.4594 47.1935C43.6335 48.0196 42.8517 48.8597 42.0112 48.7495Z" fill="white" stroke="#B6C4C4" stroke-width="0.525178"/>
<path opacity="0.94" d="M22.4592 46.7449L19.1313 45.1758C18.3486 44.8068 18.3885 43.6561 19.2023 43.1295L29.7631 36.2954C30.2558 35.9766 30.8589 36.0219 31.2086 36.404L33.5601 38.9731C34.0389 39.4961 33.8403 40.4015 33.1555 40.8184L23.571 46.6524C23.2146 46.8693 22.7967 46.9041 22.4592 46.7449Z" fill="white" stroke="#B6C4C4" stroke-width="0.554149"/>
<path d="M37.0995 12.917L33.796 12.5989C32.9594 12.5183 32.2065 13.3593 32.3879 14.1717L33.6983 20.0397L35.0502 26.6635C35.1363 27.0851 35.46 27.3897 35.8868 27.4506L39.6797 27.9921C40.5395 28.1148 41.3393 27.2385 41.1318 26.4011L37.9759 13.6667C37.8725 13.2492 37.5329 12.9588 37.0995 12.917Z" fill="white" stroke="#B6C4C4" stroke-width="0.525178"/>
<path d="M32.1585 12.9224C32.6329 11.8831 34.1069 12.1602 34.2863 13.3223L36.0054 24.461C36.0854 24.9796 36.4714 25.3949 36.9586 25.4865L47.177 27.4071C48.2477 27.6084 48.51 29.1339 47.5631 29.6533L38.3428 34.711C37.9253 34.94 37.6981 35.429 37.7757 35.9316L39.5135 47.1913C39.6916 48.3453 38.3797 49.0114 37.6058 48.16L30.2923 40.1144C29.9376 39.7242 29.391 39.6215 28.9517 39.8624L19.8942 44.8309C18.9357 45.3567 17.8625 44.2422 18.3335 43.2103L22.95 33.0964C23.1451 32.6691 23.0758 32.1501 22.7743 31.7794L16.5672 24.1466C15.8822 23.3042 16.5033 22.0433 17.5273 22.1975L26.4632 23.5434C26.9383 23.6149 27.3935 23.3615 27.5991 22.9112L32.1585 12.9224Z" fill="#FCEC3B"/>
<circle cx="19.5" cy="15.5" r="1.5" fill="#2B5C4F"/>
<circle cx="50" cy="17" r="2" fill="#FFADDF"/>
<path d="M45 12C45.5523 12 46 11.5524 46 11C46 10.4478 45.5523 10 45 10C44.4477 10 44 10.4479 44 11C44 11.5524 44.4477 12 45 12Z" fill="white" stroke="#74777C" stroke-width="0.5" stroke-linecap="round" stroke-linejoin="round"/>
</svg>
