<svg width="63" height="64" viewBox="0 0 63 64" fill="none" xmlns="http://www.w3.org/2000/svg">
<g clip-path="url(#clip0_3180_15212)">
<path d="M32.1641 1.4834L32.1641 57.549" stroke="#E8EEEE" stroke-linecap="round" stroke-dasharray="2 2"/>
<path d="M60.1992 29.5166L4.13364 29.5166" stroke="#E8EEEE" stroke-linecap="round" stroke-dasharray="2 2"/>
<path d="M55.6641 1.4834L55.6641 57.549" stroke="#E8EEEE" stroke-linecap="round"/>
<path d="M9.66406 1.4834L9.66406 57.549" stroke="#E8EEEE" stroke-linecap="round"/>
<path d="M60.6641 6.49982L3.66406 6.49981" stroke="#E8EEEE" stroke-linecap="round"/>
<path d="M60.6641 52.4998L3.66406 52.4998" stroke="#E8EEEE" stroke-linecap="round"/>
<path d="M16.1498 17.7996C17.0609 17.7996 17.7996 17.0611 17.7996 16.1498C17.7996 15.2388 17.0609 14.5 16.1498 14.5C15.2386 14.5 14.5 15.2389 14.5 16.1498C14.5 17.0611 15.2386 17.7996 16.1498 17.7996Z" fill="white" stroke="#74777C" stroke-width="0.5" stroke-linecap="round" stroke-linejoin="round"/>
<path d="M46.6498 14.7996C47.5609 14.7996 48.2996 14.0611 48.2996 13.1498C48.2996 12.2388 47.5609 11.5 46.6498 11.5C45.7386 11.5 45 12.2389 45 13.1498C45 14.0611 45.7386 14.7996 46.6498 14.7996Z" fill="#FFADDF"/>
<path d="M50.4983 21.9478C51.1057 21.9478 51.5981 21.4554 51.5981 20.8479C51.5981 20.2406 51.1057 19.748 50.4983 19.748C49.8909 19.748 49.3984 20.2407 49.3984 20.8479C49.3984 21.4554 49.8909 21.9478 50.4983 21.9478Z" fill="white" stroke="#74777C" stroke-width="0.5" stroke-linecap="round" stroke-linejoin="round"/>
<path d="M31.1548 20.1475C38.9984 20.1842 48.5464 27.0999 52.637 30.3807C53.7985 31.3122 53.9384 32.9697 52.8982 34.035C49.5528 37.4612 41.6355 44.16 30.9439 44.0657C20.2422 43.9713 12.5749 37.1223 9.36466 33.6413C8.36646 32.5589 8.54152 30.9262 9.70363 30.022C13.7975 26.8369 23.3689 20.1111 31.1548 20.1475Z" fill="white" stroke="#616161" stroke-width="0.5"/>
<path d="M34.0745 19.9404C41.5073 19.9734 50.5579 26.9374 54.3928 30.2006C55.4801 31.1259 55.6118 32.7072 54.6465 33.7592C51.518 37.1689 44.0135 43.9481 33.8636 43.8586C23.7035 43.769 16.4441 36.8458 13.4465 33.3855C12.5222 32.3186 12.6872 30.7608 13.7757 29.8619C17.6168 26.6899 26.6965 19.9078 34.0745 19.9404Z" fill="white" stroke="#616161" stroke-width="0.5"/>
<path d="M33.9553 25.5503C37.5075 25.5503 40.3872 28.4294 40.3872 31.9822C40.3872 35.5338 37.5075 38.4141 33.9553 38.4141C30.4031 38.4141 27.5234 35.5332 27.5234 31.9822C27.5234 28.4294 30.4031 25.5503 33.9553 25.5503Z" fill="#9BDCE1"/>
<path d="M33.9533 29.6851C35.222 29.6851 36.2504 30.7133 36.2504 31.9822C36.2504 33.2506 35.222 34.2793 33.9533 34.2793C32.6847 34.2793 31.6562 33.2504 31.6562 31.9822C31.6562 30.7133 32.6847 29.6851 33.9533 29.6851Z" fill="#2B5C4F"/>
</g>
<defs>
<clipPath id="clip0_3180_15212">
<rect width="63" height="63" fill="white" transform="translate(0 0.5)"/>
</clipPath>
</defs>
</svg>
