<svg width="64" height="63" viewBox="0 0 64 63" fill="none" xmlns="http://www.w3.org/2000/svg">
<path d="M32.6641 0.983398L32.6641 57.049" stroke="#E8EEEE" stroke-linecap="round" stroke-dasharray="2 2"/>
<path d="M60.6992 29.0166L4.63364 29.0166" stroke="#E8EEEE" stroke-linecap="round" stroke-dasharray="2 2"/>
<path d="M56.1641 0.983398L56.1641 57.049" stroke="#E8EEEE" stroke-linecap="round"/>
<path d="M10.1641 0.983398L10.1641 57.049" stroke="#E8EEEE" stroke-linecap="round"/>
<path d="M61.1641 5.99982L4.16406 5.99981" stroke="#E8EEEE" stroke-linecap="round"/>
<path d="M61.1641 51.9998L4.16406 51.9998" stroke="#E8EEEE" stroke-linecap="round"/>
<path d="M34.5 35.5C40.299 35.5 45 30.8 45 25C45 19.202 40.299 14.5 34.5 14.5C28.701 14.5 24 19.203 24 25C24 30.8 28.701 35.5 34.5 35.5Z" fill="white" stroke="#74777C" stroke-width="0.5" stroke-linecap="round" stroke-linejoin="round"/>
<path d="M34.7691 34.0382C40.7167 34.0382 45.5382 29.2178 45.5382 23.2691C45.5382 17.3225 40.7167 12.5 34.7691 12.5C28.8215 12.5 24 17.3235 24 23.2691C24 29.2178 28.8215 34.0382 34.7691 34.0382Z" fill="#DCE0DF" stroke="#74777C" stroke-width="0.5" stroke-linecap="round" stroke-linejoin="round"/>
<path d="M35 31.5C39.4183 31.5 43 27.919 43 23.5C43 19.0825 39.4183 15.5 35 15.5C30.5817 15.5 27 19.0832 27 23.5C27 27.919 30.5817 31.5 35 31.5Z" fill="white" stroke="#74777C" stroke-width="0.5" stroke-linecap="round" stroke-linejoin="round"/>
<path d="M51.6153 39.1153L43 30.5L41.5 32L50.5 40.5C50.6667 40.6667 51.1231 40.9 51.6153 40.5C52.1075 40.1 51.8204 39.4102 51.6153 39.1153Z" fill="white" stroke="#74777C" stroke-width="0.5" stroke-linecap="round"/>
<path d="M23.3448 34.0896C23.4408 34.0342 23.5592 34.0342 23.6552 34.0896L28.974 37.1604C29.07 37.2158 29.1292 37.3183 29.1292 37.4292V43.5708C29.1292 43.6817 29.07 43.7842 28.974 43.8396L23.6552 46.9104C23.5592 46.9658 23.4408 46.9658 23.3448 46.9104L18.026 43.8396C17.93 43.7842 17.8708 43.6817 17.8708 43.5708V37.4292C17.8708 37.3183 17.93 37.2158 18.026 37.1604L23.3448 34.0896Z" fill="#2B5C4F"/>
<path d="M23.5551 45L23.5551 41.1431M23.5551 41.1431L27 39M23.5551 41.1431L20 39.0385" stroke="white" stroke-width="0.5" stroke-linecap="round" stroke-linejoin="round"/>
<path d="M16.6498 20.2996C17.5609 20.2996 18.2996 19.5611 18.2996 18.6498C18.2996 17.7388 17.5609 17 16.6498 17C15.7386 17 15 17.7389 15 18.6498C15 19.5611 15.7386 20.2996 16.6498 20.2996Z" fill="white" stroke="#74777C" stroke-width="0.5" stroke-linecap="round" stroke-linejoin="round"/>
<path d="M47.1498 14.2996C48.0609 14.2996 48.7996 13.5611 48.7996 12.6498C48.7996 11.7388 48.0609 11 47.1498 11C46.2386 11 45.5 11.7389 45.5 12.6498C45.5 13.5611 46.2386 14.2996 47.1498 14.2996Z" fill="#FCEC3B"/>
<path d="M50.9983 21.4478C51.6057 21.4478 52.0981 20.9554 52.0981 20.3479C52.0981 19.7406 51.6057 19.248 50.9983 19.248C50.3909 19.248 49.8984 19.7407 49.8984 20.3479C49.8984 20.9554 50.3909 21.4478 50.9983 21.4478Z" fill="white" stroke="#74777C" stroke-width="0.5" stroke-linecap="round" stroke-linejoin="round"/>
</svg>
