<svg width="64" height="66" viewBox="0 0 64 66" fill="none" xmlns="http://www.w3.org/2000/svg">
<path d="M32.668 3.9834L32.668 60.049" stroke="#E8EEEE" stroke-linecap="round" stroke-dasharray="2 2"/>
<path d="M60.6992 32.0162L4.63364 32.0162" stroke="#E8EEEE" stroke-linecap="round" stroke-dasharray="2 2"/>
<path d="M56.166 3.9834L56.166 60.049" stroke="#E8EEEE" stroke-linecap="round"/>
<path d="M10.166 3.9834L10.166 60.049" stroke="#E8EEEE" stroke-linecap="round"/>
<path d="M61.166 8.99979L4.16602 8.99978" stroke="#E8EEEE" stroke-linecap="round"/>
<path d="M61.166 54.9998L4.16602 54.9998" stroke="#E8EEEE" stroke-linecap="round"/>
<g clip-path="url(#clip0_3180_15767)">
<path d="M22.0926 16.2071C22.7533 15.5464 22.7534 14.4754 22.0926 13.8146C21.4321 13.1541 20.3608 13.154 19.7001 13.8146C19.0395 14.4753 19.0397 15.5467 19.7001 16.2071C20.3609 16.8679 21.432 16.8678 22.0926 16.2071Z" fill="#FF80CC"/>
<path d="M53.2128 29.3682C53.6532 28.9277 53.6533 28.2137 53.2128 27.7732C52.7724 27.3328 52.0583 27.3327 51.6178 27.7732C51.1774 28.2136 51.1775 28.9279 51.6178 29.3682C52.0583 29.8087 52.7724 29.8086 53.2128 29.3682Z" fill="white" stroke="#74777C" stroke-width="0.47619" stroke-linecap="round" stroke-linejoin="round"/>
<path d="M19.4452 23.0593C19.8857 22.6189 19.8857 21.9049 19.4452 21.4643C19.0048 21.024 18.2907 21.0239 17.8502 21.4643C17.4098 21.9048 17.4099 22.619 17.8502 23.0593C18.2907 23.4999 19.0048 23.4998 19.4452 23.0593Z" fill="white" stroke="#74777C" stroke-width="0.47619" stroke-linecap="round" stroke-linejoin="round"/>
<circle cx="31.3743" cy="36.1048" r="15.3364" transform="rotate(8.65833 31.3743 36.1048)" fill="#FCEC3B"/>
<path d="M43.5532 36.4239C43.5532 42.9691 38.1564 48.2809 31.4918 48.2809C24.8271 48.2809 19.4303 42.9691 19.4303 36.4239C19.4303 29.8788 24.8271 24.567 31.4918 24.567C38.1564 24.567 43.5532 29.8788 43.5532 36.4239Z" fill="#FCEC3B" stroke="#F7F8F8" stroke-width="0.415376"/>
<path d="M30.7635 43.1966V41.1354H31.8678V43.1966H30.7635ZM30.7635 31.8747V29.7693H31.8678V31.8747H30.7635ZM31.5144 41.8126C30.8371 41.8126 30.2188 41.685 29.6593 41.4298C29.0998 41.1746 28.6336 40.8213 28.2606 40.3698C27.8877 39.9085 27.6374 39.3735 27.5098 38.765L28.5256 38.5147L28.6876 38.5441C28.7956 38.9564 28.987 39.3294 29.2618 39.6631C29.5366 39.987 29.8654 40.2471 30.2482 40.4434C30.6408 40.6397 31.058 40.7379 31.4997 40.7379C31.9806 40.7379 32.4027 40.6593 32.7658 40.5023C33.1388 40.3453 33.4284 40.1293 33.6345 39.8545C33.8504 39.5698 33.9584 39.2459 33.9584 38.8828C33.9584 38.392 33.821 38.019 33.5462 37.7638C33.2713 37.4988 32.8984 37.3025 32.4272 37.1749L30.4102 36.6154C29.6151 36.3897 29.0115 36.0363 28.5993 35.5554C28.187 35.0744 27.9809 34.5199 27.9809 33.8917C27.9809 33.3519 28.1183 32.8807 28.3931 32.4783C28.6778 32.0661 29.0704 31.7422 29.571 31.5066C30.0716 31.271 30.6457 31.1532 31.2936 31.1532C31.9315 31.1532 32.5057 31.2759 33.0161 31.5213C33.5363 31.7569 33.9633 32.0906 34.297 32.5225C34.6406 32.9543 34.8663 33.4598 34.9743 34.0389L33.9437 34.2598L33.7817 34.2303C33.6541 33.6218 33.3646 33.1359 32.9131 32.7728C32.4616 32.4096 31.9217 32.228 31.2936 32.228C30.6457 32.228 30.1255 32.3802 29.7329 32.6844C29.3501 32.9887 29.1587 33.396 29.1587 33.9064C29.1587 34.3089 29.2961 34.6426 29.571 34.9076C29.8458 35.1726 30.2433 35.3787 30.7635 35.5259L32.7806 36.0854C33.5265 36.2915 34.1056 36.6302 34.5179 37.1013C34.9301 37.5626 35.1362 38.1368 35.1362 38.8239C35.1362 39.4226 34.9841 39.9477 34.6798 40.3992C34.3854 40.8409 33.9633 41.1894 33.4137 41.4446C32.8738 41.6899 32.2407 41.8126 31.5144 41.8126Z" fill="#74777C"/>
<path d="M40.3334 28.9641L44.5351 33.1265L47.3319 31.0853L46.3334 17.3841L33.0765 15.4763L31.0714 18.478L35.4889 23.4142H40.7034L40.3334 28.9641Z" fill="white" stroke="#74777C" stroke-width="0.47619" stroke-linecap="round" stroke-linejoin="round"/>
<path d="M48.3742 15.4765H33.0781L37.2737 20.3326H43.1835L42.7673 26.5763L47.3336 31.0855L48.3742 15.4765Z" fill="white" stroke="#74777C" stroke-width="0.47619" stroke-linecap="round" stroke-linejoin="round"/>
<path d="M37.2687 20.3325L35.5613 23.2807" stroke="#74777C" stroke-width="0.47619" stroke-linecap="round" stroke-linejoin="round"/>
<path d="M42.7658 26.576L40.371 28.8039" stroke="#74777C" stroke-width="0.47619" stroke-linecap="round" stroke-linejoin="round"/>
<path d="M40.7555 23.3052L42.8531 20.5748" stroke="#74777C" stroke-width="0.47619" stroke-linecap="round" stroke-linejoin="round"/>
</g>
<defs>
<clipPath id="clip0_3180_15767">
<rect width="63" height="63" fill="white" transform="translate(0.5)"/>
</clipPath>
</defs>
</svg>
