<svg width="63" height="64" viewBox="0 0 63 64" fill="none" xmlns="http://www.w3.org/2000/svg">
<g clip-path="url(#clip0_3180_15114)">
<path d="M32.1641 1.4834L32.1641 57.549" stroke="#E8EEEE" stroke-linecap="round" stroke-dasharray="2 2"/>
<path d="M60.1992 29.5166L4.13364 29.5166" stroke="#E8EEEE" stroke-linecap="round" stroke-dasharray="2 2"/>
<path d="M55.6641 1.4834L55.6641 57.549" stroke="#E8EEEE" stroke-linecap="round"/>
<path d="M9.66406 1.4834L9.66406 57.549" stroke="#E8EEEE" stroke-linecap="round"/>
<path d="M60.6641 6.49982L3.66406 6.49981" stroke="#E8EEEE" stroke-linecap="round"/>
<path d="M60.6641 52.4998L3.66406 52.4998" stroke="#E8EEEE" stroke-linecap="round"/>
<path d="M18.3043 23.9328L31.3154 16.8557C31.8293 16.5756 32.4362 16.5756 32.95 16.8557L45.9612 23.9328C46.5767 24.269 46.9647 24.9505 46.9647 25.6956V39.9544C46.9647 40.7014 46.5767 41.3829 45.9612 41.7172L32.95 48.7962C32.4362 49.0763 31.8293 49.0763 31.3154 48.7962L18.3043 41.7172C18.0025 41.553 17.7489 41.3012 17.5717 40.9899C17.3945 40.6787 17.3007 40.3201 17.3008 39.9544V25.6956C17.3008 24.9487 17.6887 24.269 18.3043 23.9328Z" fill="#9BDCE1"/>
<path d="M29.7289 33.4822C31.7214 33.4822 33.3367 31.8673 33.3367 29.8744C33.3367 27.8822 31.7214 26.2666 29.7289 26.2666C27.7364 26.2666 26.1211 27.8825 26.1211 29.8744C26.1211 31.8673 27.7364 33.4822 29.7289 33.4822Z" fill="white" stroke="#74777C" stroke-width="0.400866" stroke-linecap="round" stroke-linejoin="round"/>
<path d="M24.9164 32.6804C26.9089 32.6804 28.5242 31.0655 28.5242 29.0726C28.5242 27.0804 26.9089 25.4648 24.9164 25.4648C22.9239 25.4648 21.3086 27.0808 21.3086 29.0726C21.3086 31.0655 22.9239 32.6804 24.9164 32.6804Z" fill="white" stroke="#74777C" stroke-width="0.400866" stroke-linecap="round" stroke-linejoin="round"/>
<path d="M28.1234 27.8699C30.116 27.8699 31.7312 26.255 31.7312 24.2621C31.7312 22.2699 30.116 20.6543 28.1234 20.6543C26.1309 20.6543 24.5156 22.2702 24.5156 24.2621C24.5156 26.255 26.1309 27.8699 28.1234 27.8699Z" fill="white" stroke="#74777C" stroke-width="0.400866" stroke-linecap="round" stroke-linejoin="round"/>
<path d="M34.5375 26.2664C36.53 26.2664 38.1453 24.6515 38.1453 22.6586C38.1453 20.6664 36.53 19.0508 34.5375 19.0508C32.5449 19.0508 30.9297 20.6667 30.9297 22.6586C30.9297 24.6515 32.5449 26.2664 34.5375 26.2664Z" fill="white" stroke="#74777C" stroke-width="0.400866" stroke-linecap="round" stroke-linejoin="round"/>
<path d="M32.1312 29.4734C34.1238 29.4734 35.739 27.8585 35.739 25.8656C35.739 23.8734 34.1238 22.2578 32.1312 22.2578C30.1387 22.2578 28.5234 23.8738 28.5234 25.8656C28.5234 27.8585 30.1387 29.4734 32.1312 29.4734Z" fill="white" stroke="#74777C" stroke-width="0.400866" stroke-linecap="round" stroke-linejoin="round"/>
<path d="M38.5453 30.2752C40.5378 30.2752 42.1531 28.6602 42.1531 26.6674C42.1531 24.6752 40.5378 23.0596 38.5453 23.0596C36.5528 23.0596 34.9375 24.6755 34.9375 26.6674C34.9375 28.6602 36.5528 30.2752 38.5453 30.2752Z" fill="white" stroke="#74777C" stroke-width="0.400866" stroke-linecap="round" stroke-linejoin="round"/>
<path d="M34.5375 35.0857C36.53 35.0857 38.1453 33.4708 38.1453 31.4779C38.1453 29.4857 36.53 27.8701 34.5375 27.8701C32.5449 27.8701 30.9297 29.4861 30.9297 31.4779C30.9297 33.4708 32.5449 35.0857 34.5375 35.0857Z" fill="white" stroke="#74777C" stroke-width="0.400866" stroke-linecap="round" stroke-linejoin="round"/>
<path d="M18.7583 25.6183L31.081 32.2244C31.4698 32.4329 31.7132 32.8374 31.7154 33.2785L31.7857 47.7349C31.7902 48.6577 30.7966 49.2415 29.9926 48.7884L17.6764 41.8471C17.3003 41.6351 17.0666 41.2378 17.0643 40.806L16.9875 26.6847C16.9826 25.7729 17.9547 25.1874 18.7583 25.6183Z" fill="#9BDCE1" stroke="white" stroke-width="0.400866" stroke-linecap="round"/>
<path d="M45.2126 26.3653L32.7792 32.7547C32.3874 32.956 32.1371 33.3553 32.1266 33.7956L31.7831 48.1745C31.7607 49.1135 32.7751 49.7146 33.5879 49.244L46.3648 41.8469C46.7362 41.6319 46.9648 41.2352 46.9648 40.8061V27.4349C46.9648 26.5351 46.0129 25.954 45.2126 26.3653Z" fill="#9BDCE1" stroke="white" stroke-width="0.400866" stroke-linecap="round"/>
<circle cx="17.5" cy="14.5" r="2" fill="#FCEC3B"/>
<circle cx="50.5" cy="19.5" r="2" fill="#FFADDF"/>
<path d="M45.5 15.5C46.0523 15.5 46.5 15.0524 46.5 14.5C46.5 13.9478 46.0523 13.5 45.5 13.5C44.9477 13.5 44.5 13.9479 44.5 14.5C44.5 15.0524 44.9477 15.5 45.5 15.5Z" fill="white" stroke="#74777C" stroke-width="0.341416" stroke-linecap="round" stroke-linejoin="round"/>
</g>
<defs>
<clipPath id="clip0_3180_15114">
<rect width="63" height="63" fill="white" transform="translate(0 0.5)"/>
</clipPath>
</defs>
</svg>
