<svg width="35" height="37" viewBox="0 0 35 37" fill="none" xmlns="http://www.w3.org/2000/svg">
<g clip-path="url(#clip0_2978_128775)">
<path d="M19.1025 1.60645L19.1025 36.1802" stroke="#E8EEEE" stroke-width="0.616667" stroke-linecap="round" stroke-dasharray="1.23 1.23"/>
<path d="M36.3896 18.8931L1.81587 18.8931" stroke="#E8EEEE" stroke-width="0.616667" stroke-linecap="round" stroke-dasharray="1.23 1.23"/>
<path d="M33.0938 1.60645L33.0938 36.1802" stroke="#E8EEEE" stroke-width="0.616667" stroke-linecap="round"/>
<path d="M4.72754 1.60645L4.72754 36.1802" stroke="#E8EEEE" stroke-width="0.616667" stroke-linecap="round"/>
<path d="M36.6777 4.7002L1.52773 4.70019" stroke="#E8EEEE" stroke-width="0.616667" stroke-linecap="round"/>
<path d="M36.6777 33.0669L1.52773 33.0669" stroke="#E8EEEE" stroke-width="0.616667" stroke-linecap="round"/>
<path d="M6.91309 23.9827V17.0758C6.91309 16.5114 6.91309 16.2292 7.02198 16.0136L9.20708 12.5958C9.45145 12.5958 10.1226 16.6103 10.2376 16.6382C10.3395 16.6629 10.437 16.7036 10.5264 16.7588C10.6272 16.8212 10.7136 16.9083 10.8864 17.0826L18.199 21.1983L17.6535 17.0758C17.6535 16.5114 17.3183 17.0171 17.4272 16.8015L19.9124 12.787L25.8386 12.9782L25.8667 16.6874C28.4557 16.4514 31 16.4436 31 18.4264C31 21.2939 28.706 24.2888 27.1767 25.0449C26.0638 25.5951 24.9299 25.5951 23.6885 25.5951H23.687H23.4125C23.1681 25.5951 23.0459 25.5951 22.9309 25.5673C22.829 25.5426 22.7315 25.5019 22.6421 25.4466C22.5413 25.3843 22.4549 25.2972 22.2821 25.1229L20.2405 23.1606L20.0494 22.9768C19.3815 23.6495 17.5516 25.4539 17.1079 25.4853C16.8942 25.5951 16.6144 25.5951 16.0549 25.5951H8.51165C7.9521 25.5951 7.67233 25.5951 7.45861 25.4853C7.27061 25.3887 7.11777 25.2345 7.02198 25.0449C6.91309 24.8293 6.91309 24.5471 6.91309 23.9827Z" fill="#B7C4C4"/>
<path d="M8.06063 24.7821L9.15301 23.8263C9.18786 23.7958 9.23259 23.779 9.27889 23.779H17.8259C18.0079 23.779 18.0869 24.0093 17.9433 24.121L16.7143 25.0769C16.6808 25.103 16.6395 25.1171 16.597 25.1171H8.18651C8.01 25.1171 7.92779 24.8983 8.06063 24.7821Z" fill="#B7C4C4"/>
<path d="M10.8056 23.3012C10.246 23.3012 9.96627 23.3012 9.75255 23.1914C9.56456 23.0948 9.41171 22.9406 9.31593 22.751C9.20703 22.5354 9.20703 22.2532 9.20703 21.6888V14.0172C9.20703 13.4528 9.20703 13.1706 9.31593 12.955C9.41171 12.7654 9.56456 12.6112 9.75255 12.5146C9.96627 12.4048 10.246 12.4048 10.8056 12.4048H13.197C13.4413 12.4048 13.5635 12.4048 13.6785 12.4326C13.7804 12.4573 13.8779 12.498 13.9673 12.5533C14.0681 12.6156 14.1545 12.7027 14.3273 12.877L19.9474 18.5458V14.0172C19.9474 13.4528 19.9474 13.1706 20.0563 12.955C20.1521 12.7654 20.3049 12.6112 20.4929 12.5146C20.7066 12.4048 20.9864 12.4048 21.546 12.4048H25.5986C28.5817 12.4048 31 14.844 31 17.853C31 20.862 28.5817 23.3012 25.5986 23.3012H25.3241C25.0797 23.3012 24.9575 23.3012 24.8425 23.2734C24.7406 23.2487 24.6431 23.208 24.5537 23.1527C24.4529 23.0904 24.3665 23.0033 24.1937 22.829L19.9474 18.5458V21.6888C19.9474 22.2532 19.9474 22.5354 19.8385 22.751C19.7427 22.9406 19.5899 23.0948 19.4019 23.1914C19.1882 23.3012 18.9084 23.3012 18.3488 23.3012H10.8056Z" fill="white"/>
<path d="M19.9474 18.5458L14.3273 12.877C14.1545 12.7027 14.0681 12.6156 13.9673 12.5533C13.8779 12.498 13.7804 12.4573 13.6785 12.4326C13.5635 12.4048 13.4413 12.4048 13.197 12.4048H10.8056C10.246 12.4048 9.96627 12.4048 9.75255 12.5146C9.56456 12.6112 9.41171 12.7654 9.31593 12.955C9.20703 13.1706 9.20703 13.4528 9.20703 14.0172V21.6888C9.20703 22.2532 9.20703 22.5354 9.31593 22.751C9.41171 22.9406 9.56456 23.0948 9.75255 23.1914C9.96627 23.3012 10.246 23.3012 10.8056 23.3012H18.3488C18.9084 23.3012 19.1882 23.3012 19.4019 23.1914C19.5899 23.0948 19.7427 22.9406 19.8385 22.751C19.9474 22.5354 19.9474 22.2532 19.9474 21.6888V18.5458ZM19.9474 18.5458L24.1937 22.829C24.3665 23.0033 24.4529 23.0904 24.5537 23.1527C24.6431 23.208 24.7406 23.2487 24.8425 23.2734C24.9575 23.3012 25.0797 23.3012 25.3241 23.3012H25.5986C28.5817 23.3012 31 20.862 31 17.853C31 14.844 28.5817 12.4048 25.5986 12.4048H21.546C20.9864 12.4048 20.7066 12.4048 20.4929 12.5146C20.3049 12.6112 20.1521 12.7654 20.0563 12.955C19.9474 13.1706 19.9474 13.4528 19.9474 14.0172V18.5458Z" stroke="#505967" stroke-width="0.573499"/>
<path d="M23.9489 24.5946L24.7317 23.6425C24.7749 23.59 24.8433 23.5648 24.9105 23.5741C26.2033 23.7541 27.2643 23.4159 27.9327 23.0959C28.1191 23.0067 28.3158 23.2098 28.1783 23.3641C27.5175 24.1056 26.2055 25.1149 24.0684 24.8962C23.9212 24.8811 23.855 24.7088 23.9489 24.5946Z" fill="#B7C4C4"/>
</g>
<defs>
<clipPath id="clip0_2978_128775">
<rect width="35" height="37" fill="white"/>
</clipPath>
</defs>
</svg>
