<svg width="42" height="45" viewBox="0 0 42 45" fill="none" xmlns="http://www.w3.org/2000/svg">
<g clip-path="url(#clip0_3275_58241)">
<g clip-path="url(#clip1_3275_58241)">
<path d="M22.9219 1.92773L22.9219 43.4163" stroke="#E8EEEE" stroke-width="0.74" stroke-linecap="round" stroke-dasharray="1.48 1.48"/>
<path d="M43.668 22.6716L2.17944 22.6716" stroke="#E8EEEE" stroke-width="0.74" stroke-linecap="round" stroke-dasharray="1.48 1.48"/>
<path d="M39.7129 1.92773L39.7129 43.4163" stroke="#E8EEEE" stroke-width="0.74" stroke-linecap="round"/>
<path d="M5.67188 1.92773L5.67188 43.4163" stroke="#E8EEEE" stroke-width="0.74" stroke-linecap="round"/>
<path d="M44.0137 5.64026L1.83367 5.64026" stroke="#E8EEEE" stroke-width="0.74" stroke-linecap="round"/>
<path d="M44.0137 39.6803L1.83367 39.6803" stroke="#E8EEEE" stroke-width="0.74" stroke-linecap="round"/>
<path d="M8.29492 29.2642V20.9759C8.29492 20.2986 8.29492 19.96 8.4256 19.7013L11.0477 15.6C11.341 15.6 12.1463 20.4174 12.2843 20.4508C12.4066 20.4804 12.5236 20.5293 12.6308 20.5956C12.7518 20.6704 12.8555 20.7749 13.0629 20.9841L21.838 25.923L21.1834 20.9759C21.1834 20.2986 20.7812 20.9055 20.9119 20.6468L23.8941 15.8294L31.0055 16.0588L31.0392 20.5098C34.1461 20.2267 37.1993 20.2173 37.1993 22.5967C37.1993 26.0377 34.4465 29.6315 32.6113 30.5388C31.2758 31.1991 29.9151 31.1991 28.4254 31.1991H28.4236H28.0942C27.8009 31.1991 27.6543 31.1991 27.5163 31.1657C27.394 31.1361 27.277 31.0872 27.1698 31.0209C27.0488 30.9462 26.9451 30.8416 26.7377 30.6324L24.2879 28.2777L24.0584 28.0572C23.2571 28.8644 21.0611 31.0296 20.5287 31.0673C20.2723 31.1991 19.9365 31.1991 19.2651 31.1991H10.2132C9.54174 31.1991 9.20601 31.1991 8.94955 31.0673C8.72395 30.9514 8.54054 30.7664 8.4256 30.5388C8.29492 30.2802 8.29492 29.9415 8.29492 29.2642Z" fill="#B7C4C4"/>
<path d="M9.5669 29.7384L10.8778 28.5914C10.9196 28.5548 10.9732 28.5347 11.0288 28.5347H21.2852C21.5036 28.5347 21.5985 28.811 21.426 28.9451L19.9513 30.0921C19.9111 30.1235 19.8615 30.1405 19.8105 30.1405H9.71796C9.50614 30.1405 9.40749 29.8779 9.5669 29.7384Z" fill="#B7C4C4"/>
<g filter="url(#filter0_f_3275_58241)">
<path d="M12.8616 27.9615C12.1902 27.9615 11.8544 27.9615 11.598 27.8297C11.3724 27.7138 11.189 27.5288 11.074 27.3012C10.9434 27.0425 10.9434 26.7039 10.9434 26.0266V16.8207C10.9434 16.1434 10.9434 15.8047 11.074 15.546C11.189 15.3185 11.3724 15.1335 11.598 15.0176C11.8544 14.8857 12.1902 14.8857 12.8616 14.8857H15.7313C16.0245 14.8857 16.1711 14.8857 16.3091 14.9192C16.4315 14.9488 16.5484 14.9976 16.6557 15.0639C16.7767 15.1387 16.8803 15.2433 17.0877 15.4525L23.8318 22.255V16.8207C23.8318 16.1434 23.8318 15.8047 23.9625 15.546C24.0774 15.3185 24.2608 15.1335 24.4864 15.0176C24.7429 14.8857 25.0786 14.8857 25.7501 14.8857H30.6132C34.193 14.8857 37.0949 17.8129 37.0949 21.4236C37.0949 25.0344 34.193 27.9615 30.6132 27.9615H30.2838C29.9906 27.9615 29.8439 27.9615 29.706 27.9281C29.5836 27.8985 29.4667 27.8496 29.3594 27.7833C29.2384 27.7085 29.1347 27.6039 28.9274 27.3948L23.8318 22.255V26.0266C23.8318 26.7039 23.8318 27.0425 23.7011 27.3012C23.5862 27.5288 23.4028 27.7138 23.1772 27.8297C22.9207 27.9615 22.585 27.9615 21.9135 27.9615H12.8616Z" fill="#181A1A"/>
<path d="M23.8318 22.255L17.0877 15.4525C16.8803 15.2433 16.7767 15.1387 16.6557 15.0639C16.5484 14.9976 16.4315 14.9488 16.3091 14.9192C16.1711 14.8857 16.0245 14.8857 15.7313 14.8857H12.8616C12.1902 14.8857 11.8544 14.8857 11.598 15.0176C11.3724 15.1335 11.189 15.3185 11.074 15.546C10.9434 15.8047 10.9434 16.1434 10.9434 16.8207V26.0266C10.9434 26.7039 10.9434 27.0425 11.074 27.3012C11.189 27.5288 11.3724 27.7138 11.598 27.8297C11.8544 27.9615 12.1902 27.9615 12.8616 27.9615H21.9135C22.585 27.9615 22.9207 27.9615 23.1772 27.8297C23.4028 27.7138 23.5862 27.5288 23.7011 27.3012C23.8318 27.0425 23.8318 26.7039 23.8318 26.0266V22.255ZM23.8318 22.255L28.9274 27.3948C29.1347 27.6039 29.2384 27.7085 29.3594 27.7833C29.4667 27.8496 29.5836 27.8985 29.706 27.9281C29.8439 27.9615 29.9906 27.9615 30.2838 27.9615H30.6132C34.193 27.9615 37.0949 25.0344 37.0949 21.4236C37.0949 17.8129 34.193 14.8857 30.6132 14.8857H25.7501C25.0786 14.8857 24.7429 14.8857 24.4864 15.0176C24.2608 15.1335 24.0774 15.3185 23.9625 15.546C23.8318 15.8047 23.8318 16.1434 23.8318 16.8207V22.255Z" stroke="#A8A8A8" stroke-width="0.6"/>
</g>
<path d="M28.634 29.5135L29.5734 28.371C29.6252 28.308 29.7072 28.2777 29.788 28.289C31.3393 28.5049 32.6124 28.0992 33.4146 27.7151C33.6382 27.608 33.8743 27.8518 33.7093 28.0369C32.9163 28.9267 31.3419 30.1379 28.7774 29.8754C28.6008 29.8573 28.5213 29.6506 28.634 29.5135Z" fill="#B7C4C4"/>
</g>
</g>
<defs>
<filter id="filter0_f_3275_58241" x="9.80258" y="13.7457" width="28.432" height="15.3558" filterUnits="userSpaceOnUse" color-interpolation-filters="sRGB">
<feFlood flood-opacity="0" result="BackgroundImageFix"/>
<feBlend mode="normal" in="SourceGraphic" in2="BackgroundImageFix" result="shape"/>
<feGaussianBlur stdDeviation="0.42" result="effect1_foregroundBlur_3275_58241"/>
</filter>
<clipPath id="clip0_3275_58241">
<rect width="42" height="44.4" fill="white"/>
</clipPath>
<clipPath id="clip1_3275_58241">
<rect width="44.4" height="44.4" fill="white" transform="translate(0 1.19995)"/>
</clipPath>
</defs>
</svg>
