<svg width="51" height="29" viewBox="0 0 51 29" fill="none" xmlns="http://www.w3.org/2000/svg">
<path d="M0.5 25.1365V11.0857C0.5 9.93749 0.5 9.36341 0.721526 8.92487L5.16667 1.97217C5.66379 1.97217 7.02905 10.1388 7.26297 10.1955C7.47035 10.2457 7.66861 10.3285 7.85046 10.4409C8.05557 10.5677 8.23133 10.745 8.58285 11.0996L23.4588 19.4722L22.3491 11.0857C22.3491 9.93749 21.6674 10.9663 21.8889 10.5277L26.9444 2.36106L39 2.74995L39.0572 10.2955C44.3241 9.81555 49.5 9.79962 49.5 13.8333C49.5 19.6666 44.8333 25.7591 41.7222 27.2972C39.4582 28.4166 37.1516 28.4166 34.6261 28.4166H34.623H34.0646C33.5675 28.4166 33.3189 28.4166 33.085 28.36C32.8776 28.3097 32.6794 28.2269 32.4975 28.1145C32.2924 27.9877 32.1166 27.8104 31.7651 27.4559L27.612 23.464L27.2231 23.0902C25.8645 24.4586 22.1419 28.1292 21.2393 28.1932C20.8046 28.4166 20.2354 28.4166 19.0971 28.4166H3.75196C2.61367 28.4166 2.04452 28.4166 1.60975 28.1932C1.22732 27.9966 0.916387 27.683 0.721526 27.2972C0.5 26.8587 0.5 26.2846 0.5 25.1365Z" fill="#AFB6B4"/>
<path d="M8.41797 23.7502C7.27968 23.7502 6.71054 23.7502 6.27577 23.5267C5.89333 23.3302 5.5824 23.0165 5.38754 22.6308C5.16602 22.1923 5.16602 21.6182 5.16602 20.47V4.86365C5.16602 3.71549 5.16602 3.14141 5.38754 2.70287C5.5824 2.31712 5.89333 2.00349 6.27577 1.80694C6.71054 1.5835 7.27968 1.5835 8.41797 1.5835H13.2827C13.7798 1.5835 14.0284 1.5835 14.2623 1.64014C14.4697 1.69036 14.668 1.77319 14.8498 1.8856C15.0549 2.01238 15.2307 2.18966 15.5822 2.54423L27.0151 14.0763V4.86365C27.0151 3.71549 27.0151 3.14141 27.2366 2.70287C27.4315 2.31712 27.7424 2.00349 28.1249 1.80694C28.5596 1.5835 29.1288 1.5835 30.2671 1.5835H38.5113C44.5798 1.5835 49.4993 6.54567 49.4993 12.6668C49.4993 18.788 44.5798 23.7502 38.5113 23.7502H37.9528C37.4557 23.7502 37.2072 23.7502 36.9732 23.6935C36.7659 23.6433 36.5676 23.5605 36.3858 23.4481C36.1806 23.3213 36.0049 23.144 35.6534 22.7894L27.0151 14.0763V20.47C27.0151 21.6182 27.0151 22.1923 26.7936 22.6308C26.5987 23.0165 26.2878 23.3302 25.9054 23.5267C25.4706 23.7502 24.9014 23.7502 23.7631 23.7502H8.41797Z" fill="white"/>
<path d="M27.0151 14.0763L15.5822 2.54423C15.2307 2.18966 15.0549 2.01238 14.8498 1.8856C14.668 1.77319 14.4697 1.69036 14.2623 1.64014C14.0284 1.5835 13.7798 1.5835 13.2827 1.5835H8.41797C7.27968 1.5835 6.71054 1.5835 6.27577 1.80694C5.89333 2.00349 5.5824 2.31712 5.38754 2.70287C5.16602 3.14141 5.16602 3.71549 5.16602 4.86365V20.47C5.16602 21.6182 5.16602 22.1923 5.38754 22.6308C5.5824 23.0165 5.89333 23.3302 6.27577 23.5267C6.71054 23.7502 7.27968 23.7502 8.41797 23.7502H23.7631C24.9014 23.7502 25.4706 23.7502 25.9054 23.5267C26.2878 23.3302 26.5987 23.0165 26.7936 22.6308C27.0151 22.1923 27.0151 21.6182 27.0151 20.47V14.0763ZM27.0151 14.0763L35.6534 22.7894C36.0049 23.144 36.1806 23.3213 36.3858 23.4481C36.5676 23.5605 36.7659 23.6433 36.9732 23.6935C37.2072 23.7502 37.4557 23.7502 37.9528 23.7502H38.5113C44.5798 23.7502 49.4993 18.788 49.4993 12.6668C49.4993 6.54567 44.5798 1.5835 38.5113 1.5835H30.2671C29.1288 1.5835 28.5596 1.5835 28.1249 1.80694C27.7424 2.00349 27.4315 2.31712 27.2366 2.70287C27.0151 3.14141 27.0151 3.71549 27.0151 4.86365V14.0763Z" stroke="#AFB6B4" stroke-width="1.5"/>
</svg>
