<svg width="43" height="43" viewBox="0 0 43 43" fill="none" xmlns="http://www.w3.org/2000/svg">
<path d="M22 16.618V42.4" stroke="#E8EEEE" stroke-width="0.736842" stroke-linecap="round" stroke-dasharray="1.47 1.47"/>
<path d="M22 21.7622V1.14886" stroke="#E8EEEE" stroke-width="0.658856" stroke-linecap="round" stroke-dasharray="1.32 1.32"/>
<path d="M42.2871 21.0498L0.975637 21.0498" stroke="#E8EEEE" stroke-width="0.736842" stroke-linecap="round" stroke-dasharray="1.47 1.47"/>
<path d="M39.3145 0.400024L39.3145 41.6995" stroke="#E8EEEE" stroke-width="0.736842" stroke-linecap="round"/>
<path d="M5.41992 0.400024L5.41992 41.6995" stroke="#E8EEEE" stroke-width="0.736842" stroke-linecap="round"/>
<path d="M42.6309 4.09632L0.63086 4.09631" stroke="#E8EEEE" stroke-width="0.736842" stroke-linecap="round"/>
<path d="M42.6309 37.991L0.63086 37.991" stroke="#E8EEEE" stroke-width="0.736842" stroke-linecap="round"/>
<path d="M35.209 21.6153L35.209 14.8976" stroke="#D4DCDC" stroke-width="1.04498" stroke-linecap="round"/>
<path d="M12.9578 14.7725C12.9572 14.6286 13.0411 14.4977 13.1722 14.4382L22.5244 10.1884C22.6206 10.1447 22.731 10.1447 22.8272 10.1884L32.1804 14.4386C32.311 14.4979 32.3948 14.6281 32.3948 14.7715L32.3948 26.6649C32.3948 26.8083 32.311 26.9384 32.1804 26.9978L25.7776 29.9073C23.8111 30.8009 21.5502 30.78 19.6006 29.8503L13.2123 26.804C13.0855 26.7436 13.0045 26.6158 13.004 26.4754L12.9578 14.7725Z" fill="#F4F6F6" stroke="#505967" stroke-width="0.731484" stroke-linecap="round" stroke-linejoin="round"/>
<path d="M31.8359 14.5341L23.1566 18.8725C23.0579 18.9218 22.9421 18.924 22.8416 18.8783L13.2815 14.5341" stroke="#505967" stroke-width="0.731484" stroke-linecap="round" stroke-linejoin="round"/>
<path d="M8.2621 13.0047L21.733 9.4153C21.9966 9.33714 22.2862 9.29651 22.5796 9.29651C22.873 9.29651 23.1625 9.33714 23.4261 9.4153L36.8983 13.0047C37.536 13.1941 37.9377 13.5794 37.9377 14.0013V15.3692C37.9377 15.7903 37.536 16.1764 36.8983 16.3657L23.4286 20.3706C23.165 20.4488 22.8754 20.4894 22.582 20.4894C22.2886 20.4894 21.9991 20.4488 21.7355 20.3706L8.2621 16.3657C7.95234 16.2754 7.69066 16.134 7.50688 15.9578C7.32311 15.7816 7.22462 15.5777 7.22266 15.3692V14.0013C7.22266 13.5794 7.62443 13.1941 8.2621 13.0047Z" fill="white" stroke="#616161" stroke-width="0.696651" stroke-linecap="round" stroke-linejoin="round"/>
<path d="M8.5957 14.3336L22.9028 18.4389L36.4271 14.616M22.9028 19.3704V18.4417V19.3704Z" fill="white"/>
<path d="M8.5957 14.3336L22.9028 18.4389L36.4271 14.616M22.9028 19.3704V18.4417" stroke="#D4DCDC" stroke-width="0.696651" stroke-linecap="round" stroke-linejoin="round"/>
</svg>
