<svg width="42" height="43" viewBox="0 0 42 43" fill="none" xmlns="http://www.w3.org/2000/svg">
<g clip-path="url(#clip0_3275_58246)">
<path d="M21.1172 1.0885L21.1172 40.3344" stroke="#E8EEEE" stroke-width="0.7" stroke-linecap="round" stroke-dasharray="1.4 1.4"/>
<path d="M40.7402 20.7117L1.49433 20.7117" stroke="#E8EEEE" stroke-width="0.7" stroke-linecap="round" stroke-dasharray="1.4 1.4"/>
<path d="M37.5645 1.0885L37.5645 40.3344" stroke="#E8EEEE" stroke-width="0.7" stroke-linecap="round"/>
<path d="M5.36524 1.0885L5.36523 40.3344" stroke="#E8EEEE" stroke-width="0.7" stroke-linecap="round"/>
<path d="M41.0664 4.60022L1.1664 4.60022" stroke="#E8EEEE" stroke-width="0.7" stroke-linecap="round"/>
<path d="M41.0664 36.8001L1.1664 36.8" stroke="#E8EEEE" stroke-width="0.7" stroke-linecap="round"/>
<path d="M13.623 12.8866H29.5149" stroke="#616161" stroke-width="0.626228" stroke-dasharray="3.13 3.13"/>
<path d="M29.8287 12.8866C29.8287 12.7137 29.6886 12.5735 29.5156 12.5735C29.3427 12.5735 29.2025 12.7137 29.2025 12.8866L29.8287 12.8866ZM29.2025 14.2109C29.2025 14.3838 29.3427 14.524 29.5156 14.524C29.6886 14.524 29.8287 14.3838 29.8287 14.2109L29.2025 14.2109ZM29.8287 16.8596C29.8287 16.6866 29.6886 16.5465 29.5156 16.5465C29.3427 16.5465 29.2025 16.6866 29.2025 16.8596L29.8287 16.8596ZM29.2025 19.5082C29.2025 19.6811 29.3427 19.8213 29.5156 19.8213C29.6886 19.8213 29.8287 19.6811 29.8287 19.5082L29.2025 19.5082ZM29.8287 22.1569C29.8287 21.9839 29.6886 21.8438 29.5156 21.8438C29.3427 21.8438 29.2025 21.9839 29.2025 22.1569L29.8287 22.1569ZM29.2025 24.8055C29.2025 24.9784 29.3427 25.1186 29.5156 25.1186C29.6886 25.1186 29.8287 24.9784 29.8287 24.8055L29.2025 24.8055ZM29.8287 27.4542C29.8287 27.2812 29.6886 27.1411 29.5156 27.1411C29.3427 27.1411 29.2025 27.2812 29.2025 27.4542L29.8287 27.4542ZM29.2025 12.8866L29.2025 14.2109L29.8287 14.2109L29.8287 12.8866L29.2025 12.8866ZM29.2025 16.8596L29.2025 19.5082L29.8287 19.5082L29.8287 16.8596L29.2025 16.8596ZM29.2025 22.1569L29.2025 24.8055L29.8287 24.8055L29.8287 22.1569L29.2025 22.1569ZM29.2025 27.4542L29.2025 28.7785L29.8287 28.7785L29.8287 27.4542L29.2025 27.4542Z" fill="#616161"/>
<path d="M27.2461 31.0488L11.3542 31.0488" stroke="#616161" stroke-width="0.626228" stroke-dasharray="3.13 3.13"/>
<path d="M11.0404 31.0488C11.0404 31.2218 11.1806 31.3619 11.3535 31.3619C11.5264 31.3619 11.6666 31.2218 11.6666 31.0488L11.0404 31.0488ZM11.6666 29.7245C11.6666 29.5516 11.5264 29.4114 11.3535 29.4114C11.1806 29.4114 11.0404 29.5516 11.0404 29.7245L11.6666 29.7245ZM11.0404 27.0759C11.0404 27.2488 11.1806 27.389 11.3535 27.389C11.5264 27.389 11.6666 27.2488 11.6666 27.0759L11.0404 27.0759ZM11.6666 24.4272C11.6666 24.2543 11.5264 24.1141 11.3535 24.1141C11.1806 24.1141 11.0404 24.2543 11.0404 24.4272L11.6666 24.4272ZM11.0404 21.7786C11.0404 21.9515 11.1806 22.0917 11.3535 22.0917C11.5264 22.0917 11.6666 21.9515 11.6666 21.7786L11.0404 21.7786ZM11.6666 19.1299C11.6666 18.957 11.5264 18.8168 11.3535 18.8168C11.1806 18.8168 11.0404 18.957 11.0404 19.1299L11.6666 19.1299ZM11.0404 16.4813C11.0404 16.6542 11.1806 16.7944 11.3535 16.7944C11.5264 16.7944 11.6666 16.6542 11.6666 16.4813L11.0404 16.4813ZM11.6666 31.0488L11.6666 29.7245L11.0404 29.7245L11.0404 31.0488L11.6666 31.0488ZM11.6666 27.0759L11.6666 24.4272L11.0404 24.4272L11.0404 27.0759L11.6666 27.0759ZM11.6666 21.7786L11.6666 19.1299L11.0404 19.1299L11.0404 21.7786L11.6666 21.7786ZM11.6666 16.4813L11.6666 15.1569L11.0404 15.1569L11.0404 16.4813L11.6666 16.4813Z" fill="#616161"/>
<path d="M20.7417 21.7936C20.7411 21.6558 20.8214 21.5305 20.9468 21.4735L29.2766 17.6873C29.3686 17.6455 29.4742 17.6455 29.5662 17.6873L37.8969 21.4739C38.0218 21.5307 38.102 21.6553 38.102 21.7926L38.102 32.3884C38.102 32.5256 38.0218 32.6502 37.8969 32.707L29.5698 36.492C29.4757 36.5348 29.3676 36.5338 29.2743 36.4893L20.9821 32.534C20.8608 32.4761 20.7834 32.3539 20.7828 32.2195L20.7417 21.7936Z" fill="#F4F6F6" stroke="#505967" stroke-width="0.7" stroke-linecap="round" stroke-linejoin="round"/>
<path d="M37.3125 21.5656L29.5704 25.4366C29.4759 25.4838 29.3652 25.4859 29.269 25.4422L20.7404 21.5656" stroke="#505967" stroke-width="0.7" stroke-linecap="round" stroke-linejoin="round"/>
<path d="M29.5312 25.5128L29.5313 36.5609" stroke="#505967" stroke-width="0.7" stroke-linecap="round" stroke-linejoin="round"/>
<g filter="url(#filter0_f_3275_58246)">
<path d="M6.1686 4.59929C6.16805 4.46154 6.24836 4.33628 6.37376 4.27928L12.2661 1.60094C12.3581 1.55911 12.4638 1.55911 12.5558 1.60094L18.449 4.27969C18.574 4.33648 18.6542 4.46106 18.6542 4.59831L18.6542 12.0924C18.6542 12.2297 18.574 12.3542 18.449 12.411L12.5593 15.0882C12.4653 15.1309 12.3571 15.1299 12.2638 15.0854L6.39702 12.287C6.2757 12.2291 6.19824 12.1069 6.19771 11.9725L6.1686 4.59929Z" fill="#959EF9"/>
</g>
</g>
<defs>
<filter id="filter0_f_3275_58246" x="4.46527" y="-0.133123" width="15.8917" height="16.9553" filterUnits="userSpaceOnUse" color-interpolation-filters="sRGB">
<feFlood flood-opacity="0" result="BackgroundImageFix"/>
<feBlend mode="normal" in="SourceGraphic" in2="BackgroundImageFix" result="shape"/>
<feGaussianBlur stdDeviation="0.851351" result="effect1_foregroundBlur_3275_58246"/>
</filter>
<clipPath id="clip0_3275_58246">
<rect width="42" height="42" fill="white" transform="translate(0 0.400024)"/>
</clipPath>
</defs>
</svg>
