<svg width="37" height="37" viewBox="0 0 37 37" fill="none" xmlns="http://www.w3.org/2000/svg">
<g clip-path="url(#clip0_2978_128748)">
<path d="M19.1025 0.606415L19.1025 35.1802" stroke="#E8EEEE" stroke-width="0.616667" stroke-linecap="round" stroke-dasharray="1.23 1.23"/>
<path d="M36.3896 17.8936L1.81587 17.8936" stroke="#E8EEEE" stroke-width="0.616667" stroke-linecap="round" stroke-dasharray="1.23 1.23"/>
<path d="M33.0938 0.606415L33.0938 35.1802" stroke="#E8EEEE" stroke-width="0.616667" stroke-linecap="round"/>
<path d="M4.72754 0.606415L4.72754 35.1802" stroke="#E8EEEE" stroke-width="0.616667" stroke-linecap="round"/>
<path d="M36.6777 3.69999L1.52773 3.69999" stroke="#E8EEEE" stroke-width="0.616667" stroke-linecap="round"/>
<path d="M36.6777 32.0667L1.52773 32.0666" stroke="#E8EEEE" stroke-width="0.616667" stroke-linecap="round"/>
<path d="M12 11H26" stroke="#616161" stroke-width="0.551677" stroke-dasharray="2.76 2.76"/>
<path d="M26.2758 11C26.2758 10.8477 26.1523 10.7242 26 10.7242C25.8477 10.7242 25.7242 10.8477 25.7242 11L26.2758 11ZM25.7242 12.1667C25.7242 12.319 25.8477 12.4425 26 12.4425C26.1523 12.4425 26.2758 12.319 26.2758 12.1667L25.7242 12.1667ZM26.2758 14.5C26.2758 14.3477 26.1523 14.2242 26 14.2242C25.8477 14.2242 25.7242 14.3477 25.7242 14.5L26.2758 14.5ZM25.7242 16.8333C25.7242 16.9857 25.8477 17.1092 26 17.1092C26.1523 17.1092 26.2758 16.9857 26.2758 16.8333L25.7242 16.8333ZM26.2758 19.1667C26.2758 19.0143 26.1523 18.8908 26 18.8908C25.8477 18.8908 25.7242 19.0143 25.7242 19.1667L26.2758 19.1667ZM25.7242 21.5C25.7242 21.6523 25.8477 21.7758 26 21.7758C26.1523 21.7758 26.2758 21.6523 26.2758 21.5L25.7242 21.5ZM26.2758 23.8333C26.2758 23.681 26.1523 23.5575 26 23.5575C25.8477 23.5575 25.7242 23.681 25.7242 23.8333L26.2758 23.8333ZM25.7242 11L25.7242 12.1667L26.2758 12.1667L26.2758 11L25.7242 11ZM25.7242 14.5L25.7242 16.8333L26.2758 16.8333L26.2758 14.5L25.7242 14.5ZM25.7242 19.1667L25.7242 21.5L26.2758 21.5L26.2758 19.1667L25.7242 19.1667ZM25.7242 23.8333L25.7242 25L26.2758 25L26.2758 23.8333L25.7242 23.8333Z" fill="#616161"/>
<path d="M24 27L10 27" stroke="#616161" stroke-width="0.551677" stroke-dasharray="2.76 2.76"/>
<path d="M9.72416 27C9.72416 27.1523 9.84766 27.2758 10 27.2758C10.1523 27.2758 10.2758 27.1523 10.2758 27L9.72416 27ZM10.2758 25.8333C10.2758 25.681 10.1523 25.5575 10 25.5575C9.84766 25.5575 9.72416 25.681 9.72416 25.8333L10.2758 25.8333ZM9.72416 23.5C9.72416 23.6523 9.84766 23.7758 10 23.7758C10.1523 23.7758 10.2758 23.6523 10.2758 23.5L9.72416 23.5ZM10.2758 21.1667C10.2758 21.0143 10.1523 20.8908 10 20.8908C9.84766 20.8908 9.72416 21.0143 9.72416 21.1667L10.2758 21.1667ZM9.72416 18.8333C9.72416 18.9857 9.84766 19.1092 10 19.1092C10.1523 19.1092 10.2758 18.9857 10.2758 18.8333L9.72416 18.8333ZM10.2758 16.5C10.2758 16.3477 10.1523 16.2242 10 16.2242C9.84766 16.2242 9.72416 16.3477 9.72416 16.5L10.2758 16.5ZM9.72416 14.1667C9.72416 14.319 9.84766 14.4425 10 14.4425C10.1523 14.4425 10.2758 14.319 10.2758 14.1667L9.72416 14.1667ZM10.2758 27L10.2758 25.8333L9.72416 25.8333L9.72416 27L10.2758 27ZM10.2758 23.5L10.2758 21.1667L9.72416 21.1667L9.72416 23.5L10.2758 23.5ZM10.2758 18.8333L10.2758 16.5L9.72416 16.5L9.72416 18.8333L10.2758 18.8333ZM10.2758 14.1667L10.2758 13L9.72416 13L9.72416 14.1667L10.2758 14.1667Z" fill="#616161"/>
<path d="M18.2708 18.8466C18.2703 18.7253 18.3411 18.6149 18.4515 18.5647L25.7896 15.2292C25.8707 15.1924 25.9637 15.1924 26.0448 15.2292L33.3837 18.5651C33.4938 18.6151 33.5644 18.7248 33.5644 18.8458L33.5644 28.1801C33.5644 28.3011 33.4938 28.4108 33.3837 28.4608L26.048 31.7953C25.9651 31.8329 25.8698 31.8321 25.7876 31.7929L18.4826 28.3084C18.3758 28.2575 18.3075 28.1498 18.3071 28.0314L18.2708 18.8466Z" fill="#F4F6F6" stroke="#505967" stroke-width="0.616667" stroke-linecap="round" stroke-linejoin="round"/>
<path d="M32.8682 18.6459L26.0477 22.0561C25.9645 22.0977 25.8669 22.0995 25.7822 22.061L18.2689 18.6459" stroke="#505967" stroke-width="0.616667" stroke-linecap="round" stroke-linejoin="round"/>
<path d="M26.0137 22.1232L26.0137 31.8561" stroke="#505967" stroke-width="0.616667" stroke-linecap="round" stroke-linejoin="round"/>
<path d="M5.43145 6.6994C5.43097 6.57805 5.50172 6.4677 5.61219 6.41749L10.8031 4.058C10.8841 4.02115 10.9772 4.02115 11.0583 4.05799L16.2499 6.41784C16.36 6.46788 16.4307 6.57763 16.4307 6.69854L16.4307 13.3005C16.4307 13.4214 16.36 13.5311 16.2499 13.5812L11.0614 15.9396C10.9785 15.9773 10.8832 15.9764 10.8011 15.9372L5.63268 13.4719C5.5258 13.4209 5.45756 13.3132 5.4571 13.1948L5.43145 6.6994Z" fill="#F4F6F6" stroke="#B7C4C4" stroke-width="0.616667" stroke-linecap="round" stroke-linejoin="round"/>
<path d="M15.9297 6.49902L11.0613 8.93324C10.978 8.97485 10.8805 8.97666 10.7958 8.93815L5.42969 6.49902" stroke="#B7C4C4" stroke-width="0.616667" stroke-linecap="round" stroke-linejoin="round"/>
<path d="M11.0312 9L11.0313 16" stroke="#B7C4C4" stroke-width="0.616667" stroke-linecap="round" stroke-linejoin="round"/>
</g>
<defs>
<clipPath id="clip0_2978_128748">
<rect width="37" height="37" fill="white"/>
</clipPath>
</defs>
</svg>
