<svg width="64" height="63" viewBox="0 0 64 63" fill="none" xmlns="http://www.w3.org/2000/svg">
<path d="M32.667 0.983398L32.667 57.049" stroke="#E8EEEE" stroke-linecap="round" stroke-dasharray="2 2"/>
<path d="M60.7002 29.0161L4.63462 29.0161" stroke="#E8EEEE" stroke-linecap="round" stroke-dasharray="2 2"/>
<path d="M56.166 0.983398L56.166 57.049" stroke="#E8EEEE" stroke-linecap="round"/>
<path d="M10.166 0.983398L10.166 57.049" stroke="#E8EEEE" stroke-linecap="round"/>
<path d="M61.166 6L4.16602 6" stroke="#E8EEEE" stroke-linecap="round"/>
<path d="M61.166 52L4.16602 52" stroke="#E8EEEE" stroke-linecap="round"/>
<path d="M15.7517 17.9077L31.9805 9.08038C32.6214 8.73102 33.3784 8.73102 34.0193 9.08038L50.2481 17.9077C51.0159 18.3269 51.4998 19.1771 51.4998 20.1064V37.8914C51.4998 38.8231 51.0159 39.6732 50.2481 40.0901L34.0193 48.9197C33.3784 49.2691 32.6214 49.2691 31.9805 48.9197L15.7517 40.0901C15.3753 39.8854 15.0589 39.5713 14.8379 39.183C14.6168 38.7947 14.4999 38.3476 14.5 37.8914V20.1064C14.5 19.1747 14.9839 18.3269 15.7517 17.9077Z" fill="white"/>
<path d="M16.7422 17.2274L31.389 9.08766C32.0493 8.72859 32.8293 8.72859 33.4896 9.08766L50.2102 18.1602C51.0012 18.5911 51.4998 19.4648 51.4998 20.4199V38.699C51.4998 39.6565 51.0012 40.5303 50.2102 40.9588L35.2421 49.1818" stroke="#505967" stroke-linecap="round" stroke-linejoin="round"/>
<path d="M32.4395 29.0004L49.2575 20.0308" stroke="#505967" stroke-linecap="round" stroke-linejoin="round"/>
<path d="M32.435 28.8415L15.9847 19.7314C15.3181 19.3622 14.5001 19.8444 14.5002 20.6063L14.5022 38.0733C14.5023 38.8007 14.8973 39.4706 15.5336 39.8229L30.955 48.36C31.6215 48.729 32.4393 48.247 32.4393 47.4851V28.8368" stroke="#B6C4C4" stroke-linecap="round" stroke-linejoin="round"/>
<path d="M32.499 35C36.9173 35 40.499 31.419 40.499 27C40.499 22.5825 36.9173 19 32.499 19C28.0807 19 24.499 22.5832 24.499 27C24.499 31.419 28.0807 35 32.499 35Z" fill="white" stroke="#74777C" stroke-linecap="round" stroke-linejoin="round"/>
</svg>
