<svg width="272" height="166" viewBox="0 0 272 166" fill="none" xmlns="http://www.w3.org/2000/svg">
<path d="M113.791 73.0889V107.624L53.0625 139.636V105.944C53.0625 94.1534 54.8952 65.8054 82.3862 55.4074C109.877 45.0095 113.791 73.0889 113.791 73.0889Z" fill="white" stroke="#505967"/>
<path d="M135.047 76.1279V112.311L72.7998 144.323L72.7998 108.983C72.0407 94.0922 74.6783 68.8444 102.857 58.4465C131.035 48.0486 135.047 76.1279 135.047 76.1279Z" fill="white" stroke="#505967" stroke-linejoin="round"/>
<path d="M78.1138 57.0892C95.5733 48.6326 119.106 56.1354 119.106 56.1354C84.9457 57.0892 73.5591 82.459 72.8 98.5263L72.0409 144.192L52.304 139.964C52.304 134.89 51.5449 113.584 51.5449 100.899C51.5449 74.848 67.2171 62.3671 78.1138 57.0892Z" fill="white" stroke="#505967" stroke-linejoin="round"/>
<path d="M68.6302 13.4515L90.4247 1.35895C91.2854 0.880351 92.302 0.880351 93.1627 1.35895L114.957 13.4515C115.988 14.0258 116.638 15.1904 116.638 16.4635V40.8272C116.638 42.1035 115.988 43.268 114.957 43.8392L93.1627 55.9349C92.302 56.4135 91.2854 56.4135 90.4247 55.9349L68.6302 43.8392C68.1247 43.5587 67.6998 43.1285 67.403 42.5966C67.1061 42.0647 66.949 41.4521 66.9492 40.8272V16.4635C66.9492 15.1872 67.5991 14.0258 68.6302 13.4515Z" fill="#FCEC3B" stroke="white" stroke-linecap="round" stroke-linejoin="round"/>
<path d="M92.1309 28.7423L113.201 17.9961" stroke="white" stroke-linecap="round" stroke-linejoin="round"/>
<path d="M92.7155 53.8166L92.0592 28.7641L92.7155 53.8166Z" fill="#FCEC3B"/>
<path d="M71.0605 16.9102L92.0542 28.7696M92.7155 53.8166L92.0592 28.7641" stroke="white" stroke-linecap="round" stroke-linejoin="round"/>
<path d="M181.254 95.8386V123.874L230.555 149.863V122.511C230.555 112.939 229.067 89.9257 206.749 81.4845C184.432 73.0433 181.254 95.8386 181.254 95.8386Z" fill="white" stroke="#505967"/>
<path d="M164 98.3034V127.677L214.533 153.665L214.533 124.975C215.149 112.887 213.008 92.3905 190.132 83.9493C167.257 75.5081 164 98.3034 164 98.3034Z" fill="#9BDCE1" stroke="white" stroke-linejoin="round"/>
<path d="M210.218 82.8478C196.044 75.9826 176.94 82.0735 176.94 82.0735C204.672 82.8478 213.916 103.443 214.532 116.487L215.148 153.559L231.171 150.126C231.171 146.007 231.787 128.711 231.787 118.414C231.787 97.2647 219.064 87.1324 210.218 82.8478Z" fill="#9BDCE1" stroke="white" stroke-linejoin="round"/>
<path d="M211.147 47.8035L193.988 38.2826C193.31 37.9058 192.51 37.9058 191.832 38.2826L174.672 47.8035C173.861 48.2557 173.349 49.1726 173.349 50.1749V69.3573C173.349 70.3622 173.861 71.2791 174.672 71.7287L191.832 81.2521C192.51 81.6289 193.31 81.6289 193.988 81.2521L211.147 71.7287C211.545 71.5079 211.88 71.1692 212.113 70.7504C212.347 70.3316 212.471 69.8493 212.471 69.3573V50.1749C212.471 49.1701 211.959 48.2557 211.147 47.8035Z" fill="white"/>
<path d="M211.941 48.7857L194.612 38.2905C193.914 37.9032 193.089 37.9032 192.391 38.2905L174.711 48.0758C173.875 48.5405 173.348 49.4829 173.348 50.5131V68.7392C173.348 69.772 173.875 70.7144 174.711 71.1765L192.909 81.6821" stroke="#505967" stroke-linecap="round" stroke-linejoin="round"/>
<path d="M193.438 59.5704L174.405 49.8633" stroke="#505967" stroke-linecap="round" stroke-linejoin="round"/>
<path d="M193.507 59.5955L211.052 49.684C211.686 49.326 212.471 49.7839 212.471 50.5117L212.468 69.7316C212.468 70.408 212.109 71.0334 211.524 71.3739L194.383 81.362C193.74 81.7368 192.935 81.2601 192.954 80.5158L193.503 59.5905" stroke="#505967" stroke-linecap="round" stroke-linejoin="round"/>
<path d="M60.6578 40.5533C32.7677 47.0877 14.3692 58.9134 13.1475 73.7411C10.9711 100.156 64.1304 126.095 131.882 131.677C199.634 137.259 256.322 120.371 258.498 93.9564C259.844 77.6255 246.292 63.9677 217.375 54.8958M122.811 36.0886C131.23 36.0759 139.937 36.4214 148.835 37.1546C161.221 38.1751 167.356 39.2304 178.517 41.49" stroke="#8E9292" stroke-linecap="round" stroke-linejoin="round"/>
<path d="M259.198 105.447C263.442 105.021 266.545 101.167 266.127 96.8362C265.71 92.5072 261.93 89.3418 257.685 89.7678C253.441 90.1938 250.339 94.0505 250.756 98.3788C251.174 102.709 254.953 105.873 259.198 105.447Z" fill="white" stroke="#74777C" stroke-linecap="round" stroke-linejoin="round"/>
<path d="M14.4353 78.1815C17.9559 77.8282 20.5291 74.6312 20.1827 71.0394C19.8364 67.4488 16.7017 64.8234 13.1811 65.1767C9.66058 65.53 7.08753 68.7289 7.43375 72.3188C7.78016 75.9106 10.9148 78.5348 14.4353 78.1815Z" fill="#FF80CC"/>
<path d="M246.408 117.358C248.692 117.129 250.361 115.055 250.137 112.724C249.912 110.395 247.878 108.692 245.594 108.921C243.31 109.15 241.641 111.225 241.866 113.554C242.091 115.885 244.124 117.587 246.408 117.358Z" fill="#2B5C4F"/>
<path d="M31.6087 54.1078C33.3066 53.9374 34.5476 52.3956 34.3805 50.6634C34.2135 48.9318 32.7017 47.6656 31.0039 47.836C29.306 48.0064 28.0651 49.5491 28.2321 51.2804C28.3992 53.0126 29.9109 54.2782 31.6087 54.1078Z" fill="white" stroke="#74777C" stroke-linecap="round" stroke-linejoin="round"/>
</svg>
