<svg width="68" height="69" viewBox="0 0 68 69" fill="none" xmlns="http://www.w3.org/2000/svg">
<path d="M34.2324 25.3877V62.9086" stroke="#E8EEEE" stroke-width="1.07203" stroke-linecap="round" stroke-dasharray="2.14 2.14"/>
<path d="M64.4629 31.8369L4.35907 31.8369" stroke="#E8EEEE" stroke-width="1.07203" stroke-linecap="round" stroke-dasharray="2.14 2.14"/>
<path d="M60.3701 1.78516L60.3701 61.889" stroke="#E8EEEE" stroke-width="1.07203" stroke-linecap="round"/>
<path d="M10.5938 1.78516L10.5938 61.889" stroke="#E8EEEE" stroke-width="1.07203" stroke-linecap="round"/>
<path d="M64.9629 7.16309L3.85734 7.16308" stroke="#E8EEEE" stroke-width="1.07203" stroke-linecap="round"/>
<path d="M64.9629 56.9385L3.85734 56.9385" stroke="#E8EEEE" stroke-width="1.07203" stroke-linecap="round"/>
<rect width="21.7147" height="21.7147" rx="2.14405" transform="matrix(0.922464 0.386084 -0.904165 0.427183 33.8018 38.2876)" fill="#D4DCDC"/>
<path d="M14.5472 39.3627L33.3588 32.2936C33.727 32.1557 34.1313 32.084 34.541 32.084C34.9507 32.084 35.3551 32.1557 35.7232 32.2936L54.5365 39.3627C55.427 39.6968 55.988 40.3769 55.988 41.1215V46.7515C55.988 47.4947 55.427 48.1761 54.5365 48.5102L35.7266 55.578C35.3585 55.7159 34.9542 55.7876 34.5444 55.7876C34.1347 55.7876 33.7304 55.7159 33.3623 55.578L14.5472 48.5102C14.1147 48.3507 13.7493 48.1013 13.4926 47.7904C13.236 47.4794 13.0984 47.1194 13.0957 46.7515V41.1215C13.0957 40.3769 13.6568 39.6968 14.5472 39.3627Z" fill="white" stroke="#616161" stroke-width="1.07203" stroke-linecap="round" stroke-linejoin="round"/>
<path d="M15.3965 41.2656L34.8162 47.9676L53.5121 41.2656M34.8162 53.3021V47.9715Z" fill="white"/>
<path d="M15.3965 41.2656L34.8162 47.9676L53.5121 41.2656M34.8162 53.3021V47.9715" stroke="#D4DCDC" stroke-width="1.07203" stroke-linecap="round" stroke-linejoin="round"/>
<path d="M14.5472 24.6513L33.3588 17.5822C33.727 17.4443 34.1313 17.3726 34.541 17.3726C34.9507 17.3726 35.3551 17.4443 35.7232 17.5822L54.5365 24.6513C55.427 24.9854 55.988 25.6655 55.988 26.41V32.0401C55.988 32.7833 55.427 33.4647 54.5365 33.7988L35.7266 40.8666C35.3585 41.0045 34.9542 41.0762 34.5444 41.0762C34.1347 41.0762 33.7304 41.0045 33.3623 40.8666L14.5472 33.7988C14.1147 33.6393 13.7493 33.3899 13.4926 33.0789C13.236 32.768 13.0984 32.408 13.0957 32.0401V26.41C13.0957 25.6655 13.6568 24.9854 14.5472 24.6513Z" fill="white" stroke="#616161" stroke-width="1.07203" stroke-linecap="round" stroke-linejoin="round"/>
<path d="M15.3965 26.5537L34.8162 33.2557L53.5121 26.5537M34.8162 38.5902V33.2596Z" fill="white"/>
<path d="M15.3965 26.5537L34.8162 33.2557L53.5121 26.5537M34.8162 38.5902V33.2596" stroke="#D4DCDC" stroke-width="1.07203" stroke-linecap="round" stroke-linejoin="round"/>
<path d="M34.5361 24.3155L34.5361 9.30713" stroke="#D4DCDC" stroke-width="1.07203" stroke-linecap="round"/>
</svg>
