<svg width="61" height="60" viewBox="0 0 61 60" fill="none" xmlns="http://www.w3.org/2000/svg">
<path d="M30.833 0.983398L30.833 57.049" stroke="#E8EEEE" stroke-linecap="round" stroke-dasharray="2 2"/>
<path d="M58.8662 29.0161L2.80064 29.0161" stroke="#E8EEEE" stroke-linecap="round" stroke-dasharray="2 2"/>
<path d="M54.332 0.983398L54.332 57.049" stroke="#E8EEEE" stroke-linecap="round"/>
<path d="M8.33203 0.983398L8.33203 57.049" stroke="#E8EEEE" stroke-linecap="round"/>
<path d="M59.332 6L2.33203 6" stroke="#E8EEEE" stroke-linecap="round"/>
<path d="M59.332 52L2.33203 52" stroke="#E8EEEE" stroke-linecap="round"/>
<path d="M39.166 20H23.166V32H39.166V20Z" fill="white"/>
<path d="M52.166 8H10.166L23.166 19.5L39.166 20L39.666 24.5L52.666 34.5L52.166 8Z" fill="white"/>
<path d="M10.166 22V8.5L23.166 20V25.5L19.666 28L18.666 30L10.166 22Z" fill="white"/>
<path d="M52.285 34.4836L39.1818 23.8139V39.1073C39.1818 39.2577 39.2495 39.4 39.3661 39.495L51.6536 49.5004C51.9802 49.7664 52.4693 49.5339 52.4693 49.1127V34.8713C52.4693 34.7209 52.4016 34.5785 52.285 34.4836Z" fill="white"/>
<path d="M10.666 8.36133L23.009 19.7009M23.009 19.7009V26.3344M23.009 19.7009H38.6818C38.958 19.7009 39.1818 19.9248 39.1818 20.2009V23.8139M39.1818 23.8139L52.285 34.4836C52.4016 34.5785 52.4693 34.7209 52.4693 34.8713V49.1127C52.4693 49.5339 51.9802 49.7664 51.6536 49.5004L39.3661 39.495C39.2495 39.4 39.1818 39.2577 39.1818 39.1073V23.8139Z" stroke="#B7C4C4" stroke-linecap="round" stroke-linejoin="round"/>
<path d="M33.8717 32.0437H20.782C20.6559 32.0437 20.5345 31.9961 20.4421 31.9104L10.3349 22.5403C10.2328 22.4456 10.1748 22.3128 10.1748 22.1736V8.36914C10.1748 8.093 10.3987 7.86914 10.6748 7.86914H51.9699C52.246 7.86914 52.4699 8.093 52.4699 8.36914V34.4265" stroke="#505967" stroke-linecap="round" stroke-linejoin="round"/>
<path d="M26.665 43C31.6356 43 35.665 38.9714 35.665 34C35.665 29.0303 31.6356 25 26.665 25C21.6945 25 17.665 29.0311 17.665 34C17.665 38.9714 21.6945 43 26.665 43Z" fill="#EEF1F1" stroke="#505967" stroke-linecap="round" stroke-linejoin="round"/>
</svg>
