<svg width="60" height="60" viewBox="0 0 60 60" fill="none" xmlns="http://www.w3.org/2000/svg">
<path d="M30.167 0.983643L30.167 57.0492" stroke="#E8EEEE" stroke-linecap="round" stroke-dasharray="2 2"/>
<path d="M58.1997 29.0165L2.13413 29.0165" stroke="#E8EEEE" stroke-linecap="round" stroke-dasharray="2 2"/>
<path d="M53.666 0.983643L53.666 57.0492" stroke="#E8EEEE" stroke-linecap="round"/>
<path d="M7.66602 0.983643L7.66602 57.0492" stroke="#E8EEEE" stroke-linecap="round"/>
<path d="M58.666 6L1.66602 6" stroke="#E8EEEE" stroke-linecap="round"/>
<path d="M58.666 52L1.66602 52" stroke="#E8EEEE" stroke-linecap="round"/>
<path d="M22.499 32V20H38.499V39L51.499 50V8H9.99902V22L19.499 32H22.499Z" fill="white"/>
<path d="M10 8.36133L22.343 19.7009M22.343 19.7009V31.5M22.343 19.7009H38.0158C38.292 19.7009 38.5158 19.9248 38.5158 20.2009V23.8139M38.5158 23.8139L51.619 34.4836C51.7356 34.5785 51.8033 34.7209 51.8033 34.8713V49.1127C51.8033 49.5339 51.3142 49.7664 50.9876 49.5004L38.7001 39.495C38.5835 39.4 38.5158 39.2577 38.5158 39.1073V23.8139Z" stroke="#B7C4C4" stroke-linecap="round" stroke-linejoin="round"/>
<path d="M22.999 32.0437H20.116C19.9899 32.0437 19.8685 31.9961 19.7761 31.9104L9.66886 22.5403C9.5668 22.4456 9.50879 22.3128 9.50879 22.1736V8.36914C9.50879 8.093 9.73265 7.86914 10.0088 7.86914H51.3039C51.58 7.86914 51.8039 8.093 51.8039 8.36914V34.4265" stroke="#505967" stroke-linecap="round" stroke-linejoin="round"/>
<g filter="url(#filter0_f_3320_86243)">
<path d="M30.999 36C35.9696 36 39.999 31.9714 39.999 27C39.999 22.0303 35.9696 18 30.999 18C26.0285 18 21.999 22.0311 21.999 27C21.999 31.9714 26.0285 36 30.999 36Z" fill="#FF80CC"/>
</g>
<defs>
<filter id="filter0_f_3320_86243" x="16.999" y="13" width="28" height="28" filterUnits="userSpaceOnUse" color-interpolation-filters="sRGB">
<feFlood flood-opacity="0" result="BackgroundImageFix"/>
<feBlend mode="normal" in="SourceGraphic" in2="BackgroundImageFix" result="shape"/>
<feGaussianBlur stdDeviation="2.5" result="effect1_foregroundBlur_3320_86243"/>
</filter>
</defs>
</svg>
