<svg width="15" height="14" viewBox="0 0 15 14" fill="none" xmlns="http://www.w3.org/2000/svg">
<path d="M14.3934 6.0949L14.3884 6.09271L1.04219 0.55709C0.929931 0.510105 0.807779 0.491678 0.686658 0.503458C0.565537 0.515237 0.449225 0.556855 0.348125 0.62459C0.241311 0.69458 0.153573 0.790028 0.0928047 0.902345C0.0320366 1.01466 0.000145342 1.14032 1.70629e-07 1.26803V4.80834C5.95245e-05 4.98292 0.0610185 5.15201 0.17237 5.28646C0.283722 5.42092 0.438491 5.51231 0.61 5.5449L7.88906 6.89084C7.91767 6.89626 7.94348 6.9115 7.96205 6.93392C7.98062 6.95634 7.99078 6.98454 7.99078 7.01365C7.99078 7.04277 7.98062 7.07096 7.96205 7.09339C7.94348 7.11581 7.91767 7.13104 7.88906 7.13647L0.610313 8.4824C0.438851 8.51491 0.284092 8.60618 0.17269 8.74052C0.0612882 8.87485 0.000218757 9.04383 1.70629e-07 9.21834V12.7593C-8.2822e-05 12.8812 0.0301107 13.0013 0.0878713 13.1087C0.145632 13.2161 0.229152 13.3074 0.330938 13.3746C0.453375 13.4559 0.597064 13.4994 0.744063 13.4996C0.846257 13.4995 0.947403 13.479 1.04156 13.4393L14.3875 7.93521L14.3934 7.9324C14.5731 7.8552 14.7262 7.72702 14.8337 7.56373C14.9413 7.40043 14.9986 7.20919 14.9986 7.01365C14.9986 6.81812 14.9413 6.62687 14.8337 6.46358C14.7262 6.30029 14.5731 6.17211 14.3934 6.0949Z" fill="white"/>
</svg>
