<svg width="60" height="60" viewBox="0 0 60 60" fill="none" xmlns="http://www.w3.org/2000/svg">
<path d="M30.167 0.983643L30.167 57.0492" stroke="#E8EEEE" stroke-linecap="round" stroke-dasharray="2 2"/>
<path d="M58.1998 29.0165L2.13425 29.0165" stroke="#E8EEEE" stroke-linecap="round" stroke-dasharray="2 2"/>
<path d="M53.666 0.983643L53.666 57.0492" stroke="#E8EEEE" stroke-linecap="round"/>
<path d="M7.66602 0.983643L7.66602 57.0492" stroke="#E8EEEE" stroke-linecap="round"/>
<path d="M58.666 6L1.66602 6" stroke="#E8EEEE" stroke-linecap="round"/>
<path d="M58.666 52L1.66602 52" stroke="#E8EEEE" stroke-linecap="round"/>
<path d="M46.274 40.1307L48.9789 37.5705C50.3757 36.2484 51.167 34.4099 51.167 32.4866V24.5L22.9297 35.4994L17.167 41.4994H42.8369C44.1155 41.4994 45.3455 41.0096 46.274 40.1307Z" fill="white" stroke="#B6C4C4" stroke-linecap="round" stroke-linejoin="round"/>
<path d="M47.167 8.5H16.167C13.9579 8.5 12.167 10.2909 12.167 12.5V45.0684C12.167 45.9618 13.2492 46.4068 13.8777 45.7719L21.7516 37.818C22.5029 37.0591 23.5264 36.6321 24.5943 36.6321H47.167C49.3761 36.6321 51.167 34.8412 51.167 32.6321V12.5C51.167 10.2909 49.3761 8.5 47.167 8.5Z" fill="white" stroke="#505967" stroke-linecap="round" stroke-linejoin="round"/>
<path d="M32.167 19.5H45.167M32.167 23.3095H38.527M32.167 27.5H41.127" stroke="#E8EEEE" stroke-linecap="round" stroke-linejoin="round"/>
<g filter="url(#filter0_f_3275_60359)">
<path d="M18.249 6.14434C18.4037 6.05502 18.5943 6.05502 18.749 6.14434L26.4763 10.6057C26.631 10.695 26.7263 10.86 26.7263 11.0387V19.9613C26.7263 20.14 26.631 20.305 26.4763 20.3943L18.749 24.8557C18.5943 24.945 18.4037 24.945 18.249 24.8557L10.5218 20.3943C10.3671 20.305 10.2718 20.14 10.2718 19.9613V11.0387C10.2718 10.86 10.3671 10.695 10.5218 10.6057L18.249 6.14434Z" fill="#FCEC3B" stroke="#FCEC3B" stroke-linecap="round" stroke-linejoin="round"/>
<path d="M18.499 8.5V15.5M18.499 15.5L12.999 19M18.499 15.5L24.499 19" stroke="#FCEC3B" stroke-linecap="round" stroke-linejoin="round"/>
</g>
<defs>
<filter id="filter0_f_3275_60359" x="6.77173" y="2.57739" width="23.4546" height="25.8452" filterUnits="userSpaceOnUse" color-interpolation-filters="sRGB">
<feFlood flood-opacity="0" result="BackgroundImageFix"/>
<feBlend mode="normal" in="SourceGraphic" in2="BackgroundImageFix" result="shape"/>
<feGaussianBlur stdDeviation="1.5" result="effect1_foregroundBlur_3275_60359"/>
</filter>
</defs>
</svg>
