<svg width="60" height="60" viewBox="0 0 60 60" fill="none" xmlns="http://www.w3.org/2000/svg">
<path d="M30.168 0.983398L30.168 57.049" stroke="#E8EEEE" stroke-linecap="round" stroke-dasharray="2 2"/>
<path d="M58.1992 29.0161L2.13364 29.0161" stroke="#E8EEEE" stroke-linecap="round" stroke-dasharray="2 2"/>
<path d="M53.666 0.983398L53.666 57.049" stroke="#E8EEEE" stroke-linecap="round"/>
<path d="M7.66602 0.983398L7.66602 57.049" stroke="#E8EEEE" stroke-linecap="round"/>
<path d="M58.666 6L1.66602 6" stroke="#E8EEEE" stroke-linecap="round"/>
<path d="M58.666 52L1.66602 52" stroke="#E8EEEE" stroke-linecap="round"/>
<path d="M46.275 40.1307L48.9799 37.5705C50.3767 36.2484 51.168 34.4099 51.168 32.4866V24.5L22.9307 35.4994L17.168 41.4994H42.8379C44.1165 41.4994 45.3465 41.0096 46.275 40.1307Z" fill="white" stroke="#B6C4C4" stroke-linecap="round" stroke-linejoin="round"/>
<path d="M47.168 8.5H16.168C13.9588 8.5 12.168 10.2909 12.168 12.5V45.0684C12.168 45.9618 13.2502 46.4068 13.8786 45.7719L21.7526 37.818C22.5039 37.0591 23.5274 36.6321 24.5953 36.6321H47.168C49.3771 36.6321 51.168 34.8412 51.168 32.6321V12.5C51.168 10.2909 49.3771 8.5 47.168 8.5Z" fill="white" stroke="#505967" stroke-linecap="round" stroke-linejoin="round"/>
<path d="M32.168 19.5H45.168M32.168 23.3095H38.528M32.168 27.5H41.128" stroke="#E8EEEE" stroke-linecap="round" stroke-linejoin="round"/>
<g filter="url(#filter0_f_3068_3515)">
<path d="M18.25 6.14434C18.4047 6.05502 18.5953 6.05502 18.75 6.14434L26.4772 10.6057C26.6319 10.695 26.7272 10.86 26.7272 11.0387V19.9613C26.7272 20.14 26.6319 20.305 26.4772 20.3943L18.75 24.8557C18.5953 24.945 18.4047 24.945 18.25 24.8557L10.5228 20.3943C10.3681 20.305 10.2728 20.14 10.2728 19.9613V11.0387C10.2728 10.86 10.3681 10.695 10.5228 10.6057L18.25 6.14434Z" fill="#FCEC3B" stroke="#FCEC3B" stroke-linecap="round" stroke-linejoin="round"/>
<path d="M18.5 8.5V15.5M18.5 15.5L13 19M18.5 15.5L24.5 19" stroke="#FCEC3B" stroke-linecap="round" stroke-linejoin="round"/>
</g>
<defs>
<filter id="filter0_f_3068_3515" x="6.77344" y="2.57715" width="23.4531" height="25.8457" filterUnits="userSpaceOnUse" color-interpolation-filters="sRGB">
<feFlood flood-opacity="0" result="BackgroundImageFix"/>
<feBlend mode="normal" in="SourceGraphic" in2="BackgroundImageFix" result="shape"/>
<feGaussianBlur stdDeviation="1.5" result="effect1_foregroundBlur_3068_3515"/>
</filter>
</defs>
</svg>
