<svg width="164" height="181" viewBox="0 0 164 181" fill="none" xmlns="http://www.w3.org/2000/svg">
<path d="M7.29749 137.101L75.9519 118.55C77.2954 118.188 78.771 118 80.2663 118C81.7617 118 83.2372 118.188 84.5807 118.55L153.241 137.101C156.491 137.978 158.539 139.763 158.539 141.717V156.491C158.539 158.442 156.491 160.23 153.241 161.107L84.5932 179.655C83.2498 180.017 81.7742 180.205 80.2788 180.205C78.7835 180.205 77.3079 180.017 75.9645 179.655L7.29749 161.107C5.71883 160.688 4.38519 160.034 3.44857 159.218C2.51194 158.402 2.01002 157.457 2 156.491V141.717C2 139.763 4.04761 137.978 7.29749 137.101Z" fill="#2B5C4F" stroke="white" stroke-linecap="round" stroke-linejoin="round"/>
<path d="M10.3984 143.365L81.2721 160.953L149.504 143.365M81.2721 174.952V160.963V174.952Z" fill="#2B5C4F"/>
<path d="M10.3984 143.365L81.2721 160.953L149.504 143.365M81.2721 174.952V160.963" stroke="#D4DCDC" stroke-linecap="round" stroke-linejoin="round"/>
<path d="M7.7721 108.002L76.4265 89.4506C77.77 89.0886 79.2456 88.9004 80.7409 88.9004C82.2363 88.9004 83.7119 89.0886 85.0553 89.4506L153.716 108.002C156.966 108.879 159.013 110.663 159.013 112.617V127.392C159.013 129.342 156.966 131.13 153.716 132.007L85.0678 150.555C83.7244 150.917 82.2488 151.105 80.7534 151.105C79.2581 151.105 77.7825 150.917 76.4391 150.555L7.7721 132.007C6.19344 131.589 4.8598 130.934 3.92318 130.118C2.98655 129.302 2.48463 128.357 2.47461 127.392V112.617C2.47461 110.663 4.52222 108.879 7.7721 108.002Z" fill="white" stroke="#616161" stroke-linecap="round" stroke-linejoin="round"/>
<path d="M10.873 114.268L81.7467 131.855L149.979 114.268M81.7467 145.855V131.866V145.855Z" fill="white"/>
<path d="M10.873 114.268L81.7467 131.855L149.979 114.268M81.7467 145.855V131.866" stroke="#D4DCDC" stroke-linecap="round" stroke-linejoin="round"/>
<path d="M152.422 147.421C152.611 147.312 152.845 147.312 153.034 147.421L161.821 152.494C162.01 152.603 162.127 152.805 162.127 153.024V163.17C162.127 163.389 162.01 163.591 161.821 163.701L153.034 168.773C152.845 168.883 152.611 168.883 152.422 168.773L143.635 163.701C143.446 163.591 143.329 163.389 143.329 163.17V153.024C143.329 152.805 143.446 152.603 143.635 152.494L152.422 147.421Z" fill="#F4F6F6" stroke="#74777C" stroke-linecap="round" stroke-linejoin="round"/>
<path d="M152.641 166.942L152.641 158.099M152.641 158.099L159.563 153.677M152.641 158.099L145.091 153.677" stroke="#74777C" stroke-linecap="round" stroke-linejoin="round"/>
<ellipse cx="5.74224" cy="23.8387" rx="5.74224" ry="23.8387" transform="matrix(-0.00242054 -0.999997 -0.999997 0.00242054 106.705 117.484)" fill="#D4DCDC"/>
<path d="M77.873 40.9598C97.1695 41.05 120.659 58.0638 130.723 66.1351C133.58 68.427 133.925 72.5046 131.365 75.1254C123.135 83.5545 103.657 100.035 77.354 99.8026C51.0259 99.5704 32.1629 82.7206 24.2653 74.1568C21.8096 71.4939 22.2402 67.4772 25.0992 65.2528C35.1708 57.4168 58.7181 40.8703 77.873 40.9598Z" fill="#F7F8F8" stroke="#616161"/>
<path d="M85.0687 40.4524C103.355 40.5334 125.621 57.6662 135.055 65.6941C137.73 67.9705 138.054 71.8609 135.679 74.449C127.983 82.8373 109.52 99.5154 84.5497 99.2952C59.5542 99.0747 41.6948 82.0425 34.3202 73.5297C32.0463 70.9048 32.4521 67.0723 35.13 64.8609C44.5798 57.0573 66.9175 40.372 85.0687 40.4524Z" fill="#F7F8F8" stroke="#616161"/>
<path d="M84.7688 54.2514C93.5079 54.2514 100.592 61.3343 100.592 70.0749C100.592 78.8125 93.5079 85.8984 84.7688 85.8984C76.0297 85.8984 68.9453 78.811 68.9453 70.0749C68.9453 61.3343 76.0297 54.2514 84.7688 54.2514Z" fill="#FFADDF"/>
<path d="M84.7684 64.424C87.8896 64.424 90.4197 66.9537 90.4197 70.0753C90.4197 73.1959 87.8896 75.7266 84.7684 75.7266C81.6473 75.7266 79.1172 73.1953 79.1172 70.0753C79.1172 66.9537 81.6473 64.424 84.7684 64.424Z" fill="#2B5C4F"/>
<circle cx="27.1083" cy="32.1152" r="5.10834" fill="#FFADDF"/>
<path d="M38.1527 8.14866C38.0023 10.0041 36.3821 11.3873 34.5371 11.2422C32.6922 11.0971 31.3151 9.47805 31.4655 7.62263C31.6158 5.76721 33.236 4.38398 35.081 4.52911C36.926 4.67424 38.303 6.29324 38.1527 8.14866Z" stroke="#74777C"/>
<circle cx="68.0629" cy="12.0629" r="3.06287" fill="#FCEC3B"/>
<circle cx="144.675" cy="40.6754" r="3.67545" fill="#9BDCE1"/>
</svg>
