<svg width="164" height="181" viewBox="0 0 164 181" fill="none" xmlns="http://www.w3.org/2000/svg">
<path d="M7.29749 137.101L75.9519 118.55C77.2954 118.188 78.771 118 80.2663 118C81.7617 118 83.2372 118.188 84.5807 118.55L153.241 137.101C156.491 137.978 158.539 139.763 158.539 141.717V156.491C158.539 158.442 156.491 160.23 153.241 161.107L84.5932 179.655C83.2498 180.017 81.7742 180.205 80.2788 180.205C78.7835 180.205 77.3079 180.017 75.9645 179.655L7.29749 161.107C5.71883 160.688 4.38519 160.034 3.44857 159.218C2.51194 158.402 2.01002 157.457 2 156.491V141.717C2 139.763 4.04761 137.978 7.29749 137.101Z" fill="#FCEC3B" stroke="white" stroke-linecap="round" stroke-linejoin="round"/>
<path d="M10.3984 143.366L81.2721 160.953L149.504 143.366M81.2721 174.953V160.964V174.953Z" fill="#FCEC3B"/>
<path d="M10.3984 143.366L81.2721 160.953L149.504 143.366M81.2721 174.953V160.964" stroke="#868686" stroke-linecap="round" stroke-linejoin="round"/>
<path d="M7.77405 108.002L76.4285 89.4506C77.7719 89.0886 79.2475 88.9004 80.7429 88.9004C82.2382 88.9004 83.7138 89.0886 85.0573 89.4506L153.718 108.002C156.968 108.879 159.015 110.663 159.015 112.617V127.392C159.015 129.342 156.968 131.13 153.718 132.007L85.0698 150.555C83.7263 150.917 82.2507 151.105 80.7554 151.105C79.2601 151.105 77.7845 150.917 76.441 150.555L7.77405 132.007C6.1954 131.589 4.86175 130.934 3.92513 130.118C2.9885 129.302 2.48658 128.357 2.47656 127.392V112.617C2.47656 110.663 4.52417 108.879 7.77405 108.002Z" fill="white" stroke="#616161" stroke-linecap="round" stroke-linejoin="round"/>
<path d="M10.875 114.267L81.7487 131.855L149.981 114.267M81.7487 145.854V131.865V145.854Z" fill="white"/>
<path d="M10.875 114.267L81.7487 131.855L149.981 114.267M81.7487 145.854V131.865" stroke="#D4DCDC" stroke-linecap="round" stroke-linejoin="round"/>
<path d="M7.29749 108.101L75.9519 89.5502C77.2954 89.1882 78.771 89 80.2663 89C81.7617 89 83.2373 89.1882 84.5807 89.5502L153.241 108.101C156.491 108.978 158.539 110.763 158.539 112.717V127.491C158.539 129.442 156.491 131.23 153.241 132.107L84.5932 150.655C83.2498 151.017 81.7742 151.205 80.2788 151.205C78.7835 151.205 77.3079 151.017 75.9644 150.655L7.29749 132.107C5.71883 131.688 4.38519 131.034 3.44857 130.218C2.51194 129.402 2.01002 128.457 2 127.491V112.717C2 110.763 4.04761 108.978 7.29749 108.101Z" fill="white" stroke="#616161" stroke-linecap="round" stroke-linejoin="round"/>
<path d="M10.3984 114.367L81.2721 131.955L149.504 114.367M81.2721 145.954V131.965V145.954Z" fill="white"/>
<path d="M10.3984 114.367L81.2721 131.955L149.504 114.367M81.2721 145.954V131.965" stroke="#D4DCDC" stroke-linecap="round" stroke-linejoin="round"/>
<path d="M152.422 147.421C152.611 147.312 152.845 147.312 153.034 147.421L161.821 152.494C162.01 152.603 162.127 152.805 162.127 153.024V163.17C162.127 163.389 162.01 163.591 161.821 163.701L153.034 168.773C152.845 168.883 152.611 168.883 152.422 168.773L143.635 163.701C143.446 163.591 143.329 163.389 143.329 163.17V153.024C143.329 152.805 143.446 152.603 143.635 152.494L152.422 147.421Z" fill="#F4F6F6" stroke="#74777C" stroke-linecap="round" stroke-linejoin="round"/>
<path d="M152.641 166.942L152.641 158.098M152.641 158.098L159.563 153.676M152.641 158.098L145.091 153.676" stroke="#74777C" stroke-linecap="round" stroke-linejoin="round"/>
<ellipse cx="5.74224" cy="23.8387" rx="5.74224" ry="23.8387" transform="matrix(-0.00242054 -0.999997 -0.999997 0.00242054 106.703 117.484)" fill="#D4DCDC"/>
<path d="M77.874 40.96C97.1705 41.0502 120.66 58.0639 130.724 66.1352C133.581 68.4271 133.926 72.5047 131.366 75.1256C123.136 83.5546 103.658 100.035 77.355 99.8027C51.0268 99.5705 32.1639 82.7207 24.2663 74.1569C21.8106 71.494 22.2412 67.4773 25.1002 65.2529C35.1718 57.4169 58.7191 40.8704 77.874 40.96Z" fill="white" stroke="#616161"/>
<path d="M85.0677 40.4521C103.354 40.5331 125.62 57.6659 135.054 65.6939C137.729 67.9702 138.053 71.8606 135.678 74.4488C127.982 82.8371 109.519 99.5151 84.5488 99.2949C59.5532 99.0745 41.6938 82.0422 34.3192 73.5294C32.0453 70.9045 32.4512 67.072 35.129 64.8607C44.5788 57.0571 66.9165 40.3718 85.0677 40.4521Z" fill="white" stroke="#616161"/>
<path d="M84.7688 54.2515C93.5079 54.2515 100.592 61.3344 100.592 70.075C100.592 78.8126 93.5079 85.8986 84.7688 85.8986C76.0297 85.8986 68.9453 78.8111 68.9453 70.075C68.9453 61.3344 76.0297 54.2515 84.7688 54.2515Z" fill="#FFADDF"/>
<path d="M84.7684 64.424C87.8896 64.424 90.4197 66.9537 90.4197 70.0753C90.4197 73.1959 87.8896 75.7266 84.7684 75.7266C81.6473 75.7266 79.1172 73.1953 79.1172 70.0753C79.1172 66.9537 81.6473 64.424 84.7684 64.424Z" fill="#9BDCE1"/>
<circle cx="27.1083" cy="32.1152" r="5.10834" fill="#2B5C4F"/>
<path d="M38.1507 8.14866C38.0004 10.0041 36.3801 11.3873 34.5352 11.2422C32.6902 11.0971 31.3132 9.47805 31.4635 7.62263C31.6138 5.76721 33.2341 4.38398 35.079 4.52911C36.924 4.67424 38.301 6.29324 38.1507 8.14866Z" stroke="#74777C"/>
<circle cx="68.0629" cy="12.0629" r="3.06287" fill="#FCEC3B"/>
<circle cx="144.675" cy="40.6754" r="3.67545" fill="#FFADDF"/>
</svg>
