<svg width="187" height="147" viewBox="0 0 187 147" fill="none" xmlns="http://www.w3.org/2000/svg">
<path d="M50.0696 4.6891C49.5702 4.40077 48.9549 4.40077 48.4555 4.6891L13.0342 25.1396C12.5348 25.4279 12.2272 25.9608 12.2272 26.5375V67.4384C12.2272 68.0151 12.5348 68.548 13.0342 68.8363L48.4555 89.2868C48.9549 89.5751 49.5702 89.5751 50.0696 89.2868L85.4909 68.8363C85.9903 68.548 86.2979 68.0151 86.2979 67.4384V26.5375C86.2979 25.9608 85.9903 25.4279 85.4909 25.1396L50.0696 4.6891Z" fill="#9BDCE1"/>
<path d="M47.4028 82.3597L47.4028 48.5712M47.4028 48.5712L18.1133 31.6769M47.4028 48.5712L79.3551 31.6769" stroke="white" stroke-width="0.757225" stroke-linecap="round" stroke-linejoin="round"/>
<path d="M182.856 68.8674C181.405 68.7246 180.345 67.433 180.487 65.9819C180.63 64.5312 181.922 63.4705 183.373 63.6133C184.824 63.756 185.884 65.0484 185.742 66.4988C185.599 67.9499 184.307 69.0101 182.856 68.8674Z" fill="#E0EBE8" stroke="#616161" stroke-width="0.757225" stroke-linecap="round" stroke-linejoin="round"/>
<path d="M168.193 63.2096C170.186 63.4058 171.962 61.9489 172.158 59.9549C172.354 57.9615 170.897 56.1859 168.903 55.9898C166.909 55.7936 165.134 57.2515 164.938 59.2446C164.742 61.2386 166.199 63.0135 168.193 63.2096Z" fill="#9BDCE1"/>
<path d="M3.50085 20.0351C2.11859 19.8991 1.10826 18.6686 1.24427 17.2861C1.38023 15.9041 2.61103 14.8935 3.99329 15.0295C5.37555 15.1655 6.38581 16.3968 6.24987 17.7786C6.11386 19.1611 4.88311 20.1711 3.50085 20.0351Z" fill="#F7F8F8" stroke="#616161" stroke-width="0.757225" stroke-linecap="round" stroke-linejoin="round"/>
<path d="M77.0429 11.4447C75.9757 11.3397 75.1956 10.3896 75.3006 9.32218C75.4056 8.25514 76.3559 7.47492 77.4231 7.57991C78.4903 7.68491 79.2703 8.63554 79.1654 9.70239C79.0604 10.7698 78.1101 11.5497 77.0429 11.4447Z" fill="#F7F8F8" stroke="#616161" stroke-width="0.757225" stroke-linecap="round" stroke-linejoin="round"/>
<path d="M84.3085 141.064C83.2413 140.959 82.4612 140.009 82.5662 138.942C82.6712 137.875 83.6215 137.095 84.6887 137.2C85.7559 137.305 86.5359 138.255 86.431 139.322C86.326 140.39 85.3757 141.169 84.3085 141.064Z" fill="#F7F8F8" stroke="#616161" stroke-width="0.757225" stroke-linecap="round" stroke-linejoin="round"/>
<path d="M14.1377 8.8202C11.8162 8.59182 10.1195 6.52522 10.3479 4.2034C10.5762 1.88239 12.6433 0.185256 14.9647 0.413634C17.2861 0.642012 18.9828 2.70982 18.7545 5.03043C18.526 7.35224 16.4591 9.04858 14.1377 8.8202Z" fill="#FFADDF"/>
<path d="M56.161 59.4686L117.344 103.302L132.198 88.4483L74.9019 48.9919L56.161 59.4686Z" fill="#F7F8F8"/>
<path d="M56.161 59.4686L117.344 103.302L132.198 88.4483L74.9019 48.9919" stroke="#616161" stroke-width="0.757225" stroke-linecap="round"/>
<circle cx="133.027" cy="107.117" r="39.0272" fill="#FFADDF"/>
<path d="M67.4297 56.4651L101.89 80.1305" stroke="#616161" stroke-width="0.757225" stroke-dasharray="3.79 3.79"/>
</svg>
