<svg width="246" height="193" viewBox="0 0 246 193" fill="none" xmlns="http://www.w3.org/2000/svg">
<path d="M65.8001 6.1925C65.1406 5.81172 64.328 5.81172 63.6685 6.1925L16.8908 33.1996C16.2313 33.5804 15.825 34.2841 15.825 35.0457V89.0599C15.825 89.8215 16.2313 90.5252 16.8908 90.906L63.6685 117.913C64.328 118.294 65.1406 118.294 65.8001 117.913L112.578 90.906C113.237 90.5252 113.644 89.8215 113.644 89.0599V35.0457C113.644 34.2841 113.237 33.5804 112.578 33.1996L65.8001 6.1925Z" fill="#2B5C4F"/>
<path d="M62.2802 108.765L62.2802 64.1431M62.2802 64.1431L23.6001 41.8323M62.2802 64.1431L104.477 41.8323" stroke="white" stroke-linecap="round" stroke-linejoin="round"/>
<path d="M241.161 90.9469C239.245 90.7584 237.845 89.0527 238.033 87.1363C238.222 85.2206 239.928 83.8198 241.844 84.0083C243.76 84.1968 245.16 85.9035 244.972 87.8189C244.783 89.7353 243.077 91.1354 241.161 90.9469Z" fill="#E0EBE8" stroke="#616161" stroke-linecap="round" stroke-linejoin="round"/>
<path d="M221.796 83.4753C224.429 83.7343 226.773 81.8104 227.032 79.177C227.291 76.5445 225.367 74.1997 222.734 73.9407C220.101 73.6817 217.757 75.607 217.498 78.239C217.239 80.8724 219.163 83.2163 221.796 83.4753Z" fill="#2B5C4F"/>
<path d="M4.30519 26.4581C2.47976 26.2786 1.14551 24.6535 1.32513 22.8277C1.50468 21.0026 3.13009 19.6681 4.95552 19.8477C6.78095 20.0273 8.1151 21.6533 7.93558 23.4781C7.75596 25.3038 6.13062 26.6377 4.30519 26.4581Z" fill="#F7F8F8" stroke="#616161" stroke-linecap="round" stroke-linejoin="round"/>
<path d="M101.422 15.1135C100.013 14.9749 98.9825 13.7202 99.1212 12.3105C99.2598 10.9014 100.515 9.87103 101.924 10.0097C103.334 10.1483 104.364 11.4038 104.225 12.8127C104.086 14.2223 102.831 15.2522 101.422 15.1135Z" fill="#F7F8F8" stroke="#616161" stroke-linecap="round" stroke-linejoin="round"/>
<path d="M111.017 186.291C109.608 186.153 108.578 184.898 108.716 183.488C108.855 182.079 110.11 181.049 111.519 181.187C112.929 181.326 113.959 182.581 113.82 183.99C113.682 185.4 112.427 186.43 111.017 186.291Z" fill="#F7F8F8" stroke="#616161" stroke-linecap="round" stroke-linejoin="round"/>
<path d="M18.3515 11.6475C15.2859 11.3459 13.0451 8.61673 13.3467 5.55051C13.6483 2.48536 16.378 0.244107 19.4437 0.545705C22.5094 0.847304 24.75 3.57807 24.4485 6.6427C24.1469 9.70891 21.4172 11.9491 18.3515 11.6475Z" fill="#FFADDF"/>
<path d="M73.8472 78.5344L154.646 136.422L174.262 116.805L98.5967 64.6987L73.8472 78.5344Z" fill="#F7F8F8"/>
<path d="M73.8472 78.5344L154.646 136.422L174.262 116.805L98.5967 64.6987" stroke="#616161" stroke-linecap="round"/>
<circle cx="175.358" cy="141.46" r="51.5398" fill="#FFADDF"/>
<path d="M88.7275 74.5684L134.236 105.821" stroke="#616161" stroke-dasharray="5 5"/>
</svg>
