<svg width="258" height="157" viewBox="0 0 258 157" fill="none" xmlns="http://www.w3.org/2000/svg">
<path d="M112.5 28L151 29" stroke="#505967" stroke-linejoin="round" stroke-dasharray="5 5"/>
<path d="M106 122L141 120" stroke="#505967" stroke-linejoin="round" stroke-dasharray="5 5"/>
<path d="M110 118L140 115" stroke="#505967" stroke-linejoin="round" stroke-dasharray="5 5"/>
<path d="M75.6444 35.3114L105.382 33.0081L114.068 60L107.904 65.7021L107.891 65.7059C107.3 65.4064 101.328 62.51 95.4028 65.768C92.1233 67.5726 90.4995 70.3592 89.8916 71.5652C89.3751 72.8249 88.045 76.4967 89.068 80.9522C90.1627 85.7104 93.2373 88.3448 94.2419 89.133C95.3306 89.8997 98.3179 91.7607 102.613 91.7192C106.011 91.6851 108.584 90.471 109.816 89.7924L118.043 117.798L111.729 122.445C87.4386 123.637 62.8182 124.384 38.5276 125.577C37.3705 125.598 32.5593 125.575 28.4957 121.922C24.7917 118.593 24.0695 114.371 23.9028 113.139L18.4714 37.0885C19.0427 36.7981 26.0427 32.7981 26.0427 32.7981C26.0427 32.7981 42.9947 36.0019 50.5331 35.6694C49.5866 34.1622 48.7072 30.7185 48.736 27.5732C48.7904 21.6373 52.0427 11.7979 64.0427 11.2979C69.9432 10.6558 73.588 17.5284 76.4926 24.2758C77.6831 27.0414 77.595 32.4225 75.6444 35.3114Z" fill="#2B5C4F" stroke="#F7F8F8" stroke-miterlimit="10" stroke-linecap="round" stroke-linejoin="round"/>
<path d="M55.0053 20.6801C57.8073 12.444 65.7289 10.55 69.8401 10.1714L70.3623 10.1455L63.0756 39.126C58.8842 36.7165 52.2032 28.9162 55.0053 20.6801Z" fill="#F7F8F8"/>
<path d="M112.124 27.4878L114.646 60.1818L114.633 60.1856C114.042 59.886 108.07 56.9897 102.145 60.2476C98.8657 62.0523 97.242 64.8389 96.634 66.0448C96.1175 67.3046 94.7875 70.9764 95.8104 75.4319C96.9051 80.1901 99.9798 82.8245 100.984 83.6127C102.073 84.3794 105.06 86.2404 109.356 86.1989C112.753 86.1648 115.326 84.9507 116.559 84.2721L118.472 116.924C94.181 118.117 69.5607 118.864 45.2701 120.056C44.113 120.078 39.3017 120.055 35.2382 116.401C31.5341 113.072 30.8119 108.851 30.6453 107.619L25.2138 31.5682C30.5843 31.3274 44.6437 30.7063 57.2756 30.1491C56.3291 28.6419 55.4497 25.1982 55.4785 22.0529C55.5329 16.117 60.4959 10.6353 68.5035 10.2378C74.4039 9.59579 80.3304 12.0081 83.235 18.7554C84.4256 21.5211 84.3375 26.9022 82.3868 29.7911L112.124 27.4878Z" fill="#2B5C4F" stroke="#F7F8F8" stroke-miterlimit="10" stroke-linecap="round" stroke-linejoin="round"/>
<path d="M201.669 42.5649C200.596 44.2111 199.522 45.8574 198.444 47.5016C198.481 49.1147 198.328 52.946 195.706 56.4906C192.209 61.216 185.761 63.5001 179.25 62.3603C187.056 63.8584 194.861 65.3564 202.667 66.8544L205.332 48.0711L201.671 42.5595L201.669 42.5649Z" fill="#F7F8F8"/>
<path d="M229.136 47.6413L223.048 39.904L201.419 43.1729C201.918 44.186 203.14 47.0195 202.485 50.7246C201.957 53.745 200.442 55.8346 199.675 56.7612C199.226 57.2517 194.563 62.2163 187.476 61.6236C180.502 61.0452 177.184 55.5894 176.845 55.0085C176.299 53.6913 175.251 50.6425 175.888 46.7085C176.436 43.3091 178.852 39.7005 178.852 39.7005L173.852 31.7765C173.852 31.7765 153.169 35.6329 145.931 34.553C144.602 45.1507 143.223 54.9011 141.893 65.4988C141.062 64.8015 138.34 62.7066 134.172 62.6081C130.687 62.5257 128.084 63.8839 127.057 64.4897C126.027 65.2276 117.031 66.4135 115.655 70.6513C113.798 84.3765 122.351 88.8116 129.199 90.2685C136.046 91.7254 132.074 93.3603 133.068 93.4316C137.284 95.4139 136.754 90.2773 138.106 90.0183C137.368 95.7766 129.24 112.712 129.24 112.712C129.24 112.712 132.832 119.12 134.155 120.787L202.502 131.737C203.169 131.874 209.708 133.076 214.975 128.444C219.126 124.794 219.649 120.021 219.738 119.011C222.874 95.2182 226.002 71.4286 229.138 47.6359L229.136 47.6413Z" fill="#FFADDF" stroke="#F7F8F8" stroke-miterlimit="10" stroke-linecap="round" stroke-linejoin="round"/>
<path d="M195.734 35.5229C194.661 37.1692 193.587 38.8154 192.509 40.4596C192.546 42.0727 192.393 45.904 189.771 49.4486C186.274 54.174 179.826 56.4581 173.315 55.3183C181.121 56.8164 188.926 58.3144 196.732 59.8124L199.397 41.0291L195.736 35.5175L195.734 35.5229Z" fill="#F7F8F8"/>
<path d="M223.45 39.9908L195.733 35.5224C196.232 36.5355 197.454 39.369 196.8 43.0741C196.271 46.0945 194.757 48.1841 193.99 49.1107C193.54 49.6012 188.877 54.5658 181.79 53.9731C174.817 53.3947 171.499 47.9389 171.159 47.358C170.614 46.0408 169.565 42.992 170.203 39.058C170.75 35.6586 172.302 33.2352 173.166 32.05C162.14 30.4048 151.273 28.5477 140.246 26.9026C138.916 37.5002 137.538 47.2506 136.208 57.8483C135.376 57.151 132.655 55.0561 128.487 54.9576C125.002 54.8752 122.399 56.2334 121.371 56.8392C120.341 57.5771 117.317 59.9381 115.941 64.1759C114.217 69.4908 116.259 74.8693 116.721 75.7406C117.445 76.9144 119.302 79.5607 122.888 81.2436C127.104 83.2259 131.068 82.6268 132.421 82.3678C131.106 92.6229 129.784 102.881 128.47 113.136L196.817 124.087C197.484 124.223 204.023 125.425 209.29 120.793C213.441 117.144 213.963 112.371 214.052 111.36C217.188 87.5677 220.317 63.7781 223.453 39.9854L223.45 39.9908Z" fill="#FFADDF" stroke="#F7F8F8" stroke-miterlimit="10" stroke-linecap="round" stroke-linejoin="round"/>
<path d="M229.997 30.9948C232.205 30.9948 233.994 29.2055 233.994 26.9974C233.994 24.7901 232.205 23 229.997 23C227.789 23 226 24.7905 226 26.9974C226 29.2055 227.789 30.9948 229.997 30.9948Z" fill="#FCEC3B"/>
<path d="M35.9969 153.995C38.2046 153.995 39.9943 152.206 39.9943 149.997C39.9943 147.79 38.2046 146 35.9969 146C33.7892 146 31.9995 147.79 31.9995 149.997C31.9995 152.206 33.7892 153.995 35.9969 153.995Z" fill="#FFADDF"/>
<path d="M239.324 48.3172C240.796 48.3172 241.989 47.1243 241.989 45.6523C241.989 44.1807 240.796 42.9873 239.324 42.9873C237.852 42.9873 236.659 44.1809 236.659 45.6523C236.659 47.1243 237.852 48.3172 239.324 48.3172Z" fill="white" stroke="#74777C" stroke-linecap="round" stroke-linejoin="round"/>
<path d="M73.9995 140C75.1041 140 75.9995 140.895 75.9995 142C75.9995 143.104 75.1041 144 73.9995 144C72.8949 144 71.9995 143.104 71.9995 142C71.9995 140.895 72.8949 140 73.9995 140Z" fill="white" stroke="#74777C" stroke-linecap="round" stroke-linejoin="round"/>
<path d="M11.9995 133C13.6564 133 14.9995 131.657 14.9995 130C14.9995 128.343 13.6564 127 11.9995 127C10.3427 127 8.99951 128.344 8.99951 130C8.99951 131.657 10.3427 133 11.9995 133Z" fill="#7AD0D7"/>
<path d="M205.33 120.177C205.52 120.067 205.753 120.067 205.943 120.177L215.408 125.642C215.598 125.751 215.714 125.953 215.714 126.172V137.102C215.714 137.321 215.598 137.523 215.408 137.632L205.943 143.097C205.753 143.207 205.52 143.207 205.33 143.097L195.865 137.632C195.675 137.523 195.559 137.321 195.559 137.102V126.172C195.559 125.953 195.675 125.751 195.865 125.642L205.33 120.177Z" fill="#F4F6F6" stroke="#74777C" stroke-linecap="round" stroke-linejoin="round"/>
<path d="M205.543 141.121L205.543 131.639M205.543 131.639L212.964 126.897M205.543 131.639L197.447 126.897" stroke="#74777C" stroke-linecap="round" stroke-linejoin="round"/>
</svg>
