<svg width="234" height="142" viewBox="0 0 234 142" fill="none" xmlns="http://www.w3.org/2000/svg">
<path d="M101.844 25.3474L136.696 26.2527" stroke="#505967" stroke-width="0.905265" stroke-linejoin="round" stroke-dasharray="4.53 4.53"/>
<path d="M95.957 110.442L127.641 108.632" stroke="#505967" stroke-width="0.905265" stroke-linejoin="round" stroke-dasharray="4.53 4.53"/>
<path d="M99.5781 106.821L126.736 104.105" stroke="#505967" stroke-width="0.905265" stroke-linejoin="round" stroke-dasharray="4.53 4.53"/>
<path d="M68.4799 31.966L95.4003 29.8809L103.263 54.3157L97.6832 59.4776L97.6714 59.481C97.1366 59.2099 91.7301 56.5879 86.3665 59.5372C83.3977 61.1709 81.9278 63.6935 81.3774 64.7852C80.9098 65.9256 79.7058 69.2496 80.6318 73.283C81.6228 77.5904 84.4062 79.9752 85.3156 80.6888C86.3011 81.3829 89.0054 83.0675 92.8939 83.03C95.9695 82.9991 98.2987 81.9 99.4145 81.2857L106.862 106.638L101.146 110.845C79.1568 111.924 56.8688 112.601 34.8794 113.68C33.832 113.699 29.4765 113.679 25.7979 110.371C22.4447 107.357 21.791 103.536 21.6401 102.421L16.7232 33.5747C17.2404 33.3118 23.5772 29.6908 23.5772 29.6908C23.5772 29.6908 38.9233 32.5911 45.7476 32.2901C44.8907 30.9256 44.0947 27.8082 44.1207 24.9609C44.1699 19.5873 47.1142 10.68 57.9773 10.2274C63.3189 9.64613 66.6183 15.8677 69.2478 21.9758C70.3255 24.4795 70.2458 29.3507 68.4799 31.966Z" fill="#2B5C4F" stroke="#F7F8F8" stroke-width="0.905265" stroke-miterlimit="10" stroke-linecap="round" stroke-linejoin="round"/>
<path d="M49.7931 18.7212C52.3297 11.2654 59.5009 9.55081 63.2226 9.2081L63.6953 9.18463L57.0989 35.4197C53.3046 33.2384 47.2565 26.1771 49.7931 18.7212Z" fill="#F7F8F8"/>
<path d="M101.503 24.8837L103.786 54.4805L103.774 54.4839C103.239 54.2127 97.8325 51.5908 92.4689 54.5401C89.5 56.1738 88.0301 58.6963 87.4798 59.7881C87.0122 60.9285 85.8082 64.2525 86.7342 68.2859C87.7252 72.5932 90.5085 74.9781 91.4179 75.6916C92.4035 76.3857 95.1078 78.0704 98.9963 78.0329C102.072 78.002 104.401 76.9029 105.517 76.2886L107.249 105.847C85.2592 106.927 62.9712 107.603 40.9818 108.683C39.9343 108.702 35.5788 108.682 31.9003 105.374C28.5471 102.36 27.8933 98.5386 27.7425 97.4238L22.8256 28.5776C27.6873 28.3596 40.4148 27.7973 51.8499 27.2929C50.9931 25.9285 50.197 22.811 50.2231 19.9637C50.2723 14.5902 54.7652 9.62779 62.0141 9.26796C67.3556 8.68673 72.7207 10.8705 75.3501 16.9786C76.4279 19.4823 76.3481 24.3536 74.5823 26.9688L101.503 24.8837Z" fill="#2B5C4F" stroke="#F7F8F8" stroke-width="0.905265" stroke-miterlimit="10" stroke-linecap="round" stroke-linejoin="round"/>
<path d="M182.563 38.5321C181.591 40.0225 180.619 41.5128 179.643 43.0012C179.677 44.4615 179.538 47.9298 177.165 51.1386C173.999 55.4163 168.161 57.484 162.268 56.4523C169.334 57.8084 176.4 59.1645 183.466 60.5206L185.879 43.5167L182.565 38.5273L182.563 38.5321Z" fill="#F7F8F8"/>
<path d="M207.427 43.1275L201.916 36.1232L182.336 39.0824C182.787 39.9996 183.893 42.5646 183.301 45.9188C182.823 48.653 181.452 50.5446 180.757 51.3835C180.35 51.8275 176.129 56.3218 169.713 55.7852C163.401 55.2617 160.397 50.3227 160.089 49.7968C159.596 48.6044 158.647 45.8444 159.223 42.2832C159.719 39.2058 161.906 35.939 161.906 35.939L157.38 28.7657C157.38 28.7657 138.657 32.2568 132.105 31.2792C130.901 40.8729 129.653 49.6996 128.449 59.2933C127.696 58.662 125.233 56.7657 121.46 56.6765C118.305 56.6019 115.949 57.8314 115.018 58.3798C114.086 59.0478 105.943 60.1214 104.697 63.9577C103.016 76.3826 110.759 80.3975 116.957 81.7165C123.156 83.0353 119.56 84.5153 120.46 84.5799C124.277 86.3744 123.796 81.7244 125.021 81.4899C124.353 86.7027 116.995 102.034 116.995 102.034C116.995 102.034 120.246 107.834 121.444 109.344L183.316 119.257C183.92 119.38 189.84 120.468 194.608 116.275C198.366 112.971 198.838 108.651 198.919 107.736C201.758 86.1972 204.59 64.6614 207.429 43.1226L207.427 43.1275Z" fill="#FFADDF" stroke="#F7F8F8" stroke-width="0.905265" stroke-miterlimit="10" stroke-linecap="round" stroke-linejoin="round"/>
<path d="M177.191 32.1569C176.22 33.6473 175.248 35.1376 174.272 36.626C174.306 38.0863 174.167 41.5546 171.793 44.7634C168.628 49.0411 162.79 51.1088 156.897 50.0771C163.963 51.4332 171.029 52.7893 178.095 54.1454L180.508 37.1416L177.194 32.1521L177.191 32.1569Z" fill="#F7F8F8"/>
<path d="M202.282 36.2018L177.19 32.1567C177.642 33.0739 178.748 35.6389 178.156 38.9931C177.677 41.7273 176.307 43.6189 175.612 44.4578C175.205 44.9018 170.984 49.3961 164.568 48.8595C158.256 48.3359 155.251 43.397 154.944 42.8711C154.451 41.6787 153.501 38.9187 154.078 35.3574C154.574 32.28 155.978 30.0862 156.761 29.0133C146.779 27.524 136.942 25.8428 126.959 24.3535C125.756 33.9472 124.508 42.7739 123.304 52.3676C122.551 51.7363 120.088 49.8399 116.314 49.7508C113.16 49.6761 110.803 50.9056 109.873 51.4541C108.94 52.122 106.203 54.2594 104.957 58.0957C103.396 62.9072 105.245 67.7761 105.663 68.5648C106.318 69.6274 108 72.0231 111.246 73.5466C115.063 75.341 118.651 74.7987 119.875 74.5642C118.686 83.8478 117.489 93.1343 116.299 102.418L178.171 112.331C178.775 112.454 184.695 113.543 189.462 109.349C193.22 106.046 193.693 101.725 193.774 100.81C196.613 79.2715 199.445 57.7357 202.284 36.1969L202.282 36.2018Z" fill="#FFADDF" stroke="#F7F8F8" stroke-width="0.905265" stroke-miterlimit="10" stroke-linecap="round" stroke-linejoin="round"/>
<path d="M208.209 28.0586C210.207 28.0586 211.827 26.4387 211.827 24.4398C211.827 22.4416 210.207 20.8211 208.209 20.8211C206.21 20.8211 204.59 22.4419 204.59 24.4398C204.59 26.4387 206.21 28.0586 208.209 28.0586Z" fill="#FCEC3B"/>
<path d="M32.5875 139.406C34.586 139.406 36.2062 137.786 36.2062 135.787C36.2062 133.789 34.586 132.169 32.5875 132.169C30.5889 132.169 28.9688 133.79 28.9688 135.787C28.9688 137.786 30.5889 139.406 32.5875 139.406Z" fill="#FFADDF"/>
<path d="M216.651 43.7398C217.983 43.7398 219.063 42.66 219.063 41.3274C219.063 39.9952 217.983 38.9149 216.651 38.9149C215.318 38.9149 214.238 39.9954 214.238 41.3274C214.238 42.66 215.318 43.7398 216.651 43.7398Z" fill="white" stroke="#74777C" stroke-width="0.905265" stroke-linecap="round" stroke-linejoin="round"/>
<path d="M66.9902 126.737C67.9901 126.737 68.8007 127.548 68.8007 128.548C68.8007 129.547 67.9901 130.358 66.9902 130.358C65.9903 130.358 65.1797 129.547 65.1797 128.548C65.1797 127.548 65.9903 126.737 66.9902 126.737Z" fill="white" stroke="#74777C" stroke-width="0.905265" stroke-linecap="round" stroke-linejoin="round"/>
<path d="M10.8642 120.4C12.3641 120.4 13.58 119.185 13.58 117.684C13.58 116.185 12.3641 114.969 10.8642 114.969C9.36434 114.969 8.14844 116.185 8.14844 117.684C8.14844 119.185 9.36434 120.4 10.8642 120.4Z" fill="#7AD0D7"/>
<path d="M185.878 108.792C186.05 108.693 186.261 108.693 186.433 108.792L195.002 113.739C195.173 113.838 195.279 114.021 195.279 114.219V124.113C195.279 124.312 195.173 124.495 195.002 124.594L186.433 129.541C186.261 129.64 186.05 129.64 185.878 129.541L177.31 124.594C177.138 124.495 177.032 124.312 177.032 124.113V114.219C177.032 114.021 177.138 113.838 177.31 113.739L185.878 108.792Z" fill="#F4F6F6" stroke="#74777C" stroke-width="0.905265" stroke-linecap="round" stroke-linejoin="round"/>
<path d="M186.071 127.752L186.071 119.168M186.071 119.168L192.789 114.876M186.071 119.168L178.742 114.876" stroke="#74777C" stroke-width="0.905265" stroke-linecap="round" stroke-linejoin="round"/>
</svg>
