<svg width="156" height="190" viewBox="0 0 156 190" fill="none" xmlns="http://www.w3.org/2000/svg">
<path d="M6.20914 146.905L73.7186 128.663C75.0396 128.307 76.4906 128.122 77.961 128.122C79.4314 128.122 80.8824 128.307 82.2035 128.663L149.719 146.905C152.915 147.767 154.928 149.522 154.928 151.443V165.972C154.928 167.889 152.915 169.648 149.719 170.51L82.2158 188.748C80.8948 189.104 79.4437 189.289 77.9734 189.289C76.503 189.289 75.052 189.104 73.7309 188.748L6.20914 170.51C4.65681 170.098 3.34541 169.455 2.42441 168.652C1.5034 167.85 1.00985 166.921 1 165.972V151.443C1 149.522 3.01346 147.767 6.20914 146.905Z" fill="#9BDCE1"/>
<path d="M9.2583 153.064L78.95 170.359L146.044 153.064M78.95 184.125V170.369" stroke="#F7F8F8" stroke-linecap="round" stroke-linejoin="round"/>
<path d="M6.44547 118.476L73.9549 100.234C75.276 99.8784 76.727 99.6934 78.1974 99.6934C79.6678 99.6934 81.1188 99.8784 82.4398 100.234L149.955 118.476C153.151 119.338 155.165 121.093 155.165 123.015V137.543C155.165 139.461 153.151 141.219 149.955 142.081L82.4521 160.32C81.1311 160.676 79.6801 160.861 78.2097 160.861C76.7393 160.861 75.2883 160.676 73.9672 160.32L6.44547 142.081C4.89314 141.67 3.58174 141.026 2.66074 140.224C1.73973 139.421 1.24618 138.492 1.23633 137.543V123.015C1.23633 121.093 3.24979 119.338 6.44547 118.476Z" fill="white" stroke="#616161" stroke-linecap="round" stroke-linejoin="round"/>
<path d="M9.49512 124.638L79.1868 141.932L146.281 124.638M79.1868 155.698V141.942V155.698Z" fill="white"/>
<path d="M9.49512 124.638L79.1868 141.932L146.281 124.638M79.1868 155.698V141.942" stroke="#D4DCDC" stroke-linecap="round" stroke-linejoin="round"/>
<circle cx="33.6378" cy="4.15389" r="4.15389" fill="#FEE176"/>
<circle cx="130.958" cy="72.9898" r="4.15389" fill="#2B5C4F"/>
<circle cx="78.737" cy="44.506" r="40.9455" fill="#FFADDF"/>
<path d="M77.4153 112.61C77.7425 112.499 78.1415 112.483 78.495 112.566L98.0135 117.151C98.9389 117.368 99.0592 118.097 98.2204 118.404L80.1925 125C79.8504 125.125 79.4218 125.143 79.0484 125.049L59.2697 120.061C58.3496 119.829 58.2665 119.094 59.1273 118.803L77.4153 112.61Z" fill="#D4DCDC"/>
<path d="M121.463 52.2197L95.9463 118.089" stroke="#616161" stroke-linecap="round" stroke-dasharray="5 5"/>
<path d="M79.3306 77.1436V124.617" stroke="#616161" stroke-linecap="round" stroke-dasharray="5 5"/>
<path d="M34.2313 52.2197L59.748 118.089" stroke="#616161" stroke-linecap="round" stroke-dasharray="5 5"/>
<path d="M127.99 24.9237C129.957 24.9237 131.551 23.3299 131.551 21.3632C131.551 19.3971 129.957 17.8027 127.99 17.8027C126.024 17.8027 124.43 19.3975 124.43 21.3632C124.43 23.3299 126.024 24.9237 127.99 24.9237Z" fill="white" stroke="#74777C" stroke-linecap="round" stroke-linejoin="round"/>
<path d="M117.309 13.0549C118.62 13.0549 119.682 11.9924 119.682 10.6813C119.682 9.37056 118.62 8.30762 117.309 8.30762C115.998 8.30762 114.935 9.37079 114.935 10.6813C114.935 11.9924 115.998 13.0549 117.309 13.0549Z" fill="white" stroke="#74777C" stroke-linecap="round" stroke-linejoin="round"/>
</svg>
