<svg width="156" height="190" viewBox="0 0 156 190" fill="none" xmlns="http://www.w3.org/2000/svg">
<path d="M6.20914 146.905L73.7186 128.663C75.0396 128.307 76.4906 128.122 77.961 128.122C79.4314 128.122 80.8824 128.307 82.2035 128.663L149.719 146.905C152.915 147.767 154.928 149.522 154.928 151.443V165.972C154.928 167.89 152.915 169.648 149.719 170.51L82.2158 188.749C80.8948 189.104 79.4437 189.29 77.9734 189.29C76.503 189.29 75.052 189.104 73.7309 188.749L6.20914 170.51C4.65681 170.099 3.34541 169.455 2.42441 168.653C1.5034 167.85 1.00985 166.921 1 165.972V151.443C1 149.522 3.01346 147.767 6.20914 146.905Z" fill="#9BDCE1"/>
<path d="M9.25781 153.064L78.9495 170.359L146.044 153.064M78.9495 184.125V170.369" stroke="white" stroke-linecap="round" stroke-linejoin="round"/>
<path d="M6.44742 118.476L73.9569 100.234C75.2779 99.8785 76.7289 99.6934 78.1993 99.6934C79.6697 99.6934 81.1207 99.8785 82.4417 100.234L149.957 118.476C153.153 119.338 155.167 121.093 155.167 123.015V137.543C155.167 139.461 153.153 141.219 149.957 142.081L82.4541 160.32C81.133 160.676 79.682 160.861 78.2116 160.861C76.7412 160.861 75.2902 160.676 73.9692 160.32L6.44742 142.081C4.8951 141.67 3.58369 141.026 2.66269 140.224C1.74169 139.421 1.24813 138.492 1.23828 137.543V123.015C1.23828 121.093 3.25174 119.338 6.44742 118.476Z" fill="white" stroke="#616161" stroke-linecap="round" stroke-linejoin="round"/>
<path d="M9.49609 124.638L79.1878 141.932L146.282 124.638M79.1878 155.698V141.942V155.698Z" fill="white"/>
<path d="M9.49609 124.638L79.1878 141.932L146.282 124.638M79.1878 155.698V141.942" stroke="#D4DCDC" stroke-linecap="round" stroke-linejoin="round"/>
<circle cx="33.6383" cy="4.15389" r="4.15389" fill="#FEE176"/>
<circle cx="130.959" cy="72.9895" r="4.15389" fill="#2B5C4F"/>
<circle cx="78.7384" cy="44.506" r="40.9455" fill="#FFADDF"/>
<path d="M77.4153 112.61C77.7425 112.499 78.1415 112.483 78.495 112.566L98.0135 117.151C98.9389 117.368 99.0592 118.097 98.2204 118.404L80.1925 125C79.8504 125.125 79.4218 125.143 79.0484 125.049L59.2697 120.061C58.3496 119.829 58.2665 119.094 59.1273 118.803L77.4153 112.61Z" fill="#D4DCDC"/>
<path d="M121.462 52.2198L95.9453 118.089" stroke="#616161" stroke-linecap="round" stroke-dasharray="5 5"/>
<path d="M79.332 77.1435V124.616" stroke="#616161" stroke-linecap="round" stroke-dasharray="5 5"/>
<path d="M34.2294 52.2198L59.7461 118.089" stroke="#616161" stroke-linecap="round" stroke-dasharray="5 5"/>
<path d="M127.99 24.9235C129.957 24.9235 131.551 23.3298 131.551 21.3631C131.551 19.397 129.957 17.8026 127.99 17.8026C126.024 17.8026 124.43 19.3973 124.43 21.3631C124.43 23.3298 126.024 24.9235 127.99 24.9235Z" fill="white" stroke="#74777C" stroke-linecap="round" stroke-linejoin="round"/>
<path d="M117.307 13.0552C118.618 13.0552 119.681 11.9927 119.681 10.6815C119.681 9.3708 118.618 8.30786 117.307 8.30786C115.996 8.30786 114.934 9.37103 114.934 10.6815C114.934 11.9927 115.996 13.0552 117.307 13.0552Z" fill="white" stroke="#74777C" stroke-linecap="round" stroke-linejoin="round"/>
</svg>
