<svg width="270" height="298" viewBox="0 0 270 298" fill="none" xmlns="http://www.w3.org/2000/svg">
<path d="M187.904 103.044C187.245 102.663 186.432 102.663 185.773 103.044L148.044 124.827C147.384 125.208 146.978 125.911 146.978 126.673V208.137C146.978 208.899 147.384 209.602 148.044 209.983L185.773 231.766C186.432 232.147 187.245 232.147 187.904 231.766L225.633 209.983C226.293 209.602 226.699 208.899 226.699 208.137V126.673C226.699 125.911 226.293 125.208 225.633 124.827L187.904 103.044Z" fill="#F7F8F8" stroke="#777F8C" stroke-opacity="0.64" stroke-linecap="round" stroke-linejoin="round"/>
<path d="M187.52 224.301L187.52 152.716M187.52 152.716L158.168 133.964M187.52 152.716L219.541 133.964" stroke="#777F8C" stroke-opacity="0.64" stroke-linecap="round" stroke-linejoin="round"/>
<path d="M144.275 154.925C143.616 154.544 142.803 154.544 142.144 154.925L104.415 176.708C103.755 177.088 103.349 177.792 103.349 178.554L103.349 233.185C103.349 233.946 103.755 234.65 104.415 235.031L142.144 256.814C142.803 257.195 143.616 257.195 144.275 256.814L182.004 235.031C182.664 234.65 183.07 233.946 183.07 233.185L183.07 178.554C183.07 177.792 182.664 177.088 182.004 176.708L144.275 154.925Z" fill="#FCEC3B"/>
<path d="M143.782 246.497L143.782 205.23M143.782 205.23L114.43 186.478M143.782 205.23L175.803 186.478" stroke="white" stroke-linecap="round" stroke-linejoin="round"/>
<path d="M103.317 197.651C102.658 197.27 101.845 197.27 101.186 197.651L66.2862 217.8C65.6267 218.181 65.2204 218.885 65.2204 219.646V259.945C65.2204 260.706 65.6267 261.41 66.2862 261.791L101.186 281.94C101.845 282.321 102.658 282.321 103.317 281.94L138.217 261.791C138.877 261.41 139.283 260.706 139.283 259.945V219.646C139.283 218.885 138.877 218.181 138.217 217.8L103.317 197.651Z" fill="#9BDCE1"/>
<path d="M102.593 274.643L102.593 239.8M102.593 239.8L75.3242 222.378M102.593 239.8L132.341 222.378" stroke="white" stroke-linecap="round" stroke-linejoin="round"/>
<path d="M200.805 87.9653L221.779 107.5L234.239 97.9203L225.285 33.6196L162.612 24.6663L154.16 38.7536L176.387 61.9194H200.805V87.9653Z" fill="#2B5C4F" stroke="#F7F8F8" stroke-linecap="round" stroke-linejoin="round"/>
<path d="M234.239 24.6663H162.613L183.776 47.4564H211.449V76.758L234.239 97.9203V24.6663Z" fill="#2B5C4F" stroke="#F7F8F8" stroke-linecap="round" stroke-linejoin="round"/>
<path d="M183.774 47.4569L176.699 61.2933" stroke="#F7F8F8" stroke-linecap="round" stroke-linejoin="round"/>
<path d="M211.448 76.7585L200.93 87.214" stroke="#F7F8F8" stroke-linecap="round" stroke-linejoin="round"/>
<path d="M200.93 61.8568L211.448 47.4569" stroke="#F7F8F8" stroke-linecap="round" stroke-linejoin="round"/>
<path d="M196.422 66.3651C191.538 76.1323 182.335 102.203 184.589 128.349C159.231 57.9127 127.676 99.0476 143.454 183.571C121.478 162.159 106.827 172.5 106.827 218.508L1 297" stroke="#505967" stroke-linecap="round" stroke-linejoin="round" stroke-dasharray="5 5"/>
<path d="M265.733 74.254C267.6 74.254 269.113 72.7406 269.113 70.873C269.113 69.0061 267.6 67.4921 265.733 67.4921C263.865 67.4921 262.352 69.0064 262.352 70.873C262.352 72.7406 263.865 74.254 265.733 74.254Z" fill="#FCEC3B"/>
<path d="M129.365 101.302C131.233 101.302 132.746 99.7882 132.746 97.9206C132.746 96.0537 131.233 94.5397 129.365 94.5397C127.498 94.5397 125.984 96.054 125.984 97.9206C125.984 99.7882 127.498 101.302 129.365 101.302Z" fill="#FCEC3B"/>
<path d="M182.899 6.63492C184.456 6.63492 185.717 5.37377 185.717 3.81746C185.717 2.26169 184.456 1 182.899 1C181.343 1 180.082 2.26195 180.082 3.81746C180.082 5.37377 181.343 6.63492 182.899 6.63492Z" fill="white" stroke="#74777C" stroke-linecap="round" stroke-linejoin="round"/>
<path d="M261.223 90.0317C262.468 90.0317 263.477 89.0228 263.477 87.7778C263.477 86.5332 262.468 85.5238 261.223 85.5238C259.978 85.5238 258.969 86.5334 258.969 87.7778C258.969 89.0228 259.978 90.0317 261.223 90.0317Z" fill="white" stroke="#74777C" stroke-linecap="round" stroke-linejoin="round"/>
</svg>
