<svg width="265" height="307" viewBox="0 0 265 307" fill="none" xmlns="http://www.w3.org/2000/svg">
<path d="M182.905 103.044C182.245 102.663 181.433 102.663 180.773 103.044L143.044 124.827C142.385 125.208 141.978 125.911 141.978 126.673V208.137C141.978 208.899 142.385 209.602 143.044 209.983L180.773 231.766C181.433 232.147 182.245 232.147 182.905 231.766L220.634 209.983C221.293 209.602 221.7 208.899 221.7 208.137V126.673C221.7 125.911 221.293 125.208 220.634 124.827L182.905 103.044Z" fill="#F7F8F8" stroke="#777F8C" stroke-opacity="0.64" stroke-linecap="round" stroke-linejoin="round"/>
<path d="M182.521 224.302L182.521 152.717M182.521 152.717L153.168 133.964M182.521 152.717L214.542 133.964" stroke="#777F8C" stroke-opacity="0.64" stroke-linecap="round" stroke-linejoin="round"/>
<path d="M139.272 154.925C138.613 154.544 137.8 154.544 137.141 154.925L99.4118 176.708C98.7523 177.089 98.346 177.792 98.346 178.554L98.346 233.185C98.346 233.947 98.7523 234.65 99.4118 235.031L137.141 256.814C137.8 257.195 138.613 257.195 139.273 256.814L177.002 235.031C177.661 234.65 178.067 233.947 178.067 233.185L178.067 178.554C178.067 177.792 177.661 177.089 177.002 176.708L139.272 154.925Z" fill="#FFADDF"/>
<path d="M138.778 246.498L138.778 205.231M138.778 205.231L109.425 186.478M138.778 205.231L170.798 186.478" stroke="white" stroke-linecap="round" stroke-linejoin="round"/>
<path d="M98.318 197.651C97.6584 197.27 96.8459 197.27 96.1863 197.651L61.2867 217.8C60.6272 218.181 60.2209 218.884 60.2209 219.646V259.945C60.2209 260.706 60.6272 261.41 61.2867 261.791L96.1863 281.94C96.8459 282.321 97.6584 282.321 98.318 281.94L133.218 261.791C133.877 261.41 134.283 260.706 134.283 259.945V219.646C134.283 218.884 133.877 218.181 133.218 217.8L98.318 197.651Z" fill="#9BDCE1"/>
<path d="M97.5946 274.643L97.5946 239.799M97.5946 239.799L70.3257 222.377M97.5946 239.799L127.342 222.377" stroke="white" stroke-linecap="round" stroke-linejoin="round"/>
<path d="M195.803 87.965L216.778 107.499L229.237 97.92L220.284 33.6193L157.611 24.666L149.159 38.7533L171.385 61.9191H195.803V87.965Z" fill="#2B5C4F" stroke="#F7F8F8" stroke-linecap="round" stroke-linejoin="round"/>
<path d="M229.237 24.666H157.611L178.773 47.4561H206.447V76.7577L229.237 97.92V24.666Z" fill="#2B5C4F" stroke="#F7F8F8" stroke-linecap="round" stroke-linejoin="round"/>
<path d="M178.773 47.457L171.698 61.2934" stroke="#F7F8F8" stroke-linecap="round" stroke-linejoin="round"/>
<path d="M206.447 76.7578L195.929 87.2132" stroke="#F7F8F8" stroke-linecap="round" stroke-linejoin="round"/>
<path d="M195.929 61.8569L206.447 47.457" stroke="#F7F8F8" stroke-linecap="round" stroke-linejoin="round"/>
<path d="M191.421 66.3652C186.537 76.1324 177.333 102.203 179.587 128.349C154.23 57.9129 122.675 99.0478 138.452 183.572C116.476 162.159 101.825 172.5 101.825 218.508L-83 356" stroke="#505967" stroke-linecap="round" stroke-linejoin="round" stroke-dasharray="5 5"/>
<path d="M260.73 74.2541C262.597 74.2541 264.111 72.7407 264.111 70.8731C264.111 69.0062 262.597 67.4922 260.73 67.4922C258.863 67.4922 257.349 69.0065 257.349 70.8731C257.349 72.7407 258.863 74.2541 260.73 74.2541Z" fill="#FFADDF"/>
<path d="M124.365 101.302C126.233 101.302 127.746 99.7886 127.746 97.921C127.746 96.0541 126.233 94.54 124.365 94.54C122.498 94.54 120.984 96.0544 120.984 97.921C120.984 99.7886 122.498 101.302 124.365 101.302Z" fill="#FCEC3B"/>
<path d="M177.897 6.63492C179.453 6.63492 180.714 5.37377 180.714 3.81746C180.714 2.26169 179.453 1 177.897 1C176.341 1 175.079 2.26195 175.079 3.81746C175.079 5.37377 176.341 6.63492 177.897 6.63492Z" fill="white" stroke="#74777C" stroke-linecap="round" stroke-linejoin="round"/>
<path d="M256.222 90.0314C257.467 90.0314 258.476 89.0225 258.476 87.7774C258.476 86.5328 257.467 85.5234 256.222 85.5234C254.977 85.5234 253.968 86.533 253.968 87.7774C253.968 89.0225 254.977 90.0314 256.222 90.0314Z" fill="white" stroke="#74777C" stroke-linecap="round" stroke-linejoin="round"/>
</svg>
