<svg width="166" height="185" viewBox="0 0 166 185" fill="none" xmlns="http://www.w3.org/2000/svg">
<path d="M6.67582 138.757L78.5501 119.336C79.9565 118.957 81.5014 118.76 83.0668 118.76C84.6323 118.76 86.1771 118.957 87.5835 119.336L159.464 138.757C162.867 139.675 165.01 141.543 165.01 143.589V159.056C165.01 161.098 162.867 162.97 159.464 163.888L87.5967 183.306C86.1902 183.685 84.6454 183.882 83.0799 183.882C81.5145 183.882 79.9697 183.685 78.5632 183.306L6.67582 163.888C5.02313 163.45 3.62694 162.765 2.64639 161.911C1.66583 161.056 1.14037 160.067 1.12988 159.056V143.589C1.12988 141.543 3.27352 139.675 6.67582 138.757Z" fill="white" stroke="#616161" stroke-linecap="round" stroke-linejoin="round"/>
<path d="M9.92285 145.315L84.1204 163.728L155.553 145.315M84.1204 178.384V163.739V178.384Z" fill="white"/>
<path d="M9.92285 145.315L84.1204 163.728L155.553 145.315M84.1204 178.384V163.739" stroke="#D4DCDC" stroke-linecap="round" stroke-linejoin="round"/>
<path d="M23.5905 116.724L79.7038 101.562C80.8018 101.266 82.0079 101.112 83.2301 101.112C84.4523 101.112 85.6583 101.266 86.7563 101.562L142.875 116.724C145.531 117.441 147.205 118.9 147.205 120.497V132.572C147.205 134.167 145.531 135.628 142.875 136.345L86.7666 151.504C85.6685 151.8 84.4625 151.954 83.2403 151.954C82.0181 151.954 80.8121 151.8 79.714 151.504L23.5905 136.345C22.3003 136.003 21.2102 135.468 20.4447 134.801C19.6792 134.134 19.2689 133.362 19.2607 132.572V120.497C19.2607 118.9 20.9343 117.441 23.5905 116.724Z" fill="#FFCCEA" stroke="#616161" stroke-linecap="round" stroke-linejoin="round"/>
<path d="M26.125 120.804L84.0521 135.179L139.82 120.804M84.0521 146.621V135.187" stroke="#F7F8F8" stroke-linecap="round" stroke-linejoin="round"/>
<path d="M43.1325 97.2494L81.3749 86.9158C82.1232 86.7142 82.9452 86.6094 83.7781 86.6094C84.6111 86.6094 85.433 86.7142 86.1814 86.9158L124.427 97.2494C126.238 97.7378 127.378 98.7319 127.378 99.8203V108.05C127.378 109.137 126.238 110.133 124.427 110.621L86.1883 120.953C85.44 121.154 84.6181 121.259 83.7851 121.259C82.9522 121.259 82.1302 121.154 81.3819 120.953L43.1325 110.621C42.2531 110.388 41.5103 110.023 40.9885 109.569C40.4668 109.114 40.1872 108.588 40.1816 108.05V99.8203C40.1816 98.7319 41.3222 97.7378 43.1325 97.2494Z" fill="white" stroke="#616161" stroke-linecap="round" stroke-linejoin="round"/>
<path d="M44.8604 100.03L84.3389 109.827L122.346 100.03M84.3389 117.625V109.833V117.625Z" fill="white"/>
<path d="M44.8604 100.03L84.3389 109.827L122.346 100.03M84.3389 117.625V109.833" stroke="#D4DCDC" stroke-linecap="round" stroke-linejoin="round"/>
<path d="M117.054 14.6572H56.9023L77.4605 34.989H96.4958V55.3208L117.054 75.5703V14.6572Z" fill="#2B5C4F" stroke="#F7F8F8" stroke-linejoin="round"/>
<path d="M53.0957 29.8855L56.9028 14.6572L76.6995 34.454L72.131 48.9208L53.0957 29.8855Z" fill="#2B5C4F" stroke="#F7F8F8" stroke-linejoin="round"/>
<path d="M88.9384 68.7175L96.4963 55.7734L117.026 75.5702L108.679 87.7528L88.9384 68.7175Z" fill="#2B5C4F" stroke="#F7F8F8" stroke-linejoin="round"/>
<path d="M88.8819 48.9213H72.1309L76.6993 35.2158H96.4961L88.8819 48.9213Z" fill="#2B5C4F" stroke="#F7F8F8" stroke-linecap="round" stroke-linejoin="round"/>
<path d="M88.882 48.6353V67.9562L96.4962 55.7736L96.4962 35.3105L88.882 48.6353Z" fill="#2B5C4F"/>
<path d="M88.882 67.9562H88.382V69.6996L89.306 68.2212L88.882 67.9562ZM88.882 48.6353L88.4479 48.3872C88.4047 48.4628 88.382 48.5483 88.382 48.6353H88.882ZM96.4962 35.3105L96.9962 35.3105C96.9962 35.0838 96.8437 34.8855 96.6245 34.8273C96.4054 34.7691 96.1746 34.8656 96.0621 35.0625L96.4962 35.3105ZM96.4962 55.7736L96.9202 56.0386L96.9962 55.917V55.7736L96.4962 55.7736ZM89.382 67.9562V48.6353H88.382V67.9562H89.382ZM89.3161 48.8833L96.9303 35.5586L96.0621 35.0625L88.4479 48.3872L89.3161 48.8833ZM95.9962 35.3105L95.9962 55.7736L96.9962 55.7736L96.9962 35.3105L95.9962 35.3105ZM96.0722 55.5086L88.458 67.6912L89.306 68.2212L96.9202 56.0386L96.0722 55.5086Z" fill="#F7F8F8"/>
<path d="M50.431 69.2888C52.6387 69.2888 54.4284 67.4995 54.4284 65.2914C54.4284 63.084 52.6387 61.2939 50.431 61.2939C48.2233 61.2939 46.4336 63.0844 46.4336 65.2914C46.4336 67.4995 48.2233 69.2888 50.431 69.2888Z" fill="white" stroke="#74777C" stroke-linecap="round" stroke-linejoin="round"/>
<path d="M134.377 53.2985C136.585 53.2985 138.375 51.5092 138.375 49.3011C138.375 47.0938 136.585 45.3037 134.377 45.3037C132.17 45.3037 130.38 47.0942 130.38 49.3011C130.38 51.5092 132.17 53.2985 134.377 53.2985Z" fill="#FCEC3B"/>
<path d="M143.704 70.6209C145.176 70.6209 146.369 69.428 146.369 67.956C146.369 66.4844 145.176 65.291 143.704 65.291C142.232 65.291 141.039 66.4847 141.039 67.956C141.039 69.428 142.232 70.6209 143.704 70.6209Z" fill="white" stroke="#74777C" stroke-linecap="round" stroke-linejoin="round"/>
<path d="M45.1014 10.6598C48.045 10.6598 50.4313 8.27402 50.4313 5.32989C50.4313 2.38678 48.045 0 45.1014 0C42.1578 0 39.7715 2.38728 39.7715 5.32989C39.7715 8.27402 42.1578 10.6598 45.1014 10.6598Z" fill="#7AD0D7"/>
</svg>
