<svg width="157" height="188" viewBox="0 0 157 188" fill="none" xmlns="http://www.w3.org/2000/svg">
<path d="M6.25652 142.257L74.38 122.836C75.713 122.457 77.1772 122.26 78.661 122.26C80.1448 122.26 81.609 122.457 82.942 122.836L151.072 142.257C154.296 143.175 156.328 145.043 156.328 147.089V162.556C156.328 164.598 154.296 166.47 151.072 167.388L82.9544 186.806C81.6214 187.185 80.1572 187.382 78.6734 187.382C77.1897 187.382 75.7255 187.185 74.3924 186.806L6.25652 167.388C4.69007 166.95 3.36674 166.265 2.43736 165.41C1.50798 164.556 1.00994 163.567 1 162.556V147.089C1 145.043 3.03177 143.175 6.25652 142.257Z" fill="white" stroke="#616161" stroke-linecap="round" stroke-linejoin="round"/>
<path d="M9.33594 148.815L79.6615 167.228L147.366 148.815M79.6615 181.884V167.239V181.884Z" fill="white"/>
<path d="M9.33594 148.815L79.6615 167.228L147.366 148.815M79.6615 181.884V167.239" stroke="#D4DCDC" stroke-linecap="round" stroke-linejoin="round"/>
<path d="M22.2874 120.224L75.4724 105.062C76.5131 104.766 77.6562 104.612 78.8146 104.612C79.973 104.612 81.1162 104.766 82.1569 105.062L135.347 120.224C137.864 120.941 139.451 122.4 139.451 123.997V136.072C139.451 137.667 137.864 139.128 135.347 139.845L82.1666 155.004C81.1259 155.3 79.9827 155.454 78.8243 155.454C77.6659 155.454 76.5228 155.3 75.4821 155.004L22.2874 139.845C21.0645 139.503 20.0313 138.968 19.3058 138.301C18.5802 137.634 18.1914 136.862 18.1836 136.072V123.997C18.1836 122.4 19.7698 120.941 22.2874 120.224Z" fill="#FFADDF" stroke="#616161" stroke-linecap="round" stroke-linejoin="round"/>
<path d="M24.6914 124.304L79.5955 138.679L132.454 124.304M79.5955 150.121V138.687V150.121Z" fill="#FFADDF"/>
<path d="M24.6914 124.304L79.5955 138.679L132.454 124.304M79.5955 150.121V138.687" stroke="white" stroke-linecap="round" stroke-linejoin="round"/>
<path d="M40.8125 100.749L77.0592 90.4158C77.7685 90.2142 78.5475 90.1094 79.337 90.1094C80.1265 90.1094 80.9055 90.2142 81.6148 90.4158L117.865 100.749C119.581 101.238 120.662 102.232 120.662 103.32V111.55C120.662 112.637 119.581 113.633 117.865 114.121L81.6214 124.453C80.9122 124.654 80.1331 124.759 79.3436 124.759C78.5541 124.759 77.7751 124.654 77.0658 124.453L40.8125 114.121C39.979 113.888 39.2749 113.523 38.7804 113.069C38.2859 112.614 38.0209 112.088 38.0156 111.55V103.32C38.0156 102.232 39.0967 101.238 40.8125 100.749Z" fill="white" stroke="#616161" stroke-linecap="round" stroke-linejoin="round"/>
<path d="M42.4492 103.53L79.8676 113.327L115.891 103.53M79.8676 121.125V113.333V121.125Z" fill="white"/>
<path d="M42.4492 103.53L79.8676 113.327L115.891 103.53M79.8676 121.125V113.333" stroke="#D4DCDC" stroke-linecap="round" stroke-linejoin="round"/>
<path d="M115.005 32.1572H45.4492L69.2213 52.489H91.2325V72.8208L115.005 93.0703V32.1572Z" fill="#2B5C4F" stroke="white" stroke-linejoin="round"/>
<path d="M41.0469 47.3855L45.4491 32.1572L68.3407 51.954L63.0581 66.4208L41.0469 47.3855Z" fill="#2B5C4F" stroke="white" stroke-linejoin="round"/>
<path d="M82.4921 86.2175L91.2316 73.2734L114.971 93.0702L105.318 105.253L82.4921 86.2175Z" fill="#2B5C4F" stroke="white" stroke-linejoin="round"/>
<path d="M82.4284 66.4213H63.0586L68.3413 52.7158H91.2329L82.4284 66.4213Z" fill="#2B5C4F" stroke="white" stroke-linecap="round" stroke-linejoin="round"/>
<path d="M82.426 66.1353V85.4562L91.2305 73.2736L91.2305 52.8105L82.426 66.1353Z" fill="#2B5C4F"/>
<path d="M82.426 85.4562H81.926V87.0016L82.8312 85.749L82.426 85.4562ZM82.426 66.1353L82.0088 65.8596C81.9548 65.9414 81.926 66.0373 81.926 66.1353H82.426ZM91.2305 52.8105L91.7305 52.8105C91.7305 52.5898 91.5858 52.3952 91.3744 52.3317C91.1631 52.2682 90.935 52.3508 90.8134 52.5349L91.2305 52.8105ZM91.2305 73.2736L91.6357 73.5664L91.7305 73.4353V73.2736L91.2305 73.2736ZM82.926 85.4562V66.1353H81.926V85.4562H82.926ZM82.8432 66.4109L91.6477 53.0862L90.8134 52.5349L82.0088 65.8596L82.8432 66.4109ZM90.7305 52.8105L90.7305 73.2736L91.7305 73.2736L91.7305 52.8105L90.7305 52.8105ZM90.8252 72.9807L82.0207 85.1633L82.8312 85.749L91.6357 73.5664L90.8252 72.9807Z" fill="white"/>
<path d="M60.5 16C61.8807 16 63 14.881 63 13.5C63 12.1195 61.8807 11 60.5 11C59.1193 11 58 12.1198 58 13.5C58 14.881 59.1193 16 60.5 16Z" fill="white" stroke="#74777C" stroke-linecap="round" stroke-linejoin="round"/>
<path d="M134.789 63.9948C136.881 63.9948 138.578 62.2055 138.578 59.9974C138.578 57.7901 136.881 56 134.789 56C132.696 56 131 57.7905 131 59.9974C131 62.2055 132.696 63.9948 134.789 63.9948Z" fill="#FCEC3B"/>
<path d="M11.5259 111.83C12.9209 111.83 14.0517 110.637 14.0517 109.165C14.0517 107.693 12.9209 106.5 11.5259 106.5C10.1309 106.5 9 107.694 9 109.165C9 110.637 10.1309 111.83 11.5259 111.83Z" fill="white" stroke="#74777C" stroke-linecap="round" stroke-linejoin="round"/>
<path d="M85.0517 10.6598C87.8418 10.6598 90.1035 8.27402 90.1035 5.32989C90.1035 2.38678 87.8418 0 85.0517 0C82.2617 0 80 2.38728 80 5.32989C80 8.27402 82.2617 10.6598 85.0517 10.6598Z" fill="#7AD0D7"/>
</svg>
