<svg width="215" height="182" viewBox="0 0 215 182" fill="none" xmlns="http://www.w3.org/2000/svg">
<path d="M55.9038 41.2866C57.644 41.1154 58.916 39.5662 58.7448 37.8257C58.5736 36.0857 57.024 34.8135 55.2838 34.9847C53.5436 35.1559 52.2717 36.706 52.4428 38.4457C52.614 40.1862 54.1635 41.4579 55.9038 41.2866Z" fill="#FCEC3B"/>
<path d="M10.5542 91.4119C12.8434 91.1867 14.5167 89.1488 14.2914 86.8592C14.0663 84.5704 12.0279 82.8968 9.7387 83.122C7.4495 83.3472 5.77639 85.3863 6.00153 87.6747C6.22677 89.9643 8.26505 91.6371 10.5542 91.4119Z" fill="#236F76"/>
<path d="M161.292 17.635C164.257 17.3433 166.424 14.7039 166.132 11.7384C165.841 8.77403 163.201 6.60644 160.236 6.89813C157.271 7.18981 155.104 9.83082 155.395 12.7947C155.687 15.7601 158.327 17.9267 161.292 17.635Z" fill="#FFADDF"/>
<path d="M122.8 77.9812C123.021 78.1293 123.427 78.1309 123.706 77.9848L125.972 76.798L128.016 77.6174C128.294 77.729 128.7 77.6771 128.923 77.5014L135.741 80.2342C135.518 80.4099 135.564 80.6428 135.842 80.7544L140.734 82.715C141.012 82.8266 141.418 82.7747 141.641 82.599L148.459 85.3317C148.236 85.5074 148.282 85.7403 148.56 85.8519L153.452 87.8125C153.73 87.9242 154.136 87.8722 154.359 87.6966L161.177 90.4293C160.954 90.605 161 90.8379 161.278 90.9495L166.17 92.9101C166.448 93.0217 166.854 92.9698 167.077 92.7941L173.895 95.5269C173.672 95.7025 173.718 95.9354 173.996 96.0471L178.888 98.0077C179.166 98.1193 179.572 98.0674 179.794 97.8917L186.612 100.624C186.39 100.8 186.436 101.033 186.714 101.145L191.606 103.105C191.884 103.217 192.29 103.165 192.512 102.989L199.33 105.722C199.108 105.898 199.154 106.131 199.432 106.242L204.324 108.203C204.602 108.314 205.008 108.262 205.23 108.087L212.048 110.82C211.826 110.995 211.872 111.228 212.15 111.34L214.062 112.106L212.432 113.264C212.194 113.433 212.217 113.668 212.482 113.79L206.669 117.919C206.404 117.798 205.996 117.836 205.758 118.005L201.586 120.969C201.349 121.138 201.371 121.373 201.636 121.495L195.823 125.625C195.558 125.503 195.15 125.542 194.912 125.711L190.741 128.674C190.503 128.843 190.525 129.079 190.79 129.2L184.977 133.33C184.712 133.208 184.304 133.247 184.066 133.416L179.895 136.379C179.657 136.548 179.679 136.784 179.944 136.905L174.131 141.035C173.866 140.913 173.458 140.952 173.22 141.121L169.049 144.084C168.811 144.253 168.833 144.489 169.098 144.61L163.285 148.74C163.02 148.619 162.612 148.657 162.374 148.826L158.203 151.79C157.965 151.959 157.987 152.194 158.253 152.316L152.44 156.445C152.174 156.324 151.766 156.362 151.529 156.531L147.357 159.495C147.119 159.664 147.141 159.899 147.407 160.021L141.594 164.15C141.328 164.029 140.921 164.067 140.683 164.236L136.511 167.2C136.273 167.369 136.296 167.604 136.561 167.726L130.748 171.856C130.483 171.734 130.075 171.773 129.837 171.942L125.665 174.905C125.427 175.074 125.45 175.31 125.715 175.431L119.902 179.561C119.637 179.439 119.229 179.478 118.991 179.647L117.336 180.823L115.355 179.915C115.09 179.794 114.682 179.832 114.444 180.001L107.529 176.834C107.767 176.665 107.745 176.429 107.479 176.308L102.557 174.053C102.292 173.932 101.884 173.97 101.646 174.139L94.7308 170.972C94.9687 170.803 94.9465 170.568 94.6812 170.446L89.7588 168.191C89.4935 168.07 89.0856 168.108 88.8478 168.277L81.9327 165.11C82.1705 164.941 82.1483 164.706 81.883 164.584L76.9607 162.33C76.6954 162.208 76.2875 162.247 76.0496 162.416L69.1345 159.248C69.3724 159.079 69.3502 158.844 69.0849 158.722L64.1625 156.468C63.8973 156.346 63.4894 156.385 63.2515 156.554L56.3364 153.386C56.5743 153.217 56.552 152.982 56.2868 152.86L51.3644 150.606C51.0991 150.484 50.6912 150.523 50.4534 150.692L43.5383 147.524C43.7761 147.355 43.7539 147.12 43.4886 146.998L38.5663 144.744C38.301 144.622 37.8931 144.661 37.6552 144.83L30.7401 141.663C30.978 141.494 30.9558 141.258 30.6905 141.137L25.7681 138.882C25.5029 138.76 25.095 138.799 24.8571 138.968L17.942 135.801C18.1799 135.632 18.1576 135.396 17.8924 135.275L16.0003 134.408L18.0693 133.324C18.3483 133.178 18.3949 132.939 18.1733 132.791L25.6992 128.849C25.9207 128.997 26.3265 128.998 26.6056 128.852L31.9408 126.057C32.2198 125.911 32.2664 125.673 32.0449 125.524L39.5707 121.582C39.7923 121.73 40.1981 121.732 40.4771 121.586L45.8123 118.791C46.0914 118.644 46.138 118.406 45.9164 118.258L53.4422 114.315C53.6638 114.463 54.0696 114.465 54.3487 114.319L59.6838 111.524C59.9629 111.378 60.0095 111.139 59.7879 110.991L67.3137 107.048C67.5353 107.197 67.9411 107.198 68.2202 107.052L73.5554 104.257C73.8344 104.111 73.881 103.872 73.6595 103.724L81.1853 99.7816C81.4068 99.9297 81.8127 99.9313 82.0917 99.7851L87.4269 96.9902C87.706 96.844 87.7525 96.6054 87.531 96.4573L95.0568 92.5148C95.2784 92.6629 95.6842 92.6645 95.9632 92.5183L101.298 89.7234C101.577 89.5772 101.624 89.3386 101.403 89.1905L108.928 85.248C109.15 85.3961 109.556 85.3977 109.835 85.2516L115.17 82.4566C115.449 82.3104 115.496 82.0718 115.274 81.9237L122.8 77.9812Z" fill="white" stroke="#74777C" stroke-width="1.05665" stroke-linecap="round" stroke-linejoin="round" stroke-dasharray="5.28 8.45"/>
<path d="M151.491 21.3056L117.643 2.23312C116.261 1.29794 114.607 1.26395 113.188 2.14156L76.1196 19.7565C74.4197 20.8097 73.3171 22.9935 73.2676 25.4045L72.3192 71.546C72.2695 73.9631 73.2815 76.1904 74.9368 77.3065L109.924 100.943C111.306 101.878 112.96 101.912 114.379 101.034L150.308 78.8556C151.141 78.3413 151.849 77.5408 152.353 76.5434C152.857 75.5459 153.136 74.391 153.16 73.2076L154.108 27.0661C154.158 24.649 153.146 22.4278 151.491 21.3056Z" fill="#2B5C4F" stroke="#EBECEC" stroke-width="1.05665" stroke-linecap="round" stroke-linejoin="round"/>
<path d="M113.273 45.6811L78.5194 25.7402" stroke="white" stroke-width="0.755023" stroke-linecap="round" stroke-linejoin="round"/>
<path d="M113.274 94.6782L113.274 45.8714L113.274 94.6782Z" fill="#2B5C4F"/>
<path d="M148.598 26.3103L113.945 44.754C113.532 44.9738 113.274 45.4035 113.274 45.8714L113.274 94.6782" stroke="white" stroke-width="0.755023" stroke-linecap="round" stroke-linejoin="round"/>
<path d="M103.547 64.8505L70.7018 46.2909C69.4048 45.5564 67.8591 45.5314 66.539 46.2236L33.1113 63.7114C31.5298 64.542 30.5137 66.2618 30.483 68.1593L29.8957 104.473C29.8649 106.375 30.8249 108.127 32.3788 109.004L65.2234 127.568C66.5204 128.303 68.0661 128.328 69.3862 127.635L102.814 110.143C103.589 109.737 104.246 109.106 104.71 108.321C105.174 107.535 105.428 106.626 105.442 105.695L106.03 69.3811C106.06 67.4789 105.1 65.7319 103.547 64.8505Z" fill="#FCEC3B" stroke="white" stroke-width="1.05665" stroke-linecap="round" stroke-linejoin="round"/>
<path d="M69.6349 86.3497L39.7013 70.7728" stroke="white" stroke-width="1.05665" stroke-linecap="round" stroke-linejoin="round"/>
<path d="M68.228 121.54L69.737 86.3789L68.228 121.54Z" fill="#FCEC3B"/>
<path d="M100.082 70.2212L69.744 86.3868M68.228 121.54L69.737 86.3789" stroke="white" stroke-width="1.05665" stroke-linecap="round" stroke-linejoin="round"/>
<path d="M58.0964 101.651L32.2208 87.3121C31.1989 86.7447 29.9867 86.7352 28.9561 87.2865L2.85866 101.217C1.62397 101.879 0.838447 103.234 0.826772 104.722L0.603343 133.201C0.591639 134.693 1.3558 136.06 2.57999 136.737L28.4556 151.08C29.4774 151.647 30.6896 151.657 31.7203 151.105L57.8177 137.171C58.423 136.848 58.9335 136.349 59.2923 135.73C59.6512 135.111 59.8441 134.396 59.8496 133.666L60.073 105.187C60.0847 103.695 59.3205 102.332 58.0964 101.651Z" fill="#FFADDF" stroke="white" stroke-width="1.05665" stroke-linecap="round" stroke-linejoin="round"/>
<path d="M31.6454 118.731L8.07192 106.712" stroke="white" stroke-width="1.05665" stroke-linecap="round" stroke-linejoin="round"/>
<path d="M55.4141 105.886L31.7307 118.76M30.7715 146.335L31.7251 118.754" stroke="white" stroke-width="1.05665" stroke-linecap="round" stroke-linejoin="round"/>
<path d="M146.289 95.7502L93.4479 127.125" stroke="#74777C" stroke-width="1.05665" stroke-linecap="round"/>
<path d="M155.449 100.712L117.73 122.824" stroke="#74777C" stroke-width="1.05665" stroke-linecap="round"/>
<path d="M167 105.854L121.634 133.642" stroke="#74777C" stroke-width="1.05665" stroke-linecap="round"/>
<path d="M176.172 110.809L158.501 121.963" stroke="#74777C" stroke-width="1.05665" stroke-linecap="round"/>
<path d="M185.348 115.755L157.481 134.476" stroke="#74777C" stroke-width="1.05665" stroke-linecap="round"/>
<path d="M50.3578 92.9771C49.1561 93.0953 48.0861 92.2172 47.9679 91.0153C47.8497 89.8138 48.728 88.7436 49.9297 88.6254C51.1313 88.5072 52.2013 89.3859 52.3195 90.5872C52.4378 91.7891 51.5594 92.8588 50.3578 92.9771Z" fill="white" stroke="#74777C" stroke-width="1.05665" stroke-linecap="round" stroke-linejoin="round"/>
<path d="M168.836 29.9737C167.122 30.1423 165.596 28.89 165.427 27.1759C165.259 25.4624 166.511 23.9362 168.225 23.7676C169.939 23.599 171.465 24.8522 171.633 26.5654C171.802 28.2794 170.549 29.8051 168.836 29.9737Z" fill="white" stroke="#74777C" stroke-width="1.05665" stroke-linecap="round" stroke-linejoin="round"/>
</svg>
