<svg width="205" height="171" viewBox="0 0 205 171" fill="none" xmlns="http://www.w3.org/2000/svg">
<path d="M53.4702 38.4569C55.1171 38.2948 56.3209 36.8287 56.1588 35.1814C55.9968 33.5348 54.5304 32.3307 52.8834 32.4928C51.2365 32.6548 50.0328 34.1218 50.1947 35.7682C50.3568 37.4154 51.8232 38.6189 53.4702 38.4569Z" fill="#FCEC3B"/>
<path d="M10.5539 85.8951C12.7204 85.682 14.3039 83.7533 14.0907 81.5864C13.8776 79.4204 11.9486 77.8365 9.7821 78.0496C7.61564 78.2628 6.03223 80.1926 6.24529 82.3583C6.45846 84.5251 8.38746 86.1082 10.5539 85.8951Z" fill="#236F76"/>
<path d="M153.207 16.0726C156.013 15.7965 158.064 13.2985 157.788 10.4921C157.512 7.68663 155.013 5.63526 152.207 5.91131C149.401 6.18735 147.35 8.68677 147.626 11.4918C147.902 14.2982 150.401 16.3486 153.207 16.0726Z" fill="#FFADDF"/>
<path d="M116.78 73.1841C116.99 73.3244 117.374 73.3259 117.638 73.1875L119.782 72.0644L121.717 72.8399C121.98 72.9455 122.364 72.8964 122.575 72.7301L129.027 75.3163C128.817 75.4826 128.86 75.703 129.123 75.8087L133.753 77.6641C134.016 77.7698 134.4 77.7206 134.611 77.5544L141.063 80.1406C140.853 80.3069 140.896 80.5273 141.16 80.6329L145.789 82.4884C146.052 82.594 146.437 82.5449 146.647 82.3786L153.099 84.9649C152.889 85.1311 152.932 85.3516 153.196 85.4572L157.825 87.3127C158.088 87.4183 158.473 87.3692 158.683 87.2029L165.135 89.7892C164.925 89.9554 164.968 90.1758 165.232 90.2815L169.861 92.1369C170.125 92.2426 170.509 92.1934 170.719 92.0272L177.172 94.6134C176.961 94.7797 177.004 95.0001 177.268 95.1057L181.897 96.9612C182.161 97.0668 182.545 97.0177 182.755 96.8514L189.208 99.4377C188.997 99.6039 189.04 99.8244 189.304 99.93L193.933 101.785C194.197 101.891 194.581 101.842 194.791 101.676L201.244 104.262C201.033 104.428 201.077 104.649 201.34 104.754L203.149 105.479L201.607 106.575C201.382 106.735 201.403 106.958 201.654 107.073L196.153 110.981C195.902 110.866 195.516 110.903 195.291 111.063L191.343 113.867C191.118 114.027 191.139 114.25 191.39 114.365L185.888 118.273C185.637 118.158 185.251 118.195 185.026 118.355L181.078 121.159C180.853 121.319 180.874 121.542 181.125 121.657L175.624 125.565C175.373 125.45 174.987 125.487 174.762 125.647L170.814 128.451C170.589 128.611 170.61 128.834 170.861 128.949L165.36 132.857C165.108 132.742 164.722 132.779 164.497 132.939L160.549 135.743C160.324 135.903 160.345 136.126 160.596 136.241L155.095 140.149C154.844 140.034 154.458 140.071 154.233 140.231L150.285 143.035C150.06 143.195 150.081 143.418 150.332 143.533L144.831 147.442C144.58 147.327 144.194 147.363 143.969 147.523L140.021 150.328C139.796 150.487 139.817 150.71 140.068 150.825L134.566 154.734C134.315 154.619 133.929 154.655 133.704 154.815L129.756 157.62C129.531 157.78 129.552 158.002 129.803 158.117L124.302 162.026C124.051 161.911 123.665 161.947 123.44 162.107L119.492 164.912C119.267 165.072 119.288 165.295 119.539 165.41L114.038 169.318C113.787 169.203 113.4 169.239 113.175 169.399L111.609 170.512L109.734 169.653C109.483 169.538 109.097 169.575 108.872 169.735L102.328 166.737C102.553 166.577 102.532 166.354 102.281 166.239L97.6224 164.106C97.3714 163.991 96.9854 164.027 96.7602 164.187L90.2159 161.19C90.441 161.03 90.42 160.807 90.1689 160.692L85.5105 158.558C85.2594 158.443 84.8734 158.479 84.6483 158.639L78.1039 155.642C78.329 155.482 78.308 155.259 78.0569 155.144L73.3985 153.01C73.1474 152.895 72.7614 152.932 72.5363 153.092L65.9919 150.094C66.217 149.934 66.196 149.711 65.9449 149.596L61.2865 147.463C61.0354 147.348 60.6494 147.384 60.4243 147.544L53.8799 144.547C54.105 144.387 54.084 144.164 53.8329 144.049L49.1745 141.915C48.9234 141.8 48.5374 141.837 48.3123 141.997L41.7679 138.999C41.993 138.839 41.972 138.616 41.7209 138.501L37.0625 136.368C36.8114 136.253 36.4254 136.289 36.2003 136.449L29.6559 133.451C29.881 133.291 29.86 133.069 29.6089 132.954L24.9505 130.82C24.6994 130.705 24.3134 130.741 24.0883 130.901L17.5439 127.904C17.7691 127.744 17.748 127.521 17.497 127.406L15.7063 126.586L17.6644 125.56C17.9285 125.422 17.9726 125.196 17.7629 125.056L24.8852 121.325C25.0949 121.465 25.479 121.466 25.7431 121.328L30.7922 118.683C31.0563 118.545 31.1004 118.319 30.8907 118.178L38.0131 114.447C38.2227 114.588 38.6068 114.589 38.8709 114.451L43.9201 111.806C44.1841 111.667 44.2282 111.442 44.0186 111.301L51.1409 107.57C51.3506 107.71 51.7346 107.712 51.9987 107.574L57.0479 104.928C57.312 104.79 57.3561 104.564 57.1464 104.424L64.2687 100.693C64.4784 100.833 64.8625 100.835 65.1266 100.696L70.1757 98.0513C70.4398 97.9129 70.4839 97.6871 70.2742 97.5469L77.3966 93.8157C77.6063 93.956 77.9903 93.9575 78.2544 93.8191L83.3036 91.1741C83.5677 91.0357 83.6118 90.8099 83.4021 90.6697L90.5244 86.9385C90.7341 87.0788 91.1182 87.0803 91.3823 86.9419L96.4314 84.2969C96.6955 84.1585 96.7396 83.9327 96.5299 83.7925L103.652 80.0613C103.862 80.2016 104.246 80.2031 104.51 80.0647L109.559 77.4197C109.823 77.2813 109.867 77.0555 109.658 76.9153L116.78 73.1841Z" fill="#F7F8F8" stroke="#74777C" stroke-linecap="round" stroke-linejoin="round" stroke-dasharray="5 8"/>
<path d="M143.935 19.5466L111.901 1.49668C110.594 0.611638 109.028 0.579465 107.686 1.41003L72.6044 18.0806C70.9957 19.0773 69.9522 21.144 69.9053 23.4258L69.0078 67.0935C68.9608 69.381 69.9184 71.4889 71.485 72.5452L104.597 94.9144C105.904 95.7994 107.47 95.8316 108.813 95.001L142.815 74.0113C143.604 73.5245 144.274 72.7669 144.751 71.8229C145.227 70.879 145.492 69.786 145.515 68.666L146.412 24.9983C146.459 22.7108 145.501 20.6086 143.935 19.5466Z" fill="#2B5C4F" stroke="#EBECEC" stroke-linecap="round" stroke-linejoin="round"/>
<path d="M107.766 42.6158L74.8755 23.744" stroke="white" stroke-width="0.714544" stroke-linecap="round" stroke-linejoin="round"/>
<path d="M107.766 88.9857L107.766 42.7955L107.766 88.9857Z" fill="#2B5C4F"/>
<path d="M141.195 24.2832L108.401 41.7381C108.01 41.9461 107.766 42.3528 107.766 42.7955L107.766 88.9857" stroke="white" stroke-width="0.714544" stroke-linecap="round" stroke-linejoin="round"/>
<path d="M98.5605 60.758L67.4767 43.1934C66.2492 42.4983 64.7863 42.4746 63.537 43.1297L31.9015 59.6799C30.4047 60.466 29.4431 62.0937 29.4141 63.8894L28.8582 98.2563C28.8291 100.057 29.7376 101.714 31.2082 102.544L62.2919 120.113C63.5194 120.808 64.9823 120.832 66.2316 120.177L97.8672 103.622C98.6009 103.238 99.2221 102.641 99.6613 101.898C100.101 101.154 100.341 100.294 100.355 99.4126L100.91 65.0457C100.94 63.2455 100.031 61.5921 98.5605 60.758Z" fill="#9BDCE1" stroke="#F7F8F8" stroke-linecap="round" stroke-linejoin="round"/>
<path d="M66.4673 81.1051L38.1385 66.3633" stroke="#F7F8F8" stroke-linecap="round" stroke-linejoin="round"/>
<path d="M65.135 114.409L66.5631 81.1332L65.135 114.409Z" fill="#9BDCE1"/>
<path d="M95.2812 65.8418L66.5697 81.1407M65.135 114.409L66.5631 81.1332" stroke="#F7F8F8" stroke-linecap="round" stroke-linejoin="round"/>
<path d="M55.5449 95.5844L31.0566 82.0144C30.0895 81.4774 28.9423 81.4684 27.9669 81.9902L3.26864 95.1743C2.10015 95.8005 1.35673 97.083 1.34568 98.4913L1.13423 125.443C1.12316 126.855 1.84636 128.149 3.0049 128.79L27.4933 142.363C28.4603 142.9 29.6075 142.909 30.5829 142.387L55.2812 129.2C55.854 128.894 56.3372 128.422 56.6768 127.836C57.0163 127.25 57.1989 126.574 57.2041 125.883L57.4156 98.9312C57.4267 97.5194 56.7035 96.2288 55.5449 95.5844Z" fill="#FFADDF" stroke="#F7F8F8" stroke-linecap="round" stroke-linejoin="round"/>
<path d="M30.5122 111.749L8.20255 100.374" stroke="#F7F8F8" stroke-linecap="round" stroke-linejoin="round"/>
<path d="M53.0068 99.5918L30.5932 111.776M29.6854 137.872L30.5879 111.77" stroke="#F7F8F8" stroke-linecap="round" stroke-linejoin="round"/>
<path d="M139.008 90L89.0001 119.693" stroke="#74777C" stroke-linecap="round"/>
<path d="M147.679 94.6963L111.982 115.623" stroke="#74777C" stroke-linecap="round"/>
<path d="M158.611 99.5625L115.677 125.86" stroke="#74777C" stroke-linecap="round"/>
<path d="M167.291 104.252L150.567 114.808" stroke="#74777C" stroke-linecap="round"/>
<path d="M175.975 108.933L149.602 126.65" stroke="#74777C" stroke-linecap="round"/>
<path d="M48.2234 87.3756C47.0862 87.4875 46.0736 86.6564 45.9617 85.519C45.8498 84.382 46.681 83.3691 47.8183 83.2573C48.9555 83.1454 49.9682 83.977 50.08 85.1138C50.1919 86.2513 49.3607 87.2637 48.2234 87.3756Z" fill="#F7F8F8" stroke="#74777C" stroke-linecap="round" stroke-linejoin="round"/>
<path d="M160.346 27.7502C158.724 27.9098 157.28 26.7246 157.121 25.1024C156.961 23.4808 158.146 22.0364 159.768 21.8768C161.39 21.7172 162.834 22.9033 162.994 24.5246C163.154 26.1468 161.968 27.5907 160.346 27.7502Z" fill="#F7F8F8" stroke="#74777C" stroke-linecap="round" stroke-linejoin="round"/>
</svg>
