<svg width="216" height="249" viewBox="0 0 216 249" fill="none" xmlns="http://www.w3.org/2000/svg">
<circle cx="140.743" cy="3.02454" r="3.02472" fill="#FEE176"/>
<path d="M4.02472 140.347C5.69523 140.347 7.04944 138.993 7.04944 137.322C7.04944 135.652 5.69523 134.297 4.02472 134.297C2.35421 134.297 1 135.652 1 137.322C1 138.993 2.35421 140.347 4.02472 140.347Z" fill="white" stroke="#74777C" stroke-width="1.20989" stroke-linecap="round" stroke-linejoin="round"/>
<circle cx="136.506" cy="176.644" r="2.41978" fill="#FCEC3B"/>
<circle cx="206.076" cy="39.3212" r="6.65439" fill="#9BDCE1"/>
<path d="M151.062 130.528L92.6837 96.5813" stroke="#74777C" stroke-width="1.20989" stroke-linecap="round"/>
<path d="M92.7217 137.174L64.3145 118.898L92.7227 96.5924" stroke="#74777C" stroke-width="1.20989" stroke-linecap="round" stroke-linejoin="round"/>
<path d="M92.7232 137.169L92.7199 241.334" stroke="#74777C" stroke-width="1.20989" stroke-linecap="round"/>
<path d="M151.401 49.7271L92.561 96.6737" stroke="#74777C" stroke-width="1.20989" stroke-linecap="round" stroke-linejoin="round" stroke-dasharray="6.05 6.05"/>
<path d="M164.251 59.8727C150.056 59.8727 138.549 48.3681 138.549 34.1709C138.549 19.9785 150.056 8.46899 164.251 8.46899C178.446 8.46899 189.953 19.981 189.953 34.1709C189.953 48.3681 178.446 59.8727 164.251 59.8727Z" fill="#2B5C4F"/>
<path d="M94.5091 164.079C93.7112 163.619 92.7281 163.619 91.9301 164.079L57.6057 183.896C56.8078 184.357 56.3162 185.209 56.3162 186.13V225.764C56.3162 226.686 56.8078 227.537 57.6057 227.998L91.9301 247.815C92.7281 248.276 93.7112 248.276 94.5091 247.815L128.834 227.998C129.631 227.537 130.123 226.686 130.123 225.764V186.13C130.123 185.209 129.631 184.357 128.834 183.896L94.5091 164.079Z" fill="#FCEC3B"/>
<path d="M93.5615 240.674L93.5615 205.951M93.5615 205.951L66.3867 188.589M93.5615 205.951L123.207 188.589" stroke="white" stroke-width="1.81499" stroke-linecap="round" stroke-linejoin="round"/>
<path d="M65.5044 119.681L24.2461 92.626V151.47" stroke="#74777C" stroke-width="1.20989" stroke-linejoin="round"/>
<path d="M23.45 140.233C23.7308 140.071 24.0766 140.071 24.3574 140.233L40.1425 149.347C40.4232 149.509 40.5962 149.808 40.5962 150.132V168.359C40.5962 168.684 40.4232 168.983 40.1425 169.145L24.3574 178.259C24.0767 178.421 23.7308 178.421 23.45 178.259L7.66491 169.145C7.38418 168.983 7.21124 168.684 7.21124 168.359V150.132C7.21124 149.808 7.38418 149.509 7.66491 149.347L23.45 140.233Z" fill="#F4F6F6" stroke="#74777C" stroke-width="1.20989" stroke-linecap="round" stroke-linejoin="round"/>
<path d="M23.7511 174.954L23.7511 159.248M23.7511 159.248L36.043 151.395M23.7511 159.248L10.3417 151.395" stroke="#74777C" stroke-width="1.20989" stroke-linecap="round" stroke-linejoin="round"/>
<path d="M154.118 113.991C154.399 113.829 154.745 113.829 155.025 113.991L170.81 123.105C171.091 123.267 171.264 123.566 171.264 123.891V142.118C171.264 142.442 171.091 142.741 170.81 142.903L155.025 152.017C154.745 152.179 154.399 152.179 154.118 152.017L138.333 142.903C138.052 142.741 137.879 142.442 137.879 142.118V123.891C137.879 123.566 138.052 123.267 138.333 123.105L154.118 113.991Z" fill="#F4F6F6" stroke="#74777C" stroke-width="1.20989" stroke-linecap="round" stroke-linejoin="round"/>
<path d="M154.419 148.713L154.419 133.006M154.419 133.006L166.711 125.153M154.419 133.006L141.01 125.153" stroke="#74777C" stroke-width="1.20989" stroke-linecap="round" stroke-linejoin="round"/>
<path d="M212.126 24.1976C213.797 24.1976 215.151 22.8437 215.151 21.1729C215.151 19.5026 213.797 18.1481 212.126 18.1481C210.456 18.1481 209.102 19.5029 209.102 21.1729C209.102 22.8437 210.456 24.1976 212.126 24.1976Z" fill="white" stroke="#74777C" stroke-width="1.20989" stroke-linecap="round" stroke-linejoin="round"/>
<path d="M140.743 188.742C142.414 188.742 143.768 187.389 143.768 185.718C143.768 184.047 142.414 182.693 140.743 182.693C139.073 182.693 137.719 184.048 137.719 185.718C137.719 187.389 139.073 188.742 140.743 188.742Z" fill="white" stroke="#74777C" stroke-width="1.20989" stroke-linecap="round" stroke-linejoin="round"/>
</svg>
