<svg width="179" height="206" viewBox="0 0 179 206" fill="none" xmlns="http://www.w3.org/2000/svg">
<circle cx="116.5" cy="2.5" r="2.5" fill="#FEE176"/>
<path d="M3.5 116C4.88071 116 6 114.881 6 113.5C6 112.12 4.88071 111 3.5 111C2.11929 111 1 112.12 1 113.5C1 114.881 2.11929 116 3.5 116Z" fill="white" stroke="#74777C" stroke-linecap="round" stroke-linejoin="round"/>
<circle cx="113" cy="146" r="2" fill="#FFADDF"/>
<circle cx="170.5" cy="32.5" r="5.5" fill="#9BDCE1"/>
<path d="M125.029 107.885L76.7782 79.8268" stroke="#74777C" stroke-linecap="round"/>
<path d="M76.8093 113.377L53.3301 98.2718L76.8101 79.8359" stroke="#74777C" stroke-linecap="round" stroke-linejoin="round"/>
<path d="M76.812 113.374L76.8093 199.468" stroke="#74777C" stroke-linecap="round"/>
<path d="M125.31 41.1008L76.6771 79.9032" stroke="#74777C" stroke-linecap="round" stroke-linejoin="round" stroke-dasharray="5 5"/>
<path d="M135.931 49.4863C124.199 49.4863 114.688 39.9775 114.688 28.2432C114.688 16.5129 124.199 7 135.931 7C147.663 7 157.174 16.5149 157.174 28.2432C157.174 39.9775 147.663 49.4863 135.931 49.4863Z" fill="#2B5C4F"/>
<path d="M78.2861 135.615C77.6266 135.235 76.814 135.235 76.1545 135.615L47.7846 151.995C47.1251 152.375 46.7188 153.079 46.7188 153.841V186.599C46.7188 187.361 47.1251 188.065 47.7846 188.446L76.1545 204.825C76.814 205.206 77.6266 205.206 78.2861 204.825L106.656 188.446C107.316 188.065 107.722 187.361 107.722 186.599V153.841C107.722 153.079 107.316 152.375 106.656 151.995L78.2861 135.615Z" fill="#FFADDF"/>
<path d="M77.502 198.923L77.502 170.223M77.502 170.223L55.0415 155.874M77.502 170.223L102.004 155.874" stroke="white" stroke-width="1.50013" stroke-linecap="round" stroke-linejoin="round"/>
<path d="M54.3128 98.9188L20.2119 76.5576V125.193" stroke="#74777C" stroke-linejoin="round"/>
<path d="M19.5561 115.906C19.7881 115.772 20.074 115.772 20.306 115.906L33.3528 123.438C33.5848 123.572 33.7278 123.82 33.7278 124.088V139.153C33.7278 139.421 33.5848 139.669 33.3528 139.803L20.306 147.335C20.074 147.469 19.7881 147.469 19.5561 147.335L6.50933 139.803C6.27729 139.669 6.13436 139.421 6.13436 139.153V124.088C6.13436 123.82 6.27729 123.572 6.50933 123.438L19.5561 115.906Z" fill="#F4F6F6" stroke="#74777C" stroke-linecap="round" stroke-linejoin="round"/>
<path d="M19.8038 144.604L19.8038 131.623M19.8038 131.623L29.9634 125.132M19.8038 131.623L8.72071 125.132" stroke="#74777C" stroke-linecap="round" stroke-linejoin="round"/>
<path d="M127.556 94.2165C127.788 94.0825 128.074 94.0825 128.306 94.2165L141.353 101.749C141.585 101.883 141.728 102.131 141.728 102.399V117.464C141.728 117.732 141.585 117.979 141.353 118.113L128.306 125.646C128.074 125.78 127.788 125.78 127.556 125.646L114.509 118.113C114.277 117.979 114.134 117.732 114.134 117.464V102.399C114.134 102.131 114.277 101.883 114.509 101.749L127.556 94.2165Z" fill="#F4F6F6" stroke="#74777C" stroke-linecap="round" stroke-linejoin="round"/>
<path d="M127.804 122.914L127.804 109.932M127.804 109.932L137.963 103.442M127.804 109.932L116.721 103.442" stroke="#74777C" stroke-linecap="round" stroke-linejoin="round"/>
<path d="M175.5 20C176.881 20 178 18.881 178 17.5C178 16.1195 176.881 15 175.5 15C174.119 15 173 16.1198 173 17.5C173 18.881 174.119 20 175.5 20Z" fill="white" stroke="#74777C" stroke-linecap="round" stroke-linejoin="round"/>
<path d="M116.5 156C117.881 156 119 154.881 119 153.5C119 152.12 117.881 151 116.5 151C115.119 151 114 152.12 114 153.5C114 154.881 115.119 156 116.5 156Z" fill="white" stroke="#74777C" stroke-linecap="round" stroke-linejoin="round"/>
</svg>
