<svg width="264" height="142" viewBox="0 0 264 142" fill="none" xmlns="http://www.w3.org/2000/svg">
<path d="M18.3486 54.8691V98.342L119.916 134.839" stroke="#616161" stroke-linecap="round" stroke-linejoin="round"/>
<path d="M244.832 45.5303V89.3092L140.93 135.423" stroke="#616161" stroke-linecap="round" stroke-linejoin="round"/>
<ellipse cx="19.5" cy="56" rx="19.5" ry="19" fill="#2B5C4F"/>
<path d="M228.303 63.1641L244.202 59.0469C244.513 58.9666 244.855 58.9248 245.201 58.9248C245.547 58.9248 245.889 58.9666 246.2 59.0469L262.1 63.1641C262.853 63.3587 263.327 63.7548 263.327 64.1885V67.4676C263.327 67.9004 262.853 68.2973 262.1 68.4919L246.203 72.6083C245.892 72.6887 245.55 72.7305 245.204 72.7305C244.858 72.7305 244.516 72.6887 244.205 72.6083L228.303 68.4919C227.938 68.399 227.629 68.2537 227.412 68.0726C227.195 67.8915 227.079 67.6819 227.077 67.4676V64.1885C227.077 63.7548 227.551 63.3587 228.303 63.1641Z" fill="white" stroke="#616161" stroke-linecap="round" stroke-linejoin="round"/>
<path d="M229.022 64.5557L245.434 68.4591L261.235 64.5557M245.434 71.5661V68.4614V71.5661Z" fill="white"/>
<path d="M229.022 64.5557L245.434 68.4591L261.235 64.5557M245.434 71.5661V68.4614" stroke="#D4DCDC" stroke-linecap="round" stroke-linejoin="round"/>
<path d="M228.303 55.8565L244.202 51.7393C244.513 51.6589 244.855 51.6172 245.201 51.6172C245.547 51.6172 245.889 51.6589 246.2 51.7393L262.1 55.8565C262.853 56.0511 263.327 56.4472 263.327 56.8809V60.1599C263.327 60.5928 262.853 60.9897 262.1 61.1843L246.203 65.3007C245.892 65.3811 245.55 65.4228 245.204 65.4228C244.858 65.4228 244.516 65.3811 244.205 65.3007L228.303 61.1843C227.938 61.0914 227.629 60.9461 227.412 60.765C227.195 60.5839 227.079 60.3742 227.077 60.1599V56.8809C227.077 56.4472 227.551 56.0511 228.303 55.8565Z" fill="#FFADDF"/>
<path d="M229.022 57.2471L245.434 61.1505L261.235 57.2471M245.434 64.2575V61.1528" stroke="#EBECEC" stroke-linecap="round" stroke-linejoin="round"/>
<path d="M228.303 48.5489L244.202 44.4317C244.513 44.3513 244.855 44.3096 245.201 44.3096C245.547 44.3096 245.889 44.3513 246.2 44.4317L262.1 48.5489C262.853 48.7435 263.327 49.1396 263.327 49.5732V52.8523C263.327 53.2852 262.853 53.682 262.1 53.8766L246.203 57.9931C245.892 58.0735 245.55 58.1152 245.204 58.1152C244.858 58.1152 244.516 58.0735 244.205 57.9931L228.303 53.8766C227.938 53.7838 227.629 53.6385 227.412 53.4574C227.195 53.2763 227.079 53.0666 227.077 52.8523V49.5732C227.077 49.1396 227.551 48.7435 228.303 48.5489Z" fill="white" stroke="#616161" stroke-linecap="round" stroke-linejoin="round"/>
<path d="M229.021 49.9404L245.434 53.8438L261.235 49.9404M245.434 56.9508V53.8461V56.9508Z" fill="white"/>
<path d="M229.021 49.9404L245.434 53.8438L261.235 49.9404M245.434 56.9508V53.8461" stroke="#D4DCDC" stroke-linecap="round" stroke-linejoin="round"/>
<path d="M228.303 41.2393L244.202 37.1221C244.513 37.0418 244.855 37 245.201 37C245.547 37 245.889 37.0418 246.2 37.1221L262.1 41.2393C262.853 41.4339 263.327 41.83 263.327 42.2637V45.5427C263.327 45.9756 262.853 46.3725 262.1 46.5671L246.203 50.6835C245.892 50.7639 245.55 50.8056 245.204 50.8056C244.858 50.8056 244.516 50.7639 244.205 50.6835L228.303 46.5671C227.938 46.4742 227.629 46.3289 227.412 46.1478C227.195 45.9667 227.079 45.7571 227.077 45.5427V42.2637C227.077 41.83 227.551 41.4339 228.303 41.2393Z" fill="white" stroke="#616161" stroke-linecap="round" stroke-linejoin="round"/>
<path d="M229.021 42.6309L245.434 46.5343L261.235 42.6309M245.434 49.6413V46.5366V49.6413Z" fill="white"/>
<path d="M229.021 42.6309L245.434 46.5343L261.235 42.6309M245.434 49.6413V46.5366" stroke="#D4DCDC" stroke-linecap="round" stroke-linejoin="round"/>
<ellipse cx="6.9419" cy="25.357" rx="6.9419" ry="25.357" transform="matrix(-0.0460422 -0.998939 -0.998939 0.0460422 157.118 138.785)" fill="#CFD6D6"/>
<path d="M58.9563 86.3701L124.726 3.68875C126.263 1.75657 129.166 1.6644 130.822 3.49519L202.178 82.3619C203.974 84.3473 203.351 87.5026 200.934 88.6556L131.482 121.797C130.439 122.295 129.23 122.317 128.169 121.857L60.4962 92.5304C58.0811 91.4837 57.3177 88.43 58.9563 86.3701Z" fill="#9BDCE1"/>
<path d="M127.504 16.3447L129.715 111.015" stroke="#F7F8F8" stroke-linecap="round"/>
<path d="M88.363 43.4416C74.1733 47.6986 53.7013 56.5071 60.5848 63.9733C69.1892 73.3061 194.632 55.6481 194.632 36.466C194.632 27.6246 175.008 28.7706 165.196 30.0805" stroke="#616161" stroke-linejoin="round" stroke-dasharray="5 5"/>
<path d="M192.297 23.3484C194.232 23.3484 195.8 21.7807 195.8 19.8461C195.8 17.9121 194.232 16.3438 192.297 16.3438C190.363 16.3438 188.795 17.9125 188.795 19.8461C188.795 21.7807 190.363 23.3484 192.297 23.3484Z" fill="#FFADDF"/>
<path d="M149.102 52.535C150.391 52.535 151.437 51.4899 151.437 50.2001C151.437 48.9108 150.391 47.8652 149.102 47.8652C147.812 47.8652 146.767 48.911 146.767 50.2001C146.767 51.4899 147.812 52.535 149.102 52.535Z" fill="#FCEC3B"/>
<path d="M59.7927 45.5297C60.7598 45.5297 61.5438 44.7458 61.5438 43.7785C61.5438 42.8115 60.7598 42.0273 59.7927 42.0273C58.8255 42.0273 58.0415 42.8117 58.0415 43.7785C58.0415 44.7458 58.8255 45.5297 59.7927 45.5297Z" fill="white" stroke="#74777C" stroke-linecap="round" stroke-linejoin="round"/>
<path d="M107.658 74.7162C108.625 74.7162 109.409 73.9323 109.409 72.965C109.409 71.9981 108.625 71.2139 107.658 71.2139C106.691 71.2139 105.907 71.9982 105.907 72.965C105.907 73.9323 106.691 74.7162 107.658 74.7162Z" fill="white" stroke="#74777C" stroke-linecap="round" stroke-linejoin="round"/>
<path d="M172.451 16.3446C173.74 16.3446 174.785 15.2994 174.785 14.0097C174.785 12.7204 173.74 11.6748 172.451 11.6748C171.161 11.6748 170.116 12.7206 170.116 14.0097C170.116 15.2994 171.161 16.3446 172.451 16.3446Z" fill="white" stroke="#74777C" stroke-linecap="round" stroke-linejoin="round"/>
</svg>
