<svg width="229" height="123" viewBox="0 0 229 123" fill="none" xmlns="http://www.w3.org/2000/svg">
<path d="M15.8867 47.5085V85.1492L103.828 116.75" stroke="#616161" stroke-width="0.865844" stroke-linecap="round" stroke-linejoin="round"/>
<path d="M211.988 39.4221V77.3279L122.025 117.255" stroke="#616161" stroke-width="0.865844" stroke-linecap="round" stroke-linejoin="round"/>
<ellipse cx="16.884" cy="48.4872" rx="16.884" ry="16.451" fill="#2B5C4F"/>
<path d="M197.675 54.6903L211.441 51.1254C211.711 51.0558 212.006 51.0197 212.306 51.0197C212.606 51.0197 212.902 51.0558 213.171 51.1254L226.938 54.6903C227.59 54.8588 228 55.2017 228 55.5772V58.4163C228 58.7911 227.59 59.1348 226.938 59.3032L213.174 62.8675C212.904 62.937 212.609 62.9732 212.309 62.9732C212.009 62.9732 211.713 62.937 211.444 62.8675L197.675 59.3032C197.359 59.2228 197.092 59.0971 196.904 58.9402C196.716 58.7834 196.615 58.6019 196.613 58.4163V55.5772C196.613 55.2017 197.024 54.8588 197.675 54.6903Z" fill="white" stroke="#616161" stroke-width="0.865844" stroke-linecap="round" stroke-linejoin="round"/>
<path d="M198.297 55.8953L212.508 59.275L226.189 55.8953M212.508 61.9652V59.277V61.9652Z" fill="white"/>
<path d="M198.297 55.8953L212.508 59.275L226.189 55.8953M212.508 61.9652V59.277" stroke="#D4DCDC" stroke-width="0.865844" stroke-linecap="round" stroke-linejoin="round"/>
<path d="M197.675 48.3626L211.441 44.7977C211.711 44.7282 212.006 44.692 212.306 44.692C212.606 44.692 212.902 44.7282 213.171 44.7977L226.938 48.3626C227.59 48.5311 228 48.8741 228 49.2495V52.0887C228 52.4635 227.59 52.8071 226.938 52.9756L213.174 56.5398C212.904 56.6094 212.609 56.6456 212.309 56.6456C212.009 56.6456 211.713 56.6094 211.444 56.5398L197.675 52.9756C197.359 52.8952 197.092 52.7694 196.904 52.6126C196.716 52.4558 196.615 52.2743 196.613 52.0887V49.2495C196.613 48.8741 197.024 48.5311 197.675 48.3626Z" fill="#FFADDF"/>
<path d="M198.297 49.5671L212.508 52.9469L226.189 49.5671M212.508 55.637V52.9489" stroke="#EBECEC" stroke-width="0.865844" stroke-linecap="round" stroke-linejoin="round"/>
<path d="M197.675 42.0354L211.441 38.4705C211.711 38.4009 212.006 38.3647 212.306 38.3647C212.606 38.3647 212.902 38.4009 213.171 38.4705L226.938 42.0354C227.59 42.2038 228 42.5468 228 42.9223V45.7614C228 46.1362 227.59 46.4798 226.938 46.6483L213.174 50.2126C212.904 50.2821 212.609 50.3183 212.309 50.3183C212.009 50.3183 211.713 50.2821 211.444 50.2126L197.675 46.6483C197.359 46.5679 197.092 46.4421 196.904 46.2853C196.716 46.1285 196.615 45.947 196.613 45.7614V42.9223C196.613 42.5468 197.024 42.2038 197.675 42.0354Z" fill="white" stroke="#616161" stroke-width="0.865844" stroke-linecap="round" stroke-linejoin="round"/>
<path d="M198.297 43.2401L212.508 46.6198L226.189 43.2401M212.508 49.31V46.6218V49.31Z" fill="white"/>
<path d="M198.297 43.2401L212.508 46.6198L226.189 43.2401M212.508 49.31V46.6218" stroke="#D4DCDC" stroke-width="0.865844" stroke-linecap="round" stroke-linejoin="round"/>
<path d="M197.675 35.7067L211.441 32.1419C211.711 32.0723 212.006 32.0361 212.306 32.0361C212.606 32.0361 212.902 32.0723 213.171 32.1419L226.938 35.7067C227.59 35.8752 228 36.2182 228 36.5936V39.4328C228 39.8076 227.59 40.1512 226.938 40.3197L213.174 43.8839C212.904 43.9535 212.609 43.9897 212.309 43.9897C212.009 43.9897 211.713 43.9535 211.444 43.8839L197.675 40.3197C197.359 40.2393 197.092 40.1135 196.904 39.9567C196.716 39.7999 196.615 39.6184 196.613 39.4328V36.5936C196.613 36.2182 197.024 35.8752 197.675 35.7067Z" fill="white" stroke="#616161" stroke-width="0.865844" stroke-linecap="round" stroke-linejoin="round"/>
<path d="M198.297 36.9116L212.508 40.2914L226.189 36.9116M212.508 42.9815V40.2933V42.9815Z" fill="white"/>
<path d="M198.297 36.9116L212.508 40.2914L226.189 36.9116M212.508 42.9815V40.2933" stroke="#D4DCDC" stroke-width="0.865844" stroke-linecap="round" stroke-linejoin="round"/>
<ellipse cx="6.0106" cy="21.9552" rx="6.0106" ry="21.9552" transform="matrix(-0.0460422 -0.998939 -0.998939 0.0460422 136.039 120.166)" fill="#CFD6D6"/>
<path d="M51.0478 74.783L107.994 3.19388C109.324 1.52092 111.838 1.44111 113.272 3.02628L175.055 71.3126C176.61 73.0316 176.071 75.7636 173.979 76.762L113.844 105.457C112.94 105.889 111.894 105.908 110.975 105.509L52.3811 80.1169C50.2899 79.2107 49.629 76.5666 51.0478 74.783Z" fill="#FCEC3B"/>
<path d="M110.398 14.1515L112.313 96.1212" stroke="#F7F8F8" stroke-width="0.865844" stroke-linecap="round"/>
<path d="M76.508 37.6132C64.2219 41.2991 46.4964 48.9258 52.4564 55.3904C59.9065 63.4712 168.521 48.1821 168.521 31.5734C168.521 23.9181 151.529 24.9104 143.034 26.0445" stroke="#616161" stroke-width="0.865844" stroke-linejoin="round" stroke-dasharray="4.33 4.33"/>
<path d="M166.501 20.2164C168.176 20.2164 169.534 18.859 169.534 17.1839C169.534 15.5095 168.176 14.1515 166.501 14.1515C164.826 14.1515 163.469 15.5097 163.469 17.1839C163.469 18.859 164.826 20.2164 166.501 20.2164Z" fill="#FFADDF"/>
<path d="M129.1 45.487C130.216 45.487 131.121 44.5821 131.121 43.4654C131.121 42.349 130.216 41.4437 129.1 41.4437C127.983 41.4437 127.078 42.3492 127.078 43.4654C127.078 44.5821 127.983 45.487 129.1 45.487Z" fill="#FCEC3B"/>
<path d="M51.7701 39.422C52.6075 39.422 53.2864 38.7433 53.2864 37.9058C53.2864 37.0685 52.6075 36.3895 51.7701 36.3895C50.9327 36.3895 50.2539 37.0687 50.2539 37.9058C50.2539 38.7433 50.9327 39.422 51.7701 39.422Z" fill="white" stroke="#74777C" stroke-width="0.865844" stroke-linecap="round" stroke-linejoin="round"/>
<path d="M93.2154 64.6925C94.0528 64.6925 94.7317 64.0138 94.7317 63.1763C94.7317 62.339 94.0528 61.66 93.2154 61.66C92.3781 61.66 91.6992 62.3392 91.6992 63.1763C91.6992 64.0138 92.3781 64.6925 93.2154 64.6925Z" fill="white" stroke="#74777C" stroke-width="0.865844" stroke-linecap="round" stroke-linejoin="round"/>
<path d="M149.315 14.1513C150.431 14.1513 151.336 13.2464 151.336 12.1297C151.336 11.0133 150.431 10.108 149.315 10.108C148.198 10.108 147.293 11.0135 147.293 12.1297C147.293 13.2464 148.198 14.1513 149.315 14.1513Z" fill="white" stroke="#74777C" stroke-width="0.865844" stroke-linecap="round" stroke-linejoin="round"/>
</svg>
