<svg width="272" height="166" viewBox="0 0 272 166" fill="none" xmlns="http://www.w3.org/2000/svg">
<path d="M111.795 73.0897V107.624L51.0664 139.637V105.944C51.0664 94.1542 52.8991 65.8062 80.3901 55.4082C107.881 45.0103 111.795 73.0897 111.795 73.0897Z" fill="white" stroke="#505967"/>
<path d="M133.049 76.1281V112.311L70.8017 144.323L70.8017 108.983C70.0426 94.0924 72.6802 68.8446 100.858 58.4467C129.037 48.0487 133.049 76.1281 133.049 76.1281Z" fill="white" stroke="#505967" stroke-linejoin="round"/>
<path d="M76.1157 57.0887C93.5752 48.6321 117.108 56.1349 117.108 56.1349C82.9477 57.0887 71.561 82.4585 70.802 98.5258L70.0428 144.191L50.306 139.963C50.306 134.889 49.5469 113.584 49.5469 100.899C49.5469 74.8476 65.2191 62.3666 76.1157 57.0887Z" fill="white" stroke="#505967" stroke-linejoin="round"/>
<path d="M66.6341 13.4515L88.4286 1.35895C89.2893 0.880351 90.3059 0.880351 91.1666 1.35895L112.961 13.4515C113.992 14.0258 114.642 15.1904 114.642 16.4635V40.8272C114.642 42.1035 113.992 43.268 112.961 43.8392L91.1666 55.9349C90.3059 56.4135 89.2893 56.4135 88.4286 55.9349L66.6341 43.8392C66.1286 43.5587 65.7037 43.1285 65.4069 42.5966C65.11 42.0647 64.9529 41.4521 64.9531 40.8272V16.4635C64.9531 15.1872 65.603 14.0258 66.6341 13.4515Z" fill="#FCEC3B" stroke="white" stroke-linecap="round" stroke-linejoin="round"/>
<path d="M90.1328 28.7431L111.202 17.9968" stroke="white" stroke-linecap="round" stroke-linejoin="round"/>
<path d="M90.7175 53.8158L90.0611 28.7633L90.7175 53.8158Z" fill="#FCEC3B"/>
<path d="M69.0625 16.9094L90.0561 28.7688M90.7175 53.8158L90.0611 28.7633" stroke="white" stroke-linecap="round" stroke-linejoin="round"/>
<path d="M173.68 101.966V130.001L222.98 155.99V128.637C222.98 119.066 221.493 96.0526 199.175 87.6114C176.858 79.1703 173.68 101.966 173.68 101.966Z" fill="white" stroke="#505967"/>
<path d="M156.427 104.432V133.805L206.96 159.794L206.96 131.104C207.577 119.015 205.435 98.5187 182.56 90.0775C159.684 81.6364 156.427 104.432 156.427 104.432Z" fill="#9BDCE1" stroke="white" stroke-linejoin="round"/>
<path d="M202.646 88.975C188.472 82.1098 169.368 88.2007 169.368 88.2007C197.1 88.975 206.343 109.571 206.96 122.614L207.576 159.686L223.599 156.254C223.599 152.135 224.215 134.839 224.215 124.541C224.215 103.392 211.492 93.2597 202.646 88.975Z" fill="#9BDCE1" stroke="white" stroke-linejoin="round"/>
<path d="M203.575 53.9292L186.415 44.4083C185.738 44.0315 184.937 44.0315 184.26 44.4083L167.1 53.9292C166.288 54.3814 165.777 55.2983 165.777 56.3006V75.483C165.777 76.4879 166.288 77.4048 167.1 77.8545L184.26 87.3779C184.937 87.7547 185.738 87.7547 186.415 87.3779L203.575 77.8545C203.973 77.6336 204.307 77.2949 204.541 76.8761C204.775 76.4574 204.899 75.975 204.898 75.483V56.3006C204.898 55.2958 204.387 54.3814 203.575 53.9292Z" fill="white"/>
<path d="M204.371 54.9115L187.042 44.4163C186.344 44.029 185.519 44.029 184.821 44.4163L167.141 54.2016C166.305 54.6664 165.778 55.6088 165.778 56.6389V74.8651C165.778 75.8978 166.305 76.8402 167.141 77.3024L185.339 87.8079" stroke="#505967" stroke-linecap="round" stroke-linejoin="round"/>
<path d="M185.867 65.6979L166.835 55.9908" stroke="#505967" stroke-linecap="round" stroke-linejoin="round"/>
<path d="M185.935 65.7226L203.48 55.8111C204.114 55.4531 204.898 55.911 204.898 56.6388L204.896 75.8587C204.896 76.5351 204.537 77.1605 203.952 77.501L186.811 87.489C186.168 87.8639 185.363 87.3871 185.382 86.6429L185.93 65.7176" stroke="#505967" stroke-linecap="round" stroke-linejoin="round"/>
<path d="M60.6598 40.5563C32.7696 47.0907 14.3712 58.9165 13.1495 73.7441C10.9731 100.159 64.1324 126.098 131.884 131.68C199.636 137.262 256.324 120.374 258.5 93.9594C259.846 77.6286 246.294 63.9707 217.377 54.8988M122.813 36.0916C131.232 36.0789 139.939 36.4245 148.837 37.1577C161.223 38.1782 167.358 39.2334 178.519 41.4931" stroke="#8E9292" stroke-linecap="round" stroke-linejoin="round"/>
<path d="M253.905 101.4C258.149 100.974 261.252 97.1199 260.834 92.7894C260.417 88.4604 256.637 85.295 252.393 85.721C248.148 86.1469 245.046 90.0037 245.463 94.332C245.881 98.6625 249.66 101.826 253.905 101.4Z" fill="white" stroke="#74777C" stroke-linecap="round" stroke-linejoin="round"/>
<path d="M14.4334 78.1816C17.9539 77.8283 20.5272 74.6313 20.1808 71.0395C19.8345 67.449 16.6997 64.8235 13.1792 65.1768C9.65863 65.5301 7.08557 68.729 7.4318 72.3189C7.77821 75.9107 10.9129 78.5349 14.4334 78.1816Z" fill="#FCEC3B"/>
<path d="M241.219 120.139C244.739 119.786 247.312 116.589 246.966 112.997C246.62 109.407 243.485 106.781 239.964 107.134C236.444 107.488 233.871 110.687 234.217 114.277C234.563 117.868 237.698 120.493 241.219 120.139Z" fill="#2B5C4F"/>
<path d="M31.6087 54.1082C33.3066 53.9378 34.5476 52.396 34.3805 50.6638C34.2135 48.9322 32.7017 47.666 31.0039 47.8364C29.306 48.0068 28.0651 49.5495 28.2321 51.2808C28.3992 53.013 29.9109 54.2785 31.6087 54.1082Z" fill="white" stroke="#74777C" stroke-linecap="round" stroke-linejoin="round"/>
</svg>
