<svg width="240" height="147" viewBox="0 0 240 147" fill="none" xmlns="http://www.w3.org/2000/svg">
<path d="M98.5825 64.5715V95.0257L45.0293 123.256V93.5442C45.0293 83.1471 46.6454 58.1486 70.8881 48.9793C95.1309 39.8099 98.5825 64.5715 98.5825 64.5715Z" fill="white" stroke="#505967"/>
<path d="M117.328 67.2512V99.1588L62.4356 127.389L62.4356 96.2239C61.7662 83.0928 64.0922 60.8282 88.941 51.6589C113.79 42.4896 117.328 67.2512 117.328 67.2512Z" fill="white" stroke="#505967" stroke-linejoin="round"/>
<path d="M67.121 50.4615C82.5175 43.0041 103.269 49.6204 103.269 49.6204C73.1457 50.4615 63.1044 72.8337 62.435 87.0025L61.7656 127.272L44.3608 123.544C44.3608 119.069 43.6914 100.281 43.6914 89.0952C43.6914 66.122 57.5118 55.1158 67.121 50.4615Z" fill="white" stroke="#505967" stroke-linejoin="round"/>
<path d="M60.5062 11.9802L80.1112 1.31654C80.8854 0.894488 81.8 0.894488 82.5742 1.31654L102.179 11.9802C103.107 12.4867 103.691 13.5137 103.691 14.6363V36.1213C103.691 37.2468 103.107 38.2738 102.179 38.7774L82.5742 49.4439C81.8 49.866 80.8854 49.866 80.1112 49.4439L60.5062 38.7774C60.0515 38.5301 59.6693 38.1507 59.4023 37.6816C59.1353 37.2126 58.994 36.6724 58.9941 36.1213V14.6363C58.9941 13.5109 59.5787 12.4867 60.5062 11.9802Z" fill="#FFADDF" stroke="#F7F8F8" stroke-linecap="round" stroke-linejoin="round"/>
<path d="M81.6445 25.4648L100.598 15.9883" stroke="#F7F8F8" stroke-linecap="round" stroke-linejoin="round"/>
<path d="M62.6914 15.0303L81.576 25.4884M82.1709 47.5759L81.5805 25.4836" stroke="#F7F8F8" stroke-linecap="round" stroke-linejoin="round"/>
<path d="M153.161 90.0352V114.758L196.637 137.676V113.556C196.637 105.115 195.325 84.821 175.644 77.3772C155.964 69.9334 153.161 90.0352 153.161 90.0352Z" fill="white" stroke="#505967"/>
<path d="M137.944 92.21V118.113L182.506 141.031L182.506 115.731C183.049 105.07 181.161 86.9958 160.988 79.552C140.816 72.1082 137.944 92.21 137.944 92.21Z" fill="#9BDCE1" stroke="#F7F8F8" stroke-linejoin="round"/>
<path d="M178.702 78.5801C166.203 72.526 149.356 77.8972 149.356 77.8972C173.811 78.5801 181.963 96.7421 182.506 108.245L183.05 140.936L197.179 137.909C197.179 134.277 197.723 119.025 197.723 109.943C197.723 91.2935 186.503 82.3585 178.702 78.5801Z" fill="#9BDCE1" stroke="#F7F8F8" stroke-linejoin="round"/>
<path d="M183.692 47.6754L168.257 39.2795C167.647 38.9472 166.927 38.9472 166.317 39.2795L150.882 47.6754C150.152 48.0741 149.691 48.8827 149.691 49.7666V66.6825C149.691 67.5686 150.152 68.3772 150.882 68.7737L166.317 77.1718C166.927 77.5041 167.647 77.5041 168.257 77.1718L183.692 68.7737C184.05 68.579 184.351 68.2803 184.561 67.911C184.772 67.5417 184.883 67.1163 184.883 66.6825V49.7666C184.883 48.8805 184.423 48.0741 183.692 47.6754Z" fill="white"/>
<path d="M184.406 48.5416L168.818 39.2864C168.19 38.9449 167.448 38.9449 166.82 39.2864L150.916 47.9155C150.164 48.3254 149.69 49.1564 149.69 50.0649V66.1374C149.69 67.0482 150.164 67.8792 150.916 68.2867L167.286 77.551" stroke="#505967" stroke-linecap="round" stroke-linejoin="round"/>
<path d="M167.762 58.0533L150.641 49.4932" stroke="#505967" stroke-linecap="round" stroke-linejoin="round"/>
<path d="M167.824 58.0748L183.638 49.3171C184.197 49.0077 184.883 49.4118 184.883 50.0505L184.881 67.0037C184.881 67.6053 184.558 68.1607 184.036 68.4591L168.58 77.2877C168.013 77.6118 167.309 77.1907 167.327 76.5374L167.82 58.0704" stroke="#505967" stroke-linecap="round" stroke-linejoin="round"/>
<path d="M53.4924 35.8824C28.8976 41.6447 12.6731 52.0732 11.5958 65.1489C9.67651 88.4425 56.5546 111.316 116.301 116.239C176.047 121.162 226.037 106.269 227.956 82.9756C229.143 68.5743 217.192 56.5303 191.692 48.5303M108.302 31.9453C115.726 31.9341 123.404 32.2388 131.251 32.8854C142.173 33.7853 147.583 34.7159 157.426 36.7085" stroke="#8E9292" stroke-width="0.928788" stroke-linecap="round" stroke-linejoin="round"/>
<path d="M228.965 89.5373C232.783 89.1616 235.574 85.7626 235.198 81.9437C234.823 78.1262 231.423 75.3349 227.605 75.7105C223.787 76.0861 220.996 79.4872 221.372 83.304C221.747 87.1228 225.147 89.9129 228.965 89.5373Z" fill="white" stroke="#74777C" stroke-linecap="round" stroke-linejoin="round"/>
<path d="M13.5537 69.0623C16.7206 68.7507 19.0353 65.9315 18.7237 62.7641C18.4122 59.5978 15.5923 57.2825 12.4255 57.5941C9.25864 57.9056 6.94408 60.7265 7.25552 63.8923C7.56713 67.0597 10.3869 69.3738 13.5537 69.0623Z" fill="#FCEC3B"/>
<path d="M217.554 106.062C220.721 105.751 223.035 102.931 222.724 99.7641C222.412 96.5978 219.592 94.2825 216.425 94.5941C213.259 94.9056 210.944 97.7265 211.256 100.892C211.567 104.06 214.387 106.374 217.554 106.062Z" fill="#2B5C4F"/>
<path d="M29.0009 47.8329C30.5281 47.6826 31.6444 46.323 31.4942 44.7955C31.3439 43.2685 29.984 42.1519 28.4568 42.3022C26.9295 42.4524 25.8133 43.8128 25.9635 45.3396C26.1137 46.8671 27.4736 47.9831 29.0009 47.8329Z" fill="white" stroke="#74777C" stroke-linecap="round" stroke-linejoin="round"/>
</svg>
