<svg width="272" height="166" viewBox="0 0 272 166" fill="none" xmlns="http://www.w3.org/2000/svg">
<path d="M113.791 73.0896V107.624L53.0625 139.637V105.944C53.0625 94.1541 54.8952 65.8061 82.3862 55.4082C109.877 45.0103 113.791 73.0896 113.791 73.0896Z" fill="white" stroke="#505967"/>
<path d="M135.047 76.1282V112.311L72.7998 144.324L72.7998 108.983C72.0407 94.0924 74.6783 68.8446 102.857 58.4467C131.035 48.0488 135.047 76.1282 135.047 76.1282Z" fill="white" stroke="#505967" stroke-linejoin="round"/>
<path d="M78.1138 57.0887C95.5733 48.6321 119.106 56.1349 119.106 56.1349C84.9457 57.0887 73.5591 82.4585 72.8 98.5258L72.0409 144.191L52.304 139.963C52.304 134.889 51.5449 113.584 51.5449 100.899C51.5449 74.8476 67.2171 62.3666 78.1138 57.0887Z" fill="white" stroke="#505967" stroke-linejoin="round"/>
<path d="M68.6302 13.4515L90.4247 1.35895C91.2854 0.880351 92.302 0.880351 93.1627 1.35895L114.957 13.4515C115.988 14.0258 116.638 15.1904 116.638 16.4635V40.8272C116.638 42.1035 115.988 43.268 114.957 43.8392L93.1627 55.9349C92.302 56.4135 91.2854 56.4135 90.4247 55.9349L68.6302 43.8392C68.1247 43.5587 67.6998 43.1285 67.403 42.5966C67.1061 42.0647 66.949 41.4521 66.9492 40.8272V16.4635C66.9492 15.1872 67.5991 14.0258 68.6302 13.4515Z" fill="#FCEC3B" stroke="white" stroke-linecap="round" stroke-linejoin="round"/>
<path d="M92.1309 28.7429L113.201 17.9967" stroke="white" stroke-linecap="round" stroke-linejoin="round"/>
<path d="M92.7155 53.8157L92.0592 28.7632L92.7155 53.8157Z" fill="#FCEC3B"/>
<path d="M71.0605 16.9093L92.0542 28.7687M92.7155 53.8157L92.0592 28.7632" stroke="white" stroke-linecap="round" stroke-linejoin="round"/>
<path d="M181.254 95.8399V123.876L230.555 149.864V122.512C230.555 112.94 229.067 89.927 206.749 81.4858C184.432 73.0447 181.254 95.8399 181.254 95.8399Z" fill="white" stroke="#505967"/>
<path d="M164 98.306V127.68L214.533 153.668L214.533 124.978C215.149 112.89 213.008 92.3931 190.132 83.9519C167.257 75.5107 164 98.306 164 98.306Z" fill="#9BDCE1" stroke="white" stroke-linejoin="round"/>
<path d="M210.218 82.8494C196.044 75.9842 176.94 82.075 176.94 82.075C204.672 82.8494 213.916 103.445 214.532 116.489L215.148 153.56L231.171 150.128C231.171 146.009 231.787 128.713 231.787 118.415C231.787 97.2663 219.064 87.134 210.218 82.8494Z" fill="#9BDCE1" stroke="white" stroke-linejoin="round"/>
<path d="M211.147 47.8036L193.988 38.2827C193.31 37.9059 192.51 37.9059 191.832 38.2827L174.672 47.8036C173.861 48.2558 173.349 49.1727 173.349 50.175V69.3574C173.349 70.3623 173.861 71.2792 174.672 71.7289L191.832 81.2522C192.51 81.6291 193.31 81.6291 193.988 81.2522L211.147 71.7289C211.545 71.508 211.88 71.1693 212.113 70.7505C212.347 70.3317 212.471 69.8494 212.471 69.3574V50.175C212.471 49.1702 211.959 48.2558 211.147 47.8036Z" fill="white"/>
<path d="M211.941 48.7859L194.612 38.2907C193.914 37.9034 193.089 37.9034 192.391 38.2907L174.711 48.076C173.875 48.5408 173.348 49.4832 173.348 50.5133V68.7395C173.348 69.7722 173.875 70.7146 174.711 71.1768L192.909 81.6823" stroke="#505967" stroke-linecap="round" stroke-linejoin="round"/>
<path d="M193.438 59.5722L174.405 49.8651" stroke="#505967" stroke-linecap="round" stroke-linejoin="round"/>
<path d="M193.507 59.597L211.052 49.6855C211.686 49.3275 212.471 49.7854 212.471 50.5132L212.468 69.733C212.468 70.4094 212.109 71.0349 211.524 71.3754L194.383 81.3634C193.74 81.7383 192.935 81.2615 192.954 80.5172L193.503 59.592" stroke="#505967" stroke-linecap="round" stroke-linejoin="round"/>
<path d="M60.6578 40.5563C32.7677 47.0907 14.3692 58.9165 13.1475 73.7441C10.9711 100.159 64.1304 126.098 131.882 131.68C199.634 137.262 256.322 120.374 258.498 93.9594C259.844 77.6286 246.292 63.9707 217.375 54.8988M122.811 36.0916C131.23 36.0789 139.937 36.4245 148.835 37.1577C161.221 38.1782 167.356 39.2334 178.517 41.4931" stroke="#8E9292" stroke-linecap="round" stroke-linejoin="round"/>
<path d="M259.198 105.451C263.442 105.025 266.545 101.17 266.127 96.8397C265.71 92.5107 261.93 89.3453 257.685 89.7712C253.441 90.1972 250.339 94.0539 250.756 98.3822C251.174 102.713 254.953 105.877 259.198 105.451Z" fill="white" stroke="#74777C" stroke-linecap="round" stroke-linejoin="round"/>
<path d="M14.4353 78.1816C17.9559 77.8283 20.5291 74.6313 20.1827 71.0395C19.8364 67.449 16.7017 64.8235 13.1811 65.1768C9.66058 65.5301 7.08753 68.729 7.43375 72.3189C7.78016 75.9107 10.9148 78.5349 14.4353 78.1816Z" fill="#FCEC3B"/>
<path d="M246.408 117.36C248.692 117.131 250.361 115.057 250.137 112.727C249.912 110.398 247.878 108.694 245.594 108.924C243.31 109.153 241.641 111.228 241.866 113.557C242.091 115.887 244.124 117.59 246.408 117.36Z" fill="#2B5C4F"/>
<path d="M31.6087 54.1082C33.3066 53.9378 34.5476 52.396 34.3805 50.6638C34.2135 48.9322 32.7017 47.666 31.0039 47.8364C29.306 48.0068 28.0651 49.5495 28.2321 51.2808C28.3992 53.013 29.9109 54.2785 31.6087 54.1082Z" fill="white" stroke="#74777C" stroke-linecap="round" stroke-linejoin="round"/>
</svg>
