<svg width="38" height="330" viewBox="0 0 38 330" fill="none" xmlns="http://www.w3.org/2000/svg">
<g clip-path="url(#clip0_3112_972)">
<line y1="-0.5" x2="171.12" y2="-0.5" transform="matrix(0.707107 0.707107 0.707107 -0.707107 -1 -89)" stroke="#ECEEED"/>
<line y1="-0.5" x2="171.12" y2="-0.5" transform="matrix(0.707107 0.707107 0.707107 -0.707107 -1 -78)" stroke="#ECEEED"/>
<line y1="-0.5" x2="171.12" y2="-0.5" transform="matrix(0.707107 0.707107 0.707107 -0.707107 -1 -67)" stroke="#ECEEED"/>
<line y1="-0.5" x2="171.12" y2="-0.5" transform="matrix(0.707107 0.707107 0.707107 -0.707107 -1 -56)" stroke="#ECEEED"/>
<line y1="-0.5" x2="171.12" y2="-0.5" transform="matrix(0.707107 0.707107 0.707107 -0.707107 -1 -45)" stroke="#ECEEED"/>
<line y1="-0.5" x2="171.12" y2="-0.5" transform="matrix(0.707107 0.707107 0.707107 -0.707107 -1 -34)" stroke="#ECEEED"/>
<line y1="-0.5" x2="171.12" y2="-0.5" transform="matrix(0.707107 0.707107 0.707107 -0.707107 -1 -23)" stroke="#ECEEED"/>
<line y1="-0.5" x2="171.12" y2="-0.5" transform="matrix(0.707107 0.707107 0.707107 -0.707107 -1 -12)" stroke="#ECEEED"/>
<line y1="-0.5" x2="171.12" y2="-0.5" transform="matrix(0.707107 0.707107 0.707107 -0.707107 -1 -1)" stroke="#ECEEED"/>
<line y1="-0.5" x2="171.12" y2="-0.5" transform="matrix(0.707107 0.707107 0.707107 -0.707107 -1 10)" stroke="#ECEEED"/>
<line y1="-0.5" x2="171.12" y2="-0.5" transform="matrix(0.707107 0.707107 0.707107 -0.707107 -1 21)" stroke="#ECEEED"/>
<line y1="-0.5" x2="171.12" y2="-0.5" transform="matrix(0.707107 0.707107 0.707107 -0.707107 -1 32)" stroke="#ECEEED"/>
<line y1="-0.5" x2="171.12" y2="-0.5" transform="matrix(0.707107 0.707107 0.707107 -0.707107 -1 43)" stroke="#ECEEED"/>
<line y1="-0.5" x2="171.12" y2="-0.5" transform="matrix(0.707107 0.707107 0.707107 -0.707107 -1 54)" stroke="#ECEEED"/>
<line y1="-0.5" x2="171.12" y2="-0.5" transform="matrix(0.707107 0.707107 0.707107 -0.707107 -1 65)" stroke="#ECEEED"/>
<line y1="-0.5" x2="171.12" y2="-0.5" transform="matrix(0.707107 0.707107 0.707107 -0.707107 -1 76)" stroke="#ECEEED"/>
<line y1="-0.5" x2="171.12" y2="-0.5" transform="matrix(0.707107 0.707107 0.707107 -0.707107 -1 87)" stroke="#ECEEED"/>
<line y1="-0.5" x2="171.12" y2="-0.5" transform="matrix(0.707107 0.707107 0.707107 -0.707107 -1 98)" stroke="#ECEEED"/>
<line y1="-0.5" x2="171.12" y2="-0.5" transform="matrix(0.707107 0.707107 0.707107 -0.707107 -1 109)" stroke="#ECEEED"/>
<line y1="-0.5" x2="171.12" y2="-0.5" transform="matrix(0.707107 0.707107 0.707107 -0.707107 -1 120)" stroke="#ECEEED"/>
<line y1="-0.5" x2="171.12" y2="-0.5" transform="matrix(0.707107 0.707107 0.707107 -0.707107 -1 131)" stroke="#ECEEED"/>
<line y1="-0.5" x2="171.12" y2="-0.5" transform="matrix(0.707107 0.707107 0.707107 -0.707107 -1 142)" stroke="#ECEEED"/>
<line y1="-0.5" x2="171.12" y2="-0.5" transform="matrix(0.707107 0.707107 0.707107 -0.707107 -1 153)" stroke="#ECEEED"/>
<line y1="-0.5" x2="171.12" y2="-0.5" transform="matrix(0.707107 0.707107 0.707107 -0.707107 -1 164)" stroke="#ECEEED"/>
<line y1="-0.5" x2="171.12" y2="-0.5" transform="matrix(0.707107 0.707107 0.707107 -0.707107 -1 175)" stroke="#ECEEED"/>
<line y1="-0.5" x2="171.12" y2="-0.5" transform="matrix(0.707107 0.707107 0.707107 -0.707107 -1 186)" stroke="#ECEEED"/>
<line y1="-0.5" x2="171.12" y2="-0.5" transform="matrix(0.707107 0.707107 0.707107 -0.707107 -1 197)" stroke="#ECEEED"/>
<line y1="-0.5" x2="171.12" y2="-0.5" transform="matrix(0.707107 0.707107 0.707107 -0.707107 -1 208)" stroke="#ECEEED"/>
<line y1="-0.5" x2="171.12" y2="-0.5" transform="matrix(0.707107 0.707107 0.707107 -0.707107 -1 219)" stroke="#ECEEED"/>
<line y1="-0.5" x2="171.12" y2="-0.5" transform="matrix(0.707107 0.707107 0.707107 -0.707107 -1 230)" stroke="#ECEEED"/>
<line y1="-0.5" x2="171.12" y2="-0.5" transform="matrix(0.707107 0.707107 0.707107 -0.707107 -1 241)" stroke="#ECEEED"/>
<line y1="-0.5" x2="171.12" y2="-0.5" transform="matrix(0.707107 0.707107 0.707107 -0.707107 -1 252)" stroke="#ECEEED"/>
<line y1="-0.5" x2="171.12" y2="-0.5" transform="matrix(0.707107 0.707107 0.707107 -0.707107 -1 263)" stroke="#ECEEED"/>
<line y1="-0.5" x2="171.12" y2="-0.5" transform="matrix(0.707107 0.707107 0.707107 -0.707107 -1 274)" stroke="#ECEEED"/>
<line y1="-0.5" x2="171.12" y2="-0.5" transform="matrix(0.707107 0.707107 0.707107 -0.707107 -1 285)" stroke="#ECEEED"/>
<line y1="-0.5" x2="171.12" y2="-0.5" transform="matrix(0.707107 0.707107 0.707107 -0.707107 -1 296)" stroke="#ECEEED"/>
<line y1="-0.5" x2="171.12" y2="-0.5" transform="matrix(0.707107 0.707107 0.707107 -0.707107 -1 307)" stroke="#ECEEED"/>
<line y1="-0.5" x2="171.12" y2="-0.5" transform="matrix(0.707107 0.707107 0.707107 -0.707107 -1 318)" stroke="#ECEEED"/>
<line y1="-0.5" x2="171.12" y2="-0.5" transform="matrix(0.707107 0.707107 0.707107 -0.707107 -1 329)" stroke="#ECEEED"/>
</g>
<defs>
<clipPath id="clip0_3112_972">
<rect width="47" height="329" fill="white" transform="matrix(-1 0 0 1 47 0.5)"/>
</clipPath>
</defs>
</svg>
