<svg width="47" height="331" viewBox="0 0 47 331" fill="none" xmlns="http://www.w3.org/2000/svg">
<g clip-path="url(#clip0_3166_5771)">
<line x1="48.3536" y1="-87.1464" x2="-72.6464" y2="33.8536" stroke="#ECEEED"/>
<line x1="48.3536" y1="-76.1464" x2="-72.6464" y2="44.8536" stroke="#ECEEED"/>
<line x1="48.3536" y1="-65.1464" x2="-72.6464" y2="55.8536" stroke="#ECEEED"/>
<line x1="48.3536" y1="-54.1464" x2="-72.6464" y2="66.8536" stroke="#ECEEED"/>
<line x1="48.3536" y1="-43.1464" x2="-72.6464" y2="77.8536" stroke="#ECEEED"/>
<line x1="48.3536" y1="-32.1464" x2="-72.6464" y2="88.8536" stroke="#ECEEED"/>
<line x1="48.3536" y1="-21.1464" x2="-72.6464" y2="99.8536" stroke="#ECEEED"/>
<line x1="48.3536" y1="-10.1464" x2="-72.6464" y2="110.854" stroke="#ECEEED"/>
<line x1="48.3536" y1="0.853553" x2="-72.6464" y2="121.854" stroke="#ECEEED"/>
<line x1="48.3536" y1="11.8536" x2="-72.6464" y2="132.854" stroke="#ECEEED"/>
<line x1="48.3536" y1="22.8536" x2="-72.6464" y2="143.854" stroke="#ECEEED"/>
<line x1="48.3536" y1="33.8536" x2="-72.6464" y2="154.854" stroke="#ECEEED"/>
<line x1="48.3536" y1="44.8536" x2="-72.6464" y2="165.854" stroke="#ECEEED"/>
<line x1="48.3536" y1="55.8536" x2="-72.6464" y2="176.854" stroke="#ECEEED"/>
<line x1="48.3536" y1="66.8536" x2="-72.6464" y2="187.854" stroke="#ECEEED"/>
<line x1="48.3536" y1="77.8536" x2="-72.6464" y2="198.854" stroke="#ECEEED"/>
<line x1="48.3536" y1="88.8536" x2="-72.6464" y2="209.854" stroke="#ECEEED"/>
<line x1="48.3536" y1="99.8536" x2="-72.6464" y2="220.854" stroke="#ECEEED"/>
<line x1="48.3536" y1="110.854" x2="-72.6464" y2="231.854" stroke="#ECEEED"/>
<line x1="48.3536" y1="121.854" x2="-72.6464" y2="242.854" stroke="#ECEEED"/>
<line x1="48.3536" y1="132.854" x2="-72.6464" y2="253.854" stroke="#ECEEED"/>
<line x1="48.3536" y1="143.854" x2="-72.6464" y2="264.854" stroke="#ECEEED"/>
<line x1="48.3536" y1="154.854" x2="-72.6464" y2="275.854" stroke="#ECEEED"/>
<line x1="48.3536" y1="165.854" x2="-72.6464" y2="286.854" stroke="#ECEEED"/>
<line x1="48.3536" y1="176.854" x2="-72.6464" y2="297.854" stroke="#ECEEED"/>
<line x1="48.3536" y1="187.854" x2="-72.6464" y2="308.854" stroke="#ECEEED"/>
<line x1="48.3536" y1="198.854" x2="-72.6464" y2="319.854" stroke="#ECEEED"/>
<line x1="48.3536" y1="209.854" x2="-72.6464" y2="330.854" stroke="#ECEEED"/>
<line x1="48.3536" y1="220.854" x2="-72.6464" y2="341.854" stroke="#ECEEED"/>
<line x1="48.3536" y1="231.854" x2="-72.6464" y2="352.854" stroke="#ECEEED"/>
<line x1="48.3536" y1="242.854" x2="-72.6464" y2="363.854" stroke="#ECEEED"/>
<line x1="48.3536" y1="253.854" x2="-72.6464" y2="374.854" stroke="#ECEEED"/>
<line x1="48.3536" y1="264.854" x2="-72.6464" y2="385.854" stroke="#ECEEED"/>
<line x1="48.3536" y1="275.854" x2="-72.6464" y2="396.854" stroke="#ECEEED"/>
<line x1="48.3536" y1="286.854" x2="-72.6464" y2="407.854" stroke="#ECEEED"/>
<line x1="48.3536" y1="297.854" x2="-72.6464" y2="418.854" stroke="#ECEEED"/>
<line x1="48.3536" y1="308.854" x2="-72.6464" y2="429.854" stroke="#ECEEED"/>
<line x1="48.3536" y1="319.854" x2="-72.6464" y2="440.854" stroke="#ECEEED"/>
</g>
<defs>
<clipPath id="clip0_3166_5771">
<rect width="47" height="330" fill="white" transform="translate(0 0.5)"/>
</clipPath>
</defs>
</svg>
