<svg width="225" height="190" viewBox="0 0 225 190" fill="none" xmlns="http://www.w3.org/2000/svg">
<path d="M164.607 5.70178C165.267 5.321 166.079 5.321 166.739 5.70178L209.208 30.2216C209.868 30.6024 210.274 31.3061 210.274 32.0677V81.1073C210.274 81.8689 209.868 82.5726 209.208 82.9534L166.739 107.473C166.079 107.854 165.267 107.854 164.607 107.473L122.138 82.9534C121.478 82.5726 121.072 81.8689 121.072 81.1073V32.0677C121.072 31.3061 121.478 30.6024 122.138 30.2216L164.607 5.70178Z" fill="#9BDCE1"/>
<path d="M167.911 99.1848L167.911 58.4937M167.911 58.4937L203.184 38.1481M167.911 58.4937L129.431 38.1481" stroke="white" stroke-linecap="round" stroke-linejoin="round"/>
<path d="M4.78621 82.9355C6.53349 82.7636 7.81062 81.2081 7.63869 79.4605C7.46682 77.7136 5.911 76.4362 4.16372 76.6081C2.41644 76.78 1.13941 78.3364 1.31124 80.083C1.48317 81.8306 3.03893 83.1074 4.78621 82.9355Z" fill="#E0EBE8" stroke="#616161" stroke-linecap="round" stroke-linejoin="round"/>
<path d="M22.7346 76.5172C20.3336 76.7535 18.1957 74.999 17.9595 72.5975C17.7233 70.197 19.4782 68.0587 21.8792 67.8225C24.2802 67.5863 26.4181 69.342 26.6543 71.7422C26.8905 74.1436 25.1356 76.281 22.7346 76.5172Z" fill="#FFAFDF" stroke="#FFAFDF" stroke-linecap="round" stroke-linejoin="round"/>
<path d="M220.779 24.1277C222.444 23.9639 223.66 22.482 223.497 20.817C223.333 19.1527 221.851 17.9357 220.186 18.0995C218.521 18.2632 217.305 19.746 217.468 21.4101C217.632 23.075 219.114 24.2914 220.779 24.1277Z" fill="#E0EBE8" stroke="#616161" stroke-linecap="round" stroke-linejoin="round"/>
<path d="M132.215 13.7836C133.5 13.6572 134.439 12.513 134.313 11.2275C134.186 9.94251 133.042 9.0029 131.757 9.12934C130.472 9.25578 129.532 10.4006 129.659 11.6854C129.785 12.9709 130.929 13.91 132.215 13.7836Z" fill="#E0EBE8" stroke="#616161" stroke-linecap="round" stroke-linejoin="round"/>
<path d="M207.972 10.6219C210.768 10.3469 212.811 7.85808 212.536 5.06195C212.261 2.26678 209.772 0.222949 206.976 0.497982C204.18 0.773014 202.137 3.26325 202.412 6.05793C202.687 8.85406 205.176 10.8969 207.972 10.6219Z" fill="#2B5C4F"/>
<path d="M77.2962 118.259L152.321 67.3967" stroke="#616161" stroke-linecap="round"/>
<path d="M53.9758 81.9977C54.6353 81.6169 55.4479 81.6169 56.1074 81.9977L100.777 107.788C101.437 108.169 101.843 108.872 101.843 109.634V161.214C101.843 161.976 101.437 162.679 100.777 163.06L56.1074 188.85C55.4479 189.231 54.6353 189.231 53.9758 188.85L9.30602 163.06C8.64649 162.679 8.2402 161.976 8.2402 161.214V109.634C8.2402 108.872 8.64649 108.169 9.30602 107.788L53.9758 81.9977Z" fill="#2B5C4F"/>
<path d="M55.9977 180.123L55.9977 135.645M55.9977 135.645L91.7344 113.406M55.9977 135.645L17.0121 113.406" stroke="white" stroke-linecap="round" stroke-linejoin="round"/>
<path d="M129.804 82.9848L108.625 80.282L114.95 88.3645L121.652 89.2198L120.739 96.3786L127.067 104.432L129.804 82.9848Z" fill="white" stroke="#616161" stroke-linejoin="round"/>
<path d="M106.601 85.4726L108.626 80.2818L114.706 88.1417L112.448 93.0302L106.601 85.4726Z" fill="white" stroke="#616161" stroke-linejoin="round"/>
<path d="M117.477 100.756L120.72 96.5377L127.059 104.431L123.572 108.345L117.477 100.756Z" fill="white" stroke="#616161" stroke-linejoin="round"/>
<path d="M118.345 93.7818L112.447 93.0291L114.671 88.4088L121.641 89.2983L118.345 93.7818Z" fill="white" stroke="#616161" stroke-linecap="round" stroke-linejoin="round"/>
<path d="M118.358 93.6823L117.49 100.485L120.719 96.5378L121.638 89.3329L118.358 93.6823Z" fill="white" stroke="#616161" stroke-linecap="round" stroke-linejoin="round"/>
<path d="M96.0619 154.04C96.2514 153.931 96.4848 153.931 96.6743 154.04L104.872 158.773C105.061 158.882 105.178 159.084 105.178 159.303V168.769C105.178 168.988 105.061 169.19 104.872 169.299L96.6743 174.032C96.4848 174.141 96.2514 174.141 96.0619 174.032L87.8644 169.299C87.6749 169.19 87.5582 168.988 87.5582 168.769V159.303C87.5582 159.084 87.6749 158.882 87.8644 158.773L96.0619 154.04Z" fill="#F4F6F6" stroke="#74777C" stroke-linecap="round" stroke-linejoin="round"/>
<path d="M96.2861 172.326L96.2861 164.037M96.2861 164.037L102.773 159.892M96.2861 164.037L89.2089 159.892" stroke="#74777C" stroke-linecap="round" stroke-linejoin="round"/>
</svg>
