<svg width="224" height="191" viewBox="0 0 224 191" fill="none" xmlns="http://www.w3.org/2000/svg">
<path d="M163.815 6.46887C164.474 6.08809 165.287 6.08809 165.946 6.46887L208.416 30.9887C209.075 31.3695 209.482 32.0732 209.482 32.8348V81.8744C209.482 82.636 209.075 83.3397 208.416 83.7205L165.946 108.24C165.287 108.621 164.474 108.621 163.815 108.24L121.345 83.7205C120.686 83.3397 120.279 82.636 120.279 81.8744V32.8348C120.279 32.0732 120.686 31.3695 121.345 30.9887L163.815 6.46887Z" fill="#9BDCE1"/>
<path d="M167.118 99.9521L167.118 59.261M167.118 59.261L202.391 38.9154M167.118 59.261L128.638 38.9154" stroke="white" stroke-linecap="round" stroke-linejoin="round"/>
<path d="M3.99324 83.7017C5.74052 83.5299 7.01765 81.9744 6.84572 80.2268C6.67386 78.4798 5.11803 77.2024 3.37075 77.3743C1.62348 77.5462 0.346439 79.1026 0.518275 80.8493C0.6902 82.5969 2.24596 83.8736 3.99324 83.7017Z" fill="#E0EBE8" stroke="#616161" stroke-linecap="round" stroke-linejoin="round"/>
<path d="M21.9406 77.2836C19.5396 77.5198 17.4018 75.7653 17.1655 73.3639C16.9294 70.9633 18.6842 68.825 21.0852 68.5888C23.4862 68.3526 25.6242 70.1083 25.8603 72.5085C26.0966 74.9099 24.3416 77.0474 21.9406 77.2836Z" fill="#FFAFDF" stroke="#FFAFDF" stroke-linecap="round" stroke-linejoin="round"/>
<path d="M219.986 24.8947C221.651 24.731 222.867 23.2491 222.704 21.5841C222.54 19.9198 221.058 18.7028 219.393 18.8666C217.728 19.0303 216.512 20.5131 216.675 22.1772C216.839 23.8421 218.321 25.0585 219.986 24.8947Z" fill="#E0EBE8" stroke="#616161" stroke-linecap="round" stroke-linejoin="round"/>
<path d="M131.424 14.5503C132.709 14.4239 133.648 13.2797 133.522 11.9942C133.395 10.7092 132.251 9.76962 130.966 9.89606C129.681 10.0225 128.741 11.1673 128.868 12.4521C128.994 13.7376 130.138 14.6768 131.424 14.5503Z" fill="#E0EBE8" stroke="#616161" stroke-linecap="round" stroke-linejoin="round"/>
<path d="M207.178 11.3886C209.973 11.1136 212.017 8.6248 211.742 5.82867C211.467 3.03351 208.977 0.989673 206.182 1.26471C203.386 1.53974 201.343 4.02997 201.618 6.82465C201.893 9.62078 204.382 11.6637 207.178 11.3886Z" fill="#2B5C4F"/>
<path d="M76.5028 119.026L151.527 68.1635" stroke="#616161" stroke-linecap="round"/>
<path d="M53.1828 82.7648C53.8423 82.384 54.6549 82.384 55.3144 82.7648L99.9842 108.555C100.644 108.936 101.05 109.639 101.05 110.401V161.981C101.05 162.743 100.644 163.446 99.9842 163.827L55.3144 189.617C54.6549 189.998 53.8423 189.998 53.1828 189.617L8.51305 163.827C7.85352 163.446 7.44723 162.743 7.44723 161.981V110.401C7.44723 109.639 7.85352 108.936 8.51305 108.555L53.1828 82.7648Z" fill="#FFADDF"/>
<path d="M55.2042 180.89L55.2042 136.412M55.2042 136.412L90.9409 114.173M55.2042 136.412L16.2187 114.173" stroke="white" stroke-linecap="round" stroke-linejoin="round"/>
<path d="M129.01 83.7506L107.831 81.0479L114.156 89.1304L120.858 89.9857L119.945 97.1444L126.273 105.198L129.01 83.7506Z" fill="#F7F8F8" stroke="#616161" stroke-linejoin="round"/>
<path d="M105.806 86.2388L107.831 81.048L113.912 88.9079L111.653 93.7964L105.806 86.2388Z" fill="#F7F8F8" stroke="#616161" stroke-linejoin="round"/>
<path d="M116.682 101.522L119.925 97.3044L126.264 105.197L122.777 109.112L116.682 101.522Z" fill="#F7F8F8" stroke="#616161" stroke-linejoin="round"/>
<path d="M117.551 94.5481L111.653 93.7954L113.878 89.175L120.848 90.0645L117.551 94.5481Z" fill="#F7F8F8" stroke="#616161" stroke-linecap="round" stroke-linejoin="round"/>
<path d="M117.564 94.4485L116.696 101.251L119.925 97.3039L120.844 90.099L117.564 94.4485Z" fill="#F7F8F8" stroke="#616161" stroke-linecap="round" stroke-linejoin="round"/>
<path d="M95.2708 154.807C95.4603 154.697 95.6938 154.697 95.8833 154.807L104.081 159.539C104.27 159.649 104.387 159.851 104.387 160.07V169.535C104.387 169.754 104.27 169.956 104.081 170.066L95.8833 174.799C95.6938 174.908 95.4603 174.908 95.2708 174.799L87.0734 170.066C86.8839 169.956 86.7672 169.754 86.7672 169.535V160.07C86.7672 159.851 86.8839 159.649 87.0734 159.539L95.2708 154.807Z" fill="#F4F6F6" stroke="#74777C" stroke-linecap="round" stroke-linejoin="round"/>
<path d="M95.4955 173.093L95.4955 164.803M95.4955 164.803L101.983 160.659M95.4955 164.803L88.4184 160.659" stroke="#74777C" stroke-linecap="round" stroke-linejoin="round"/>
</svg>
