<svg width="210" height="192" viewBox="0 0 210 192" fill="none" xmlns="http://www.w3.org/2000/svg">
<path d="M104.941 0.61535C105.601 0.23457 106.413 0.23457 107.073 0.61535L140.016 19.6352C140.676 20.016 141.082 20.7197 141.082 21.4812V59.5209C141.082 60.2824 140.676 60.9861 140.016 61.3669L107.073 80.3868C106.413 80.7675 105.601 80.7675 104.941 80.3868L71.9978 61.3669C71.3383 60.9861 70.932 60.2824 70.932 59.5209V21.4812C70.932 20.7197 71.3383 20.016 71.9978 19.6352L104.941 0.61535Z" fill="#9BDCE1"/>
<path d="M105.683 73.5068L105.683 40.504M105.683 40.504L131.512 24.0026M105.683 40.504L77.5071 24.0026" stroke="white" stroke-width="1.50013" stroke-linecap="round" stroke-linejoin="round"/>
<path d="M32 90L91.7577 54.0039" stroke="#74777C" stroke-linecap="round"/>
<path d="M123.5 43.9995L186.5 78.5" stroke="#74777C" stroke-linecap="round"/>
<path d="M33.2527 124.509C51.0655 124.509 65.5055 110.072 65.5055 92.2566C65.5055 74.447 51.0655 60.0039 33.2527 60.0039C15.44 60.0039 1 74.4501 1 92.2566C1 110.072 15.44 124.509 33.2527 124.509Z" fill="#F4F6F6" stroke="#74777C" stroke-linecap="round" stroke-linejoin="round"/>
<circle cx="166.25" cy="133.25" r="5.25045" fill="#FEE176"/>
<rect width="15.0013" height="15.0013" rx="1" transform="matrix(0.862738 0.505651 -0.869276 0.494328 188.055 81.0068)" fill="#2B5C4F"/>
<path d="M188.889 61.7214C189.121 61.5874 189.406 61.5874 189.638 61.7214L201.228 68.4128C201.46 68.5468 201.603 68.7943 201.603 69.0623V82.4451C201.603 82.7131 201.46 82.9606 201.228 83.0946L189.638 89.786C189.406 89.92 189.121 89.92 188.889 89.786L177.299 83.0946C177.067 82.9606 176.924 82.7131 176.924 82.4451V69.0623C176.924 68.7943 177.067 68.5468 177.299 68.4128L188.889 61.7214Z" fill="#F4F6F6" stroke="#74777C" stroke-linecap="round" stroke-linejoin="round"/>
<path d="M189.15 87.3662L189.15 75.7554M189.15 75.7554L198.236 69.95M189.15 75.7554L179.237 69.95" stroke="#74777C" stroke-linecap="round" stroke-linejoin="round"/>
<path d="M120.5 120L184.5 79.5" stroke="#74777C" stroke-linecap="round"/>
<path d="M108.658 106.362L141.689 126.023V165.373C141.689 165.803 141.459 166.201 141.085 166.415L98.4393 190.897L64 131.629L107.439 106.356C107.816 106.136 108.283 106.138 108.658 106.362Z" fill="#2B5C4F"/>
<path d="M64 131.629L98.4393 151.652M64 131.629L107.439 106.356C107.816 106.136 108.283 106.138 108.658 106.362L141.689 126.023M64 131.629L98.4393 190.897M98.4393 151.652L141.689 126.023M98.4393 151.652V190.897M141.689 126.023V165.373C141.689 165.803 141.459 166.201 141.085 166.415L98.4393 190.897" stroke="#F7F8F8" stroke-linecap="round" stroke-linejoin="round"/>
<path d="M127.997 15.9948C130.205 15.9948 131.995 14.2055 131.995 11.9974C131.995 9.79008 130.205 8 127.997 8C125.79 8 124 9.79046 124 11.9974C124 14.2055 125.79 15.9948 127.997 15.9948Z" fill="white" stroke="#74777C" stroke-linecap="round" stroke-linejoin="round"/>
<path d="M128.665 163.33C130.137 163.33 131.33 162.137 131.33 160.665C131.33 159.193 130.137 158 128.665 158C127.193 158 126 159.194 126 160.665C126 162.137 127.193 163.33 128.665 163.33Z" fill="white" stroke="#74777C" stroke-linecap="round" stroke-linejoin="round"/>
<circle cx="205.5" cy="58.5004" r="4.50038" fill="#FFADDF"/>
</svg>
