<svg width="183" height="167" viewBox="0 0 183 167" fill="none" xmlns="http://www.w3.org/2000/svg">
<path d="M88.0413 0.496529C88.5576 0.190392 89.1999 0.190391 89.7162 0.496528L117.817 17.1573C118.315 17.453 118.621 17.9899 118.621 18.5697V51.9676C118.621 52.5475 118.315 53.0843 117.817 53.3801L89.7162 70.0408C89.1999 70.347 88.5576 70.347 88.0413 70.0408L59.9409 53.3801C59.4422 53.0843 59.1363 52.5475 59.1363 51.9676V18.5697C59.1363 17.9899 59.4422 17.453 59.9409 17.1573L88.0413 0.496529Z" fill="#9BDCE1"/>
<path d="M92.1608 64.0103L92.1608 35.2711M92.1608 35.2711L114.652 20.9016M92.1608 35.2711L67.6247 20.9016" stroke="white" stroke-width="1.1556" stroke-linecap="round" stroke-linejoin="round"/>
<path d="M27.9961 78.3729L80.0336 47.0272" stroke="#74777C" stroke-width="0.770333" stroke-linecap="round"/>
<path d="M107.674 38.3152L162.535 68.3586" stroke="#74777C" stroke-width="0.770333" stroke-linecap="round"/>
<path d="M29.086 108.424C44.5974 108.424 57.1719 95.8523 57.1719 80.3382C57.1719 64.8294 44.5974 52.2522 29.086 52.2522C13.5745 52.2522 1 64.832 1 80.3382C1 95.8523 13.5745 108.424 29.086 108.424Z" fill="#F4F6F6" stroke="#74777C" stroke-width="0.770333" stroke-linecap="round" stroke-linejoin="round"/>
<circle cx="144.9" cy="116.036" r="4.57213" fill="#FEE176"/>
<rect width="13.0632" height="13.0632" rx="0.770333" transform="matrix(0.862738 0.505651 -0.869276 0.494328 163.891 70.5416)" fill="#2B5C4F"/>
<path d="M159.182 53.7339C159.364 53.6262 159.59 53.6262 159.772 53.7339L169.658 59.5954C169.833 59.6994 169.941 59.8883 169.941 60.0923V71.8421C169.941 72.0461 169.833 72.235 169.658 72.339L159.772 78.2005C159.59 78.3082 159.364 78.3082 159.182 78.2005L149.296 72.339C149.121 72.235 149.013 72.0461 149.013 71.8421V60.0923C149.013 59.8883 149.121 59.6994 149.296 59.5954L159.182 53.7339Z" fill="#F4F6F6" stroke="#74777C" stroke-width="0.770333" stroke-linecap="round" stroke-linejoin="round"/>
<path d="M164.841 76.0797L164.841 65.9689M164.841 65.9689L172.754 60.9135M164.841 65.9689L156.209 60.9135" stroke="#74777C" stroke-width="0.770333" stroke-linecap="round" stroke-linejoin="round"/>
<path d="M105.062 104.497L160.794 69.2291" stroke="#74777C" stroke-width="0.770333" stroke-linecap="round"/>
<path d="M94.6867 92.5844L123.511 109.742V144.078C123.511 144.41 123.334 144.716 123.047 144.881L85.8494 166.235L55.8594 114.624L93.748 92.5797C94.0385 92.4106 94.3979 92.4124 94.6867 92.5844Z" fill="#2B5C4F"/>
<path d="M55.8594 114.624L85.8494 132.06M55.8594 114.624L93.748 92.5797C94.0385 92.4106 94.3979 92.4124 94.6867 92.5844L123.511 109.742M55.8594 114.624L85.8494 166.235M85.8494 132.06L123.511 109.742M85.8494 132.06V166.235M123.511 109.742V144.078C123.511 144.41 123.334 144.716 123.047 144.881L85.8494 166.235" stroke="white" stroke-width="0.770333" stroke-linecap="round" stroke-linejoin="round"/>
<path d="M107.526 13.9284C109.398 13.9284 110.916 12.3702 110.916 10.4474C110.916 8.52525 109.398 6.96643 107.526 6.96643C105.654 6.96643 104.137 8.52558 104.137 10.4474C104.137 12.3702 105.654 13.9284 107.526 13.9284Z" fill="white" stroke="#74777C" stroke-width="0.770333" stroke-linecap="round" stroke-linejoin="round"/>
<path d="M108.092 142.229C109.34 142.229 110.352 141.19 110.352 139.908C110.352 138.627 109.34 137.588 108.092 137.588C106.844 137.588 105.832 138.627 105.832 139.908C105.832 141.19 106.844 142.229 108.092 142.229Z" fill="white" stroke="#74777C" stroke-width="0.770333" stroke-linecap="round" stroke-linejoin="round"/>
<circle cx="179.083" cy="50.9429" r="3.91897" fill="#FFADDF"/>
</svg>
