<svg width="228" height="208" viewBox="0 0 228 208" fill="none" xmlns="http://www.w3.org/2000/svg">
<path d="M109.385 0.61829C110.028 0.23708 110.828 0.23708 111.471 0.61829L146.462 21.3647C147.083 21.733 147.464 22.4015 147.464 23.1236V64.7115C147.464 65.4335 147.083 66.1021 146.462 66.4703L111.471 87.2167C110.828 87.5979 110.028 87.5979 109.385 87.2167L74.3935 66.4703C73.7724 66.1021 73.3916 65.4335 73.3916 64.7115V23.1236C73.3916 22.4015 73.7724 21.733 74.3935 21.3647L109.385 0.61829Z" fill="#9BDCE1"/>
<path d="M114.514 79.707L114.514 43.9203M114.514 43.9203L142.521 26.0269M114.514 43.9203L83.9613 26.0269" stroke="white" stroke-width="1.43898" stroke-linecap="round" stroke-linejoin="round"/>
<path d="M34.6172 97.5911L99.4157 58.5586" stroke="#74777C" stroke-width="0.95924" stroke-linecap="round"/>
<path d="M133.834 47.7111L202.149 85.1219" stroke="#74777C" stroke-width="0.95924" stroke-linecap="round"/>
<path d="M35.9734 135.013C55.2887 135.013 70.9468 119.358 70.9468 100.04C70.9468 80.7278 55.2887 65.0664 35.9734 65.0664C16.6581 65.0664 1 80.7312 1 100.04C1 119.358 16.6581 135.013 35.9734 135.013Z" fill="#F4F6F6" stroke="#74777C" stroke-width="0.95924" stroke-linecap="round" stroke-linejoin="round"/>
<circle cx="180.191" cy="144.49" r="5.69335" fill="#FCEC3B"/>
<rect width="16.2667" height="16.2667" rx="0.95924" transform="matrix(0.862738 0.505651 -0.869276 0.494328 203.834 87.8398)" fill="#2B5C4F"/>
<path d="M197.974 66.9089C198.2 66.7748 198.481 66.7748 198.707 66.9089L211.018 74.2078C211.236 74.3374 211.37 74.5726 211.37 74.8266V89.4578C211.37 89.7118 211.236 89.947 211.018 90.0766L198.707 97.3754C198.481 97.5096 198.2 97.5096 197.974 97.3754L185.663 90.0766C185.445 89.947 185.311 89.7118 185.311 89.4578V74.8266C185.311 74.5726 185.445 74.3374 185.663 74.2078L197.974 66.9089Z" fill="#F4F6F6" stroke="#74777C" stroke-width="0.95924" stroke-linecap="round" stroke-linejoin="round"/>
<path d="M198.748 94.8867L198.748 82.2965M198.748 82.2965L208.602 76.0013M198.748 82.2965L187.999 76.0013" stroke="#74777C" stroke-width="0.95924" stroke-linecap="round" stroke-linejoin="round"/>
<path d="M128 128.121L192.982 87" stroke="#74777C" stroke-width="0.898192" stroke-linecap="round"/>
<path d="M117.663 115.288L153.556 136.653V179.41C153.556 179.822 153.336 180.204 152.978 180.409L106.659 207L69.3145 142.733L116.494 115.282C116.856 115.072 117.304 115.074 117.663 115.288Z" fill="#2B5C4F"/>
<path d="M69.3145 142.733L106.659 164.444M69.3145 142.733L116.494 115.282C116.856 115.072 117.304 115.074 117.663 115.288L153.556 136.653M69.3145 142.733L106.659 207M106.659 164.444L153.556 136.653M106.659 164.444V207M153.556 136.653V179.41C153.556 179.822 153.336 180.204 152.978 180.409L106.659 207" stroke="white" stroke-width="0.95924" stroke-linecap="round" stroke-linejoin="round"/>
<path d="M133.647 17.345C135.978 17.345 137.868 15.4048 137.868 13.0104C137.868 10.6169 135.978 8.67578 133.647 8.67578C131.316 8.67578 129.426 10.6173 129.426 13.0104C129.426 15.4048 131.316 17.345 133.647 17.345Z" fill="white" stroke="#74777C" stroke-width="0.95924" stroke-linecap="round" stroke-linejoin="round"/>
<path d="M169.814 158.779C171.368 158.779 172.628 157.486 172.628 155.89C172.628 154.294 171.368 153 169.814 153C168.26 153 167 154.294 167 155.89C167 157.486 168.26 158.779 169.814 158.779Z" fill="white" stroke="#74777C" stroke-width="0.95924" stroke-linecap="round" stroke-linejoin="round"/>
<circle cx="222.751" cy="63.4347" r="4.88001" fill="#FFADDF"/>
</svg>
