<svg width="396" height="152" viewBox="0 0 396 152" fill="none" xmlns="http://www.w3.org/2000/svg">
<g clip-path="url(#clip0_3349_89120)">
<rect width="396" height="152" rx="9.19424" fill="#2B5C4F"/>
<g style="mix-blend-mode:multiply">
<g opacity="0.68">
<g style="mix-blend-mode:multiply">
<line x1="118.307" y1="1.34183e-08" x2="118.307" y2="205.673" stroke="#ECEEED" stroke-width="0.61395"/>
</g>
<g style="mix-blend-mode:multiply">
<line x1="133.042" y1="1.34183e-08" x2="133.042" y2="205.673" stroke="#ECEEED" stroke-width="0.61395"/>
</g>
<g style="mix-blend-mode:multiply">
<line x1="147.777" y1="1.34183e-08" x2="147.777" y2="205.673" stroke="#ECEEED" stroke-width="0.61395"/>
</g>
<g style="mix-blend-mode:multiply">
<line x1="162.511" y1="1.34183e-08" x2="162.511" y2="205.673" stroke="#ECEEED" stroke-width="0.61395"/>
</g>
<g style="mix-blend-mode:multiply">
<line x1="177.246" y1="1.34183e-08" x2="177.246" y2="205.673" stroke="#ECEEED" stroke-width="0.61395"/>
</g>
<g style="mix-blend-mode:multiply">
<line x1="191.981" y1="1.34183e-08" x2="191.981" y2="205.673" stroke="#ECEEED" stroke-width="0.61395"/>
</g>
<g style="mix-blend-mode:multiply">
<line x1="206.716" y1="1.34183e-08" x2="206.716" y2="205.673" stroke="#ECEEED" stroke-width="0.61395"/>
</g>
<g style="mix-blend-mode:multiply">
<line x1="221.451" y1="1.34183e-08" x2="221.451" y2="205.673" stroke="#ECEEED" stroke-width="0.61395"/>
</g>
<g style="mix-blend-mode:multiply">
<line x1="236.185" y1="1.34183e-08" x2="236.185" y2="205.673" stroke="#ECEEED" stroke-width="0.61395"/>
</g>
<g style="mix-blend-mode:multiply">
<line x1="250.92" y1="1.34183e-08" x2="250.92" y2="205.673" stroke="#ECEEED" stroke-width="0.61395"/>
</g>
<g style="mix-blend-mode:multiply">
<line x1="265.655" y1="1.34183e-08" x2="265.655" y2="205.673" stroke="#ECEEED" stroke-width="0.61395"/>
</g>
<g style="mix-blend-mode:multiply">
<line x1="280.39" y1="1.34183e-08" x2="280.39" y2="205.673" stroke="#ECEEED" stroke-width="0.61395"/>
</g>
<g style="mix-blend-mode:multiply">
<line x1="295.124" y1="1.34183e-08" x2="295.124" y2="205.673" stroke="#ECEEED" stroke-width="0.61395"/>
</g>
</g>
<g opacity="0.68">
<g style="mix-blend-mode:multiply">
<line x1="314.948" y1="2.72983" x2="109.275" y2="2.72981" stroke="#ECEEED" stroke-width="0.61395"/>
</g>
<g style="mix-blend-mode:multiply">
<line x1="314.948" y1="17.4642" x2="109.275" y2="17.4642" stroke="#ECEEED" stroke-width="0.61395"/>
</g>
<g style="mix-blend-mode:multiply">
<line x1="314.948" y1="32.1996" x2="109.275" y2="32.1995" stroke="#ECEEED" stroke-width="0.61395"/>
</g>
<g style="mix-blend-mode:multiply">
<line x1="314.948" y1="46.9339" x2="109.275" y2="46.9339" stroke="#ECEEED" stroke-width="0.61395"/>
</g>
<g style="mix-blend-mode:multiply">
<line x1="314.948" y1="61.6693" x2="109.275" y2="61.6693" stroke="#ECEEED" stroke-width="0.61395"/>
</g>
<g style="mix-blend-mode:multiply">
<line x1="314.948" y1="76.4037" x2="109.275" y2="76.4036" stroke="#ECEEED" stroke-width="0.61395"/>
</g>
<g style="mix-blend-mode:multiply">
<line x1="314.948" y1="91.138" x2="109.275" y2="91.138" stroke="#ECEEED" stroke-width="0.61395"/>
</g>
<g style="mix-blend-mode:multiply">
<line x1="314.948" y1="105.873" x2="109.275" y2="105.873" stroke="#ECEEED" stroke-width="0.61395"/>
</g>
<g style="mix-blend-mode:multiply">
<line x1="314.948" y1="120.608" x2="109.275" y2="120.608" stroke="#ECEEED" stroke-width="0.61395"/>
</g>
<g style="mix-blend-mode:multiply">
<line x1="314.948" y1="135.343" x2="109.275" y2="135.343" stroke="#ECEEED" stroke-width="0.61395"/>
</g>
<g style="mix-blend-mode:multiply">
<line x1="314.948" y1="150.077" x2="109.275" y2="150.077" stroke="#ECEEED" stroke-width="0.61395"/>
</g>
</g>
</g>
<g style="mix-blend-mode:multiply" clip-path="url(#clip1_3349_89120)">
<g opacity="0.68">
<g style="mix-blend-mode:multiply">
<line x1="310.307" y1="1.34183e-08" x2="310.307" y2="205.673" stroke="#ECEEED" stroke-width="0.61395"/>
</g>
<g style="mix-blend-mode:multiply">
<line x1="325.042" y1="1.34183e-08" x2="325.042" y2="205.673" stroke="#ECEEED" stroke-width="0.61395"/>
</g>
<g style="mix-blend-mode:multiply">
<line x1="339.777" y1="1.34183e-08" x2="339.777" y2="205.673" stroke="#ECEEED" stroke-width="0.61395"/>
</g>
<g style="mix-blend-mode:multiply">
<line x1="354.511" y1="1.34183e-08" x2="354.511" y2="205.673" stroke="#ECEEED" stroke-width="0.61395"/>
</g>
<g style="mix-blend-mode:multiply">
<line x1="369.246" y1="1.34183e-08" x2="369.246" y2="205.673" stroke="#ECEEED" stroke-width="0.61395"/>
</g>
<g style="mix-blend-mode:multiply">
<line x1="383.981" y1="1.34183e-08" x2="383.981" y2="205.673" stroke="#ECEEED" stroke-width="0.61395"/>
</g>
</g>
<g opacity="0.68">
<g style="mix-blend-mode:multiply">
<line x1="506.948" y1="2.72983" x2="301.275" y2="2.72981" stroke="#ECEEED" stroke-width="0.61395"/>
</g>
<g style="mix-blend-mode:multiply">
<line x1="506.948" y1="17.4642" x2="301.275" y2="17.4642" stroke="#ECEEED" stroke-width="0.61395"/>
</g>
<g style="mix-blend-mode:multiply">
<line x1="506.948" y1="32.1996" x2="301.275" y2="32.1995" stroke="#ECEEED" stroke-width="0.61395"/>
</g>
<g style="mix-blend-mode:multiply">
<line x1="506.948" y1="46.9339" x2="301.275" y2="46.9339" stroke="#ECEEED" stroke-width="0.61395"/>
</g>
<g style="mix-blend-mode:multiply">
<line x1="506.948" y1="61.6693" x2="301.275" y2="61.6693" stroke="#ECEEED" stroke-width="0.61395"/>
</g>
<g style="mix-blend-mode:multiply">
<line x1="506.948" y1="76.4037" x2="301.275" y2="76.4036" stroke="#ECEEED" stroke-width="0.61395"/>
</g>
<g style="mix-blend-mode:multiply">
<line x1="506.948" y1="91.138" x2="301.275" y2="91.138" stroke="#ECEEED" stroke-width="0.61395"/>
</g>
<g style="mix-blend-mode:multiply">
<line x1="506.948" y1="105.873" x2="301.275" y2="105.873" stroke="#ECEEED" stroke-width="0.61395"/>
</g>
<g style="mix-blend-mode:multiply">
<line x1="506.948" y1="120.608" x2="301.275" y2="120.608" stroke="#ECEEED" stroke-width="0.61395"/>
</g>
<g style="mix-blend-mode:multiply">
<line x1="506.948" y1="135.343" x2="301.275" y2="135.343" stroke="#ECEEED" stroke-width="0.61395"/>
</g>
<g style="mix-blend-mode:multiply">
<line x1="506.948" y1="150.077" x2="301.275" y2="150.077" stroke="#ECEEED" stroke-width="0.61395"/>
</g>
</g>
</g>
<path opacity="0.26" d="M406.588 72.0827C443.002 53.5977 490.036 13.7777 460.289 15.377C400.004 18.6181 335.832 42.0077 285.895 63.8915C190.02 105.907 127.964 157.567 137.842 168.824C147.72 180.082 170.096 180.301 194.668 174.302" stroke="#B9B9B9" stroke-width="1.21279" stroke-linecap="round" stroke-dasharray="6.06 6.06"/>
<path opacity="0.26" d="M395.3 102.297C427.975 89.4715 471.104 60.5778 445.195 60.6162C392.688 60.694 335.638 76.1937 291.03 91.1026C205.386 119.727 148.534 157.17 156.453 166.272C164.373 175.373 183.78 176.445 205.453 172.796" stroke="#B9B9B9" stroke-width="1.09769" stroke-linecap="round" stroke-dasharray="5.49 5.49"/>
<rect x="84" y="-3" width="84" height="161" fill="url(#paint0_linear_3349_89120)"/>
<circle cx="207.559" cy="125.39" r="2.59307" transform="rotate(-4.65524 207.559 125.39)" fill="#FA8016"/>
<circle cx="275.93" cy="24.2712" r="2.9495" transform="rotate(-4.65524 275.93 24.2712)" fill="#F2F3F3" stroke="#74777C" stroke-width="1.09769"/>
<circle cx="379.18" cy="95.2695" r="2.4015" transform="rotate(-4.65524 379.18 95.2695)" fill="#F2F3F3" stroke="#74777C" stroke-width="1.09769"/>
<circle cx="263.582" cy="41.373" r="2.34653" transform="rotate(-4.65524 263.582 41.373)" fill="#FCEC3B"/>
<path d="M323.024 19.4458L282.185 35.3138L319.873 51.3241L360.237 34.3746L323.024 19.4458Z" fill="#FFADDF" stroke="#2B5C4F" stroke-width="2.19538" stroke-linejoin="round"/>
<path d="M321.418 172.068L319.96 50.9547L360.135 34.2998L360.565 152.471L321.418 172.068Z" fill="#FFADDF" stroke="#2B5C4F" stroke-width="2.19538" stroke-linejoin="round"/>
<path d="M321.727 171.982L320.272 51.0064L282.185 35.3115L284.537 153.326L321.727 171.982Z" fill="#FFADDF" stroke="#2B5C4F" stroke-width="2.19538" stroke-linejoin="round"/>
<path d="M282.766 84.2688L255.839 94.7315C254.921 95.0882 254.901 96.3798 255.807 96.7649L280.44 107.229C280.713 107.345 281.021 107.346 281.295 107.231L307.903 96.0581C308.808 95.6782 308.797 94.3926 307.887 94.0273L283.572 84.2732C283.314 84.1696 283.026 84.168 282.766 84.2688Z" fill="#2B5C4F" stroke="white" stroke-width="1.09769" stroke-linejoin="round"/>
<path d="M281.975 189.983L280.987 107.893C280.982 107.444 281.25 107.038 281.664 106.866L307.524 96.1454C308.246 95.8464 309.04 96.3747 309.042 97.1554L309.334 177.369C309.335 177.786 309.1 178.167 308.727 178.354L283.564 190.951C282.839 191.314 281.985 190.793 281.975 189.983Z" fill="#2B5C4F" stroke="white" stroke-width="1.09769" stroke-linejoin="round"/>
<path d="M282.191 189.874L281.205 107.912C281.199 107.472 280.932 107.078 280.525 106.911L256.145 96.8639C255.414 96.5626 254.614 97.11 254.629 97.9007L256.225 177.985C256.234 178.392 256.467 178.761 256.831 178.944L280.601 190.868C281.336 191.237 282.201 190.696 282.191 189.874Z" fill="#2B5C4F" stroke="white" stroke-width="1.09769" stroke-linejoin="round"/>
</g>
<defs>
<linearGradient id="paint0_linear_3349_89120" x1="84" y1="77.5" x2="220.957" y2="77.5" gradientUnits="userSpaceOnUse">
<stop stop-color="#2B5C4F"/>
<stop offset="1" stop-color="#2B5C4F" stop-opacity="0"/>
</linearGradient>
<clipPath id="clip0_3349_89120">
<rect width="396" height="152" rx="9.19424" fill="white"/>
</clipPath>
<clipPath id="clip1_3349_89120">
<rect width="188.482" height="205.673" fill="white" transform="translate(310)"/>
</clipPath>
</defs>
</svg>
