<svg width="180" height="187" viewBox="0 0 180 187" fill="none" xmlns="http://www.w3.org/2000/svg">
<g clip-path="url(#clip0_3458_557176)">
<circle cx="136.544" cy="5.88154" r="3.33344" fill="#2B5C4F"/>
<ellipse cx="4.14456" cy="17.206" rx="4.14456" ry="17.206" transform="matrix(-0.00242054 -0.999997 -0.999997 0.00242054 127.947 77.9614)" fill="#E8EEEE"/>
<path d="M110.413 57.4349C109.937 57.16 109.351 57.16 108.875 57.4349L81.6431 73.157C81.167 73.4319 80.8738 73.9398 80.8738 74.4894V133.288C80.8738 133.837 81.167 134.345 81.6431 134.62L108.875 150.342C109.351 150.617 109.937 150.617 110.413 150.342L137.645 134.62C138.121 134.345 138.414 133.837 138.414 133.288V74.4894C138.414 73.9398 138.121 73.4319 137.645 73.157L110.413 57.4349Z" stroke="#616161" stroke-linecap="round" stroke-linejoin="round"/>
<path d="M110.135 144.954L110.135 93.2863M110.135 93.2863L88.9492 79.7511M110.135 93.2863L133.246 79.7511" stroke="#616161" stroke-linecap="round" stroke-linejoin="round"/>
<path d="M78.5401 96.4439C78.0641 96.1691 77.4776 96.1691 77.0016 96.4439L49.77 112.166C49.2939 112.441 49.0007 112.949 49.0007 113.498L49.0007 152.929C49.0007 153.479 49.294 153.987 49.77 154.262L77.0016 169.984C77.4776 170.259 78.0641 170.259 78.5402 169.984L105.772 154.262C106.248 153.987 106.541 153.479 106.541 152.929L106.541 113.498C106.541 112.949 106.248 112.441 105.772 112.166L78.5401 96.4439Z" fill="#2B5C4F" stroke="#2B5C4F" stroke-linecap="round" stroke-linejoin="round"/>
<path d="M78.1817 162.539L78.1817 132.754M78.1817 132.754L56.9961 119.218M78.1817 132.754L101.293 119.218" stroke="white" stroke-linecap="round" stroke-linejoin="round"/>
<path d="M45.633 125.444C45.157 125.169 44.5705 125.169 44.0945 125.444L18.905 139.987C18.429 140.262 18.1358 140.77 18.1358 141.319V170.406C18.1358 170.955 18.429 171.463 18.905 171.738L44.0945 186.281C44.5705 186.556 45.157 186.556 45.633 186.281L70.8225 171.738C71.2985 171.463 71.5917 170.955 71.5917 170.406V141.319C71.5917 140.77 71.2985 140.262 70.8225 139.987L45.633 125.444Z" fill="#9BDCE1"/>
<path d="M45.1115 181.015L45.1115 155.866M45.1115 155.866L25.4297 143.291M45.1115 155.866L66.5825 143.291" stroke="white" stroke-linecap="round" stroke-linejoin="round"/>
<path d="M63.4754 27.6378C64.8231 27.6378 65.9157 26.5455 65.9157 25.1976C65.9157 23.8501 64.8231 22.7573 63.4754 22.7573C62.1277 22.7573 61.0352 23.8503 61.0352 25.1976C61.0352 26.5455 62.1277 27.6378 63.4754 27.6378Z" fill="#FCEC3B"/>
<path d="M55.85 88.8967C56.9731 88.8967 57.8835 87.9864 57.8835 86.8631C57.8835 85.7402 56.9731 84.8296 55.85 84.8296C54.7269 84.8296 53.8164 85.7404 53.8164 86.8631C53.8164 87.9864 54.7269 88.8967 55.85 88.8967Z" fill="white" stroke="#74777C" stroke-linecap="round" stroke-linejoin="round"/>
<path d="M104.567 23.9949C116.277 23.2335 131.392 34.4831 137.903 39.8619C139.795 41.425 140.214 44.2297 138.783 46.2486C134.244 52.652 123.252 65.4207 107.243 66.3825C91.2165 67.3453 78.895 55.9512 73.6967 50.1391C72.0595 48.3085 72.1347 45.512 73.7919 43.7492C79.4992 37.6782 92.9426 24.7507 104.567 23.9949Z" fill="#F7F8F8" stroke="#616161"/>
<path d="M108.902 23.3206C120.003 22.5956 134.39 33.9935 140.512 39.365C142.283 40.9182 142.68 43.5878 141.366 45.5664C137.152 51.9129 126.784 64.7947 111.578 65.7082C96.3532 66.6229 84.6269 55.0382 79.7533 49.2454C78.2364 47.4422 78.307 44.7825 79.8458 43.0445C85.1737 37.0269 97.8824 24.0403 108.902 23.3206Z" fill="#F7F8F8" stroke="#616161"/>
<path d="M109.534 33.2692C115.903 32.895 121.499 37.6913 122.033 43.9843C122.567 50.2751 117.836 55.6801 111.467 56.0543C105.097 56.4284 99.5007 51.6289 98.9671 45.3391C98.4332 39.0461 103.164 33.6433 109.534 33.2692Z" fill="#FFADDF"/>
<path d="M110.155 40.5939C112.43 40.4603 114.429 42.1732 114.619 44.4207C114.81 46.6675 113.12 48.5978 110.846 48.7315C108.571 48.8651 106.572 47.151 106.381 44.9046C106.191 42.6571 107.88 40.7275 110.155 40.5939Z" fill="#2B5C4F"/>
</g>
<defs>
<clipPath id="clip0_3458_557176">
<rect width="180" height="187" fill="white"/>
</clipPath>
</defs>
</svg>
