<svg width="181" height="187" viewBox="0 0 181 187" fill="none" xmlns="http://www.w3.org/2000/svg">
<g clip-path="url(#clip0_3763_63568)">
<path d="M59 49C60.1046 49 61 48.1048 61 47C61 45.8956 60.1046 45 59 45C57.8954 45 57 45.8958 57 47C57 48.1048 57.8954 49 59 49Z" fill="#FCEC3B"/>
<path d="M68 41C69.1046 41 70 40.1048 70 39C70 37.8956 69.1046 37 68 37C66.8954 37 66 37.8958 66 39C66 40.1048 66.8954 41 68 41Z" fill="white" stroke="#74777C" stroke-linecap="round" stroke-linejoin="round"/>
<path d="M104.5 62C105.328 62 106 61.3286 106 60.5C106 59.6717 105.328 59 104.5 59C103.672 59 103 59.6719 103 60.5C103 61.3286 103.672 62 104.5 62Z" fill="white" stroke="#74777C" stroke-linecap="round" stroke-linejoin="round"/>
<path d="M130.365 130.927C131.396 130.927 132.232 130.203 132.232 129.31C132.232 128.417 131.396 127.692 130.365 127.692C129.334 127.692 128.498 128.417 128.498 129.31C128.498 130.203 129.334 130.927 130.365 130.927Z" fill="white" stroke="#74777C" stroke-linecap="round" stroke-linejoin="round"/>
<path d="M112.281 64.1172C112.626 64.4482 113.151 64.41 113.454 64.0315C113.756 63.6532 113.721 63.078 113.375 62.7469C113.03 62.4158 112.505 62.4543 112.203 62.8326C111.901 63.211 111.936 63.7861 112.281 64.1172Z" fill="#FFADDF"/>
<path d="M32.41 123.614L81.3907 62.0383C82.4577 60.697 84.4731 60.633 85.623 61.9039L138.767 120.642C140.014 122.02 139.581 124.21 137.903 125.011L86.1819 149.692C85.4573 150.037 84.6186 150.053 83.8819 149.733L33.479 127.891C31.8024 127.164 31.2725 125.044 32.41 123.614Z" fill="#FFADDF"/>
<path d="M83.3145 71.5796L84.9515 141.673" stroke="#F7F8F8" stroke-linecap="round"/>
<path d="M66.9749 80.4539C48.814 76.9944 7.45772 72.0858 11.4498 83.5913C16.4399 97.973 166.893 149.153 176.589 129.375C181.058 120.26 131.692 95.1901 119.96 91.1133" stroke="#616161" stroke-linejoin="round" stroke-dasharray="5.38 5.38"/>
<ellipse cx="15.4377" cy="75.629" rx="14.4377" ry="14.0675" fill="#4E7E71"/>
<path fill-rule="evenodd" clip-rule="evenodd" d="M165.901 112.311C165.653 112.187 165.361 112.187 165.112 112.311L151.351 119.195C151.052 119.344 150.863 119.649 150.863 119.983V133.542C150.863 133.876 151.052 134.182 151.351 134.331L165.112 141.214C165.361 141.339 165.653 141.339 165.901 141.214L179.663 134.331C179.962 134.182 180.15 133.876 180.15 133.542V119.983C180.15 119.649 179.962 119.344 179.663 119.195L165.901 112.311Z" fill="#FCEC3B"/>
<path d="M165.112 112.311L165.336 112.759V112.759L165.112 112.311ZM165.901 112.311L166.125 111.864L166.125 111.864L165.901 112.311ZM151.351 119.195L151.127 118.748H151.127L151.351 119.195ZM151.351 134.331L151.127 134.778H151.127L151.351 134.331ZM165.112 141.214L164.889 141.662L164.889 141.662L165.112 141.214ZM165.901 141.214L166.125 141.662L166.125 141.662L165.901 141.214ZM179.663 134.331L179.886 134.778H179.886L179.663 134.331ZM179.663 119.195L179.439 119.642L179.663 119.195ZM164.873 138.702C164.873 138.978 165.097 139.202 165.373 139.202C165.649 139.202 165.873 138.978 165.873 138.702H164.873ZM176.398 121.234C176.64 121.101 176.727 120.796 176.593 120.555C176.46 120.313 176.155 120.226 175.914 120.359L176.398 121.234ZM153.836 120.351C153.589 120.226 153.288 120.324 153.164 120.571C153.039 120.817 153.137 121.118 153.383 121.243L153.836 120.351ZM165.336 112.759C165.443 112.705 165.57 112.705 165.678 112.759L166.125 111.864C165.736 111.67 165.278 111.67 164.889 111.864L165.336 112.759ZM151.574 119.642L165.336 112.759L164.889 111.864L151.127 118.748L151.574 119.642ZM151.363 119.983C151.363 119.839 151.445 119.707 151.574 119.642L151.127 118.748C150.659 118.982 150.363 119.46 150.363 119.983H151.363ZM151.363 133.542V119.983H150.363V133.542H151.363ZM151.574 133.884C151.445 133.819 151.363 133.687 151.363 133.542H150.363C150.363 134.066 150.659 134.544 151.127 134.778L151.574 133.884ZM165.336 140.767L151.574 133.884L151.127 134.778L164.889 141.662L165.336 140.767ZM165.678 140.767C165.57 140.821 165.443 140.821 165.336 140.767L164.889 141.662C165.278 141.856 165.736 141.856 166.125 141.662L165.678 140.767ZM179.439 133.884L165.678 140.767L166.125 141.662L179.886 134.778L179.439 133.884ZM179.65 133.542C179.65 133.687 179.568 133.819 179.439 133.884L179.886 134.778C180.355 134.544 180.65 134.066 180.65 133.542H179.65ZM179.65 119.983V133.542H180.65V119.983H179.65ZM179.439 119.642C179.568 119.707 179.65 119.839 179.65 119.983H180.65C180.65 119.46 180.355 118.982 179.886 118.748L179.439 119.642ZM165.678 112.759L179.439 119.642L179.886 118.748L166.125 111.864L165.678 112.759ZM165.873 138.702L165.873 126.765H164.873L164.873 138.702H165.873ZM165.615 127.203L176.398 121.234L175.914 120.359L165.131 126.328L165.615 127.203ZM165.599 126.319L153.836 120.351L153.383 121.243L165.147 127.211L165.599 126.319Z" fill="#F7F8F8"/>
<circle cx="165.362" cy="126.324" r="4.01238" fill="#F7F8F8" stroke="#616161"/>
<path d="M32.9435 99.8871C34.5692 99.8871 35.8871 98.5695 35.8871 96.9435C35.8871 95.3181 34.5692 94 32.9435 94C31.3179 94 30 95.3184 30 96.9435C30 98.5695 31.3179 99.8871 32.9435 99.8871Z" fill="white" stroke="#74777C" stroke-linecap="round" stroke-linejoin="round"/>
</g>
<defs>
<clipPath id="clip0_3763_63568">
<rect width="180" height="187" fill="white" transform="translate(0.5)"/>
</clipPath>
</defs>
</svg>
