<svg width="162" height="147" viewBox="0 0 162 147" fill="none" xmlns="http://www.w3.org/2000/svg">
<path d="M63.7136 103.924C63.9317 103.855 64.1656 103.855 64.3837 103.924L81.6571 109.352C82.1229 109.498 82.4398 109.93 82.4398 110.418V120.335C82.4398 120.823 82.1229 121.255 81.6571 121.402L64.3837 126.829C64.1656 126.898 63.9317 126.898 63.7136 126.829L46.4402 121.402C45.9745 121.255 45.6576 120.823 45.6576 120.335V110.418C45.6576 109.93 45.9745 109.498 46.4402 109.352L63.7136 103.924Z" fill="#F4F6F6" stroke="#74777C" stroke-width="1.82489" stroke-linecap="round" stroke-linejoin="round"/>
<path d="M63.8753 124.797L63.8753 115.379M63.8753 115.379L77.418 110.669M63.8753 115.379L49.1014 110.669" stroke="#74777C" stroke-opacity="0.7" stroke-width="0.43991" stroke-linecap="round" stroke-linejoin="round"/>
<path d="M62.8347 88.9666C63.0528 88.8981 63.2867 88.8981 63.5048 88.9666L80.7782 94.3945C81.244 94.5408 81.5608 94.9726 81.5608 95.4608V105.378C81.5608 105.866 81.244 106.298 80.7782 106.444L63.5048 111.872C63.2867 111.941 63.0528 111.941 62.8347 111.872L45.5613 106.444C45.0956 106.298 44.7787 105.866 44.7787 105.378V95.4608C44.7787 94.9726 45.0956 94.5408 45.5613 94.3945L62.8347 88.9666Z" fill="#F4F6F6" stroke="#74777C" stroke-width="1.82489" stroke-linecap="round" stroke-linejoin="round"/>
<path d="M62.9964 109.84L62.9964 100.422M62.9964 100.422L76.5391 95.7124M62.9964 100.422L48.2225 95.7124" stroke="#74777C" stroke-opacity="0.7" stroke-width="0.43991" stroke-linecap="round" stroke-linejoin="round"/>
<path d="M143.121 7.60967C144.582 8.88869 146.804 8.74074 148.083 7.27865C149.362 5.81706 149.214 3.5949 147.752 2.31588C146.291 1.03685 144.068 1.18556 142.79 2.64689C141.51 4.10899 141.659 6.33064 143.121 7.60967Z" fill="#FFADDF"/>
<path d="M156.534 19.7871C157.631 20.747 159.298 20.636 160.258 19.5387C161.218 18.4418 161.107 16.7741 160.01 15.8142C158.913 14.8543 157.245 14.9659 156.285 16.0626C155.325 17.1599 155.437 18.8272 156.534 19.7871Z" fill="#7AD0D7"/>
<path d="M60.7049 75.3674C61.5842 90.2984 53.8433 111.094 43.415 121.816C32.9867 132.538 23.8201 129.126 22.9408 114.195C22.0614 99.2638 29.8024 78.468 40.2307 67.7461C50.659 57.0242 59.8256 60.4364 60.7049 75.3674Z" fill="white" stroke="black" stroke-width="0.622571"/>
<path d="M53.5682 73.1643C54.4475 88.0953 46.7065 108.891 36.2783 119.613C25.85 130.335 16.6833 126.923 15.804 111.992C14.9247 97.0607 22.6657 76.2649 33.094 65.543C43.5223 54.8211 52.6889 58.2333 53.5682 73.1643Z" fill="#FCEC3B" stroke="black" stroke-width="0.622571"/>
<path d="M27.953 101.802L29.2609 98.466L30.4585 99.9665L29.1506 103.303L27.953 101.802ZM35.1371 83.4757L36.473 80.0677L37.6706 81.5682L36.3347 84.9762L35.1371 83.4757ZM29.6455 100.583C28.911 99.6623 28.3213 98.6155 27.8764 97.4421C27.4316 96.2688 27.1501 95.0633 27.0321 93.8256C26.9203 92.5721 26.9883 91.366 27.236 90.2076L28.4966 91.1829L28.6536 91.4506C28.5091 92.2647 28.48 93.1285 28.5663 94.0421C28.6589 94.9399 28.8505 95.8077 29.1411 96.6457C29.4423 97.4969 29.8325 98.2226 30.3115 98.8228C30.8331 99.4764 31.3407 99.9228 31.8342 100.162C32.3384 100.415 32.7895 100.459 33.1874 100.294C33.6022 100.127 33.9248 99.749 34.1553 99.1611C34.4667 98.3667 34.5543 97.5762 34.4182 96.7897C34.2883 95.9873 34.0083 95.1627 33.5783 94.3159L31.7457 90.6694C31.0266 89.2236 30.5962 87.8314 30.4542 86.4927C30.3123 85.154 30.4406 83.9763 30.8392 82.9594C31.1818 82.0856 31.6298 81.5097 32.1832 81.2318C32.7535 80.9513 33.3848 80.9605 34.0772 81.2594C34.7696 81.5583 35.4671 82.1479 36.1697 83.0282C36.8616 83.8951 37.4065 84.874 37.8044 85.9647C38.2191 87.0529 38.4704 88.1733 38.5583 89.3258C38.6569 90.4917 38.581 91.6167 38.3306 92.7008L37.0727 91.6579L36.9158 91.3901C37.1635 90.2317 37.1578 89.0518 36.8985 87.8504C36.6393 86.649 36.169 85.6215 35.4877 84.7679C34.7851 83.8876 34.1244 83.427 33.5055 83.386C32.8972 83.3583 32.4312 83.7576 32.1073 84.5838C31.852 85.2352 31.7893 85.9621 31.9192 86.7645C32.0491 87.567 32.3494 88.4408 32.8202 89.386L34.6528 93.0325C35.3311 94.3798 35.7443 95.7149 35.8925 97.0377C36.0468 98.3446 35.906 99.5541 35.4701 100.666C35.0902 101.635 34.592 102.279 33.9755 102.596C33.3758 102.911 32.697 102.901 31.9389 102.568C31.1977 102.231 30.4333 101.57 29.6455 100.583Z" fill="#616161"/>
<path d="M15.6166 58.9996C16.6067 59.8659 18.1114 59.7657 18.9778 58.7754C19.8439 57.7855 19.7437 56.2805 18.7536 55.4142C17.7636 54.5479 16.2584 54.6487 15.3924 55.6384C14.526 56.6286 14.6265 58.1333 15.6166 58.9996Z" fill="#FFADDF"/>
<path d="M31.1852 51.0554C31.6806 51.4888 31.7308 52.2416 31.2974 52.737C30.864 53.2323 30.111 53.2826 29.6157 52.8492C29.1203 52.4158 29.0702 51.6627 29.5035 51.1675C29.937 50.6721 30.6898 50.6219 31.1852 51.0554Z" fill="white" stroke="#74777C" stroke-width="0.595886" stroke-linecap="round" stroke-linejoin="round"/>
<path d="M38.9313 136.864C39.4266 137.297 39.4769 138.05 39.0435 138.546C38.6101 139.041 37.8571 139.091 37.3618 138.658C36.8664 138.224 36.8163 137.471 37.2496 136.976C37.6831 136.481 38.4359 136.431 38.9313 136.864Z" fill="white" stroke="#74777C" stroke-width="0.595886" stroke-linecap="round" stroke-linejoin="round"/>
<path d="M35.8481 99.1005C36.4421 109.187 31.2126 123.236 24.1677 130.479C17.1228 137.723 10.9302 135.418 10.3361 125.331C9.7421 115.244 14.9716 101.195 22.0165 93.9519C29.0614 86.7086 35.254 89.0137 35.8481 99.1005Z" fill="white" stroke="black" stroke-width="0.420584"/>
<path d="M31.0278 97.6122C31.6218 107.699 26.3923 121.748 19.3474 128.991C12.3024 136.234 6.10985 133.929 5.51582 123.842C4.92179 113.756 10.1513 99.7069 17.1962 92.4636C24.2411 85.2203 30.4337 87.5254 31.0278 97.6122Z" fill="#FCEC3B" stroke="black" stroke-width="0.420584"/>
<path d="M13.5525 117.39L14.436 115.136L15.2451 116.149L14.3615 118.403L13.5525 117.39ZM18.4058 105.009L19.3083 102.706L20.1173 103.72L19.2148 106.022L18.4058 105.009ZM14.6959 116.565C14.1997 115.944 13.8013 115.237 13.5008 114.444C13.2002 113.651 13.0101 112.837 12.9304 112.001C12.8548 111.154 12.9008 110.339 13.0681 109.556L13.9198 110.215L14.0258 110.396C13.9282 110.946 13.9085 111.53 13.9669 112.147C14.0294 112.753 14.1588 113.34 14.3551 113.906C14.5586 114.481 14.8222 114.971 15.1458 115.377C15.4982 115.818 15.8411 116.12 16.1745 116.281C16.5151 116.452 16.8198 116.482 17.0886 116.37C17.3689 116.257 17.5868 116.002 17.7425 115.605C17.9529 115.068 18.0121 114.534 17.9201 114.003C17.8323 113.461 17.6432 112.904 17.3527 112.332L16.1147 109.868C15.6289 108.892 15.3381 107.951 15.2422 107.047C15.1464 106.143 15.2331 105.347 15.5023 104.66C15.7337 104.07 16.0364 103.681 16.4102 103.493C16.7955 103.303 17.222 103.309 17.6898 103.511C18.1575 103.713 18.6287 104.112 19.1034 104.706C19.5708 105.292 19.9389 105.953 20.2077 106.69C20.4879 107.425 20.6576 108.182 20.717 108.961C20.7836 109.748 20.7323 110.508 20.5632 111.241L19.7134 110.536L19.6074 110.355C19.7748 109.573 19.7709 108.776 19.5957 107.964C19.4206 107.152 19.1029 106.458 18.6426 105.882C18.168 105.287 17.7216 104.976 17.3035 104.948C16.8926 104.929 16.5778 105.199 16.359 105.757C16.1865 106.197 16.1441 106.688 16.2319 107.23C16.3197 107.773 16.5226 108.363 16.8406 109.001L18.0786 111.465C18.5368 112.375 18.816 113.277 18.9161 114.171C19.0204 115.054 18.9253 115.871 18.6307 116.622C18.3741 117.277 18.0375 117.711 17.621 117.926C17.216 118.138 16.7574 118.132 16.2452 117.906C15.7445 117.679 15.2281 117.232 14.6959 116.565Z" fill="#616161"/>
<path d="M66.6886 50.4281C67.4199 51.068 67.4942 52.1795 66.8542 52.911C66.2144 53.6423 65.1026 53.7166 64.3712 53.0767C63.6398 52.4367 63.5659 51.3248 64.2056 50.5937C64.8456 49.8621 65.9572 49.7881 66.6886 50.4281Z" fill="white" stroke="#74777C" stroke-width="0.87982" stroke-linecap="round" stroke-linejoin="round"/>
<path d="M85.7289 122.454L117.369 82.6781C118.08 81.7848 119.422 81.7422 120.188 82.5886L154.54 120.558C155.602 121.731 154.796 123.608 153.214 123.647L118.726 124.495L87.2325 125.454C85.6586 125.502 84.7486 123.686 85.7289 122.454Z" fill="#9BDCE1"/>
<path d="M118.512 85.1836L91.8386 123.51" stroke="#616161" stroke-width="0.462338" stroke-linecap="round"/>
<path d="M153.142 42.3659L120.522 83.3746C119.811 84.2679 118.469 84.3106 117.703 83.4641L82.31 44.3455C81.4795 43.4276 81.7677 41.9688 82.8849 41.4357L117.331 24.9986C117.813 24.7683 118.372 24.7582 118.863 24.9708L152.43 39.5178C153.547 40.0017 153.9 41.4135 153.142 42.3659Z" stroke="#616161" stroke-width="0.462338" stroke-linecap="round" stroke-linejoin="round"/>
<path d="M116.953 77.8789L86.8057 42.2213" stroke="#616161" stroke-width="0.462338" stroke-linecap="round"/>
<path d="M120.549 84.2828L117.974 84.2819L107.029 71.8403L95.4417 58.7086L139.849 58.7196L129.553 71.8464L120.549 84.2828Z" fill="#9BDCE1"/>
<line x1="100.274" y1="58.1398" x2="118.213" y2="81.1386" stroke="#616161" stroke-width="0.463346" stroke-linecap="round"/>
</svg>
