<svg width="180" height="187" viewBox="0 0 180 187" fill="none" xmlns="http://www.w3.org/2000/svg">
<g clip-path="url(#clip0_3458_208261)">
<circle cx="145.075" cy="56.4684" r="3.20208" fill="#FFADDF"/>
<circle cx="57.2454" cy="39.0859" r="0.87232" stroke="#74777C"/>
<path d="M36.8687 134.15L86.9805 119.348C87.9611 119.059 89.0382 118.909 90.1296 118.909C91.2211 118.909 92.2982 119.059 93.2788 119.348L143.395 134.15C145.767 134.849 147.262 136.273 147.262 137.832V149.621C147.262 151.177 145.767 152.604 143.395 153.303L93.2879 168.102C92.3073 168.391 91.2302 168.541 90.1388 168.541C89.0473 168.541 87.9702 168.391 86.9897 168.102L36.8687 153.303C35.7164 152.969 34.7429 152.447 34.0593 151.796C33.3756 151.145 33.0093 150.391 33.002 149.621V137.832C33.002 136.273 34.4965 134.849 36.8687 134.15Z" fill="#2B5C4F"/>
<path d="M39.1309 139.147L90.8625 153.18L140.666 139.147M90.8625 164.35V153.189V164.35Z" fill="#2B5C4F"/>
<path d="M39.1309 139.147L90.8625 153.18L140.666 139.147M90.8625 164.35V153.189" stroke="#F7F8F8" stroke-linecap="round" stroke-linejoin="round"/>
<path d="M47.1609 109.373L89.3911 96.7717C90.2175 96.5258 91.1252 96.3979 92.045 96.3979C92.9648 96.3979 93.8724 96.5258 94.6988 96.7717L136.933 109.373C138.932 109.969 140.191 111.181 140.191 112.509V122.545C140.191 123.87 138.932 125.084 136.933 125.68L94.7065 138.279C93.8801 138.525 92.9725 138.653 92.0527 138.653C91.1329 138.653 90.2252 138.525 89.3988 138.279L47.1609 125.68C46.1898 125.396 45.3695 124.951 44.7934 124.397C44.2172 123.843 43.9085 123.201 43.9023 122.545V112.509C43.9023 111.181 45.1619 109.969 47.1609 109.373Z" fill="#FFADDF" stroke="#FFADDF" stroke-linecap="round" stroke-linejoin="round"/>
<path d="M48.4434 113.918L92.411 125.395L134.74 113.918M92.411 134.531V125.402V134.531Z" fill="#FFADDF"/>
<path d="M48.4434 113.918L92.411 125.395L134.74 113.918M92.411 134.531V125.402" stroke="white" stroke-linecap="round" stroke-linejoin="round"/>
<ellipse cx="2.57654" cy="12.3509" rx="2.57654" ry="12.3509" transform="matrix(-4.16235e-08 -1 -1 4.5904e-08 108.021 110.826)" fill="#D8F1F3" fill-opacity="0.76"/>
<path d="M44.5477 148.245C44.6799 148.162 44.8482 148.162 44.9804 148.245L50.9369 152.005C51.0546 152.079 51.1259 152.208 51.1259 152.347V159.931C51.1259 160.07 51.0546 160.199 50.9369 160.273L44.9804 164.033C44.8482 164.116 44.6799 164.116 44.5477 164.033L38.5911 160.273C38.4735 160.199 38.4022 160.07 38.4022 159.931V152.347C38.4022 152.208 38.4735 152.079 38.5911 152.005L44.5477 148.245Z" fill="#F4F6F6" stroke="#74777C" stroke-linecap="round" stroke-linejoin="round"/>
<path d="M44.7039 162.683L44.7039 156.14M44.7039 156.14L49.3887 152.868M44.7039 156.14L39.5933 152.868" stroke="#74777C" stroke-linecap="round" stroke-linejoin="round"/>
<path d="M120.729 13.8788L137.749 106.84L98.757 74.9154L57.6459 65.717L120.729 13.8788Z" fill="#FCEC3B"/>
<path d="M99.4785 79.615L54.9047 73.7055L57.7555 65.724L99.3759 70.9278L131.07 94.7292L137.099 106.5L99.4785 79.615Z" fill="#FCEC3B"/>
<path d="M99.4785 79.615L54.9047 73.7055L57.7555 65.724L99.3759 70.9278M99.4785 79.615L137.099 106.5L131.07 94.7292L99.3759 70.9278M99.4785 79.615L99.3759 70.9278" stroke="white" stroke-width="0.661752"/>
<path d="M117.6 16.3257L131.398 94.7332" stroke="white" stroke-width="0.661752"/>
<circle cx="2.75706" cy="2.75706" r="2.75706" transform="matrix(0.989156 0.0124344 0.0118405 1.01058 65.8691 22.9182)" fill="#2B5C4F"/>
</g>
<defs>
<clipPath id="clip0_3458_208261">
<rect width="180" height="187" fill="white"/>
</clipPath>
</defs>
</svg>
