<svg width="181" height="187" viewBox="0 0 181 187" fill="none" xmlns="http://www.w3.org/2000/svg">
<g clip-path="url(#clip0_3458_557390)">
<path d="M94.8749 45.5091C95.5032 45.1463 96.2774 45.1463 96.9057 45.5091L132.237 65.9077C132.865 66.2705 133.253 66.9409 133.253 67.6665V108.464C133.253 109.189 132.865 109.86 132.237 110.222L96.9057 130.621C96.2774 130.984 95.5032 130.984 94.8749 130.621L59.5434 110.222C58.9151 109.86 58.528 109.189 58.528 108.464V67.6665C58.528 66.9409 58.9151 66.2705 59.5434 65.9077L94.8749 45.5091Z" fill="#2B5C4F" stroke="white" stroke-linecap="round" stroke-linejoin="round"/>
<path d="M95.5499 123.225L95.5499 88.0698M95.5499 88.0698L123.063 70.4923M95.5499 88.0698L65.5361 70.4923" stroke="white" stroke-linecap="round" stroke-linejoin="round"/>
<rect width="58.5898" height="39.5328" rx="4.5153" transform="matrix(0.866025 -0.5 0.866025 0.5 34.3164 167.233)" fill="#D9D9D9" fill-opacity="0.53"/>
<path d="M64.3419 94.1766C64.865 93.8745 65.5096 93.8745 66.0327 94.1766L95.4476 111.159C95.9707 111.461 96.293 112.019 96.293 112.624V146.589C96.293 147.193 95.9707 147.751 95.4476 148.053L66.0327 165.036C65.5096 165.338 64.865 165.338 64.3419 165.036L34.927 148.053C34.4039 147.751 34.0816 147.193 34.0816 146.589V112.624C34.0816 112.019 34.4039 111.461 34.927 111.159L64.3419 94.1766Z" fill="#B6CDC7"/>
<path d="M64.9051 158.878L64.9051 129.61M64.9051 129.61L87.8106 114.976M64.9051 129.61L39.9174 114.976" stroke="white" stroke-linecap="round" stroke-linejoin="round"/>
<path d="M38.7362 75.9507C38.9074 75.8519 39.1182 75.8519 39.2893 75.9507L47.8372 80.8858C48.0083 80.9846 48.1137 81.1672 48.1137 81.3648V91.235C48.1137 91.4326 48.0083 91.6152 47.8372 91.714L39.2893 96.6491C39.1182 96.7479 38.9074 96.7479 38.7362 96.6491L30.1884 91.714C30.0172 91.6152 29.9118 91.4326 29.9118 91.235V81.3648C29.9118 81.1672 30.0172 80.9846 30.1884 80.8858L38.7362 75.9507Z" fill="#F4F6F6" stroke="#74777C" stroke-linecap="round" stroke-linejoin="round"/>
<path d="M38.9292 94.8647L38.9292 86.3015M38.9292 86.3015L45.6309 82.0198M38.9292 86.3015L31.6182 82.0198" stroke="#74777C" stroke-opacity="0.46" stroke-linecap="round" stroke-linejoin="round"/>
<path d="M83.8261 7.66219L79.2195 31.0355L79.1594 31.3404L78.8737 31.4186L57.5836 37.2467L76.0337 45.8935L76.2694 46.004L76.2115 46.2978L71.5991 69.7006L87.5861 51.6548L87.8034 51.4095L88.0537 51.5268L106.466 60.1558L97.9254 40.3537L97.8182 40.1051L98.0228 39.874L114.043 21.7911L92.7527 27.6193L92.467 27.6975L92.3557 27.4395L83.8261 7.66219Z" stroke="white" stroke-width="0.807277"/>
<path d="M92.4591 4.95464L87.8556 28.3618L87.7956 28.6668L87.5098 28.7451L66.2183 34.5736L84.672 43.2424L84.9073 43.3529L84.8496 43.6464L80.2401 67.0843L96.2252 49.0175L96.4427 48.7717L96.6933 48.8894L115.107 57.5394L106.563 37.7022L106.456 37.4538L106.661 37.223L122.68 19.1172L101.389 24.9457L101.103 25.024L100.992 24.7658L92.4591 4.95464Z" fill="#FCEC3B" stroke="white" stroke-width="0.807277"/>
<path d="M82.9029 6.71619L92.0332 4.28516L89.7756 16.4765L87.8291 28.1454L77.7815 31.2833L82.9029 6.71619Z" fill="#FDF16C" stroke="white" stroke-width="0.807277"/>
<path opacity="0.94" d="M107.681 61.4632L115.512 58.0173L96.5482 48.9864L92.0315 53.9535L107.681 61.4632Z" fill="#FCEC3B" stroke="white" stroke-width="0.85181"/>
<path d="M71.3156 71.0139L79.84 68.4036L84.8628 43.5984L65.8425 34.5386L57.715 36.7966L76.2692 46.6266L71.3156 71.0139Z" fill="#FDF16C" stroke="white" stroke-width="0.807277"/>
<circle cx="140.03" cy="8.78157" r="4.17073" fill="#9BDCE1"/>
<circle cx="149.827" cy="33.6355" r="4.06377" fill="#FFADDF"/>
</g>
<defs>
<clipPath id="clip0_3458_557390">
<rect width="180" height="187" fill="white" transform="translate(0.5)"/>
</clipPath>
</defs>
</svg>
