<svg width="181" height="187" viewBox="0 0 181 187" fill="none" xmlns="http://www.w3.org/2000/svg">
<path d="M129.801 29.8099C128.658 29.8099 127.731 28.8631 127.731 27.6947C127.731 26.5268 128.658 25.5796 129.801 25.5796C130.944 25.5796 131.871 26.527 131.871 27.6947C131.871 28.8631 130.944 29.8099 129.801 29.8099Z" fill="white" stroke="#74777C" stroke-linecap="round" stroke-linejoin="round"/>
<path d="M58.5374 23.0526C57.3942 23.0526 56.4674 22.1058 56.4674 20.9374C56.4674 19.7695 57.3942 18.8223 58.5374 18.8223C59.6807 18.8223 60.6074 19.7697 60.6074 20.9374C60.6074 22.1058 59.6807 23.0526 58.5374 23.0526Z" fill="#2B5C4F"/>
<path d="M91.5705 61.18C92.1126 60.7687 92.8623 60.7687 93.4045 61.18L117.431 79.4065C117.809 79.6933 118.032 80.1406 118.032 80.6153V149.774C118.032 150.248 117.809 150.696 117.431 150.983L93.4045 169.209C92.8623 169.62 92.1126 169.62 91.5705 169.209L67.5437 150.983C67.1655 150.696 66.9434 150.248 66.9434 149.774V80.6153C66.9434 80.1406 67.1655 79.6933 67.5437 79.4065L91.5705 61.18Z" fill="#FFADDF" stroke="white" stroke-linecap="round" stroke-linejoin="round"/>
<path d="M91.7836 147.734L91.7836 93.5411M91.7836 93.5411L110.65 79.3444M91.7836 93.5411L71.2016 79.3444" stroke="white" stroke-linecap="round" stroke-linejoin="round"/>
<path d="M117.456 59.034L92.3411 18.5673L67.2262 59.0341L92.1619 49.3509L92.3429 49.2806L92.5239 49.3509L117.456 59.034Z" stroke="#616161"/>
<path opacity="0.25" d="M123.163 73.6281C142.868 68.9679 171.909 63.6436 174.214 76.7375C177.72 96.6476 32.7825 171.749 7.89857 144.243C-3.57092 131.566 45.2893 105.443 58.3831 98.896" stroke="#616161" stroke-linejoin="round" stroke-dasharray="5.04 5.04"/>
<path d="M7.68489 146.668C4.43877 146.668 1.80728 143.98 1.80728 140.662C1.80728 137.346 4.43877 134.656 7.68489 134.656C10.931 134.656 13.5625 137.346 13.5625 140.662C13.5625 143.98 10.931 146.668 7.68489 146.668Z" fill="#2B5C4F"/>
<path d="M62.0501 105.897C61.8408 105.773 61.5809 105.773 61.3716 105.897L49.3211 113.006C49.1176 113.126 48.9927 113.345 48.9927 113.581V127.825C48.9927 128.061 49.1176 128.28 49.3211 128.4L61.3716 135.509C61.5809 135.632 61.8408 135.632 62.0501 135.509L74.1006 128.4C74.3041 128.28 74.429 128.061 74.429 127.825V113.581C74.429 113.345 74.3041 113.126 74.1006 113.006L62.0501 105.897Z" fill="white" stroke="#74777C" stroke-linecap="round" stroke-linejoin="round"/>
<path d="M61.8263 132.934L61.8263 120.706M61.8263 120.706L52.4609 114.592M61.8263 120.706L72.043 114.592" stroke="#74777C" stroke-linecap="round" stroke-linejoin="round"/>
<path d="M162.66 75.4075C159.616 75.4075 157.149 72.8871 157.149 69.777C157.149 66.6679 159.616 64.1465 162.66 64.1465C165.703 64.1465 168.17 66.6684 168.17 69.777C168.17 72.8871 165.703 75.4075 162.66 75.4075Z" fill="#7AD0D7"/>
<path d="M152.054 102.421C150.941 102.421 150.039 101.519 150.039 100.407C150.039 99.2942 150.941 98.3921 152.054 98.3921C153.166 98.3921 154.068 99.2944 154.068 100.407C154.068 101.519 153.166 102.421 152.054 102.421Z" fill="white" stroke="#74777C" stroke-linecap="round" stroke-linejoin="round"/>
</svg>
