<svg width="162" height="151" viewBox="0 0 162 151" fill="none" xmlns="http://www.w3.org/2000/svg">
<rect width="53.1959" height="43.8507" transform="matrix(0.866025 -0.5 0.866025 0.5 73.3242 96.6094)" fill="#D9D9D9" fill-opacity="0.26"/>
<line x1="27.0184" y1="81.9317" x2="44.5471" y2="73.2627" stroke="#616161" stroke-width="0.718864"/>
<path d="M108.909 106.313L109.628 121.984L93.4538 130.754M15.0977 103.078V109.188L63.621 135.786" stroke="#616161" stroke-width="0.718864"/>
<path d="M78.7188 115.564C79.0014 115.401 79.3495 115.401 79.632 115.564L93.7454 123.713C94.0279 123.876 94.202 124.177 94.202 124.504V140.8C94.202 141.127 94.0279 141.428 93.7454 141.591L79.632 149.74C79.3495 149.903 79.0014 149.903 78.7188 149.74L64.6054 141.591C64.3229 141.428 64.1488 141.127 64.1488 140.8V124.504C64.1488 124.177 64.3229 123.876 64.6054 123.713L78.7188 115.564Z" fill="#F4F6F6" stroke="#74777C" stroke-width="1.49104" stroke-linecap="round" stroke-linejoin="round"/>
<path d="M79.0364 146.793L79.0364 132.654M79.0364 132.654L90.1016 125.585M79.0364 132.654L66.9653 125.585" stroke="#74777C" stroke-opacity="0.7" stroke-width="0.359432" stroke-linecap="round" stroke-linejoin="round"/>
<path d="M15.0488 72.4028C15.3005 72.2575 15.6106 72.2575 15.8623 72.4028L28.4338 79.6609C28.6854 79.8062 28.8405 80.0748 28.8405 80.3654V94.8817C28.8405 95.1723 28.6854 95.4408 28.4338 95.5861L15.8623 102.844C15.6106 102.99 15.3005 102.99 15.0488 102.844L2.47738 95.5861C2.2257 95.4408 2.07065 95.1723 2.07065 94.8817V80.3654C2.07065 80.0748 2.2257 79.8062 2.47738 79.6609L15.0488 72.4028Z" fill="#20463C"/>
<path d="M15.3331 100.221L15.3331 87.6265M15.3331 87.6265L25.1895 81.3294M15.3331 87.6265L4.58081 81.3294" stroke="white" stroke-width="0.359432" stroke-linecap="round" stroke-linejoin="round"/>
<path d="M47.6843 61.5119C47.8205 61.4332 47.9884 61.4332 48.1246 61.5119L54.929 65.4404C55.0652 65.519 55.1491 65.6644 55.1491 65.8217V73.6787C55.1491 73.836 55.0652 73.9813 54.929 74.06L48.1246 77.9885C47.9884 78.0671 47.8205 78.0671 47.6843 77.9885L40.88 74.06C40.7437 73.9813 40.6598 73.836 40.6598 73.6787V65.8217C40.6598 65.6644 40.7437 65.519 40.88 65.4404L47.6843 61.5119Z" fill="#F4F6F6" stroke="#74777C" stroke-width="0.718864" stroke-linecap="round" stroke-linejoin="round"/>
<path d="M47.8371 76.5684L47.8371 69.7517M47.8371 69.7517L53.1719 66.3434M47.8371 69.7517L42.0174 66.3434" stroke="#74777C" stroke-width="0.718864" stroke-linecap="round" stroke-linejoin="round"/>
<path d="M74.4032 21.8474C77.3808 21.8474 79.7947 19.4341 79.7947 16.4559C79.7947 13.4788 77.3808 11.0645 74.4032 11.0645C71.4256 11.0645 69.0117 13.4793 69.0117 16.4559C69.0117 19.4341 71.4256 21.8474 74.4032 21.8474Z" fill="#FFADDF"/>
<path d="M91.8847 5.05074C93.0033 5.05074 93.9101 4.14415 93.9101 3.02537C93.9101 1.90698 93.0033 1 91.8847 1C90.7662 1 89.8594 1.90717 89.8594 3.02537C89.8594 4.14415 90.7662 5.05074 91.8847 5.05074Z" fill="white" stroke="#74777C" stroke-width="0.718864" stroke-linecap="round" stroke-linejoin="round"/>
<path d="M159.457 71.1875C160.576 71.1875 161.482 70.2809 161.482 69.1621C161.482 68.0437 160.576 67.1367 159.457 67.1367C158.338 67.1367 157.432 68.0439 157.432 69.1621C157.432 70.2809 158.338 71.1875 159.457 71.1875Z" fill="white" stroke="#74777C" stroke-width="0.718864" stroke-linecap="round" stroke-linejoin="round"/>
<path d="M37.9687 136.603C39.0873 136.603 39.9941 135.697 39.9941 134.578C39.9941 133.46 39.0873 132.553 37.9687 132.553C36.8501 132.553 35.9434 133.46 35.9434 134.578C35.9434 135.697 36.8501 136.603 37.9687 136.603Z" fill="white" stroke="#74777C" stroke-width="0.718864" stroke-linecap="round" stroke-linejoin="round"/>
<path d="M111.845 32.4611C111.255 32.1202 110.527 32.1202 109.937 32.4611L78.6881 50.5025C78.0975 50.8435 77.7337 51.4736 77.7337 52.1555V88.2383C77.7337 88.9202 78.0975 89.5503 78.6881 89.8912L109.937 107.933C110.527 108.274 111.255 108.274 111.845 107.933L143.094 89.8912C143.685 89.5503 144.048 88.9202 144.048 88.2383V52.1555C144.048 51.4736 143.685 50.8435 143.094 50.5025L111.845 32.4611Z" fill="#9BDCE1"/>
<path d="M111.197 101.398L111.197 70.2M111.197 70.2L86.7812 54.6008M111.197 70.2L137.833 54.6008" stroke="white" stroke-width="0.895385" stroke-linecap="round" stroke-linejoin="round"/>
<line x1="68.8981" y1="89.0789" x2="96.9338" y2="79.7337" stroke="#616161" stroke-width="0.718864"/>
<circle cx="67.5737" cy="89.4194" r="9.34523" fill="#FCEC3B"/>
<line x1="110.345" y1="108.096" x2="111.064" y2="125.349" stroke="white" stroke-width="0.718864"/>
<path d="M125.319 124.772C125.455 124.693 125.623 124.693 125.759 124.772L132.564 128.7C132.7 128.779 132.784 128.924 132.784 129.081V136.938C132.784 137.096 132.7 137.241 132.564 137.32L125.759 141.248C125.623 141.327 125.455 141.327 125.319 141.248L118.515 137.32C118.378 137.241 118.295 137.096 118.295 136.938V129.081C118.295 128.924 118.378 128.779 118.515 128.7L125.319 124.772Z" fill="#F4F6F6" stroke="#74777C" stroke-width="0.718864" stroke-linecap="round" stroke-linejoin="round"/>
<path d="M125.472 139.828L125.472 133.011M125.472 133.011L130.807 129.603M125.472 133.011L119.652 129.603" stroke="#74777C" stroke-width="0.718864" stroke-linecap="round" stroke-linejoin="round"/>
</svg>
