<svg width="122" height="164" viewBox="0 0 122 164" fill="none" xmlns="http://www.w3.org/2000/svg">
<path d="M34.1106 118.878L30.4155 99.3054L47.7004 91.5737L51.9345 95.2499L51.9379 95.2583C51.7821 95.6723 50.2945 99.8477 52.8888 103.543C54.3256 105.589 56.2936 106.464 57.1384 106.78C58.0123 107.031 60.5466 107.646 63.4297 106.643C66.5085 105.569 68.0333 103.336 68.4833 102.612C68.913 101.834 69.9307 99.715 69.5903 96.8667C69.3202 94.6139 68.3268 92.9944 67.7866 92.2256L85.7778 84.7248L89.3221 88.5774C91.883 104.615 94.1725 120.904 96.7334 136.941C96.8317 137.708 97.1672 140.903 95.0378 143.867C93.0977 146.568 90.348 147.355 89.5427 147.555L39.4548 156.7C39.2204 156.342 36.0553 151.987 36.0553 151.987C36.0553 151.987 36.9472 140.501 36.1774 135.521C35.2458 136.259 33.0239 137.094 30.9339 137.304C26.9897 137.7 20.2212 136.258 19.0152 128.328C18.1592 124.458 22.4558 121.538 26.7232 119.119C28.4724 118.127 32.0508 117.793 34.1106 118.878Z" fill="#2B5C4F" stroke="#F7F8F8" stroke-width="0.667796" stroke-miterlimit="10" stroke-linecap="round" stroke-linejoin="round"/>
<path d="M25.9026 133.643C20.2313 132.383 18.397 127.263 17.8463 124.561L17.791 124.216L37.5594 126.942C36.2652 129.9 31.574 134.903 25.9026 133.643Z" fill="#F7F8F8"/>
<path d="M26.2598 95.2308L47.7788 91.1753L47.7822 91.1837C47.6264 91.5976 46.1389 95.7731 48.7331 99.4688C50.1699 101.514 52.138 102.389 52.9828 102.705C53.8566 102.956 56.3909 103.571 59.274 102.568C62.3528 101.495 63.8776 99.2617 64.3276 98.5375C64.7573 97.7589 65.775 95.6403 65.4346 92.7921C65.1645 90.5392 64.1711 88.9197 63.6309 88.151L85.1665 84.5027C87.7273 100.54 90.0169 116.829 92.5777 132.867C92.6761 133.633 93.0115 136.829 90.8821 139.792C88.9421 142.493 86.1923 143.28 85.387 143.481L35.2992 152.626C34.7481 149.078 33.3117 139.791 32.0217 131.446C31.0901 132.184 28.8682 133.019 26.7783 133.229C22.834 133.625 18.8337 130.73 17.9865 125.443C17.1305 121.573 18.3002 117.464 22.5675 115.044C24.3167 114.052 27.8951 113.719 29.9549 114.803L26.2598 95.2308Z" fill="#2B5C4F" stroke="#F7F8F8" stroke-width="0.667796" stroke-miterlimit="10" stroke-linecap="round" stroke-linejoin="round"/>
<path d="M5.93199 91.122C5.4246 89.7378 3.89138 89.0269 2.5069 89.5343C1.12289 90.0416 0.411813 91.5752 0.919195 92.9594C1.42658 94.3437 2.96052 95.0543 4.34429 94.5471C5.72877 94.0397 6.43937 92.5063 5.93199 91.122Z" fill="#FCEC3B"/>
<path d="M118.004 148.717C118.534 147.341 117.848 145.796 116.472 145.267C115.096 144.737 113.551 145.423 113.022 146.799C112.492 148.175 113.178 149.72 114.554 150.249C115.93 150.779 117.474 150.093 118.004 148.717Z" fill="#FFADDF"/>
<path d="M14.6493 81.2926C14.3111 80.3698 13.2889 79.8958 12.3659 80.2342C11.4433 80.5723 10.9692 81.5947 11.3075 82.5175C11.6457 83.4404 12.6683 83.9142 13.5909 83.576C14.5138 83.2377 14.9876 82.2155 14.6493 81.2926Z" fill="white" stroke="#74777C" stroke-width="0.667796" stroke-linecap="round" stroke-linejoin="round"/>
<path d="M118.399 121.674C118.664 120.986 119.437 120.643 120.125 120.908C120.814 121.173 121.157 121.946 120.892 122.634C120.627 123.322 119.854 123.665 119.166 123.401C118.477 123.136 118.134 122.363 118.399 121.674Z" fill="white" stroke="#74777C" stroke-width="0.667796" stroke-linecap="round" stroke-linejoin="round"/>
<path d="M99.1602 158.634C99.5577 157.602 99.043 156.442 98.0102 156.045C96.9778 155.647 95.8184 156.162 95.4209 157.195C95.0234 158.227 95.5386 159.387 96.5708 159.784C97.6036 160.182 98.7627 159.667 99.1602 158.634Z" fill="#7AD0D7"/>
<line x1="69.3528" y1="92.4113" x2="53.0355" y2="47.894" stroke="#616161" stroke-width="0.667796" stroke-linecap="round" stroke-dasharray="3.34 3.34"/>
<line x1="48.8932" y1="98.9637" x2="44.6181" y2="51.7433" stroke="#616161" stroke-width="0.667796" stroke-linecap="round" stroke-dasharray="3.34 3.34"/>
<circle cx="46.5275" cy="26.5968" r="24.8086" transform="rotate(2.46635 46.5275 26.5968)" fill="#FCEC3B" stroke="#616161" stroke-width="0.467457"/>
<path d="M46.8549 36.6655L46.4919 33.3195L48.2844 33.125L48.6474 36.4711L46.8549 36.6655ZM44.8609 18.2861L44.4901 14.8684L46.2826 14.6739L46.6534 18.0917L44.8609 18.2861ZM47.8301 34.2867C46.7307 34.4059 45.7044 34.3077 44.7512 33.992C43.798 33.6762 42.979 33.1847 42.294 32.5175C41.6072 31.8343 41.1067 31.01 40.7924 30.0446L42.3975 29.4594L42.6655 29.4786C42.9134 30.1288 43.2898 30.7006 43.7947 31.1939C44.2979 31.6713 44.8775 32.0357 45.5335 32.2869C46.2054 32.5365 46.8999 32.6223 47.6169 32.5445C48.3976 32.4598 49.069 32.258 49.6308 31.9391C50.2087 31.6185 50.6407 31.217 50.9269 30.7345C51.2273 30.2344 51.3455 29.6896 51.2815 29.1C51.1951 28.3034 50.9063 27.7221 50.4153 27.3562C49.9224 26.9744 49.2824 26.7214 48.4951 26.5973L45.1222 26.0443C43.7918 25.8178 42.7497 25.3505 41.9958 24.6424C41.2418 23.9343 40.8096 23.0703 40.6989 22.0506C40.6039 21.1742 40.7439 20.3852 41.1192 19.6835C41.5087 18.9642 42.089 18.3692 42.8601 17.8987C43.6312 17.4281 44.5426 17.1358 45.5942 17.0217C46.6299 16.9093 47.5836 17.0073 48.4554 17.3158C49.3414 17.6066 50.0933 18.0731 50.7111 18.7154C51.3448 19.356 51.8003 20.1368 52.0776 21.0579L50.4434 21.5979L50.1753 21.5786C49.861 20.6132 49.3054 19.8755 48.5085 19.3655C47.7116 18.8554 46.8033 18.6558 45.7835 18.7664C44.7319 18.8805 43.9142 19.2191 43.3305 19.7822C42.7626 20.3435 42.5237 21.0385 42.6136 21.867C42.6844 22.5203 42.9663 23.0378 43.4591 23.4196C43.9519 23.8015 44.6335 24.066 45.5039 24.2134L48.8768 24.7664C50.1241 24.9696 51.1238 25.4173 51.876 26.1096C52.6265 26.7858 53.0622 27.6816 53.1832 28.797C53.2886 29.7689 53.1342 30.6482 52.7197 31.4347C52.3195 32.2036 51.6957 32.8436 50.8484 33.3547C50.0153 33.8481 49.0092 34.1587 47.8301 34.2867Z" fill="#616161"/>
<path d="M66.3574 24.9717C67.5104 35.5997 59.683 45.1756 48.8612 46.3497C38.0393 47.5238 28.3403 39.8494 27.1873 29.2214C26.0342 18.5934 33.8617 9.01755 44.6835 7.84346C55.5053 6.66936 65.2043 14.3438 66.3574 24.9717Z" stroke="#2B5C4F" stroke-width="0.667796"/>
</svg>
