<svg width="128" height="186" viewBox="0 0 128 186" fill="none" xmlns="http://www.w3.org/2000/svg">
<path d="M57.0823 74.0954L73.5287 124.914C73.8496 125.908 74.0152 127 74.0128 128.106C74.0104 129.212 73.8402 130.303 73.515 131.296L56.8513 182.042C56.0636 184.444 54.4677 185.955 52.7241 185.951L39.5393 185.92C37.7987 185.916 36.2062 184.398 35.4289 181.992L18.9856 131.178C18.6647 130.184 18.4991 129.092 18.5015 127.986C18.5039 126.88 18.6741 125.789 18.9993 124.796L35.66 74.0455C36.0359 72.8787 36.6221 71.8937 37.3518 71.2026C38.0815 70.5115 38.9253 70.1422 39.7871 70.1368L52.972 70.1675C54.7156 70.1716 56.305 71.6898 57.0823 74.0954Z" fill="#2B5C4F"/>
<path d="M51.4863 76.375L35.6789 128.76L51.2661 179.264M23.1859 128.731L35.6697 128.76L23.1859 128.731Z" fill="#2B5C4F"/>
<path d="M51.4863 76.375L35.6789 128.76L51.2661 179.264M23.1859 128.731L35.6697 128.76" stroke="#F7F8F8" stroke-width="0.722155" stroke-linecap="round" stroke-linejoin="round"/>
<ellipse cx="45.7043" cy="41.5877" rx="17.5031" ry="16.5819" fill="#FCEC3B"/>
<line x1="66.8219" y1="33.3042" x2="104.285" y2="24.7062" stroke="black" stroke-width="0.614144" stroke-dasharray="1.23 1.23"/>
<line x1="63.9545" y1="52.3655" x2="90.9769" y2="65.2625" stroke="black" stroke-width="0.614144" stroke-dasharray="1.23 1.23"/>
<circle cx="25.6244" cy="25.6244" r="25.3871" transform="matrix(0.824162 -0.566354 0.078396 0.996922 81.166 37.9902)" fill="#F0F0F0" stroke="black" stroke-width="0.474525"/>
<path d="M102.543 39.7176C107.084 36.218 113.4 37.4749 116.141 38.2679C116.937 38.4984 117.205 39.7097 116.721 41.0465C115.188 45.2864 111.372 54.2613 105.161 59.0083C98.9424 63.7604 93.7112 61.6862 91.4669 60.3367C90.7601 59.9117 90.6856 58.5714 91.2669 57.2949C93.2687 52.8988 98.0349 43.1915 102.543 39.7176Z" fill="#F7F8F8" stroke="#616161" stroke-width="0.341749"/>
<path d="M104.211 38.2358C108.516 34.9166 114.553 36.4389 117.142 37.3326C117.891 37.591 118.145 38.7446 117.705 40.0308C116.297 44.1567 112.729 53.0176 106.829 57.5265C100.922 62.041 95.9156 59.7172 93.7987 58.2897C93.1398 57.8453 93.0687 56.5709 93.6046 55.3379C95.4604 51.0687 99.9377 41.5306 104.211 38.2358Z" fill="#F7F8F8" stroke="#616161" stroke-width="0.341749"/>
<path d="M104.785 42.7926C106.84 41.1948 108.835 42.2101 109.242 45.0615C109.648 47.9119 108.313 51.5188 106.259 53.1166C104.204 54.7145 102.209 53.6977 101.802 50.8478C101.395 47.9964 102.731 44.3905 104.785 42.7926Z" fill="#FFADDF"/>
<path d="M105.255 46.1116C105.989 45.541 106.702 45.9036 106.847 46.9219C106.992 47.9399 106.515 49.2281 105.782 49.7988C105.048 50.3694 104.335 50.0063 104.19 48.9885C104.045 47.9701 104.522 46.6823 105.255 46.1116Z" fill="#2B5C4F"/>
<line x1="70.6364" y1="41.2868" x2="85.99" y2="44.3575" stroke="#616161" stroke-width="0.614144"/>
<path d="M8.85608 70.0875C11.4 70.0875 13.4622 67.94 13.4622 65.2899C13.4622 62.6406 11.4 60.4922 8.85608 60.4922C6.31221 60.4922 4.25 62.6411 4.25 65.2899C4.25 67.94 6.31221 70.0875 8.85608 70.0875Z" fill="#FFADDF"/>
<path d="M2.29478 80.087C3.25041 80.087 4.0251 79.2803 4.0251 78.2847C4.0251 77.2895 3.25041 76.4824 2.29478 76.4824C1.33914 76.4824 0.564453 77.2897 0.564453 78.2847C0.564453 79.2803 1.33914 80.087 2.29478 80.087Z" fill="white" stroke="#74777C" stroke-width="0.614144" stroke-linecap="round" stroke-linejoin="round"/>
<path d="M82.7479 12.2804C83.7035 12.2804 84.4782 11.4736 84.4782 10.4781C84.4782 9.48287 83.7035 8.67578 82.7479 8.67578C81.7923 8.67578 81.0176 9.48304 81.0176 10.4781C81.0176 11.4736 81.7923 12.2804 82.7479 12.2804Z" fill="white" stroke="#74777C" stroke-width="0.614144" stroke-linecap="round" stroke-linejoin="round"/>
<path d="M64.9393 4.6046C65.8949 4.6046 66.6696 3.79785 66.6696 2.8023C66.6696 1.80709 65.8949 1 64.9393 1C63.9837 1 63.209 1.80726 63.209 2.8023C63.209 3.79785 63.9837 4.6046 64.9393 4.6046Z" fill="white" stroke="#74777C" stroke-width="0.614144" stroke-linecap="round" stroke-linejoin="round"/>
</svg>
