<svg width="180" height="187" viewBox="0 0 180 187" fill="none" xmlns="http://www.w3.org/2000/svg">
<g clip-path="url(#clip0_3458_557556)">
<path d="M51.1264 50.3915C52.166 50.3915 53.0087 49.549 53.0087 48.5092C53.0087 47.4699 52.166 46.627 51.1264 46.627C50.0869 46.627 49.2441 47.47 49.2441 48.5092C49.2441 49.549 50.0869 50.3915 51.1264 50.3915Z" fill="white" stroke="#74777C" stroke-linecap="round" stroke-linejoin="round"/>
<path d="M156.683 55.0692C157.723 55.0692 158.565 54.2267 158.565 53.187C158.565 52.1476 157.723 51.3047 156.683 51.3047C155.644 51.3047 154.801 52.1478 154.801 53.187C154.801 54.2267 155.644 55.0692 156.683 55.0692Z" fill="#FFADDF"/>
<path d="M137.31 155.279C138.35 155.279 139.192 154.437 139.192 153.397C139.192 152.358 138.35 151.515 137.31 151.515C136.27 151.515 135.428 152.358 135.428 153.397C135.428 154.437 136.27 155.279 137.31 155.279Z" fill="white" stroke="#74777C" stroke-linecap="round" stroke-linejoin="round"/>
<path d="M65.6141 33.0211C68.3814 33.0211 70.6247 30.7783 70.6247 28.0106C70.6247 25.2438 68.3814 23 65.6141 23C62.8468 23 60.6035 25.2443 60.6035 28.0106C60.6035 30.7783 62.8468 33.0211 65.6141 33.0211Z" fill="#2B5C4F"/>
<ellipse cx="17.712" cy="17.0022" rx="17.712" ry="17.0022" transform="matrix(0.976016 -0.2177 0.676541 0.736405 43.8359 152.857)" fill="#D9D9D9" fill-opacity="0.27"/>
<circle cx="95.0101" cy="100.741" r="50.7738" fill="#FFADDF"/>
<path d="M57.1328 66.2898C40.5095 65.7627 28.8224 69.0416 26.6988 76.036C22.9159 88.4962 50.9162 108.029 89.2393 119.664C127.562 131.299 161.738 131.313 165.521 118.853C167.86 111.15 161.356 102.087 145.641 93.8929" stroke="#74777C" stroke-linecap="round" stroke-linejoin="round" stroke-dasharray="6.5 6.5"/>
<path d="M26.1468 67.4008C26.4099 67.3162 26.6982 67.3784 26.903 67.564L37.1329 76.8328C37.3377 77.0184 37.4279 77.2991 37.3696 77.5693L34.4575 91.0631C34.3992 91.3332 34.2012 91.5517 33.9381 91.6363L20.7961 95.8613C20.533 95.9458 20.2448 95.8836 20.04 95.6981L9.81005 86.4292C9.60525 86.2437 9.515 85.9629 9.5733 85.6928L12.4854 72.199C12.5437 71.9288 12.7417 71.7103 13.0048 71.6257L26.1468 67.4008Z" fill="#9BDCE1" stroke="white" stroke-linecap="round" stroke-linejoin="round"/>
<path d="M20.8282 93.3152L23.3547 81.6081M23.3547 81.6081L33.78 77.7319M23.3547 81.6081L14.623 73.5976" stroke="white" stroke-linecap="round" stroke-linejoin="round"/>
<path d="M173.511 109.997L173.514 130.613L155.071 119.217L173.511 109.997Z" fill="#FCEC3B"/>
<path d="M173.357 130.499L155.098 141.797L155.098 119.143L173.357 130.499Z" fill="#FCEC3B"/>
</g>
<defs>
<clipPath id="clip0_3458_557556">
<rect width="180" height="187" fill="white"/>
</clipPath>
</defs>
</svg>
