<svg width="180" height="187" viewBox="0 0 180 187" fill="none" xmlns="http://www.w3.org/2000/svg">
<g clip-path="url(#clip0_3763_82806)">
<path d="M22.334 124.029L22.334 145.979L74 165.5" stroke="#616161" stroke-linecap="round" stroke-linejoin="round" stroke-dasharray="5 5"/>
<path d="M154.5 98.6587V126L87.0307 168.316" stroke="#616161" stroke-linecap="round" stroke-linejoin="round"/>
<path d="M46.8438 84C48.2245 84 49.3438 82.881 49.3438 81.5C49.3438 80.1195 48.2245 79 46.8438 79C45.463 79 44.3438 80.1198 44.3438 81.5C44.3438 82.881 45.463 84 46.8438 84Z" fill="#FFADDF"/>
<path d="M58.2411 108.813C58.9309 108.813 59.49 108.254 59.49 107.564C59.49 106.875 58.9309 106.315 58.2411 106.315C57.5513 106.315 56.9922 106.875 56.9922 107.564C56.9922 108.254 57.5513 108.813 58.2411 108.813Z" fill="white" stroke="#74777C" stroke-linecap="round" stroke-linejoin="round"/>
<path d="M130.009 65.3304C130.929 65.3304 131.674 64.5851 131.674 63.6652C131.674 62.7457 130.929 62 130.009 62C129.089 62 128.344 62.7459 128.344 63.6652C128.344 64.5851 129.089 65.3304 130.009 65.3304Z" fill="white" stroke="#74777C" stroke-linecap="round" stroke-linejoin="round"/>
<circle cx="8.53248" cy="8.53248" r="8.36183" transform="matrix(0.866025 -0.5 0.866025 0.5 140.943 115.325)" fill="white" stroke="#616161" stroke-width="0.341299"/>
<circle cx="8.53248" cy="8.53248" r="8.41695" transform="matrix(0.866025 -0.5 0.866025 0.5 140.943 113.277)" fill="#FCEC3B" stroke="#616161" stroke-width="0.231053"/>
<circle cx="8.53248" cy="8.53248" r="8.36183" transform="matrix(0.866025 -0.5 0.866025 0.5 140.943 109.499)" fill="white" stroke="#616161" stroke-width="0.341299"/>
<circle cx="8.53248" cy="8.53248" r="8.41695" transform="matrix(0.866025 -0.5 0.866025 0.5 140.943 107.451)" fill="#FCEC3B" stroke="#616161" stroke-width="0.231053"/>
<circle cx="8.53248" cy="8.53248" r="8.36183" transform="matrix(0.866025 -0.5 0.866025 0.5 140.943 103.034)" fill="white" stroke="#616161" stroke-width="0.341299"/>
<circle cx="8.53248" cy="8.53248" r="8.41695" transform="matrix(0.866025 -0.5 0.866025 0.5 140.943 100.986)" fill="#FCEC3B" stroke="#616161" stroke-width="0.231053"/>
<path d="M160.18 103.425L158.823 102.641L159.55 102.222L160.907 103.005L160.18 103.425ZM152.726 99.1213L151.34 98.321L152.067 97.9013L153.453 98.7016L152.726 99.1213ZM159.763 102.613C159.317 102.871 158.826 103.057 158.29 103.173C157.754 103.289 157.214 103.332 156.671 103.302C156.122 103.268 155.605 103.16 155.12 102.977L155.624 102.496L155.75 102.446C156.093 102.561 156.464 102.63 156.865 102.653C157.259 102.671 157.647 102.645 158.028 102.574C158.416 102.5 158.755 102.378 159.046 102.21C159.363 102.028 159.589 101.837 159.725 101.64C159.867 101.438 159.915 101.246 159.87 101.063C159.825 100.873 159.683 100.709 159.443 100.571C159.12 100.384 158.784 100.295 158.435 100.302C158.08 100.306 157.705 100.373 157.311 100.504L155.615 101.058C154.943 101.274 154.313 101.369 153.725 101.343C153.136 101.317 152.636 101.184 152.222 100.946C151.867 100.741 151.647 100.509 151.563 100.252C151.479 99.9869 151.524 99.7145 151.699 99.4347C151.873 99.1549 152.174 98.8918 152.6 98.6456C153.02 98.4031 153.479 98.2315 153.977 98.1307C154.474 98.0225 154.975 97.9871 155.479 98.0244C155.989 98.058 156.471 98.1643 156.923 98.3434L156.39 98.8191L156.264 98.8695C155.779 98.6866 155.269 98.612 154.733 98.6456C154.196 98.6792 153.721 98.8154 153.308 99.0541C152.881 99.3004 152.639 99.5559 152.581 99.8208C152.529 100.082 152.671 100.31 153.007 100.504C153.272 100.657 153.582 100.731 153.938 100.727C154.293 100.724 154.691 100.651 155.13 100.509L156.826 99.9552C157.453 99.75 158.057 99.6585 158.639 99.6809C159.214 99.6996 159.728 99.8395 160.18 100.101C160.574 100.328 160.82 100.586 160.917 100.873C161.014 101.153 160.965 101.446 160.771 101.752C160.578 102.05 160.242 102.337 159.763 102.613Z" fill="#616161"/>
<circle cx="8.53248" cy="8.53248" r="8.36183" transform="matrix(0.783938 0.62084 -0.145694 0.98933 164.117 97.7373)" fill="white" stroke="#616161" stroke-width="0.341299"/>
<circle cx="8.53248" cy="8.53248" r="8.41695" transform="matrix(0.783938 0.62084 -0.145694 0.98933 166.02 96.9824)" fill="#FCEC3B" stroke="#616161" stroke-width="0.231053"/>
<path d="M170.666 105.418L171.279 106.828L170.461 106.734L169.848 105.325L170.666 105.418ZM174.03 113.161L174.655 114.601L173.837 114.507L173.212 113.068L174.03 113.161ZM170.521 106.301C171.023 106.358 171.519 106.498 172.009 106.72C172.499 106.942 172.95 107.223 173.36 107.563C173.774 107.91 174.118 108.297 174.393 108.724L173.715 108.809L173.586 108.776C173.384 108.484 173.131 108.213 172.829 107.962C172.529 107.717 172.208 107.511 171.866 107.345C171.517 107.177 171.179 107.075 170.851 107.037C170.495 106.996 170.206 107.014 169.983 107.091C169.754 107.167 169.603 107.29 169.532 107.461C169.457 107.637 169.473 107.849 169.581 108.098C169.727 108.433 169.939 108.7 170.219 108.898C170.501 109.102 170.836 109.268 171.223 109.395L172.883 109.949C173.539 110.17 174.091 110.463 174.54 110.827C174.988 111.191 175.306 111.588 175.492 112.017C175.653 112.386 175.691 112.697 175.607 112.949C175.518 113.207 175.324 113.395 175.023 113.514C174.722 113.632 174.332 113.664 173.852 113.61C173.379 113.556 172.917 113.423 172.466 113.212C172.011 113.007 171.595 112.742 171.22 112.419C170.837 112.094 170.52 111.73 170.268 111.324L170.965 111.261L171.094 111.294C171.369 111.721 171.728 112.078 172.171 112.365C172.613 112.651 173.067 112.821 173.532 112.874C174.012 112.929 174.352 112.869 174.553 112.694C174.746 112.519 174.767 112.256 174.615 111.907C174.496 111.632 174.295 111.392 174.012 111.188C173.73 110.983 173.374 110.809 172.945 110.664L171.285 110.111C170.671 109.906 170.141 109.626 169.696 109.269C169.253 108.918 168.93 108.508 168.726 108.038C168.548 107.629 168.505 107.283 168.596 107C168.683 106.722 168.892 106.52 169.224 106.392C169.551 106.27 169.983 106.239 170.521 106.301Z" fill="#616161"/>
<path d="M130.283 108.426V140.613L85.6876 169.09L85.6876 137.652C85.1437 124.406 87.0334 101.946 107.221 92.6968C127.409 83.4471 130.283 108.426 130.283 108.426Z" fill="white" stroke="#505967" stroke-width="1.00301" stroke-linejoin="round"/>
<path d="M89.2104 92.022C101.599 84.5397 119.932 91.187 119.932 91.187C95.6926 92.0309 85.9784 114.469 85.4398 128.685V169.09L70.8961 165.349C70.8961 160.859 70.3574 142.009 70.3574 130.785C70.3574 107.735 81.4782 96.6918 89.2104 92.022Z" fill="white" stroke="#505967" stroke-width="1.00301" stroke-linejoin="round"/>
<path d="M108.082 24.0571L120.462 49.8742C120.704 50.3793 120.829 50.9339 120.827 51.4956C120.826 52.0573 120.699 52.6113 120.455 53.1153L107.968 78.8775C107.377 80.0969 106.18 80.8633 104.87 80.8602L94.9676 80.8374C93.6603 80.8344 92.4634 80.0625 91.8783 78.8404L79.5007 53.0257C79.2591 52.5205 79.1341 51.9659 79.1353 51.4042C79.1365 50.8426 79.2638 50.2886 79.5074 49.7845L91.9927 24.02C92.2744 23.4277 92.7141 22.9277 93.2618 22.5771C93.8095 22.2266 94.443 22.0395 95.0902 22.0372L104.993 22.0601C106.302 22.0631 107.497 22.835 108.082 24.0571Z" fill="#9BDCE1" stroke="#F7F8F8" stroke-width="1.08955" stroke-linecap="round" stroke-linejoin="round"/>
<path d="M103.881 25.2119L92.0374 51.8068L103.772 77.4639M82.6545 51.7852L92.0304 51.8068L82.6545 51.7852Z" fill="#9BDCE1"/>
<path d="M103.881 25.2119L92.0374 51.8068L103.772 77.4639M82.6545 51.7852L92.0304 51.8068" stroke="#F7F8F8" stroke-width="1.08955" stroke-linecap="round" stroke-linejoin="round"/>
<path d="M133.842 49.9957C135.221 49.9957 136.339 48.8776 136.339 47.4978C136.339 46.1186 135.221 45 133.842 45C132.462 45 131.344 46.1188 131.344 47.4978C131.344 48.8776 132.462 49.9957 133.842 49.9957Z" fill="#4E7E71"/>
<path d="M18.9005 125.965L28.1714 120.523C28.5375 120.307 28.9778 120.293 29.3572 120.484L38.9632 125.31C39.4177 125.539 39.7152 126.024 39.7329 126.565L40.0704 136.908C40.0881 137.45 39.8228 137.954 39.3842 138.211L30.1133 143.654C29.7472 143.87 29.3069 143.884 28.9275 143.693L19.3215 138.866C19.0987 138.754 18.9087 138.577 18.7728 138.355C18.6369 138.134 18.5604 137.876 18.5518 137.611L18.2142 127.267C18.1966 126.725 18.4619 126.223 18.9005 125.965Z" fill="#2B5C4F" stroke="#F7F8F8" stroke-linecap="round" stroke-linejoin="round"/>
<path d="M29.6774 131.826L36.1305 128.331" stroke="#F7F8F8" stroke-width="0.718961" stroke-linecap="round" stroke-linejoin="round"/>
<path d="M30.1101 139.473L29.6562 131.833L30.1101 139.473Z" fill="#2B5C4F"/>
<path d="M23 128.428L29.6547 131.835M30.1101 139.473L29.6562 131.833" stroke="#F7F8F8" stroke-width="0.718961" stroke-linecap="round" stroke-linejoin="round"/>
<path d="M0.900468 128.9L10.1714 123.458C10.5375 123.243 10.9778 123.229 11.3572 123.42L20.9632 128.245C21.4177 128.475 21.7152 128.96 21.7329 129.5L22.0704 139.844C22.0881 140.386 21.8228 140.889 21.3842 141.146L12.1133 146.59C11.7472 146.805 11.3069 146.819 10.9275 146.628L1.32147 141.801C1.09869 141.689 0.908727 141.513 0.772805 141.291C0.636882 141.069 0.560357 140.812 0.551783 140.546L0.214237 130.203C0.196555 129.661 0.461893 129.159 0.900468 128.9Z" fill="#2B5C4F" stroke="#F7F8F8" stroke-linecap="round" stroke-linejoin="round"/>
<path d="M11.2668 135.473L17.462 132.118" stroke="#F7F8F8" stroke-width="0.690214" stroke-linecap="round" stroke-linejoin="round"/>
<path d="M11.6812 142.814L11.2455 135.48L11.6812 142.814Z" fill="#2B5C4F"/>
<path d="M4.85547 132.211L11.2441 135.481M11.6812 142.814L11.2455 135.48" stroke="#F7F8F8" stroke-width="0.690214" stroke-linecap="round" stroke-linejoin="round"/>
<path d="M8.06648 112.281L17.3374 106.839C17.7035 106.624 18.1438 106.609 18.5232 106.8L28.1292 111.626C28.5837 111.856 28.8812 112.341 28.8989 112.881L29.2364 123.225C29.2541 123.767 28.9888 124.27 28.5502 124.527L19.2793 129.971C18.9132 130.186 18.4729 130.2 18.0935 130.009L8.48749 125.182C8.26471 125.07 8.07474 124.893 7.93882 124.672C7.8029 124.45 7.72637 124.192 7.7178 123.927L7.38025 113.584C7.36257 113.042 7.62791 112.539 8.06648 112.281Z" fill="#2B5C4F" stroke="#F7F8F8" stroke-linecap="round" stroke-linejoin="round"/>
<path d="M18.2705 118.396L24.331 115.115" stroke="#F7F8F8" stroke-width="0.675218" stroke-linecap="round" stroke-linejoin="round"/>
<path d="M18.6775 125.58L18.2512 118.404L18.6775 125.58Z" fill="#2B5C4F"/>
<path d="M12 115.207L18.2498 118.406M18.6775 125.58L18.2512 118.404" stroke="#F7F8F8" stroke-width="0.675218" stroke-linecap="round" stroke-linejoin="round"/>
</g>
<defs>
<clipPath id="clip0_3763_82806">
<rect width="180" height="187" fill="white"/>
</clipPath>
</defs>
</svg>
