<svg width="180" height="187" viewBox="0 0 180 187" fill="none" xmlns="http://www.w3.org/2000/svg">
<path d="M113.246 30.4296C115.06 30.4296 116.53 28.9594 116.53 27.145C116.53 25.3312 115.06 23.8604 113.246 23.8604C111.432 23.8604 109.961 25.3316 109.961 27.145C109.961 28.9594 111.432 30.4296 113.246 30.4296Z" fill="#FCEC3B"/>
<path d="M146.66 64.3937C147.87 64.3937 148.85 63.4135 148.85 62.2039C148.85 60.9948 147.87 60.0142 146.66 60.0142C145.451 60.0142 144.471 60.995 144.471 62.2039C144.471 63.4135 145.451 64.3937 146.66 64.3937Z" fill="white" stroke="#74777C" stroke-linecap="round" stroke-linejoin="round"/>
<path d="M101.467 18.3795C102.676 18.3795 103.657 17.3993 103.657 16.1898C103.657 14.9806 102.676 14 101.467 14C100.258 14 99.2773 14.9808 99.2773 16.1898C99.2773 17.3993 100.258 18.3795 101.467 18.3795Z" fill="white" stroke="#74777C" stroke-linecap="round" stroke-linejoin="round"/>
<path d="M30.3718 66.8483C31.0548 67.4459 31.1242 68.484 30.5264 69.1672C29.9289 69.8502 28.8906 69.9195 28.2075 69.3219C27.5244 68.7242 27.4554 67.6858 28.0528 67.0029C28.6506 66.3198 29.6887 66.2506 30.3718 66.8483Z" fill="white" stroke="#74777C" stroke-linecap="round" stroke-linejoin="round"/>
<path d="M14.8549 79.316C15.8795 80.2125 17.4367 80.1088 18.3333 79.084C19.2296 78.0596 19.1259 76.5021 18.1013 75.6056C17.0767 74.7091 15.5191 74.8134 14.6229 75.8376C13.7263 76.8624 13.8303 78.4196 14.8549 79.316Z" fill="#7AD0D7"/>
<path d="M146.387 28.1145C146.542 28.0246 146.734 28.0246 146.89 28.1145L154.667 32.6049C154.823 32.6948 154.919 32.861 154.919 33.0408V42.0216C154.919 42.2014 154.823 42.3676 154.667 42.4575L146.89 46.9479C146.734 47.0378 146.542 47.0378 146.387 46.9479L138.609 42.4575C138.453 42.3676 138.357 42.2014 138.357 42.0216V33.0408C138.357 32.861 138.453 32.6948 138.609 32.6049L146.387 28.1145Z" fill="#F4F6F6" stroke="#74777C" stroke-linecap="round" stroke-linejoin="round"/>
<path d="M146.562 45.3232L146.562 37.5316M146.562 37.5316L152.66 33.6357M146.562 37.5316L139.91 33.6357" stroke="#74777C" stroke-linecap="round" stroke-linejoin="round"/>
<path d="M47.1034 94.7673C31.5355 92.8143 21.1802 94.7964 23.3604 106.331C26.0856 120.749 152.454 160.204 163.265 138.897C168.248 129.076 149.39 121.109 139.546 117.943" stroke="#616161" stroke-linejoin="round" stroke-dasharray="5.6 5.6"/>
<path d="M131.51 93.3952C146.032 89.9852 152.14 90.7187 150.433 101.189C148.299 114.278 31.1061 162.902 20.365 145.159C15.4143 136.98 32.8425 127.878 41.9693 124.009" stroke="#616161" stroke-linejoin="round" stroke-dasharray="5.6 5.6"/>
<path d="M103.247 38.7563C103.99 38.0198 105.245 38.293 105.614 39.2715L140.563 131.808C141.013 133.001 139.809 134.149 138.638 133.643L88.8118 112.076C88.6397 112.002 88.4548 111.961 88.2673 111.958L33.9897 110.867C32.7146 110.842 32.0964 109.296 33.0021 108.398L103.247 38.7563Z" fill="#2B5C4F"/>
<circle cx="95.6858" cy="78.374" r="5.53241" transform="rotate(12.2782 95.6858 78.374)" stroke="white"/>
<path d="M84.3597 97.8151L89.8851 85.7454L98.0709 87.5269L99.119 101.027L84.3597 97.8151Z" stroke="white"/>
<line x1="104.26" y1="44.0708" x2="40.9882" y2="106.825" stroke="white"/>
</svg>
