<svg width="130" height="130" viewBox="0 0 130 130" fill="none" xmlns="http://www.w3.org/2000/svg">
<g filter="url(#filter0_f_3946_410414)">
<path d="M32.1147 95.986C21.1141 76.0459 16.0279 58.2131 36.0059 47.1916C55.9839 36.17 86.3563 37.8244 97.3569 57.7645C108.358 77.7046 107.088 99.935 87.1102 110.957C67.1322 121.978 43.1154 115.926 32.1147 95.986Z" fill="url(#paint0_radial_3946_410414)" fill-opacity="0.4"/>
</g>
<path opacity="0.1" d="M38.287 96.0552C22.5798 79.5655 22.6 50.0194 39.0897 34.3122C55.5793 18.605 80.5388 20.9349 96.246 37.4246C111.953 53.9142 113.791 73.4135 97.3013 89.1207C80.8117 104.828 53.9942 112.545 38.287 96.0552Z" fill="url(#paint1_linear_3946_410414)"/>
<path opacity="0.2" d="M26.8046 72.3214C21.1764 50.2546 33.8197 27.6604 55.8866 22.0322C77.9535 16.404 102.749 33.8483 108.378 55.9152C114.006 77.9821 101.896 92.6883 79.8296 98.3165C57.7627 103.945 32.4329 94.3883 26.8046 72.3214Z" fill="url(#paint2_linear_3946_410414)"/>
<path opacity="0.5" d="M84.7004 104.001C61.6013 111.917 32.8228 98.6561 24.9105 75.566C17.0008 52.4835 30.4352 29.2163 53.5423 21.2982C65.1064 17.3355 75.8307 17.0986 84.6464 20.726C93.4583 24.3519 100.387 31.8483 104.346 43.4014C108.308 54.965 109.163 68.1479 106.14 79.4239C103.118 90.6968 96.2264 100.052 84.7004 104.001Z" stroke="url(#paint3_linear_3946_410414)" stroke-width="0.328646"/>
<path d="M32.0202 47.0806C36.1989 36.5152 42.2685 28.8195 49.9189 24.8061C57.5648 20.7951 66.8152 20.4486 77.3885 24.6304C87.9697 28.8153 96.3871 35.6312 101.116 44.028C105.844 52.4209 106.892 62.4033 102.723 72.9458C98.5445 83.5099 91.9826 92.0641 83.834 96.9322C75.6906 101.797 65.9516 102.988 55.3902 98.811C34.2511 90.4503 23.6803 68.1673 32.0202 47.0806Z" fill="url(#paint4_radial_3946_410414)" stroke="url(#paint5_linear_3946_410414)" stroke-width="0.328646"/>
<g style="mix-blend-mode:soft-light">
<path d="M53.749 67.5015C52.9662 67.5015 52.5748 67.5015 52.2759 67.3478C52.0129 67.2126 51.799 66.997 51.665 66.7317C51.5127 66.4301 51.5127 66.0353 51.5127 65.2458V54.5135C51.5127 53.7239 51.5127 53.3292 51.665 53.0276C51.799 52.7623 52.0129 52.5466 52.2759 52.4115C52.5748 52.2578 52.9662 52.2578 53.749 52.2578H57.0944C57.4363 52.2578 57.6072 52.2578 57.7681 52.2968C57.9107 52.3313 58.047 52.3883 58.1721 52.4656C58.3131 52.5527 58.434 52.6747 58.6757 52.9185L66.538 60.8489V54.5135C66.538 53.7239 66.538 53.3292 66.6903 53.0276C66.8243 52.7623 67.0381 52.5466 67.3011 52.4115C67.6001 52.2578 67.9915 52.2578 68.7743 52.2578H74.4437C78.6169 52.2578 82 55.6702 82 59.8796C82 64.0891 78.6169 67.5015 74.4437 67.5015H74.0597C73.7178 67.5015 73.5469 67.5015 73.386 67.4625C73.2434 67.428 73.1071 67.371 72.982 67.2937C72.8409 67.2065 72.7201 67.0846 72.4783 66.8408L66.538 60.8489V65.2458C66.538 66.0353 66.538 66.4301 66.3856 66.7317C66.2516 66.997 66.0378 67.2126 65.7748 67.3478C65.4758 67.5015 65.0844 67.5015 64.3016 67.5015H53.749Z" fill="white"/>
</g>
<defs>
<filter id="filter0_f_3946_410414" x="0.0915527" y="18.0623" width="126.513" height="120.692" filterUnits="userSpaceOnUse" color-interpolation-filters="sRGB">
<feFlood flood-opacity="0" result="BackgroundImageFix"/>
<feBlend mode="normal" in="SourceGraphic" in2="BackgroundImageFix" result="shape"/>
<feGaussianBlur stdDeviation="11.174" result="effect1_foregroundBlur_3946_410414"/>
</filter>
<radialGradient id="paint0_radial_3946_410414" cx="0" cy="0" r="1" gradientUnits="userSpaceOnUse" gradientTransform="translate(21.2038 49.6748) rotate(23.0618) scale(101.836 96.8977)">
<stop stop-color="#FCEC3B"/>
<stop offset="0.425" stop-color="#FFAFDF"/>
<stop offset="0.925" stop-color="#99DBE0"/>
</radialGradient>
<linearGradient id="paint1_linear_3946_410414" x1="79.1662" y1="115.746" x2="91.8371" y2="31.0311" gradientUnits="userSpaceOnUse">
<stop stop-color="#FCEC3B"/>
<stop offset="0.425" stop-color="#FFAFDF"/>
<stop offset="0.925" stop-color="#99DBE0"/>
</linearGradient>
<linearGradient id="paint2_linear_3946_410414" x1="17.5563" y1="82.2919" x2="104.33" y2="83.4153" gradientUnits="userSpaceOnUse">
<stop stop-color="#FCEC3B"/>
<stop offset="0.425" stop-color="#FFAFDF"/>
<stop offset="0.925" stop-color="#99DBE0"/>
</linearGradient>
<linearGradient id="paint3_linear_3946_410414" x1="41.1314" y1="9.65692" x2="43.6125" y2="102.732" gradientUnits="userSpaceOnUse">
<stop stop-color="#FCEC3B"/>
<stop offset="0.425" stop-color="#FFAFDF"/>
<stop offset="0.925" stop-color="#99DBE0"/>
</linearGradient>
<radialGradient id="paint4_radial_3946_410414" cx="0" cy="0" r="1" gradientUnits="userSpaceOnUse" gradientTransform="translate(68.6507 99.6402) rotate(-18.9212) scale(99.3706 97.0264)">
<stop stop-color="#F1E13A"/>
<stop offset="0.425" stop-color="#FFAFDF"/>
<stop offset="0.925" stop-color="#99DBE0"/>
</radialGradient>
<linearGradient id="paint5_linear_3946_410414" x1="22.0264" y1="85.9405" x2="102.329" y2="81.2273" gradientUnits="userSpaceOnUse">
<stop stop-color="#F0E02C"/>
<stop offset="0.425" stop-color="#EDA1CF"/>
<stop offset="1" stop-color="#95C9CD"/>
</linearGradient>
</defs>
</svg>
