<svg width="294" height="310" viewBox="0 0 294 310" fill="none" xmlns="http://www.w3.org/2000/svg">
<path opacity="0.1" d="M64.4475 262.682C16.6538 212.507 16.7153 122.604 66.8899 74.8105C117.064 27.0168 193.011 34.1062 240.805 84.2808C288.598 134.455 294.19 193.788 244.016 241.581C193.841 289.375 112.241 312.856 64.4475 262.682Z" fill="url(#paint0_linear_3547_598981)"/>
<path opacity="0.2" d="M29.509 190.465C12.3835 123.321 50.8545 54.5713 117.999 37.4458C185.144 20.3203 260.593 73.3997 277.718 140.545C294.844 207.69 257.998 252.438 190.853 269.563C123.708 286.689 46.6346 257.61 29.509 190.465Z" fill="url(#paint1_linear_3547_598981)"/>
<path opacity="0.5" d="M205.672 286.853C135.386 310.938 47.8192 270.588 23.7438 200.33C-0.323788 130.095 40.5542 59.2977 110.864 35.2045C146.051 23.1469 178.683 22.4261 205.508 33.4635C232.32 44.4962 253.402 67.3063 265.448 102.46C277.505 137.646 280.105 177.758 270.908 212.069C261.713 246.37 240.743 274.835 205.672 286.853Z" stroke="url(#paint2_linear_3547_598981)"/>
<path d="M44.9149 113.482C70.4004 49.0443 119.05 19.3554 183.61 44.8894C248.17 70.4234 286.463 128.114 260.978 192.552C235.492 256.989 180.866 297.069 116.306 271.535C51.7459 246.001 19.4293 177.919 44.9149 113.482Z" fill="white"/>
<path d="M117.281 174.5C115.433 174.5 114.508 174.5 113.802 174.137C113.181 173.818 112.676 173.309 112.36 172.682C112 171.97 112 171.038 112 169.173V143.827C112 141.962 112 141.03 112.36 140.318C112.676 139.691 113.181 139.182 113.802 138.863C114.508 138.5 115.433 138.5 117.281 138.5H125.182C125.989 138.5 126.393 138.5 126.773 138.592C127.11 138.674 127.432 138.808 127.727 138.991C128.06 139.197 128.346 139.484 128.917 140.06L147.484 158.789V143.827C147.484 141.962 147.484 141.03 147.844 140.318C148.16 139.691 148.665 139.182 149.287 138.863C149.993 138.5 150.917 138.5 152.766 138.5H166.155C176.01 138.5 184 146.559 184 156.5C184 166.441 176.01 174.5 166.155 174.5H165.248C164.44 174.5 164.037 174.5 163.657 174.408C163.32 174.326 162.998 174.192 162.703 174.009C162.37 173.803 162.084 173.516 161.513 172.94L147.484 158.789V169.173C147.484 171.038 147.484 171.97 147.124 172.682C146.808 173.309 146.303 173.818 145.682 174.137C144.976 174.5 144.052 174.5 142.203 174.5H117.281Z" fill="url(#paint3_radial_3547_598981)"/>
<defs>
<linearGradient id="paint0_linear_3547_598981" x1="188.834" y1="322.598" x2="227.389" y2="64.8266" gradientUnits="userSpaceOnUse">
<stop stop-color="#FCEC3B"/>
<stop offset="0.425" stop-color="#FFAFDF"/>
<stop offset="0.925" stop-color="#99DBE0"/>
</linearGradient>
<linearGradient id="paint1_linear_3547_598981" x1="1.36837" y1="220.803" x2="265.403" y2="224.222" gradientUnits="userSpaceOnUse">
<stop stop-color="#FCEC3B"/>
<stop offset="0.425" stop-color="#FFAFDF"/>
<stop offset="0.925" stop-color="#99DBE0"/>
</linearGradient>
<linearGradient id="paint2_linear_3547_598981" x1="73.1004" y1="-0.217536" x2="80.6501" y2="282.992" gradientUnits="userSpaceOnUse">
<stop stop-color="#FCEC3B"/>
<stop offset="0.425" stop-color="#FFAFDF"/>
<stop offset="0.925" stop-color="#99DBE0"/>
</linearGradient>
<radialGradient id="paint3_radial_3547_598981" cx="0" cy="0" r="1" gradientUnits="userSpaceOnUse" gradientTransform="translate(176.274 145.367) rotate(-159.749) scale(80.2931 53.3221)">
<stop stop-color="#F1E13A"/>
<stop offset="0.425" stop-color="#FFAFDF"/>
<stop offset="0.925" stop-color="#99DBE0"/>
</radialGradient>
</defs>
</svg>
